<?xml version="1.0" encoding="iso-8859-1"?>
<!-- Generator: Adobe Illustrator 20.1.0, SVG Export Plug-In . SVG Version: 6.00 Build 0)  -->
<svg xmlns="http://www.w3.org/2000/svg" xmlns:xlink="http://www.w3.org/1999/xlink" version="1.1" id="&#1057;&#1083;&#1086;&#1081;_1" x="0px" y="0px" viewBox="0 0 64 64" style="enable-background:new 0 0 64 64;" xml:space="preserve">
<linearGradient id="SVGID_1__48257" gradientUnits="userSpaceOnUse" x1="32" y1="6.75" x2="32" y2="15.75" spreadMethod="reflect">
	<stop offset="0" style="stop-color:#6DC7FF"/>
	<stop offset="1" style="stop-color:#E6ABFF"/>
</linearGradient>
<rect x="12" y="8" style="fill:url(#SVGID_1__48257);" width="40" height="6"/>
<linearGradient id="SVGID_2__48257" gradientUnits="userSpaceOnUse" x1="31.3792" y1="5.6762" x2="32.6292" y2="58.6762" spreadMethod="reflect">
	<stop offset="0" style="stop-color:#1A6DFF"/>
	<stop offset="1" style="stop-color:#C822FF"/>
</linearGradient>
<path style="fill:url(#SVGID_2__48257);" d="M51,6H13c-1.654,0-3,1.346-3,3v46c0,1.654,1.346,3,3,3h38c1.654,0,3-1.346,3-3V9  C54,7.346,52.654,6,51,6z M13,8h38c0.551,0,1,0.448,1,1v5H12V9C12,8.448,12.449,8,13,8z M51,56H13c-0.551,0-1-0.448-1-1V16h40v39  C52,55.552,51.551,56,51,56z"/>
<linearGradient id="SVGID_3__48257" gradientUnits="userSpaceOnUse" x1="31.6384" y1="5.6701" x2="32.8884" y2="58.6701" spreadMethod="reflect">
	<stop offset="0" style="stop-color:#1A6DFF"/>
	<stop offset="1" style="stop-color:#C822FF"/>
</linearGradient>
<path style="fill:url(#SVGID_3__48257);" d="M46,18H18c-1.103,0-2,0.897-2,2v2c0,1.103,0.897,2,2,2h28c1.103,0,2-0.897,2-2v-2  C48,18.897,47.103,18,46,18z M42,20v2H22v-2H42z M18,20h2v2h-2V20z M46,22h-2v-2h2V22z"/>
<linearGradient id="SVGID_4__48257" gradientUnits="userSpaceOnUse" x1="22.337" y1="5.8895" x2="23.587" y2="58.8895" spreadMethod="reflect">
	<stop offset="0" style="stop-color:#1A6DFF"/>
	<stop offset="1" style="stop-color:#C822FF"/>
</linearGradient>
<path style="fill:url(#SVGID_4__48257);" d="M28,26H18c-1.103,0-2,0.897-2,2v9v1v2c0,1.103,0.897,2,2,2h10c1.103,0,2-0.897,2-2v-2v-2v-8  C30,26.897,29.103,26,28,26z M28,40H18v-2h10V40z M18,36v-8h10v8H18z"/>
<linearGradient id="SVGID_5__48257" gradientUnits="userSpaceOnUse" x1="40.327" y1="5.4652" x2="41.577" y2="58.4652" spreadMethod="reflect">
	<stop offset="0" style="stop-color:#1A6DFF"/>
	<stop offset="1" style="stop-color:#C822FF"/>
</linearGradient>
<path style="fill:url(#SVGID_5__48257);" d="M46,26H36c-1.103,0-2,0.897-2,2v9v1v2c0,1.103,0.897,2,2,2h10c1.103,0,2-0.897,2-2v-2v-2v-8  C48,26.897,47.103,26,46,26z M46,40H36v-2h10V40z M36,36v-8h10v8H36z"/>
<linearGradient id="SVGID_6__48257" gradientUnits="userSpaceOnUse" x1="22.0777" y1="5.8956" x2="23.3277" y2="58.8956" spreadMethod="reflect">
	<stop offset="0" style="stop-color:#1A6DFF"/>
	<stop offset="1" style="stop-color:#C822FF"/>
</linearGradient>
<rect x="16" y="44" style="fill:url(#SVGID_6__48257);" width="14" height="2"/>
<linearGradient id="SVGID_7__48257" gradientUnits="userSpaceOnUse" x1="40.0677" y1="5.4713" x2="41.3177" y2="58.4713" spreadMethod="reflect">
	<stop offset="0" style="stop-color:#1A6DFF"/>
	<stop offset="1" style="stop-color:#C822FF"/>
</linearGradient>
<rect x="34" y="44" style="fill:url(#SVGID_7__48257);" width="14" height="2"/>
<linearGradient id="SVGID_8__48257" gradientUnits="userSpaceOnUse" x1="18.8814" y1="5.971" x2="20.1314" y2="58.971" spreadMethod="reflect">
	<stop offset="0" style="stop-color:#1A6DFF"/>
	<stop offset="1" style="stop-color:#C822FF"/>
</linearGradient>
<rect x="16" y="10" style="fill:url(#SVGID_8__48257);" width="6" height="2"/>
<linearGradient id="SVGID_9__48257" gradientUnits="userSpaceOnUse" x1="26.8769" y1="5.7824" x2="28.1269" y2="58.7824" spreadMethod="reflect">
	<stop offset="0" style="stop-color:#1A6DFF"/>
	<stop offset="1" style="stop-color:#C822FF"/>
</linearGradient>
<rect x="24" y="10" style="fill:url(#SVGID_9__48257);" width="6" height="2"/>
<linearGradient id="SVGID_10__48257" gradientUnits="userSpaceOnUse" x1="21.9834" y1="5.8978" x2="23.2334" y2="58.8978" spreadMethod="reflect">
	<stop offset="0" style="stop-color:#1A6DFF"/>
	<stop offset="1" style="stop-color:#C822FF"/>
</linearGradient>
<rect x="18" y="48" style="fill:url(#SVGID_10__48257);" width="10" height="2"/>
<linearGradient id="SVGID_11__48257" gradientUnits="userSpaceOnUse" x1="39.9734" y1="5.4735" x2="41.2234" y2="58.4735" spreadMethod="reflect">
	<stop offset="0" style="stop-color:#1A6DFF"/>
	<stop offset="1" style="stop-color:#C822FF"/>
</linearGradient>
<rect x="36" y="48" style="fill:url(#SVGID_11__48257);" width="10" height="2"/>
</svg>
