<?xml version="1.0" encoding="utf-8"?><svg xml:space="preserve" viewBox="0 0 100 100" y="0" x="0" xmlns="http://www.w3.org/2000/svg" id="Layer_1" version="1.1" width="200px" height="200px" xmlns:xlink="http://www.w3.org/1999/xlink" style="width:100%;height:100%;background-size:initial;background-repeat-y:initial;background-repeat-x:initial;background-position-y:initial;background-position-x:initial;background-origin:initial;background-image:initial;background-color:rgb(221, 221, 221);background-clip:initial;background-attachment:initial;animation-play-state:paused" ><g class="ldl-scale" style="transform-origin:50% 50%;transform:rotate(0deg) scale(0.94, 0.94);animation-play-state:paused" ><path d="M34.471 23.103L39.282 10 50 18.942 60.718 10l4.811 13.103 13.753-2.385-2.385 13.753L90 39.282 81.058 50 90 60.718l-13.103 4.811 2.385 13.753-13.753-2.385L60.718 90 50 81.058 39.282 90l-4.811-13.103-13.753 2.385 2.385-13.753L10 60.718 18.942 50 10 39.282l13.103-4.811-2.385-13.753z" stroke-miterlimit="10" stroke-linejoin="round" stroke-width="3.5" stroke="#323232" fill="#e15c64" style="stroke:rgb(101, 16, 110);fill:rgb(255, 255, 255);animation-play-state:paused" ></path>
<path stroke-linejoin="round" stroke="#000" opacity=".2" stroke-miterlimit="10" stroke-width="3.5" d="M81.058 50L90 39.282l-13.103-4.811 2.385-13.753-8.159 1.415c-3.459 24.952-16.99 46.023-35.643 57.514L39.282 90 50 81.058 60.718 90l4.811-13.103 13.753 2.385-2.385-13.753L90 60.718 81.058 50z" style="stroke:rgb(255, 255, 255);fill:rgb(255, 255, 255);animation-play-state:paused" ></path>
<path stroke-miterlimit="10" stroke-width="3.5" stroke="#fff" stroke-linecap="round" fill="none" d="M28.69 42.533A29.546 29.546 0 0 0 28 45" style="stroke:rgb(101, 16, 110);animation-play-state:paused" ></path>
<path stroke-miterlimit="10" stroke-width="3.5" stroke="#fff" stroke-linecap="round" fill="none" d="M43 26c-4.044 2.268-7.319 4.984-9.82 8.15" style="stroke:rgb(101, 16, 110);animation-play-state:paused" ></path>
<g style="animation-play-state:paused" ><path fill="#fff" d="M31.862 68.584l-7.026-12.169 3.92-2.263c1.075-.621 2.183-.935 3.322-.943a5.929 5.929 0 0 1 3.202.904c.995.61 1.814 1.466 2.456 2.566l.323.56c.643 1.114.985 2.249 1.024 3.404.039 1.155-.225 2.229-.792 3.221s-1.376 1.795-2.426 2.409l-4.003 2.311zm-2.784-11.597l4.415 7.647 1.02-.589c.841-.486 1.315-1.158 1.42-2.018.105-.86-.183-1.88-.865-3.061l-.304-.527c-.679-1.176-1.416-1.931-2.211-2.267-.796-.336-1.625-.254-2.489.245l-.986.57z" style="fill:rgb(101, 16, 110);animation-play-state:paused" ></path>
<path fill="#fff" d="M49.865 50.412c.685 1.187 1.071 2.364 1.159 3.532.087 1.168-.132 2.232-.658 3.194-.526.961-1.307 1.741-2.344 2.339-1.036.598-2.093.891-3.171.878-1.077-.013-2.096-.333-3.056-.96s-1.783-1.508-2.467-2.643l-.396-.685c-.688-1.192-1.077-2.37-1.165-3.534-.089-1.164.132-2.229.662-3.196.53-.967 1.316-1.752 2.358-2.353 1.031-.595 2.092-.881 3.183-.857 1.091.024 2.122.359 3.093 1.005.971.646 1.797 1.553 2.479 2.72l.323.56zm-3.278 1.213c-.698-1.209-1.43-2.01-2.196-2.404s-1.525-.373-2.277.061c-1.471.849-1.611 2.401-.421 4.656l.508.899c.688 1.192 1.415 1.995 2.181 2.407.766.412 1.538.393 2.318-.057.741-.428 1.13-1.072 1.168-1.934s-.282-1.884-.958-3.069l-.323-.559z" style="fill:rgb(101, 16, 110);animation-play-state:paused" ></path>
<path fill="#fff" d="M64.909 49.505l-2.917 1.684-8.684-5.082 4.372 7.572-2.934 1.694-7.026-12.169 2.934-1.694 8.676 5.087-4.372-7.572 2.925-1.689 7.026 12.169z" style="fill:rgb(101, 16, 110);animation-play-state:paused" ></path>
<path fill="#fff" d="M71.329 38.912l-4.613 2.664 1.679 2.908 5.449-3.146 1.303 2.257-8.383 4.84-7.026-12.169 8.399-4.849 1.308 2.265-5.466 3.156 1.481 2.566 4.613-2.664 1.256 2.172z" style="fill:rgb(101, 16, 110);animation-play-state:paused" ></path></g>
<metadata xmlns:d="https://loading.io/stock/" style="animation-play-state:paused" ><d:name style="animation-play-state:paused" >okay</d:name>
<d:tags style="animation-play-state:paused" >okay,done,finish,right,thank you,complete,pass,correct,affirmative,roger that,success</d:tags>
<d:license style="animation-play-state:paused" >by</d:license>
<d:slug style="animation-play-state:paused" >6658u7</d:slug></metadata></g><!-- generated by https://loading.io/ --></svg>