<?xml version="1.0" encoding="iso-8859-1"?>
<!-- Generator: Adobe Illustrator 20.1.0, SVG Export Plug-In . SVG Version: 6.00 Build 0)  -->
<svg version="1.1"  xmlns="http://www.w3.org/2000/svg" xmlns:xlink="http://www.w3.org/1999/xlink" x="0px" y="0px"
	 viewBox="0 0 48 48" style="enable-background:new 0 0 48 48;" xml:space="preserve">
<rect x="8" y="39" style="fill:#455A64;" width="6" height="3"/>
<rect x="34" y="39" style="fill:#455A64;" width="6" height="3"/>
<path style="fill:#78909C;" d="M40,41H8c-2.209,0-4-1.791-4-4V11c0-2.209,1.791-4,4-4h32c2.209,0,4,1.791,4,4v26
	C44,39.209,42.209,41,40,41z"/>
<path style="fill:#607D8B;" d="M40,41H30V7h10c2.209,0,4,1.791,4,4v26C44,39.209,42.209,41,40,41z"/>
<path style="fill:#37474F;" d="M40,38H8c-0.552,0-1-0.448-1-1V11c0-0.552,0.448-1,1-1h32c0.552,0,1,0.448,1,1v26
	C41,37.552,40.552,38,40,38z"/>
<path style="fill:#90A4AE;" d="M40.263,38.201L30,41V7l10.263,2.799C40.698,9.918,41,10.313,41,10.764v26.472
	C41,37.687,40.698,38.082,40.263,38.201z"/>
<rect x="27" y="7" style="fill:#CFD8DC;" width="3" height="34"/>
<path style="fill:#37474F;" d="M37.636,33.734C37.477,33.908,37.312,34,37.143,34C35.959,34,35,29.523,35,24
	c0-5.523,0.959-10,2.143-10c0.123,0,0.243,0.048,0.36,0.141C38.033,14.56,39.5,17,39.5,17v14C39.5,31,38.11,33.211,37.636,33.734z"
	/>
<ellipse style="fill:#FFFFFF;" cx="39.5" cy="24" rx="1.5" ry="7"/>
<path style="fill:#B0BEC5;" d="M36.931,25H37.5c-0.041-0.328-0.069-0.661-0.069-1s0.028-0.672,0.069-1h-0.569c-0.552,0-1,0.448-1,1
	S36.379,25,36.931,25z"/>
<path style="fill:#B0BEC5;" d="M37.027,18.766l0.542,0.173c0.043-0.27,0.099-0.538,0.184-0.804s0.195-0.517,0.316-0.762L37.527,17.2
	c-0.526-0.168-1.065,0.046-1.203,0.479C36.187,18.111,36.501,18.598,37.027,18.766z"/>
<path style="fill:#B0BEC5;" d="M37.027,29.234l0.542-0.173c0.043,0.27,0.099,0.538,0.184,0.804s0.195,0.517,0.316,0.762L37.527,30.8
	c-0.526,0.168-1.065-0.046-1.203-0.479C36.187,29.889,36.501,29.402,37.027,29.234z"/>
<rect x="10" y="21" style="fill:#4CAF50;" width="8" height="6"/>
<polygon style="fill:#4CAF50;" points="25,24 17,32 17,16 "/>
</svg>
