<?xml version="1.0" standalone="no"?>
<svg xmlns:xlink="http://www.w3.org/1999/xlink" id="wave" style="transform:rotate(180deg); transition: 0.3s" viewBox="0 0 1440 490" version="1.1" xmlns="http://www.w3.org/2000/svg"><defs><linearGradient id="sw-gradient-0" x1="0" x2="0" y1="1" y2="0"><stop stop-color="rgba(98, 149, 132, 1)" offset="0%"/><stop stop-color="rgba(226, 241, 231, 1)" offset="100%"/></linearGradient></defs><path style="transform:translate(0, 0px); opacity:1" fill="url(#sw-gradient-0)" d="M0,147L40,122.5C80,98,160,49,240,73.5C320,98,400,196,480,245C560,294,640,294,720,277.7C800,261,880,229,960,196C1040,163,1120,131,1200,155.2C1280,180,1360,261,1440,245C1520,229,1600,114,1680,130.7C1760,147,1840,294,1920,367.5C2000,441,2080,441,2160,416.5C2240,392,2320,343,2400,310.3C2480,278,2560,261,2640,220.5C2720,180,2800,114,2880,89.8C2960,65,3040,82,3120,114.3C3200,147,3280,196,3360,196C3440,196,3520,147,3600,138.8C3680,131,3760,163,3840,147C3920,131,4000,65,4080,73.5C4160,82,4240,163,4320,171.5C4400,180,4480,114,4560,130.7C4640,147,4720,245,4800,310.3C4880,376,4960,408,5040,383.8C5120,359,5200,278,5280,212.3C5360,147,5440,98,5520,138.8C5600,180,5680,310,5720,375.7L5760,441L5760,490L5720,490C5680,490,5600,490,5520,490C5440,490,5360,490,5280,490C5200,490,5120,490,5040,490C4960,490,4880,490,4800,490C4720,490,4640,490,4560,490C4480,490,4400,490,4320,490C4240,490,4160,490,4080,490C4000,490,3920,490,3840,490C3760,490,3680,490,3600,490C3520,490,3440,490,3360,490C3280,490,3200,490,3120,490C3040,490,2960,490,2880,490C2800,490,2720,490,2640,490C2560,490,2480,490,2400,490C2320,490,2240,490,2160,490C2080,490,2000,490,1920,490C1840,490,1760,490,1680,490C1600,490,1520,490,1440,490C1360,490,1280,490,1200,490C1120,490,1040,490,960,490C880,490,800,490,720,490C640,490,560,490,480,490C400,490,320,490,240,490C160,490,80,490,40,490L0,490Z"/><defs><linearGradient id="sw-gradient-1" x1="0" x2="0" y1="1" y2="0"><stop stop-color="rgba(226, 241, 231, 1)" offset="0%"/><stop stop-color="rgba(98, 149, 132, 1)" offset="100%"/></linearGradient></defs><path style="transform:translate(0, 50px); opacity:0.9" fill="url(#sw-gradient-1)" d="M0,441L40,424.7C80,408,160,376,240,375.7C320,376,400,408,480,359.3C560,310,640,180,720,163.3C800,147,880,245,960,294C1040,343,1120,343,1200,302.2C1280,261,1360,180,1440,196C1520,212,1600,327,1680,351.2C1760,376,1840,310,1920,245C2000,180,2080,114,2160,81.7C2240,49,2320,49,2400,81.7C2480,114,2560,180,2640,212.3C2720,245,2800,245,2880,228.7C2960,212,3040,180,3120,138.8C3200,98,3280,49,3360,32.7C3440,16,3520,33,3600,32.7C3680,33,3760,16,3840,32.7C3920,49,4000,98,4080,147C4160,196,4240,245,4320,294C4400,343,4480,392,4560,343C4640,294,4720,147,4800,114.3C4880,82,4960,163,5040,196C5120,229,5200,212,5280,236.8C5360,261,5440,327,5520,294C5600,261,5680,131,5720,65.3L5760,0L5760,490L5720,490C5680,490,5600,490,5520,490C5440,490,5360,490,5280,490C5200,490,5120,490,5040,490C4960,490,4880,490,4800,490C4720,490,4640,490,4560,490C4480,490,4400,490,4320,490C4240,490,4160,490,4080,490C4000,490,3920,490,3840,490C3760,490,3680,490,3600,490C3520,490,3440,490,3360,490C3280,490,3200,490,3120,490C3040,490,2960,490,2880,490C2800,490,2720,490,2640,490C2560,490,2480,490,2400,490C2320,490,2240,490,2160,490C2080,490,2000,490,1920,490C1840,490,1760,490,1680,490C1600,490,1520,490,1440,490C1360,490,1280,490,1200,490C1120,490,1040,490,960,490C880,490,800,490,720,490C640,490,560,490,480,490C400,490,320,490,240,490C160,490,80,490,40,490L0,490Z"/><defs><linearGradient id="sw-gradient-2" x1="0" x2="0" y1="1" y2="0"><stop stop-color="rgba(98, 149, 132, 1)" offset="0%"/><stop stop-color="rgba(56, 116, 120, 1)" offset="100%"/></linearGradient></defs><path style="transform:translate(0, 100px); opacity:0.8" fill="url(#sw-gradient-2)" d="M0,294L40,285.8C80,278,160,261,240,212.3C320,163,400,82,480,89.8C560,98,640,196,720,196C800,196,880,98,960,65.3C1040,33,1120,65,1200,130.7C1280,196,1360,294,1440,310.3C1520,327,1600,261,1680,261.3C1760,261,1840,327,1920,310.3C2000,294,2080,196,2160,155.2C2240,114,2320,131,2400,130.7C2480,131,2560,114,2640,98C2720,82,2800,65,2880,81.7C2960,98,3040,147,3120,179.7C3200,212,3280,229,3360,261.3C3440,294,3520,343,3600,367.5C3680,392,3760,392,3840,351.2C3920,310,4000,229,4080,236.8C4160,245,4240,343,4320,326.7C4400,310,4480,180,4560,171.5C4640,163,4720,278,4800,269.5C4880,261,4960,131,5040,130.7C5120,131,5200,261,5280,334.8C5360,408,5440,425,5520,375.7C5600,327,5680,212,5720,155.2L5760,98L5760,490L5720,490C5680,490,5600,490,5520,490C5440,490,5360,490,5280,490C5200,490,5120,490,5040,490C4960,490,4880,490,4800,490C4720,490,4640,490,4560,490C4480,490,4400,490,4320,490C4240,490,4160,490,4080,490C4000,490,3920,490,3840,490C3760,490,3680,490,3600,490C3520,490,3440,490,3360,490C3280,490,3200,490,3120,490C3040,490,2960,490,2880,490C2800,490,2720,490,2640,490C2560,490,2480,490,2400,490C2320,490,2240,490,2160,490C2080,490,2000,490,1920,490C1840,490,1760,490,1680,490C1600,490,1520,490,1440,490C1360,490,1280,490,1200,490C1120,490,1040,490,960,490C880,490,800,490,720,490C640,490,560,490,480,490C400,490,320,490,240,490C160,490,80,490,40,490L0,490Z"/><defs><linearGradient id="sw-gradient-3" x1="0" x2="0" y1="1" y2="0"><stop stop-color="rgba(56, 116, 120, 1)" offset="0%"/><stop stop-color="rgba(36, 54, 66, 1)" offset="100%"/></linearGradient></defs><path style="transform:translate(0, 150px); opacity:0.7" fill="url(#sw-gradient-3)" d="M0,441L40,424.7C80,408,160,376,240,310.3C320,245,400,147,480,98C560,49,640,49,720,114.3C800,180,880,310,960,302.2C1040,294,1120,147,1200,106.2C1280,65,1360,131,1440,130.7C1520,131,1600,65,1680,49C1760,33,1840,65,1920,114.3C2000,163,2080,229,2160,220.5C2240,212,2320,131,2400,122.5C2480,114,2560,180,2640,196C2720,212,2800,180,2880,155.2C2960,131,3040,114,3120,114.3C3200,114,3280,131,3360,138.8C3440,147,3520,147,3600,179.7C3680,212,3760,278,3840,261.3C3920,245,4000,147,4080,130.7C4160,114,4240,180,4320,220.5C4400,261,4480,278,4560,261.3C4640,245,4720,196,4800,179.7C4880,163,4960,180,5040,163.3C5120,147,5200,98,5280,122.5C5360,147,5440,245,5520,285.8C5600,327,5680,310,5720,302.2L5760,294L5760,490L5720,490C5680,490,5600,490,5520,490C5440,490,5360,490,5280,490C5200,490,5120,490,5040,490C4960,490,4880,490,4800,490C4720,490,4640,490,4560,490C4480,490,4400,490,4320,490C4240,490,4160,490,4080,490C4000,490,3920,490,3840,490C3760,490,3680,490,3600,490C3520,490,3440,490,3360,490C3280,490,3200,490,3120,490C3040,490,2960,490,2880,490C2800,490,2720,490,2640,490C2560,490,2480,490,2400,490C2320,490,2240,490,2160,490C2080,490,2000,490,1920,490C1840,490,1760,490,1680,490C1600,490,1520,490,1440,490C1360,490,1280,490,1200,490C1120,490,1040,490,960,490C880,490,800,490,720,490C640,490,560,490,480,490C400,490,320,490,240,490C160,490,80,490,40,490L0,490Z"/></svg>