<?xml version="1.0" standalone="no"?>
<svg xmlns:xlink="http://www.w3.org/1999/xlink" id="wave" style="transform:rotate(180deg); transition: 0.3s" viewBox="0 0 1440 490" version="1.1" xmlns="http://www.w3.org/2000/svg"><defs><linearGradient id="sw-gradient-0" x1="0" x2="0" y1="1" y2="0"><stop stop-color="rgba(124, 68, 79, 1)" offset="0%"/><stop stop-color="rgba(159, 82, 85, 1)" offset="100%"/></linearGradient></defs><path style="transform:translate(0, 0px); opacity:1" fill="url(#sw-gradient-0)" d="M0,98L34.3,114.3C68.6,131,137,163,206,204.2C274.3,245,343,294,411,318.5C480,343,549,343,617,359.3C685.7,376,754,408,823,351.2C891.4,294,960,147,1029,130.7C1097.1,114,1166,229,1234,236.8C1302.9,245,1371,147,1440,106.2C1508.6,65,1577,82,1646,114.3C1714.3,147,1783,196,1851,236.8C1920,278,1989,310,2057,318.5C2125.7,327,2194,310,2263,253.2C2331.4,196,2400,98,2469,98C2537.1,98,2606,196,2674,220.5C2742.9,245,2811,196,2880,212.3C2948.6,229,3017,310,3086,302.2C3154.3,294,3223,196,3291,196C3360,196,3429,294,3497,318.5C3565.7,343,3634,294,3703,253.2C3771.4,212,3840,180,3909,147C3977.1,114,4046,82,4114,122.5C4182.9,163,4251,278,4320,318.5C4388.6,359,4457,327,4526,277.7C4594.3,229,4663,163,4731,163.3C4800,163,4869,229,4903,261.3L4937.1,294L4937.1,490L4902.9,490C4868.6,490,4800,490,4731,490C4662.9,490,4594,490,4526,490C4457.1,490,4389,490,4320,490C4251.4,490,4183,490,4114,490C4045.7,490,3977,490,3909,490C3840,490,3771,490,3703,490C3634.3,490,3566,490,3497,490C3428.6,490,3360,490,3291,490C3222.9,490,3154,490,3086,490C3017.1,490,2949,490,2880,490C2811.4,490,2743,490,2674,490C2605.7,490,2537,490,2469,490C2400,490,2331,490,2263,490C2194.3,490,2126,490,2057,490C1988.6,490,1920,490,1851,490C1782.9,490,1714,490,1646,490C1577.1,490,1509,490,1440,490C1371.4,490,1303,490,1234,490C1165.7,490,1097,490,1029,490C960,490,891,490,823,490C754.3,490,686,490,617,490C548.6,490,480,490,411,490C342.9,490,274,490,206,490C137.1,490,69,490,34,490L0,490Z"/><defs><linearGradient id="sw-gradient-1" x1="0" x2="0" y1="1" y2="0"><stop stop-color="rgba(159, 82, 85, 1)" offset="0%"/><stop stop-color="rgba(225, 106, 84, 1)" offset="100%"/></linearGradient></defs><path style="transform:translate(0, 50px); opacity:0.9" fill="url(#sw-gradient-1)" d="M0,441L34.3,400.2C68.6,359,137,278,206,253.2C274.3,229,343,261,411,285.8C480,310,549,327,617,302.2C685.7,278,754,212,823,187.8C891.4,163,960,180,1029,179.7C1097.1,180,1166,163,1234,138.8C1302.9,114,1371,82,1440,122.5C1508.6,163,1577,278,1646,343C1714.3,408,1783,425,1851,392C1920,359,1989,278,2057,236.8C2125.7,196,2194,196,2263,196C2331.4,196,2400,196,2469,171.5C2537.1,147,2606,98,2674,73.5C2742.9,49,2811,49,2880,106.2C2948.6,163,3017,278,3086,285.8C3154.3,294,3223,196,3291,171.5C3360,147,3429,196,3497,212.3C3565.7,229,3634,212,3703,236.8C3771.4,261,3840,327,3909,351.2C3977.1,376,4046,359,4114,367.5C4182.9,376,4251,408,4320,359.3C4388.6,310,4457,180,4526,122.5C4594.3,65,4663,82,4731,98C4800,114,4869,131,4903,138.8L4937.1,147L4937.1,490L4902.9,490C4868.6,490,4800,490,4731,490C4662.9,490,4594,490,4526,490C4457.1,490,4389,490,4320,490C4251.4,490,4183,490,4114,490C4045.7,490,3977,490,3909,490C3840,490,3771,490,3703,490C3634.3,490,3566,490,3497,490C3428.6,490,3360,490,3291,490C3222.9,490,3154,490,3086,490C3017.1,490,2949,490,2880,490C2811.4,490,2743,490,2674,490C2605.7,490,2537,490,2469,490C2400,490,2331,490,2263,490C2194.3,490,2126,490,2057,490C1988.6,490,1920,490,1851,490C1782.9,490,1714,490,1646,490C1577.1,490,1509,490,1440,490C1371.4,490,1303,490,1234,490C1165.7,490,1097,490,1029,490C960,490,891,490,823,490C754.3,490,686,490,617,490C548.6,490,480,490,411,490C342.9,490,274,490,206,490C137.1,490,69,490,34,490L0,490Z"/><defs><linearGradient id="sw-gradient-2" x1="0" x2="0" y1="1" y2="0"><stop stop-color="rgba(225, 106, 84, 1)" offset="0%"/><stop stop-color="rgba(243, 158, 96, 1)" offset="100%"/></linearGradient></defs><path style="transform:translate(0, 100px); opacity:0.8" fill="url(#sw-gradient-2)" d="M0,0L34.3,16.3C68.6,33,137,65,206,114.3C274.3,163,343,229,411,269.5C480,310,549,327,617,343C685.7,359,754,376,823,375.7C891.4,376,960,359,1029,359.3C1097.1,359,1166,376,1234,351.2C1302.9,327,1371,261,1440,236.8C1508.6,212,1577,229,1646,228.7C1714.3,229,1783,212,1851,220.5C1920,229,1989,261,2057,277.7C2125.7,294,2194,294,2263,269.5C2331.4,245,2400,196,2469,163.3C2537.1,131,2606,114,2674,122.5C2742.9,131,2811,163,2880,155.2C2948.6,147,3017,98,3086,89.8C3154.3,82,3223,114,3291,147C3360,180,3429,212,3497,236.8C3565.7,261,3634,278,3703,285.8C3771.4,294,3840,294,3909,310.3C3977.1,327,4046,359,4114,310.3C4182.9,261,4251,131,4320,130.7C4388.6,131,4457,261,4526,334.8C4594.3,408,4663,425,4731,383.8C4800,343,4869,245,4903,196L4937.1,147L4937.1,490L4902.9,490C4868.6,490,4800,490,4731,490C4662.9,490,4594,490,4526,490C4457.1,490,4389,490,4320,490C4251.4,490,4183,490,4114,490C4045.7,490,3977,490,3909,490C3840,490,3771,490,3703,490C3634.3,490,3566,490,3497,490C3428.6,490,3360,490,3291,490C3222.9,490,3154,490,3086,490C3017.1,490,2949,490,2880,490C2811.4,490,2743,490,2674,490C2605.7,490,2537,490,2469,490C2400,490,2331,490,2263,490C2194.3,490,2126,490,2057,490C1988.6,490,1920,490,1851,490C1782.9,490,1714,490,1646,490C1577.1,490,1509,490,1440,490C1371.4,490,1303,490,1234,490C1165.7,490,1097,490,1029,490C960,490,891,490,823,490C754.3,490,686,490,617,490C548.6,490,480,490,411,490C342.9,490,274,490,206,490C137.1,490,69,490,34,490L0,490Z"/><defs><linearGradient id="sw-gradient-3" x1="0" x2="0" y1="1" y2="0"><stop stop-color="rgba(243, 158, 96, 1)" offset="0%"/><stop stop-color="rgba(255, 179, 11, 1)" offset="100%"/></linearGradient></defs><path style="transform:translate(0, 150px); opacity:0.7" fill="url(#sw-gradient-3)" d="M0,343L34.3,343C68.6,343,137,343,206,343C274.3,343,343,343,411,294C480,245,549,147,617,114.3C685.7,82,754,114,823,106.2C891.4,98,960,49,1029,98C1097.1,147,1166,294,1234,334.8C1302.9,376,1371,310,1440,294C1508.6,278,1577,310,1646,334.8C1714.3,359,1783,376,1851,367.5C1920,359,1989,327,2057,294C2125.7,261,2194,229,2263,204.2C2331.4,180,2400,163,2469,204.2C2537.1,245,2606,343,2674,351.2C2742.9,359,2811,278,2880,277.7C2948.6,278,3017,359,3086,343C3154.3,327,3223,212,3291,155.2C3360,98,3429,98,3497,98C3565.7,98,3634,98,3703,122.5C3771.4,147,3840,196,3909,253.2C3977.1,310,4046,376,4114,334.8C4182.9,294,4251,147,4320,122.5C4388.6,98,4457,196,4526,228.7C4594.3,261,4663,229,4731,253.2C4800,278,4869,359,4903,400.2L4937.1,441L4937.1,490L4902.9,490C4868.6,490,4800,490,4731,490C4662.9,490,4594,490,4526,490C4457.1,490,4389,490,4320,490C4251.4,490,4183,490,4114,490C4045.7,490,3977,490,3909,490C3840,490,3771,490,3703,490C3634.3,490,3566,490,3497,490C3428.6,490,3360,490,3291,490C3222.9,490,3154,490,3086,490C3017.1,490,2949,490,2880,490C2811.4,490,2743,490,2674,490C2605.7,490,2537,490,2469,490C2400,490,2331,490,2263,490C2194.3,490,2126,490,2057,490C1988.6,490,1920,490,1851,490C1782.9,490,1714,490,1646,490C1577.1,490,1509,490,1440,490C1371.4,490,1303,490,1234,490C1165.7,490,1097,490,1029,490C960,490,891,490,823,490C754.3,490,686,490,617,490C548.6,490,480,490,411,490C342.9,490,274,490,206,490C137.1,490,69,490,34,490L0,490Z"/></svg>