<?xml version="1.0" standalone="no"?>
<svg xmlns:xlink="http://www.w3.org/1999/xlink" id="wave" style="transform:rotate(180deg); transition: 0.3s" viewBox="0 0 1440 490" version="1.1" xmlns="http://www.w3.org/2000/svg"><defs><linearGradient id="sw-gradient-0" x1="0" x2="0" y1="1" y2="0"><stop stop-color="rgba(98, 149, 132, 1)" offset="0%"/><stop stop-color="rgba(226, 241, 231, 1)" offset="100%"/></linearGradient></defs><path style="transform:translate(0, 0px); opacity:1" fill="url(#sw-gradient-0)" d="M0,98L40,114.3C80,131,160,163,240,204.2C320,245,400,294,480,294C560,294,640,245,720,220.5C800,196,880,196,960,204.2C1040,212,1120,229,1200,204.2C1280,180,1360,114,1440,138.8C1520,163,1600,278,1680,318.5C1760,359,1840,327,1920,326.7C2000,327,2080,359,2160,343C2240,327,2320,261,2400,269.5C2480,278,2560,359,2640,367.5C2720,376,2800,310,2880,236.8C2960,163,3040,82,3120,114.3C3200,147,3280,294,3360,343C3440,392,3520,343,3600,302.2C3680,261,3760,229,3840,220.5C3920,212,4000,229,4080,253.2C4160,278,4240,310,4320,326.7C4400,343,4480,343,4560,310.3C4640,278,4720,212,4800,220.5C4880,229,4960,310,5040,318.5C5120,327,5200,261,5280,212.3C5360,163,5440,131,5520,122.5C5600,114,5680,131,5720,138.8L5760,147L5760,490L5720,490C5680,490,5600,490,5520,490C5440,490,5360,490,5280,490C5200,490,5120,490,5040,490C4960,490,4880,490,4800,490C4720,490,4640,490,4560,490C4480,490,4400,490,4320,490C4240,490,4160,490,4080,490C4000,490,3920,490,3840,490C3760,490,3680,490,3600,490C3520,490,3440,490,3360,490C3280,490,3200,490,3120,490C3040,490,2960,490,2880,490C2800,490,2720,490,2640,490C2560,490,2480,490,2400,490C2320,490,2240,490,2160,490C2080,490,2000,490,1920,490C1840,490,1760,490,1680,490C1600,490,1520,490,1440,490C1360,490,1280,490,1200,490C1120,490,1040,490,960,490C880,490,800,490,720,490C640,490,560,490,480,490C400,490,320,490,240,490C160,490,80,490,40,490L0,490Z"/><defs><linearGradient id="sw-gradient-1" x1="0" x2="0" y1="1" y2="0"><stop stop-color="rgba(226, 241, 231, 1)" offset="0%"/><stop stop-color="rgba(98, 149, 132, 1)" offset="100%"/></linearGradient></defs><path style="transform:translate(0, 50px); opacity:0.9" fill="url(#sw-gradient-1)" d="M0,392L40,400.2C80,408,160,425,240,416.5C320,408,400,376,480,359.3C560,343,640,343,720,343C800,343,880,343,960,318.5C1040,294,1120,245,1200,187.8C1280,131,1360,65,1440,98C1520,131,1600,261,1680,334.8C1760,408,1840,425,1920,432.8C2000,441,2080,441,2160,400.2C2240,359,2320,278,2400,236.8C2480,196,2560,196,2640,163.3C2720,131,2800,65,2880,89.8C2960,114,3040,229,3120,236.8C3200,245,3280,147,3360,155.2C3440,163,3520,278,3600,326.7C3680,376,3760,359,3840,351.2C3920,343,4000,343,4080,334.8C4160,327,4240,310,4320,277.7C4400,245,4480,196,4560,155.2C4640,114,4720,82,4800,73.5C4880,65,4960,82,5040,98C5120,114,5200,131,5280,187.8C5360,245,5440,343,5520,392C5600,441,5680,441,5720,441L5760,441L5760,490L5720,490C5680,490,5600,490,5520,490C5440,490,5360,490,5280,490C5200,490,5120,490,5040,490C4960,490,4880,490,4800,490C4720,490,4640,490,4560,490C4480,490,4400,490,4320,490C4240,490,4160,490,4080,490C4000,490,3920,490,3840,490C3760,490,3680,490,3600,490C3520,490,3440,490,3360,490C3280,490,3200,490,3120,490C3040,490,2960,490,2880,490C2800,490,2720,490,2640,490C2560,490,2480,490,2400,490C2320,490,2240,490,2160,490C2080,490,2000,490,1920,490C1840,490,1760,490,1680,490C1600,490,1520,490,1440,490C1360,490,1280,490,1200,490C1120,490,1040,490,960,490C880,490,800,490,720,490C640,490,560,490,480,490C400,490,320,490,240,490C160,490,80,490,40,490L0,490Z"/><defs><linearGradient id="sw-gradient-2" x1="0" x2="0" y1="1" y2="0"><stop stop-color="rgba(98, 149, 132, 1)" offset="0%"/><stop stop-color="rgba(56, 116, 120, 1)" offset="100%"/></linearGradient></defs><path style="transform:translate(0, 100px); opacity:0.8" fill="url(#sw-gradient-2)" d="M0,343L40,285.8C80,229,160,114,240,73.5C320,33,400,65,480,81.7C560,98,640,98,720,155.2C800,212,880,327,960,367.5C1040,408,1120,376,1200,318.5C1280,261,1360,180,1440,187.8C1520,196,1600,294,1680,343C1760,392,1840,392,1920,367.5C2000,343,2080,294,2160,261.3C2240,229,2320,212,2400,245C2480,278,2560,359,2640,351.2C2720,343,2800,245,2880,245C2960,245,3040,343,3120,334.8C3200,327,3280,212,3360,196C3440,180,3520,261,3600,294C3680,327,3760,310,3840,318.5C3920,327,4000,359,4080,334.8C4160,310,4240,229,4320,220.5C4400,212,4480,278,4560,302.2C4640,327,4720,310,4800,261.3C4880,212,4960,131,5040,138.8C5120,147,5200,245,5280,261.3C5360,278,5440,212,5520,212.3C5600,212,5680,278,5720,310.3L5760,343L5760,490L5720,490C5680,490,5600,490,5520,490C5440,490,5360,490,5280,490C5200,490,5120,490,5040,490C4960,490,4880,490,4800,490C4720,490,4640,490,4560,490C4480,490,4400,490,4320,490C4240,490,4160,490,4080,490C4000,490,3920,490,3840,490C3760,490,3680,490,3600,490C3520,490,3440,490,3360,490C3280,490,3200,490,3120,490C3040,490,2960,490,2880,490C2800,490,2720,490,2640,490C2560,490,2480,490,2400,490C2320,490,2240,490,2160,490C2080,490,2000,490,1920,490C1840,490,1760,490,1680,490C1600,490,1520,490,1440,490C1360,490,1280,490,1200,490C1120,490,1040,490,960,490C880,490,800,490,720,490C640,490,560,490,480,490C400,490,320,490,240,490C160,490,80,490,40,490L0,490Z"/><defs><linearGradient id="sw-gradient-3" x1="0" x2="0" y1="1" y2="0"><stop stop-color="rgba(56, 116, 120, 1)" offset="0%"/><stop stop-color="rgba(36, 54, 66, 1)" offset="100%"/></linearGradient></defs><path style="transform:translate(0, 150px); opacity:0.7" fill="url(#sw-gradient-3)" d="M0,294L40,310.3C80,327,160,359,240,343C320,327,400,261,480,204.2C560,147,640,98,720,81.7C800,65,880,82,960,130.7C1040,180,1120,261,1200,253.2C1280,245,1360,147,1440,122.5C1520,98,1600,147,1680,147C1760,147,1840,98,1920,106.2C2000,114,2080,180,2160,228.7C2240,278,2320,310,2400,334.8C2480,359,2560,376,2640,343C2720,310,2800,229,2880,228.7C2960,229,3040,310,3120,334.8C3200,359,3280,327,3360,269.5C3440,212,3520,131,3600,106.2C3680,82,3760,114,3840,163.3C3920,212,4000,278,4080,318.5C4160,359,4240,376,4320,383.8C4400,392,4480,392,4560,383.8C4640,376,4720,359,4800,318.5C4880,278,4960,212,5040,228.7C5120,245,5200,343,5280,343C5360,343,5440,245,5520,220.5C5600,196,5680,245,5720,269.5L5760,294L5760,490L5720,490C5680,490,5600,490,5520,490C5440,490,5360,490,5280,490C5200,490,5120,490,5040,490C4960,490,4880,490,4800,490C4720,490,4640,490,4560,490C4480,490,4400,490,4320,490C4240,490,4160,490,4080,490C4000,490,3920,490,3840,490C3760,490,3680,490,3600,490C3520,490,3440,490,3360,490C3280,490,3200,490,3120,490C3040,490,2960,490,2880,490C2800,490,2720,490,2640,490C2560,490,2480,490,2400,490C2320,490,2240,490,2160,490C2080,490,2000,490,1920,490C1840,490,1760,490,1680,490C1600,490,1520,490,1440,490C1360,490,1280,490,1200,490C1120,490,1040,490,960,490C880,490,800,490,720,490C640,490,560,490,480,490C400,490,320,490,240,490C160,490,80,490,40,490L0,490Z"/></svg>