<?xml version="1.0" standalone="no"?>
<svg xmlns:xlink="http://www.w3.org/1999/xlink" id="wave" style="transform:rotate(180deg); transition: 0.3s" viewBox="0 0 1440 490" version="1.1" xmlns="http://www.w3.org/2000/svg"><defs><linearGradient id="sw-gradient-0" x1="0" x2="0" y1="1" y2="0"><stop stop-color="rgba(98, 149, 132, 1)" offset="0%"/><stop stop-color="rgba(226, 241, 231, 1)" offset="100%"/></linearGradient></defs><path style="transform:translate(0, 0px); opacity:1" fill="url(#sw-gradient-0)" d="M0,147L40,155.2C80,163,160,180,240,220.5C320,261,400,327,480,302.2C560,278,640,163,720,130.7C800,98,880,147,960,163.3C1040,180,1120,163,1200,155.2C1280,147,1360,147,1440,155.2C1520,163,1600,180,1680,204.2C1760,229,1840,261,1920,294C2000,327,2080,359,2160,359.3C2240,359,2320,327,2400,326.7C2480,327,2560,359,2640,326.7C2720,294,2800,196,2880,155.2C2960,114,3040,131,3120,122.5C3200,114,3280,82,3360,106.2C3440,131,3520,212,3600,261.3C3680,310,3760,327,3840,302.2C3920,278,4000,212,4080,212.3C4160,212,4240,278,4320,285.8C4400,294,4480,245,4560,261.3C4640,278,4720,359,4800,392C4880,425,4960,408,5040,383.8C5120,359,5200,327,5280,261.3C5360,196,5440,98,5520,114.3C5600,131,5680,261,5720,326.7L5760,392L5760,490L5720,490C5680,490,5600,490,5520,490C5440,490,5360,490,5280,490C5200,490,5120,490,5040,490C4960,490,4880,490,4800,490C4720,490,4640,490,4560,490C4480,490,4400,490,4320,490C4240,490,4160,490,4080,490C4000,490,3920,490,3840,490C3760,490,3680,490,3600,490C3520,490,3440,490,3360,490C3280,490,3200,490,3120,490C3040,490,2960,490,2880,490C2800,490,2720,490,2640,490C2560,490,2480,490,2400,490C2320,490,2240,490,2160,490C2080,490,2000,490,1920,490C1840,490,1760,490,1680,490C1600,490,1520,490,1440,490C1360,490,1280,490,1200,490C1120,490,1040,490,960,490C880,490,800,490,720,490C640,490,560,490,480,490C400,490,320,490,240,490C160,490,80,490,40,490L0,490Z"/><defs><linearGradient id="sw-gradient-1" x1="0" x2="0" y1="1" y2="0"><stop stop-color="rgba(226, 241, 231, 1)" offset="0%"/><stop stop-color="rgba(98, 149, 132, 1)" offset="100%"/></linearGradient></defs><path style="transform:translate(0, 50px); opacity:0.9" fill="url(#sw-gradient-1)" d="M0,245L40,253.2C80,261,160,278,240,236.8C320,196,400,98,480,65.3C560,33,640,65,720,89.8C800,114,880,131,960,147C1040,163,1120,180,1200,204.2C1280,229,1360,261,1440,302.2C1520,343,1600,392,1680,359.3C1760,327,1840,212,1920,196C2000,180,2080,261,2160,294C2240,327,2320,310,2400,253.2C2480,196,2560,98,2640,114.3C2720,131,2800,261,2880,277.7C2960,294,3040,196,3120,204.2C3200,212,3280,327,3360,383.8C3440,441,3520,441,3600,375.7C3680,310,3760,180,3840,179.7C3920,180,4000,310,4080,359.3C4160,408,4240,376,4320,334.8C4400,294,4480,245,4560,220.5C4640,196,4720,196,4800,171.5C4880,147,4960,98,5040,73.5C5120,49,5200,49,5280,114.3C5360,180,5440,310,5520,343C5600,376,5680,310,5720,277.7L5760,245L5760,490L5720,490C5680,490,5600,490,5520,490C5440,490,5360,490,5280,490C5200,490,5120,490,5040,490C4960,490,4880,490,4800,490C4720,490,4640,490,4560,490C4480,490,4400,490,4320,490C4240,490,4160,490,4080,490C4000,490,3920,490,3840,490C3760,490,3680,490,3600,490C3520,490,3440,490,3360,490C3280,490,3200,490,3120,490C3040,490,2960,490,2880,490C2800,490,2720,490,2640,490C2560,490,2480,490,2400,490C2320,490,2240,490,2160,490C2080,490,2000,490,1920,490C1840,490,1760,490,1680,490C1600,490,1520,490,1440,490C1360,490,1280,490,1200,490C1120,490,1040,490,960,490C880,490,800,490,720,490C640,490,560,490,480,490C400,490,320,490,240,490C160,490,80,490,40,490L0,490Z"/><defs><linearGradient id="sw-gradient-2" x1="0" x2="0" y1="1" y2="0"><stop stop-color="rgba(98, 149, 132, 1)" offset="0%"/><stop stop-color="rgba(56, 116, 120, 1)" offset="100%"/></linearGradient></defs><path style="transform:translate(0, 100px); opacity:0.8" fill="url(#sw-gradient-2)" d="M0,196L40,171.5C80,147,160,98,240,65.3C320,33,400,16,480,24.5C560,33,640,65,720,81.7C800,98,880,98,960,122.5C1040,147,1120,196,1200,220.5C1280,245,1360,245,1440,204.2C1520,163,1600,82,1680,57.2C1760,33,1840,65,1920,73.5C2000,82,2080,65,2160,106.2C2240,147,2320,245,2400,269.5C2480,294,2560,245,2640,187.8C2720,131,2800,65,2880,57.2C2960,49,3040,98,3120,130.7C3200,163,3280,180,3360,212.3C3440,245,3520,294,3600,326.7C3680,359,3760,376,3840,318.5C3920,261,4000,131,4080,130.7C4160,131,4240,261,4320,277.7C4400,294,4480,196,4560,163.3C4640,131,4720,163,4800,187.8C4880,212,4960,229,5040,261.3C5120,294,5200,343,5280,343C5360,343,5440,294,5520,294C5600,294,5680,343,5720,367.5L5760,392L5760,490L5720,490C5680,490,5600,490,5520,490C5440,490,5360,490,5280,490C5200,490,5120,490,5040,490C4960,490,4880,490,4800,490C4720,490,4640,490,4560,490C4480,490,4400,490,4320,490C4240,490,4160,490,4080,490C4000,490,3920,490,3840,490C3760,490,3680,490,3600,490C3520,490,3440,490,3360,490C3280,490,3200,490,3120,490C3040,490,2960,490,2880,490C2800,490,2720,490,2640,490C2560,490,2480,490,2400,490C2320,490,2240,490,2160,490C2080,490,2000,490,1920,490C1840,490,1760,490,1680,490C1600,490,1520,490,1440,490C1360,490,1280,490,1200,490C1120,490,1040,490,960,490C880,490,800,490,720,490C640,490,560,490,480,490C400,490,320,490,240,490C160,490,80,490,40,490L0,490Z"/><defs><linearGradient id="sw-gradient-3" x1="0" x2="0" y1="1" y2="0"><stop stop-color="rgba(56, 116, 120, 1)" offset="0%"/><stop stop-color="rgba(36, 54, 66, 1)" offset="100%"/></linearGradient></defs><path style="transform:translate(0, 150px); opacity:0.7" fill="url(#sw-gradient-3)" d="M0,147L40,163.3C80,180,160,212,240,187.8C320,163,400,82,480,114.3C560,147,640,294,720,334.8C800,376,880,310,960,310.3C1040,310,1120,376,1200,400.2C1280,425,1360,408,1440,343C1520,278,1600,163,1680,130.7C1760,98,1840,147,1920,138.8C2000,131,2080,65,2160,81.7C2240,98,2320,196,2400,253.2C2480,310,2560,327,2640,310.3C2720,294,2800,245,2880,245C2960,245,3040,294,3120,294C3200,294,3280,245,3360,261.3C3440,278,3520,359,3600,367.5C3680,376,3760,310,3840,277.7C3920,245,4000,245,4080,269.5C4160,294,4240,343,4320,318.5C4400,294,4480,196,4560,179.7C4640,163,4720,229,4800,245C4880,261,4960,229,5040,204.2C5120,180,5200,163,5280,196C5360,229,5440,310,5520,334.8C5600,359,5680,327,5720,310.3L5760,294L5760,490L5720,490C5680,490,5600,490,5520,490C5440,490,5360,490,5280,490C5200,490,5120,490,5040,490C4960,490,4880,490,4800,490C4720,490,4640,490,4560,490C4480,490,4400,490,4320,490C4240,490,4160,490,4080,490C4000,490,3920,490,3840,490C3760,490,3680,490,3600,490C3520,490,3440,490,3360,490C3280,490,3200,490,3120,490C3040,490,2960,490,2880,490C2800,490,2720,490,2640,490C2560,490,2480,490,2400,490C2320,490,2240,490,2160,490C2080,490,2000,490,1920,490C1840,490,1760,490,1680,490C1600,490,1520,490,1440,490C1360,490,1280,490,1200,490C1120,490,1040,490,960,490C880,490,800,490,720,490C640,490,560,490,480,490C400,490,320,490,240,490C160,490,80,490,40,490L0,490Z"/></svg>