<?xml version="1.0" standalone="no"?>
<svg xmlns:xlink="http://www.w3.org/1999/xlink" id="wave" style="transform:rotate(180deg); transition: 0.3s" viewBox="0 0 1440 490" version="1.1" xmlns="http://www.w3.org/2000/svg"><defs><linearGradient id="sw-gradient-0" x1="0" x2="0" y1="1" y2="0"><stop stop-color="rgba(98, 149, 132, 1)" offset="0%"/><stop stop-color="rgba(226, 241, 231, 1)" offset="100%"/></linearGradient></defs><path style="transform:translate(0, 0px); opacity:1" fill="url(#sw-gradient-0)" d="M0,196L40,220.5C80,245,160,294,240,285.8C320,278,400,212,480,187.8C560,163,640,180,720,179.7C800,180,880,163,960,204.2C1040,245,1120,343,1200,367.5C1280,392,1360,343,1440,310.3C1520,278,1600,261,1680,277.7C1760,294,1840,343,1920,326.7C2000,310,2080,229,2160,171.5C2240,114,2320,82,2400,65.3C2480,49,2560,49,2640,89.8C2720,131,2800,212,2880,220.5C2960,229,3040,163,3120,163.3C3200,163,3280,229,3360,245C3440,261,3520,229,3600,228.7C3680,229,3760,261,3840,285.8C3920,310,4000,327,4080,343C4160,359,4240,376,4320,367.5C4400,359,4480,327,4560,310.3C4640,294,4720,294,4800,261.3C4880,229,4960,163,5040,138.8C5120,114,5200,131,5280,155.2C5360,180,5440,212,5520,196C5600,180,5680,114,5720,81.7L5760,49L5760,490L5720,490C5680,490,5600,490,5520,490C5440,490,5360,490,5280,490C5200,490,5120,490,5040,490C4960,490,4880,490,4800,490C4720,490,4640,490,4560,490C4480,490,4400,490,4320,490C4240,490,4160,490,4080,490C4000,490,3920,490,3840,490C3760,490,3680,490,3600,490C3520,490,3440,490,3360,490C3280,490,3200,490,3120,490C3040,490,2960,490,2880,490C2800,490,2720,490,2640,490C2560,490,2480,490,2400,490C2320,490,2240,490,2160,490C2080,490,2000,490,1920,490C1840,490,1760,490,1680,490C1600,490,1520,490,1440,490C1360,490,1280,490,1200,490C1120,490,1040,490,960,490C880,490,800,490,720,490C640,490,560,490,480,490C400,490,320,490,240,490C160,490,80,490,40,490L0,490Z"/><defs><linearGradient id="sw-gradient-1" x1="0" x2="0" y1="1" y2="0"><stop stop-color="rgba(226, 241, 231, 1)" offset="0%"/><stop stop-color="rgba(98, 149, 132, 1)" offset="100%"/></linearGradient></defs><path style="transform:translate(0, 50px); opacity:0.9" fill="url(#sw-gradient-1)" d="M0,245L40,245C80,245,160,245,240,277.7C320,310,400,376,480,383.8C560,392,640,343,720,294C800,245,880,196,960,163.3C1040,131,1120,114,1200,130.7C1280,147,1360,196,1440,253.2C1520,310,1600,376,1680,392C1760,408,1840,376,1920,351.2C2000,327,2080,310,2160,269.5C2240,229,2320,163,2400,122.5C2480,82,2560,65,2640,57.2C2720,49,2800,49,2880,106.2C2960,163,3040,278,3120,269.5C3200,261,3280,131,3360,138.8C3440,147,3520,294,3600,359.3C3680,425,3760,408,3840,383.8C3920,359,4000,327,4080,261.3C4160,196,4240,98,4320,106.2C4400,114,4480,229,4560,245C4640,261,4720,180,4800,196C4880,212,4960,327,5040,375.7C5120,425,5200,408,5280,351.2C5360,294,5440,196,5520,187.8C5600,180,5680,261,5720,302.2L5760,343L5760,490L5720,490C5680,490,5600,490,5520,490C5440,490,5360,490,5280,490C5200,490,5120,490,5040,490C4960,490,4880,490,4800,490C4720,490,4640,490,4560,490C4480,490,4400,490,4320,490C4240,490,4160,490,4080,490C4000,490,3920,490,3840,490C3760,490,3680,490,3600,490C3520,490,3440,490,3360,490C3280,490,3200,490,3120,490C3040,490,2960,490,2880,490C2800,490,2720,490,2640,490C2560,490,2480,490,2400,490C2320,490,2240,490,2160,490C2080,490,2000,490,1920,490C1840,490,1760,490,1680,490C1600,490,1520,490,1440,490C1360,490,1280,490,1200,490C1120,490,1040,490,960,490C880,490,800,490,720,490C640,490,560,490,480,490C400,490,320,490,240,490C160,490,80,490,40,490L0,490Z"/><defs><linearGradient id="sw-gradient-2" x1="0" x2="0" y1="1" y2="0"><stop stop-color="rgba(98, 149, 132, 1)" offset="0%"/><stop stop-color="rgba(56, 116, 120, 1)" offset="100%"/></linearGradient></defs><path style="transform:translate(0, 100px); opacity:0.8" fill="url(#sw-gradient-2)" d="M0,245L40,228.7C80,212,160,180,240,171.5C320,163,400,180,480,228.7C560,278,640,359,720,375.7C800,392,880,343,960,277.7C1040,212,1120,131,1200,114.3C1280,98,1360,147,1440,171.5C1520,196,1600,196,1680,179.7C1760,163,1840,131,1920,130.7C2000,131,2080,163,2160,212.3C2240,261,2320,327,2400,310.3C2480,294,2560,196,2640,204.2C2720,212,2800,327,2880,351.2C2960,376,3040,310,3120,236.8C3200,163,3280,82,3360,106.2C3440,131,3520,261,3600,261.3C3680,261,3760,131,3840,130.7C3920,131,4000,261,4080,277.7C4160,294,4240,196,4320,163.3C4400,131,4480,163,4560,187.8C4640,212,4720,229,4800,212.3C4880,196,4960,147,5040,114.3C5120,82,5200,65,5280,89.8C5360,114,5440,180,5520,245C5600,310,5680,376,5720,408.3L5760,441L5760,490L5720,490C5680,490,5600,490,5520,490C5440,490,5360,490,5280,490C5200,490,5120,490,5040,490C4960,490,4880,490,4800,490C4720,490,4640,490,4560,490C4480,490,4400,490,4320,490C4240,490,4160,490,4080,490C4000,490,3920,490,3840,490C3760,490,3680,490,3600,490C3520,490,3440,490,3360,490C3280,490,3200,490,3120,490C3040,490,2960,490,2880,490C2800,490,2720,490,2640,490C2560,490,2480,490,2400,490C2320,490,2240,490,2160,490C2080,490,2000,490,1920,490C1840,490,1760,490,1680,490C1600,490,1520,490,1440,490C1360,490,1280,490,1200,490C1120,490,1040,490,960,490C880,490,800,490,720,490C640,490,560,490,480,490C400,490,320,490,240,490C160,490,80,490,40,490L0,490Z"/><defs><linearGradient id="sw-gradient-3" x1="0" x2="0" y1="1" y2="0"><stop stop-color="rgba(56, 116, 120, 1)" offset="0%"/><stop stop-color="rgba(226, 241, 231, 1)" offset="100%"/></linearGradient></defs><path style="transform:translate(0, 150px); opacity:0.7" fill="url(#sw-gradient-3)" d="M0,441L40,367.5C80,294,160,147,240,130.7C320,114,400,229,480,302.2C560,376,640,408,720,424.7C800,441,880,441,960,383.8C1040,327,1120,212,1200,204.2C1280,196,1360,294,1440,310.3C1520,327,1600,261,1680,228.7C1760,196,1840,196,1920,187.8C2000,180,2080,163,2160,187.8C2240,212,2320,278,2400,294C2480,310,2560,278,2640,236.8C2720,196,2800,147,2880,179.7C2960,212,3040,327,3120,334.8C3200,343,3280,245,3360,187.8C3440,131,3520,114,3600,138.8C3680,163,3760,229,3840,269.5C3920,310,4000,327,4080,326.7C4160,327,4240,310,4320,302.2C4400,294,4480,294,4560,318.5C4640,343,4720,392,4800,359.3C4880,327,4960,212,5040,171.5C5120,131,5200,163,5280,220.5C5360,278,5440,359,5520,326.7C5600,294,5680,147,5720,73.5L5760,0L5760,490L5720,490C5680,490,5600,490,5520,490C5440,490,5360,490,5280,490C5200,490,5120,490,5040,490C4960,490,4880,490,4800,490C4720,490,4640,490,4560,490C4480,490,4400,490,4320,490C4240,490,4160,490,4080,490C4000,490,3920,490,3840,490C3760,490,3680,490,3600,490C3520,490,3440,490,3360,490C3280,490,3200,490,3120,490C3040,490,2960,490,2880,490C2800,490,2720,490,2640,490C2560,490,2480,490,2400,490C2320,490,2240,490,2160,490C2080,490,2000,490,1920,490C1840,490,1760,490,1680,490C1600,490,1520,490,1440,490C1360,490,1280,490,1200,490C1120,490,1040,490,960,490C880,490,800,490,720,490C640,490,560,490,480,490C400,490,320,490,240,490C160,490,80,490,40,490L0,490Z"/></svg>