<?xml version="1.0" standalone="no"?>
<svg xmlns:xlink="http://www.w3.org/1999/xlink" id="wave" style="transform:rotate(180deg); transition: 0.3s" viewBox="0 0 1440 490" version="1.1" xmlns="http://www.w3.org/2000/svg"><defs><linearGradient id="sw-gradient-0" x1="0" x2="0" y1="1" y2="0"><stop stop-color="rgba(255, 143, 8, 1)" offset="0%"/><stop stop-color="rgba(255, 207, 64, 1)" offset="100%"/></linearGradient></defs><path style="transform:translate(0, 0px); opacity:1" fill="url(#sw-gradient-0)" d="M0,147L40,163.3C80,180,160,212,240,245C320,278,400,310,480,269.5C560,229,640,114,720,130.7C800,147,880,294,960,294C1040,294,1120,147,1200,130.7C1280,114,1360,229,1440,253.2C1520,278,1600,212,1680,163.3C1760,114,1840,82,1920,130.7C2000,180,2080,310,2160,318.5C2240,327,2320,212,2400,163.3C2480,114,2560,131,2640,155.2C2720,180,2800,212,2880,253.2C2960,294,3040,343,3120,326.7C3200,310,3280,229,3360,212.3C3440,196,3520,245,3600,253.2C3680,261,3760,229,3840,245C3920,261,4000,327,4080,318.5C4160,310,4240,229,4320,179.7C4400,131,4480,114,4560,106.2C4640,98,4720,98,4800,89.8C4880,82,4960,65,5040,57.2C5120,49,5200,49,5280,40.8C5360,33,5440,16,5520,32.7C5600,49,5680,98,5720,122.5L5760,147L5760,490L5720,490C5680,490,5600,490,5520,490C5440,490,5360,490,5280,490C5200,490,5120,490,5040,490C4960,490,4880,490,4800,490C4720,490,4640,490,4560,490C4480,490,4400,490,4320,490C4240,490,4160,490,4080,490C4000,490,3920,490,3840,490C3760,490,3680,490,3600,490C3520,490,3440,490,3360,490C3280,490,3200,490,3120,490C3040,490,2960,490,2880,490C2800,490,2720,490,2640,490C2560,490,2480,490,2400,490C2320,490,2240,490,2160,490C2080,490,2000,490,1920,490C1840,490,1760,490,1680,490C1600,490,1520,490,1440,490C1360,490,1280,490,1200,490C1120,490,1040,490,960,490C880,490,800,490,720,490C640,490,560,490,480,490C400,490,320,490,240,490C160,490,80,490,40,490L0,490Z"/><defs><linearGradient id="sw-gradient-1" x1="0" x2="0" y1="1" y2="0"><stop stop-color="rgba(255, 207, 64, 1)" offset="0%"/><stop stop-color="rgba(255, 220, 115, 1)" offset="100%"/></linearGradient></defs><path style="transform:translate(0, 50px); opacity:0.9" fill="url(#sw-gradient-1)" d="M0,441L40,441C80,441,160,441,240,408.3C320,376,400,310,480,261.3C560,212,640,180,720,212.3C800,245,880,343,960,326.7C1040,310,1120,180,1200,130.7C1280,82,1360,114,1440,122.5C1520,131,1600,114,1680,163.3C1760,212,1840,327,1920,383.8C2000,441,2080,441,2160,400.2C2240,359,2320,278,2400,261.3C2480,245,2560,294,2640,326.7C2720,359,2800,376,2880,367.5C2960,359,3040,327,3120,326.7C3200,327,3280,359,3360,367.5C3440,376,3520,359,3600,318.5C3680,278,3760,212,3840,196C3920,180,4000,212,4080,187.8C4160,163,4240,82,4320,106.2C4400,131,4480,261,4560,318.5C4640,376,4720,359,4800,310.3C4880,261,4960,180,5040,163.3C5120,147,5200,196,5280,220.5C5360,245,5440,245,5520,212.3C5600,180,5680,114,5720,81.7L5760,49L5760,490L5720,490C5680,490,5600,490,5520,490C5440,490,5360,490,5280,490C5200,490,5120,490,5040,490C4960,490,4880,490,4800,490C4720,490,4640,490,4560,490C4480,490,4400,490,4320,490C4240,490,4160,490,4080,490C4000,490,3920,490,3840,490C3760,490,3680,490,3600,490C3520,490,3440,490,3360,490C3280,490,3200,490,3120,490C3040,490,2960,490,2880,490C2800,490,2720,490,2640,490C2560,490,2480,490,2400,490C2320,490,2240,490,2160,490C2080,490,2000,490,1920,490C1840,490,1760,490,1680,490C1600,490,1520,490,1440,490C1360,490,1280,490,1200,490C1120,490,1040,490,960,490C880,490,800,490,720,490C640,490,560,490,480,490C400,490,320,490,240,490C160,490,80,490,40,490L0,490Z"/><defs><linearGradient id="sw-gradient-2" x1="0" x2="0" y1="1" y2="0"><stop stop-color="rgba(255, 220, 115, 1)" offset="0%"/><stop stop-color="rgba(255, 143, 8, 1)" offset="100%"/></linearGradient></defs><path style="transform:translate(0, 100px); opacity:0.8" fill="url(#sw-gradient-2)" d="M0,245L40,212.3C80,180,160,114,240,73.5C320,33,400,16,480,16.3C560,16,640,33,720,73.5C800,114,880,180,960,196C1040,212,1120,180,1200,196C1280,212,1360,278,1440,302.2C1520,327,1600,310,1680,302.2C1760,294,1840,294,1920,245C2000,196,2080,98,2160,81.7C2240,65,2320,131,2400,163.3C2480,196,2560,196,2640,228.7C2720,261,2800,327,2880,359.3C2960,392,3040,392,3120,351.2C3200,310,3280,229,3360,196C3440,163,3520,180,3600,163.3C3680,147,3760,98,3840,98C3920,98,4000,147,4080,187.8C4160,229,4240,261,4320,236.8C4400,212,4480,131,4560,114.3C4640,98,4720,147,4800,204.2C4880,261,4960,327,5040,343C5120,359,5200,327,5280,318.5C5360,310,5440,327,5520,326.7C5600,327,5680,310,5720,302.2L5760,294L5760,490L5720,490C5680,490,5600,490,5520,490C5440,490,5360,490,5280,490C5200,490,5120,490,5040,490C4960,490,4880,490,4800,490C4720,490,4640,490,4560,490C4480,490,4400,490,4320,490C4240,490,4160,490,4080,490C4000,490,3920,490,3840,490C3760,490,3680,490,3600,490C3520,490,3440,490,3360,490C3280,490,3200,490,3120,490C3040,490,2960,490,2880,490C2800,490,2720,490,2640,490C2560,490,2480,490,2400,490C2320,490,2240,490,2160,490C2080,490,2000,490,1920,490C1840,490,1760,490,1680,490C1600,490,1520,490,1440,490C1360,490,1280,490,1200,490C1120,490,1040,490,960,490C880,490,800,490,720,490C640,490,560,490,480,490C400,490,320,490,240,490C160,490,80,490,40,490L0,490Z"/><defs><linearGradient id="sw-gradient-3" x1="0" x2="0" y1="1" y2="0"><stop stop-color="rgba(255, 143, 8, 1)" offset="0%"/><stop stop-color="rgba(255, 220, 115, 1)" offset="100%"/></linearGradient></defs><path style="transform:translate(0, 150px); opacity:0.7" fill="url(#sw-gradient-3)" d="M0,98L40,138.8C80,180,160,261,240,318.5C320,376,400,408,480,408.3C560,408,640,376,720,343C800,310,880,278,960,294C1040,310,1120,376,1200,400.2C1280,425,1360,408,1440,375.7C1520,343,1600,294,1680,261.3C1760,229,1840,212,1920,196C2000,180,2080,163,2160,179.7C2240,196,2320,245,2400,236.8C2480,229,2560,163,2640,187.8C2720,212,2800,327,2880,326.7C2960,327,3040,212,3120,155.2C3200,98,3280,98,3360,147C3440,196,3520,294,3600,294C3680,294,3760,196,3840,187.8C3920,180,4000,261,4080,245C4160,229,4240,114,4320,114.3C4400,114,4480,229,4560,236.8C4640,245,4720,147,4800,122.5C4880,98,4960,147,5040,187.8C5120,229,5200,261,5280,285.8C5360,310,5440,327,5520,343C5600,359,5680,376,5720,383.8L5760,392L5760,490L5720,490C5680,490,5600,490,5520,490C5440,490,5360,490,5280,490C5200,490,5120,490,5040,490C4960,490,4880,490,4800,490C4720,490,4640,490,4560,490C4480,490,4400,490,4320,490C4240,490,4160,490,4080,490C4000,490,3920,490,3840,490C3760,490,3680,490,3600,490C3520,490,3440,490,3360,490C3280,490,3200,490,3120,490C3040,490,2960,490,2880,490C2800,490,2720,490,2640,490C2560,490,2480,490,2400,490C2320,490,2240,490,2160,490C2080,490,2000,490,1920,490C1840,490,1760,490,1680,490C1600,490,1520,490,1440,490C1360,490,1280,490,1200,490C1120,490,1040,490,960,490C880,490,800,490,720,490C640,490,560,490,480,490C400,490,320,490,240,490C160,490,80,490,40,490L0,490Z"/></svg>