<?xml version="1.0" standalone="no"?>
<svg xmlns:xlink="http://www.w3.org/1999/xlink" id="wave" style="transform:rotate(180deg); transition: 0.3s" viewBox="0 0 1440 170" version="1.1" xmlns="http://www.w3.org/2000/svg"><defs><linearGradient id="sw-gradient-0" x1="0" x2="0" y1="1" y2="0"><stop stop-color="rgba(33, 69, 72, 1)" offset="0%"/><stop stop-color="rgba(175, 199, 201, 1)" offset="100%"/></linearGradient></defs><path style="transform:translate(0, 0px); opacity:1" fill="url(#sw-gradient-0)" d="M0,51L40,56.7C80,62,160,74,240,73.7C320,74,400,62,480,59.5C560,57,640,62,720,73.7C800,85,880,102,960,116.2C1040,130,1120,142,1200,121.8C1280,102,1360,51,1440,51C1520,51,1600,102,1680,127.5C1760,153,1840,153,1920,127.5C2000,102,2080,51,2160,28.3C2240,6,2320,11,2400,19.8C2480,28,2560,40,2640,45.3C2720,51,2800,51,2880,62.3C2960,74,3040,96,3120,102C3200,108,3280,96,3360,93.5C3440,91,3520,96,3600,99.2C3680,102,3760,102,3840,96.3C3920,91,4000,79,4080,68C4160,57,4240,45,4320,34C4400,23,4480,11,4560,25.5C4640,40,4720,79,4800,93.5C4880,108,4960,96,5040,90.7C5120,85,5200,85,5280,96.3C5360,108,5440,130,5520,136C5600,142,5680,130,5720,124.7L5760,119L5760,170L5720,170C5680,170,5600,170,5520,170C5440,170,5360,170,5280,170C5200,170,5120,170,5040,170C4960,170,4880,170,4800,170C4720,170,4640,170,4560,170C4480,170,4400,170,4320,170C4240,170,4160,170,4080,170C4000,170,3920,170,3840,170C3760,170,3680,170,3600,170C3520,170,3440,170,3360,170C3280,170,3200,170,3120,170C3040,170,2960,170,2880,170C2800,170,2720,170,2640,170C2560,170,2480,170,2400,170C2320,170,2240,170,2160,170C2080,170,2000,170,1920,170C1840,170,1760,170,1680,170C1600,170,1520,170,1440,170C1360,170,1280,170,1200,170C1120,170,1040,170,960,170C880,170,800,170,720,170C640,170,560,170,480,170C400,170,320,170,240,170C160,170,80,170,40,170L0,170Z"/></svg>