<?xml version="1.0" standalone="no"?>
<svg xmlns:xlink="http://www.w3.org/1999/xlink" id="wave" style="transform:rotate(180deg); transition: 0.3s" viewBox="0 0 1440 490" version="1.1" xmlns="http://www.w3.org/2000/svg"><defs><linearGradient id="sw-gradient-0" x1="0" x2="0" y1="1" y2="0"><stop stop-color="rgba(98, 149, 132, 1)" offset="0%"/><stop stop-color="rgba(226, 241, 231, 1)" offset="100%"/></linearGradient></defs><path style="transform:translate(0, 0px); opacity:1" fill="url(#sw-gradient-0)" d="M0,343L40,302.2C80,261,160,180,240,122.5C320,65,400,33,480,16.3C560,0,640,0,720,16.3C800,33,880,65,960,98C1040,131,1120,163,1200,179.7C1280,196,1360,196,1440,163.3C1520,131,1600,65,1680,89.8C1760,114,1840,229,1920,261.3C2000,294,2080,245,2160,261.3C2240,278,2320,359,2400,392C2480,425,2560,408,2640,367.5C2720,327,2800,261,2880,253.2C2960,245,3040,294,3120,310.3C3200,327,3280,310,3360,277.7C3440,245,3520,196,3600,212.3C3680,229,3760,310,3840,326.7C3920,343,4000,294,4080,245C4160,196,4240,147,4320,114.3C4400,82,4480,65,4560,114.3C4640,163,4720,278,4800,318.5C4880,359,4960,327,5040,261.3C5120,196,5200,98,5280,81.7C5360,65,5440,131,5520,179.7C5600,229,5680,261,5720,277.7L5760,294L5760,490L5720,490C5680,490,5600,490,5520,490C5440,490,5360,490,5280,490C5200,490,5120,490,5040,490C4960,490,4880,490,4800,490C4720,490,4640,490,4560,490C4480,490,4400,490,4320,490C4240,490,4160,490,4080,490C4000,490,3920,490,3840,490C3760,490,3680,490,3600,490C3520,490,3440,490,3360,490C3280,490,3200,490,3120,490C3040,490,2960,490,2880,490C2800,490,2720,490,2640,490C2560,490,2480,490,2400,490C2320,490,2240,490,2160,490C2080,490,2000,490,1920,490C1840,490,1760,490,1680,490C1600,490,1520,490,1440,490C1360,490,1280,490,1200,490C1120,490,1040,490,960,490C880,490,800,490,720,490C640,490,560,490,480,490C400,490,320,490,240,490C160,490,80,490,40,490L0,490Z"/><defs><linearGradient id="sw-gradient-1" x1="0" x2="0" y1="1" y2="0"><stop stop-color="rgba(226, 241, 231, 1)" offset="0%"/><stop stop-color="rgba(98, 149, 132, 1)" offset="100%"/></linearGradient></defs><path style="transform:translate(0, 50px); opacity:0.9" fill="url(#sw-gradient-1)" d="M0,343L40,294C80,245,160,147,240,163.3C320,180,400,310,480,326.7C560,343,640,245,720,187.8C800,131,880,114,960,138.8C1040,163,1120,229,1200,245C1280,261,1360,229,1440,187.8C1520,147,1600,98,1680,65.3C1760,33,1840,16,1920,49C2000,82,2080,163,2160,236.8C2240,310,2320,376,2400,408.3C2480,441,2560,441,2640,424.7C2720,408,2800,376,2880,351.2C2960,327,3040,310,3120,285.8C3200,261,3280,229,3360,220.5C3440,212,3520,229,3600,236.8C3680,245,3760,245,3840,236.8C3920,229,4000,212,4080,245C4160,278,4240,359,4320,367.5C4400,376,4480,310,4560,302.2C4640,294,4720,343,4800,375.7C4880,408,4960,425,5040,416.5C5120,408,5200,376,5280,318.5C5360,261,5440,180,5520,130.7C5600,82,5680,65,5720,57.2L5760,49L5760,490L5720,490C5680,490,5600,490,5520,490C5440,490,5360,490,5280,490C5200,490,5120,490,5040,490C4960,490,4880,490,4800,490C4720,490,4640,490,4560,490C4480,490,4400,490,4320,490C4240,490,4160,490,4080,490C4000,490,3920,490,3840,490C3760,490,3680,490,3600,490C3520,490,3440,490,3360,490C3280,490,3200,490,3120,490C3040,490,2960,490,2880,490C2800,490,2720,490,2640,490C2560,490,2480,490,2400,490C2320,490,2240,490,2160,490C2080,490,2000,490,1920,490C1840,490,1760,490,1680,490C1600,490,1520,490,1440,490C1360,490,1280,490,1200,490C1120,490,1040,490,960,490C880,490,800,490,720,490C640,490,560,490,480,490C400,490,320,490,240,490C160,490,80,490,40,490L0,490Z"/><defs><linearGradient id="sw-gradient-2" x1="0" x2="0" y1="1" y2="0"><stop stop-color="rgba(98, 149, 132, 1)" offset="0%"/><stop stop-color="rgba(56, 116, 120, 1)" offset="100%"/></linearGradient></defs><path style="transform:translate(0, 100px); opacity:0.8" fill="url(#sw-gradient-2)" d="M0,98L40,147C80,196,160,294,240,310.3C320,327,400,261,480,261.3C560,261,640,327,720,334.8C800,343,880,294,960,253.2C1040,212,1120,180,1200,163.3C1280,147,1360,147,1440,196C1520,245,1600,343,1680,326.7C1760,310,1840,180,1920,114.3C2000,49,2080,49,2160,106.2C2240,163,2320,278,2400,334.8C2480,392,2560,392,2640,359.3C2720,327,2800,261,2880,228.7C2960,196,3040,196,3120,187.8C3200,180,3280,163,3360,138.8C3440,114,3520,82,3600,114.3C3680,147,3760,245,3840,294C3920,343,4000,343,4080,285.8C4160,229,4240,114,4320,130.7C4400,147,4480,294,4560,294C4640,294,4720,147,4800,130.7C4880,114,4960,229,5040,302.2C5120,376,5200,408,5280,351.2C5360,294,5440,147,5520,89.8C5600,33,5680,65,5720,81.7L5760,98L5760,490L5720,490C5680,490,5600,490,5520,490C5440,490,5360,490,5280,490C5200,490,5120,490,5040,490C4960,490,4880,490,4800,490C4720,490,4640,490,4560,490C4480,490,4400,490,4320,490C4240,490,4160,490,4080,490C4000,490,3920,490,3840,490C3760,490,3680,490,3600,490C3520,490,3440,490,3360,490C3280,490,3200,490,3120,490C3040,490,2960,490,2880,490C2800,490,2720,490,2640,490C2560,490,2480,490,2400,490C2320,490,2240,490,2160,490C2080,490,2000,490,1920,490C1840,490,1760,490,1680,490C1600,490,1520,490,1440,490C1360,490,1280,490,1200,490C1120,490,1040,490,960,490C880,490,800,490,720,490C640,490,560,490,480,490C400,490,320,490,240,490C160,490,80,490,40,490L0,490Z"/><defs><linearGradient id="sw-gradient-3" x1="0" x2="0" y1="1" y2="0"><stop stop-color="rgba(56, 116, 120, 1)" offset="0%"/><stop stop-color="rgba(36, 54, 66, 1)" offset="100%"/></linearGradient></defs><path style="transform:translate(0, 150px); opacity:0.7" fill="url(#sw-gradient-3)" d="M0,245L40,236.8C80,229,160,212,240,204.2C320,196,400,196,480,228.7C560,261,640,327,720,367.5C800,408,880,425,960,416.5C1040,408,1120,376,1200,334.8C1280,294,1360,245,1440,261.3C1520,278,1600,359,1680,375.7C1760,392,1840,343,1920,326.7C2000,310,2080,327,2160,326.7C2240,327,2320,310,2400,302.2C2480,294,2560,294,2640,294C2720,294,2800,294,2880,310.3C2960,327,3040,359,3120,367.5C3200,376,3280,359,3360,294C3440,229,3520,114,3600,81.7C3680,49,3760,98,3840,106.2C3920,114,4000,82,4080,73.5C4160,65,4240,82,4320,122.5C4400,163,4480,229,4560,212.3C4640,196,4720,98,4800,89.8C4880,82,4960,163,5040,179.7C5120,196,5200,147,5280,155.2C5360,163,5440,229,5520,220.5C5600,212,5680,131,5720,89.8L5760,49L5760,490L5720,490C5680,490,5600,490,5520,490C5440,490,5360,490,5280,490C5200,490,5120,490,5040,490C4960,490,4880,490,4800,490C4720,490,4640,490,4560,490C4480,490,4400,490,4320,490C4240,490,4160,490,4080,490C4000,490,3920,490,3840,490C3760,490,3680,490,3600,490C3520,490,3440,490,3360,490C3280,490,3200,490,3120,490C3040,490,2960,490,2880,490C2800,490,2720,490,2640,490C2560,490,2480,490,2400,490C2320,490,2240,490,2160,490C2080,490,2000,490,1920,490C1840,490,1760,490,1680,490C1600,490,1520,490,1440,490C1360,490,1280,490,1200,490C1120,490,1040,490,960,490C880,490,800,490,720,490C640,490,560,490,480,490C400,490,320,490,240,490C160,490,80,490,40,490L0,490Z"/></svg>