<?xml version="1.0" standalone="no"?>
<svg xmlns:xlink="http://www.w3.org/1999/xlink" id="wave" style="transform:rotate(180deg); transition: 0.3s" viewBox="0 0 1440 490" version="1.1" xmlns="http://www.w3.org/2000/svg"><defs><linearGradient id="sw-gradient-0" x1="0" x2="0" y1="1" y2="0"><stop stop-color="rgba(36, 54, 66, 1)" offset="0%"/><stop stop-color="rgba(56, 116, 120, 1)" offset="100%"/></linearGradient></defs><path style="transform:translate(0, 0px); opacity:1" fill="url(#sw-gradient-0)" d="M0,245L40,277.7C80,310,160,376,240,383.8C320,392,400,343,480,285.8C560,229,640,163,720,138.8C800,114,880,131,960,147C1040,163,1120,180,1200,220.5C1280,261,1360,327,1440,367.5C1520,408,1600,425,1680,375.7C1760,327,1840,212,1920,187.8C2000,163,2080,229,2160,228.7C2240,229,2320,163,2400,114.3C2480,65,2560,33,2640,89.8C2720,147,2800,294,2880,326.7C2960,359,3040,278,3120,204.2C3200,131,3280,65,3360,73.5C3440,82,3520,163,3600,212.3C3680,261,3760,278,3840,277.7C3920,278,4000,261,4080,269.5C4160,278,4240,310,4320,310.3C4400,310,4480,278,4560,269.5C4640,261,4720,278,4800,269.5C4880,261,4960,229,5040,228.7C5120,229,5200,261,5280,277.7C5360,294,5440,294,5520,261.3C5600,229,5680,163,5720,130.7L5760,98L5760,490L5720,490C5680,490,5600,490,5520,490C5440,490,5360,490,5280,490C5200,490,5120,490,5040,490C4960,490,4880,490,4800,490C4720,490,4640,490,4560,490C4480,490,4400,490,4320,490C4240,490,4160,490,4080,490C4000,490,3920,490,3840,490C3760,490,3680,490,3600,490C3520,490,3440,490,3360,490C3280,490,3200,490,3120,490C3040,490,2960,490,2880,490C2800,490,2720,490,2640,490C2560,490,2480,490,2400,490C2320,490,2240,490,2160,490C2080,490,2000,490,1920,490C1840,490,1760,490,1680,490C1600,490,1520,490,1440,490C1360,490,1280,490,1200,490C1120,490,1040,490,960,490C880,490,800,490,720,490C640,490,560,490,480,490C400,490,320,490,240,490C160,490,80,490,40,490L0,490Z"/><defs><linearGradient id="sw-gradient-1" x1="0" x2="0" y1="1" y2="0"><stop stop-color="rgba(56, 116, 120, 1)" offset="0%"/><stop stop-color="rgba(98, 149, 132, 1)" offset="100%"/></linearGradient></defs><path style="transform:translate(0, 50px); opacity:0.9" fill="url(#sw-gradient-1)" d="M0,392L40,343C80,294,160,196,240,187.8C320,180,400,261,480,261.3C560,261,640,180,720,147C800,114,880,131,960,147C1040,163,1120,180,1200,155.2C1280,131,1360,65,1440,40.8C1520,16,1600,33,1680,89.8C1760,147,1840,245,1920,245C2000,245,2080,147,2160,163.3C2240,180,2320,310,2400,302.2C2480,294,2560,147,2640,81.7C2720,16,2800,33,2880,32.7C2960,33,3040,16,3120,16.3C3200,16,3280,33,3360,65.3C3440,98,3520,147,3600,171.5C3680,196,3760,196,3840,204.2C3920,212,4000,229,4080,261.3C4160,294,4240,343,4320,318.5C4400,294,4480,196,4560,163.3C4640,131,4720,163,4800,196C4880,229,4960,261,5040,294C5120,327,5200,359,5280,351.2C5360,343,5440,294,5520,261.3C5600,229,5680,212,5720,204.2L5760,196L5760,490L5720,490C5680,490,5600,490,5520,490C5440,490,5360,490,5280,490C5200,490,5120,490,5040,490C4960,490,4880,490,4800,490C4720,490,4640,490,4560,490C4480,490,4400,490,4320,490C4240,490,4160,490,4080,490C4000,490,3920,490,3840,490C3760,490,3680,490,3600,490C3520,490,3440,490,3360,490C3280,490,3200,490,3120,490C3040,490,2960,490,2880,490C2800,490,2720,490,2640,490C2560,490,2480,490,2400,490C2320,490,2240,490,2160,490C2080,490,2000,490,1920,490C1840,490,1760,490,1680,490C1600,490,1520,490,1440,490C1360,490,1280,490,1200,490C1120,490,1040,490,960,490C880,490,800,490,720,490C640,490,560,490,480,490C400,490,320,490,240,490C160,490,80,490,40,490L0,490Z"/><defs><linearGradient id="sw-gradient-2" x1="0" x2="0" y1="1" y2="0"><stop stop-color="rgba(98, 149, 132, 1)" offset="0%"/><stop stop-color="rgba(226, 241, 231, 1)" offset="100%"/></linearGradient></defs><path style="transform:translate(0, 100px); opacity:0.8" fill="url(#sw-gradient-2)" d="M0,147L40,196C80,245,160,343,240,318.5C320,294,400,147,480,130.7C560,114,640,229,720,253.2C800,278,880,212,960,187.8C1040,163,1120,180,1200,163.3C1280,147,1360,98,1440,73.5C1520,49,1600,49,1680,114.3C1760,180,1840,310,1920,318.5C2000,327,2080,212,2160,163.3C2240,114,2320,131,2400,155.2C2480,180,2560,212,2640,245C2720,278,2800,310,2880,294C2960,278,3040,212,3120,171.5C3200,131,3280,114,3360,98C3440,82,3520,65,3600,65.3C3680,65,3760,82,3840,147C3920,212,4000,327,4080,310.3C4160,294,4240,147,4320,81.7C4400,16,4480,33,4560,57.2C4640,82,4720,114,4800,106.2C4880,98,4960,49,5040,49C5120,49,5200,98,5280,155.2C5360,212,5440,278,5520,318.5C5600,359,5680,376,5720,383.8L5760,392L5760,490L5720,490C5680,490,5600,490,5520,490C5440,490,5360,490,5280,490C5200,490,5120,490,5040,490C4960,490,4880,490,4800,490C4720,490,4640,490,4560,490C4480,490,4400,490,4320,490C4240,490,4160,490,4080,490C4000,490,3920,490,3840,490C3760,490,3680,490,3600,490C3520,490,3440,490,3360,490C3280,490,3200,490,3120,490C3040,490,2960,490,2880,490C2800,490,2720,490,2640,490C2560,490,2480,490,2400,490C2320,490,2240,490,2160,490C2080,490,2000,490,1920,490C1840,490,1760,490,1680,490C1600,490,1520,490,1440,490C1360,490,1280,490,1200,490C1120,490,1040,490,960,490C880,490,800,490,720,490C640,490,560,490,480,490C400,490,320,490,240,490C160,490,80,490,40,490L0,490Z"/><defs><linearGradient id="sw-gradient-3" x1="0" x2="0" y1="1" y2="0"><stop stop-color="rgba(226, 241, 231, 1)" offset="0%"/><stop stop-color="rgba(255, 128, 0, 1)" offset="100%"/></linearGradient></defs><path style="transform:translate(0, 150px); opacity:0.7" fill="url(#sw-gradient-3)" d="M0,49L40,65.3C80,82,160,114,240,147C320,180,400,212,480,220.5C560,229,640,212,720,204.2C800,196,880,196,960,187.8C1040,180,1120,163,1200,163.3C1280,163,1360,180,1440,196C1520,212,1600,229,1680,212.3C1760,196,1840,147,1920,147C2000,147,2080,196,2160,179.7C2240,163,2320,82,2400,40.8C2480,0,2560,0,2640,40.8C2720,82,2800,163,2880,236.8C2960,310,3040,376,3120,367.5C3200,359,3280,278,3360,269.5C3440,261,3520,327,3600,359.3C3680,392,3760,392,3840,334.8C3920,278,4000,163,4080,122.5C4160,82,4240,114,4320,114.3C4400,114,4480,82,4560,130.7C4640,180,4720,310,4800,351.2C4880,392,4960,343,5040,285.8C5120,229,5200,163,5280,114.3C5360,65,5440,33,5520,81.7C5600,131,5680,261,5720,326.7L5760,392L5760,490L5720,490C5680,490,5600,490,5520,490C5440,490,5360,490,5280,490C5200,490,5120,490,5040,490C4960,490,4880,490,4800,490C4720,490,4640,490,4560,490C4480,490,4400,490,4320,490C4240,490,4160,490,4080,490C4000,490,3920,490,3840,490C3760,490,3680,490,3600,490C3520,490,3440,490,3360,490C3280,490,3200,490,3120,490C3040,490,2960,490,2880,490C2800,490,2720,490,2640,490C2560,490,2480,490,2400,490C2320,490,2240,490,2160,490C2080,490,2000,490,1920,490C1840,490,1760,490,1680,490C1600,490,1520,490,1440,490C1360,490,1280,490,1200,490C1120,490,1040,490,960,490C880,490,800,490,720,490C640,490,560,490,480,490C400,490,320,490,240,490C160,490,80,490,40,490L0,490Z"/></svg>