<?xml version="1.0" standalone="no"?>
<svg xmlns:xlink="http://www.w3.org/1999/xlink" id="wave" style="transform:rotate(0deg); transition: 0.3s" viewBox="0 0 1440 220" version="1.1" xmlns="http://www.w3.org/2000/svg"><defs><linearGradient id="sw-gradient-0" x1="0" x2="0" y1="1" y2="0"><stop stop-color="rgba(36, 54, 66, 1)" offset="0%"/><stop stop-color="rgba(56, 116, 120, 1)" offset="100%"/></linearGradient></defs><path style="transform:translate(0, 0px); opacity:1" fill="url(#sw-gradient-0)" d="M0,110L160,88L320,154L480,198L640,132L800,110L960,0L1120,0L1280,66L1440,132L1600,132L1760,22L1920,44L2080,88L2240,66L2400,22L2560,66L2720,132L2880,176L3040,110L3200,110L3360,22L3520,110L3680,198L3840,154L3840,220L3680,220L3520,220L3360,220L3200,220L3040,220L2880,220L2720,220L2560,220L2400,220L2240,220L2080,220L1920,220L1760,220L1600,220L1440,220L1280,220L1120,220L960,220L800,220L640,220L480,220L320,220L160,220L0,220Z"/><defs><linearGradient id="sw-gradient-1" x1="0" x2="0" y1="1" y2="0"><stop stop-color="rgba(98, 149, 132, 1)" offset="0%"/><stop stop-color="rgba(226, 241, 231, 1)" offset="100%"/></linearGradient></defs><path style="transform:translate(0, 50px); opacity:0.9" fill="url(#sw-gradient-1)" d="M0,154L160,198L320,44L480,0L640,132L800,154L960,110L1120,44L1280,66L1440,22L1600,88L1760,22L1920,176L2080,176L2240,198L2400,176L2560,110L2720,110L2880,132L3040,132L3200,110L3360,176L3520,110L3680,198L3840,0L3840,220L3680,220L3520,220L3360,220L3200,220L3040,220L2880,220L2720,220L2560,220L2400,220L2240,220L2080,220L1920,220L1760,220L1600,220L1440,220L1280,220L1120,220L960,220L800,220L640,220L480,220L320,220L160,220L0,220Z"/><defs><linearGradient id="sw-gradient-2" x1="0" x2="0" y1="1" y2="0"><stop stop-color="rgba(75, 129, 133, 1)" offset="0%"/><stop stop-color="rgba(135, 171, 174, 1)" offset="100%"/></linearGradient></defs><path style="transform:translate(0, 100px); opacity:0.8" fill="url(#sw-gradient-2)" d="M0,44L160,110L320,198L480,66L640,110L800,88L960,88L1120,0L1280,44L1440,22L1600,154L1760,132L1920,110L2080,66L2240,0L2400,176L2560,198L2720,132L2880,176L3040,110L3200,22L3360,176L3520,198L3680,110L3840,154L3840,220L3680,220L3520,220L3360,220L3200,220L3040,220L2880,220L2720,220L2560,220L2400,220L2240,220L2080,220L1920,220L1760,220L1600,220L1440,220L1280,220L1120,220L960,220L800,220L640,220L480,220L320,220L160,220L0,220Z"/></svg>