<?xml version="1.0" standalone="no"?>
<svg xmlns:xlink="http://www.w3.org/1999/xlink" id="wave" style="transform:rotate(180deg); transition: 0.3s" viewBox="0 0 1440 490" version="1.1" xmlns="http://www.w3.org/2000/svg"><defs><linearGradient id="sw-gradient-0" x1="0" x2="0" y1="1" y2="0"><stop stop-color="rgba(56, 116, 120, 1)" offset="0%"/><stop stop-color="rgba(98, 149, 132, 1)" offset="100%"/></linearGradient></defs><path style="transform:translate(0, 0px); opacity:1" fill="url(#sw-gradient-0)" d="M0,147L40,147C80,147,160,147,240,130.7C320,114,400,82,480,65.3C560,49,640,49,720,73.5C800,98,880,147,960,196C1040,245,1120,294,1200,285.8C1280,278,1360,212,1440,187.8C1520,163,1600,180,1680,204.2C1760,229,1840,261,1920,245C2000,229,2080,163,2160,171.5C2240,180,2320,261,2400,318.5C2480,376,2560,408,2640,424.7C2720,441,2800,441,2880,416.5C2960,392,3040,343,3120,334.8C3200,327,3280,359,3360,367.5C3440,376,3520,359,3600,302.2C3680,245,3760,147,3840,163.3C3920,180,4000,310,4080,326.7C4160,343,4240,245,4320,179.7C4400,114,4480,82,4560,130.7C4640,180,4720,310,4800,334.8C4880,359,4960,278,5040,245C5120,212,5200,229,5280,236.8C5360,245,5440,245,5520,261.3C5600,278,5680,310,5720,326.7L5760,343L5760,490L5720,490C5680,490,5600,490,5520,490C5440,490,5360,490,5280,490C5200,490,5120,490,5040,490C4960,490,4880,490,4800,490C4720,490,4640,490,4560,490C4480,490,4400,490,4320,490C4240,490,4160,490,4080,490C4000,490,3920,490,3840,490C3760,490,3680,490,3600,490C3520,490,3440,490,3360,490C3280,490,3200,490,3120,490C3040,490,2960,490,2880,490C2800,490,2720,490,2640,490C2560,490,2480,490,2400,490C2320,490,2240,490,2160,490C2080,490,2000,490,1920,490C1840,490,1760,490,1680,490C1600,490,1520,490,1440,490C1360,490,1280,490,1200,490C1120,490,1040,490,960,490C880,490,800,490,720,490C640,490,560,490,480,490C400,490,320,490,240,490C160,490,80,490,40,490L0,490Z"/><defs><linearGradient id="sw-gradient-1" x1="0" x2="0" y1="1" y2="0"><stop stop-color="rgba(98, 149, 132, 1)" offset="0%"/><stop stop-color="rgba(226, 241, 231, 1)" offset="100%"/></linearGradient></defs><path style="transform:translate(0, 50px); opacity:0.9" fill="url(#sw-gradient-1)" d="M0,392L40,326.7C80,261,160,131,240,73.5C320,16,400,33,480,89.8C560,147,640,245,720,269.5C800,294,880,245,960,253.2C1040,261,1120,327,1200,302.2C1280,278,1360,163,1440,147C1520,131,1600,212,1680,253.2C1760,294,1840,294,1920,285.8C2000,278,2080,261,2160,285.8C2240,310,2320,376,2400,408.3C2480,441,2560,441,2640,375.7C2720,310,2800,180,2880,114.3C2960,49,3040,49,3120,65.3C3200,82,3280,114,3360,155.2C3440,196,3520,245,3600,277.7C3680,310,3760,327,3840,294C3920,261,4000,180,4080,163.3C4160,147,4240,196,4320,212.3C4400,229,4480,212,4560,204.2C4640,196,4720,196,4800,179.7C4880,163,4960,131,5040,106.2C5120,82,5200,65,5280,106.2C5360,147,5440,245,5520,269.5C5600,294,5680,245,5720,220.5L5760,196L5760,490L5720,490C5680,490,5600,490,5520,490C5440,490,5360,490,5280,490C5200,490,5120,490,5040,490C4960,490,4880,490,4800,490C4720,490,4640,490,4560,490C4480,490,4400,490,4320,490C4240,490,4160,490,4080,490C4000,490,3920,490,3840,490C3760,490,3680,490,3600,490C3520,490,3440,490,3360,490C3280,490,3200,490,3120,490C3040,490,2960,490,2880,490C2800,490,2720,490,2640,490C2560,490,2480,490,2400,490C2320,490,2240,490,2160,490C2080,490,2000,490,1920,490C1840,490,1760,490,1680,490C1600,490,1520,490,1440,490C1360,490,1280,490,1200,490C1120,490,1040,490,960,490C880,490,800,490,720,490C640,490,560,490,480,490C400,490,320,490,240,490C160,490,80,490,40,490L0,490Z"/><defs><linearGradient id="sw-gradient-2" x1="0" x2="0" y1="1" y2="0"><stop stop-color="rgba(253, 139, 81, 1)" offset="0%"/><stop stop-color="rgba(253, 139, 81, 1)" offset="100%"/></linearGradient></defs><path style="transform:translate(0, 100px); opacity:0.8" fill="url(#sw-gradient-2)" d="M0,245L40,261.3C80,278,160,310,240,334.8C320,359,400,376,480,343C560,310,640,229,720,228.7C800,229,880,310,960,318.5C1040,327,1120,261,1200,220.5C1280,180,1360,163,1440,155.2C1520,147,1600,147,1680,130.7C1760,114,1840,82,1920,114.3C2000,147,2080,245,2160,261.3C2240,278,2320,212,2400,196C2480,180,2560,212,2640,253.2C2720,294,2800,343,2880,334.8C2960,327,3040,261,3120,261.3C3200,261,3280,327,3360,351.2C3440,376,3520,359,3600,334.8C3680,310,3760,278,3840,220.5C3920,163,4000,82,4080,81.7C4160,82,4240,163,4320,236.8C4400,310,4480,376,4560,359.3C4640,343,4720,245,4800,204.2C4880,163,4960,180,5040,187.8C5120,196,5200,196,5280,187.8C5360,180,5440,163,5520,196C5600,229,5680,310,5720,351.2L5760,392L5760,490L5720,490C5680,490,5600,490,5520,490C5440,490,5360,490,5280,490C5200,490,5120,490,5040,490C4960,490,4880,490,4800,490C4720,490,4640,490,4560,490C4480,490,4400,490,4320,490C4240,490,4160,490,4080,490C4000,490,3920,490,3840,490C3760,490,3680,490,3600,490C3520,490,3440,490,3360,490C3280,490,3200,490,3120,490C3040,490,2960,490,2880,490C2800,490,2720,490,2640,490C2560,490,2480,490,2400,490C2320,490,2240,490,2160,490C2080,490,2000,490,1920,490C1840,490,1760,490,1680,490C1600,490,1520,490,1440,490C1360,490,1280,490,1200,490C1120,490,1040,490,960,490C880,490,800,490,720,490C640,490,560,490,480,490C400,490,320,490,240,490C160,490,80,490,40,490L0,490Z"/><defs><linearGradient id="sw-gradient-3" x1="0" x2="0" y1="1" y2="0"><stop stop-color="rgba(253, 139, 81, 1)" offset="0%"/><stop stop-color="rgba(253, 139, 81, 1)" offset="100%"/></linearGradient></defs><path style="transform:translate(0, 150px); opacity:0.7" fill="url(#sw-gradient-3)" d="M0,294L40,294C80,294,160,294,240,310.3C320,327,400,359,480,383.8C560,408,640,425,720,375.7C800,327,880,212,960,155.2C1040,98,1120,98,1200,106.2C1280,114,1360,131,1440,122.5C1520,114,1600,82,1680,81.7C1760,82,1840,114,1920,130.7C2000,147,2080,147,2160,187.8C2240,229,2320,310,2400,294C2480,278,2560,163,2640,155.2C2720,147,2800,245,2880,236.8C2960,229,3040,114,3120,89.8C3200,65,3280,131,3360,187.8C3440,245,3520,294,3600,310.3C3680,327,3760,310,3840,294C3920,278,4000,261,4080,285.8C4160,310,4240,376,4320,351.2C4400,327,4480,212,4560,187.8C4640,163,4720,229,4800,228.7C4880,229,4960,163,5040,179.7C5120,196,5200,294,5280,310.3C5360,327,5440,261,5520,212.3C5600,163,5680,131,5720,114.3L5760,98L5760,490L5720,490C5680,490,5600,490,5520,490C5440,490,5360,490,5280,490C5200,490,5120,490,5040,490C4960,490,4880,490,4800,490C4720,490,4640,490,4560,490C4480,490,4400,490,4320,490C4240,490,4160,490,4080,490C4000,490,3920,490,3840,490C3760,490,3680,490,3600,490C3520,490,3440,490,3360,490C3280,490,3200,490,3120,490C3040,490,2960,490,2880,490C2800,490,2720,490,2640,490C2560,490,2480,490,2400,490C2320,490,2240,490,2160,490C2080,490,2000,490,1920,490C1840,490,1760,490,1680,490C1600,490,1520,490,1440,490C1360,490,1280,490,1200,490C1120,490,1040,490,960,490C880,490,800,490,720,490C640,490,560,490,480,490C400,490,320,490,240,490C160,490,80,490,40,490L0,490Z"/></svg>