<?xml version="1.0" standalone="no"?>
<svg xmlns:xlink="http://www.w3.org/1999/xlink" id="wave" style="transform:rotate(180deg); transition: 0.3s" viewBox="0 0 1440 490" version="1.1" xmlns="http://www.w3.org/2000/svg"><defs><linearGradient id="sw-gradient-0" x1="0" x2="0" y1="1" y2="0"><stop stop-color="rgba(56, 116, 120, 1)" offset="0%"/><stop stop-color="rgba(226, 241, 231, 1)" offset="100%"/></linearGradient></defs><path style="transform:translate(0, 0px); opacity:1" fill="url(#sw-gradient-0)" d="M0,0L40,8.2C80,16,160,33,240,98C320,163,400,278,480,310.3C560,343,640,294,720,236.8C800,180,880,114,960,122.5C1040,131,1120,212,1200,220.5C1280,229,1360,163,1440,122.5C1520,82,1600,65,1680,122.5C1760,180,1840,310,1920,375.7C2000,441,2080,441,2160,367.5C2240,294,2320,147,2400,147C2480,147,2560,294,2640,343C2720,392,2800,343,2880,326.7C2960,310,3040,327,3120,294C3200,261,3280,180,3360,138.8C3440,98,3520,98,3600,114.3C3680,131,3760,163,3840,147C3920,131,4000,65,4080,65.3C4160,65,4240,131,4320,147C4400,163,4480,131,4560,98C4640,65,4720,33,4800,32.7C4880,33,4960,65,5040,81.7C5120,98,5200,98,5280,138.8C5360,180,5440,261,5520,277.7C5600,294,5680,245,5720,220.5L5760,196L5760,490L5720,490C5680,490,5600,490,5520,490C5440,490,5360,490,5280,490C5200,490,5120,490,5040,490C4960,490,4880,490,4800,490C4720,490,4640,490,4560,490C4480,490,4400,490,4320,490C4240,490,4160,490,4080,490C4000,490,3920,490,3840,490C3760,490,3680,490,3600,490C3520,490,3440,490,3360,490C3280,490,3200,490,3120,490C3040,490,2960,490,2880,490C2800,490,2720,490,2640,490C2560,490,2480,490,2400,490C2320,490,2240,490,2160,490C2080,490,2000,490,1920,490C1840,490,1760,490,1680,490C1600,490,1520,490,1440,490C1360,490,1280,490,1200,490C1120,490,1040,490,960,490C880,490,800,490,720,490C640,490,560,490,480,490C400,490,320,490,240,490C160,490,80,490,40,490L0,490Z"/><defs><linearGradient id="sw-gradient-1" x1="0" x2="0" y1="1" y2="0"><stop stop-color="rgba(226, 241, 231, 1)" offset="0%"/><stop stop-color="rgba(98, 149, 132, 1)" offset="100%"/></linearGradient></defs><path style="transform:translate(0, 50px); opacity:0.9" fill="url(#sw-gradient-1)" d="M0,441L40,375.7C80,310,160,180,240,122.5C320,65,400,82,480,106.2C560,131,640,163,720,196C800,229,880,261,960,285.8C1040,310,1120,327,1200,302.2C1280,278,1360,212,1440,196C1520,180,1600,212,1680,212.3C1760,212,1840,180,1920,171.5C2000,163,2080,180,2160,171.5C2240,163,2320,131,2400,163.3C2480,196,2560,294,2640,302.2C2720,310,2800,229,2880,179.7C2960,131,3040,114,3120,130.7C3200,147,3280,196,3360,196C3440,196,3520,147,3600,122.5C3680,98,3760,98,3840,155.2C3920,212,4000,327,4080,375.7C4160,425,4240,408,4320,400.2C4400,392,4480,392,4560,334.8C4640,278,4720,163,4800,106.2C4880,49,4960,49,5040,57.2C5120,65,5200,82,5280,106.2C5360,131,5440,163,5520,220.5C5600,278,5680,359,5720,400.2L5760,441L5760,490L5720,490C5680,490,5600,490,5520,490C5440,490,5360,490,5280,490C5200,490,5120,490,5040,490C4960,490,4880,490,4800,490C4720,490,4640,490,4560,490C4480,490,4400,490,4320,490C4240,490,4160,490,4080,490C4000,490,3920,490,3840,490C3760,490,3680,490,3600,490C3520,490,3440,490,3360,490C3280,490,3200,490,3120,490C3040,490,2960,490,2880,490C2800,490,2720,490,2640,490C2560,490,2480,490,2400,490C2320,490,2240,490,2160,490C2080,490,2000,490,1920,490C1840,490,1760,490,1680,490C1600,490,1520,490,1440,490C1360,490,1280,490,1200,490C1120,490,1040,490,960,490C880,490,800,490,720,490C640,490,560,490,480,490C400,490,320,490,240,490C160,490,80,490,40,490L0,490Z"/><defs><linearGradient id="sw-gradient-2" x1="0" x2="0" y1="1" y2="0"><stop stop-color="rgba(98, 149, 132, 1)" offset="0%"/><stop stop-color="rgba(56, 116, 120, 1)" offset="100%"/></linearGradient></defs><path style="transform:translate(0, 100px); opacity:0.8" fill="url(#sw-gradient-2)" d="M0,343L40,334.8C80,327,160,310,240,261.3C320,212,400,131,480,81.7C560,33,640,16,720,57.2C800,98,880,196,960,228.7C1040,261,1120,229,1200,228.7C1280,229,1360,261,1440,245C1520,229,1600,163,1680,155.2C1760,147,1840,196,1920,236.8C2000,278,2080,310,2160,310.3C2240,310,2320,278,2400,269.5C2480,261,2560,278,2640,245C2720,212,2800,131,2880,155.2C2960,180,3040,310,3120,302.2C3200,294,3280,147,3360,147C3440,147,3520,294,3600,359.3C3680,425,3760,408,3840,334.8C3920,261,4000,131,4080,89.8C4160,49,4240,98,4320,122.5C4400,147,4480,147,4560,122.5C4640,98,4720,49,4800,73.5C4880,98,4960,196,5040,269.5C5120,343,5200,392,5280,383.8C5360,376,5440,310,5520,302.2C5600,294,5680,343,5720,367.5L5760,392L5760,490L5720,490C5680,490,5600,490,5520,490C5440,490,5360,490,5280,490C5200,490,5120,490,5040,490C4960,490,4880,490,4800,490C4720,490,4640,490,4560,490C4480,490,4400,490,4320,490C4240,490,4160,490,4080,490C4000,490,3920,490,3840,490C3760,490,3680,490,3600,490C3520,490,3440,490,3360,490C3280,490,3200,490,3120,490C3040,490,2960,490,2880,490C2800,490,2720,490,2640,490C2560,490,2480,490,2400,490C2320,490,2240,490,2160,490C2080,490,2000,490,1920,490C1840,490,1760,490,1680,490C1600,490,1520,490,1440,490C1360,490,1280,490,1200,490C1120,490,1040,490,960,490C880,490,800,490,720,490C640,490,560,490,480,490C400,490,320,490,240,490C160,490,80,490,40,490L0,490Z"/><defs><linearGradient id="sw-gradient-3" x1="0" x2="0" y1="1" y2="0"><stop stop-color="rgba(56, 116, 120, 1)" offset="0%"/><stop stop-color="rgba(226, 241, 231, 1)" offset="100%"/></linearGradient></defs><path style="transform:translate(0, 150px); opacity:0.7" fill="url(#sw-gradient-3)" d="M0,245L40,220.5C80,196,160,147,240,130.7C320,114,400,131,480,155.2C560,180,640,212,720,196C800,180,880,114,960,81.7C1040,49,1120,49,1200,49C1280,49,1360,49,1440,81.7C1520,114,1600,180,1680,196C1760,212,1840,180,1920,179.7C2000,180,2080,212,2160,228.7C2240,245,2320,245,2400,212.3C2480,180,2560,114,2640,89.8C2720,65,2800,82,2880,130.7C2960,180,3040,261,3120,245C3200,229,3280,114,3360,114.3C3440,114,3520,229,3600,245C3680,261,3760,180,3840,179.7C3920,180,4000,261,4080,318.5C4160,376,4240,408,4320,400.2C4400,392,4480,343,4560,294C4640,245,4720,196,4800,212.3C4880,229,4960,310,5040,359.3C5120,408,5200,425,5280,375.7C5360,327,5440,212,5520,147C5600,82,5680,65,5720,57.2L5760,49L5760,490L5720,490C5680,490,5600,490,5520,490C5440,490,5360,490,5280,490C5200,490,5120,490,5040,490C4960,490,4880,490,4800,490C4720,490,4640,490,4560,490C4480,490,4400,490,4320,490C4240,490,4160,490,4080,490C4000,490,3920,490,3840,490C3760,490,3680,490,3600,490C3520,490,3440,490,3360,490C3280,490,3200,490,3120,490C3040,490,2960,490,2880,490C2800,490,2720,490,2640,490C2560,490,2480,490,2400,490C2320,490,2240,490,2160,490C2080,490,2000,490,1920,490C1840,490,1760,490,1680,490C1600,490,1520,490,1440,490C1360,490,1280,490,1200,490C1120,490,1040,490,960,490C880,490,800,490,720,490C640,490,560,490,480,490C400,490,320,490,240,490C160,490,80,490,40,490L0,490Z"/></svg>