<?xml version="1.0" standalone="no"?>
<svg xmlns:xlink="http://www.w3.org/1999/xlink" id="wave" style="transform:rotate(180deg); transition: 0.3s" viewBox="0 0 1440 170" version="1.1" xmlns="http://www.w3.org/2000/svg"><defs><linearGradient id="sw-gradient-0" x1="0" x2="0" y1="1" y2="0"><stop stop-color="rgba(36, 54, 66, 1)" offset="0%"/><stop stop-color="rgba(56, 116, 120, 1)" offset="100%"/></linearGradient></defs><path style="transform:translate(0, 0px); opacity:1" fill="url(#sw-gradient-0)" d="M0,85L26.7,82.2C53.3,79,107,74,160,79.3C213.3,85,267,102,320,116.2C373.3,130,427,142,480,138.8C533.3,136,587,119,640,107.7C693.3,96,747,91,800,73.7C853.3,57,907,28,960,14.2C1013.3,0,1067,0,1120,8.5C1173.3,17,1227,34,1280,51C1333.3,68,1387,85,1440,93.5C1493.3,102,1547,102,1600,87.8C1653.3,74,1707,45,1760,34C1813.3,23,1867,28,1920,36.8C1973.3,45,2027,57,2080,59.5C2133.3,62,2187,57,2240,48.2C2293.3,40,2347,28,2400,28.3C2453.3,28,2507,40,2560,53.8C2613.3,68,2667,85,2720,99.2C2773.3,113,2827,125,2880,121.8C2933.3,119,2987,102,3040,93.5C3093.3,85,3147,85,3200,73.7C3253.3,62,3307,40,3360,39.7C3413.3,40,3467,62,3520,85C3573.3,108,3627,130,3680,136C3733.3,142,3787,130,3813,124.7L3840,119L3840,170L3813.3,170C3786.7,170,3733,170,3680,170C3626.7,170,3573,170,3520,170C3466.7,170,3413,170,3360,170C3306.7,170,3253,170,3200,170C3146.7,170,3093,170,3040,170C2986.7,170,2933,170,2880,170C2826.7,170,2773,170,2720,170C2666.7,170,2613,170,2560,170C2506.7,170,2453,170,2400,170C2346.7,170,2293,170,2240,170C2186.7,170,2133,170,2080,170C2026.7,170,1973,170,1920,170C1866.7,170,1813,170,1760,170C1706.7,170,1653,170,1600,170C1546.7,170,1493,170,1440,170C1386.7,170,1333,170,1280,170C1226.7,170,1173,170,1120,170C1066.7,170,1013,170,960,170C906.7,170,853,170,800,170C746.7,170,693,170,640,170C586.7,170,533,170,480,170C426.7,170,373,170,320,170C266.7,170,213,170,160,170C106.7,170,53,170,27,170L0,170Z"/><defs><linearGradient id="sw-gradient-1" x1="0" x2="0" y1="1" y2="0"><stop stop-color="rgba(98, 149, 132, 1)" offset="0%"/><stop stop-color="rgba(226, 241, 231, 1)" offset="100%"/></linearGradient></defs><path style="transform:translate(0, 50px); opacity:0.9" fill="url(#sw-gradient-1)" d="M0,119L26.7,124.7C53.3,130,107,142,160,127.5C213.3,113,267,74,320,48.2C373.3,23,427,11,480,22.7C533.3,34,587,68,640,87.8C693.3,108,747,113,800,110.5C853.3,108,907,96,960,82.2C1013.3,68,1067,51,1120,45.3C1173.3,40,1227,45,1280,42.5C1333.3,40,1387,28,1440,31.2C1493.3,34,1547,51,1600,51C1653.3,51,1707,34,1760,45.3C1813.3,57,1867,96,1920,116.2C1973.3,136,2027,136,2080,138.8C2133.3,142,2187,147,2240,147.3C2293.3,147,2347,142,2400,130.3C2453.3,119,2507,102,2560,93.5C2613.3,85,2667,85,2720,87.8C2773.3,91,2827,96,2880,99.2C2933.3,102,2987,102,3040,99.2C3093.3,96,3147,91,3200,96.3C3253.3,102,3307,119,3360,119C3413.3,119,3467,102,3520,104.8C3573.3,108,3627,130,3680,116.2C3733.3,102,3787,51,3813,25.5L3840,0L3840,170L3813.3,170C3786.7,170,3733,170,3680,170C3626.7,170,3573,170,3520,170C3466.7,170,3413,170,3360,170C3306.7,170,3253,170,3200,170C3146.7,170,3093,170,3040,170C2986.7,170,2933,170,2880,170C2826.7,170,2773,170,2720,170C2666.7,170,2613,170,2560,170C2506.7,170,2453,170,2400,170C2346.7,170,2293,170,2240,170C2186.7,170,2133,170,2080,170C2026.7,170,1973,170,1920,170C1866.7,170,1813,170,1760,170C1706.7,170,1653,170,1600,170C1546.7,170,1493,170,1440,170C1386.7,170,1333,170,1280,170C1226.7,170,1173,170,1120,170C1066.7,170,1013,170,960,170C906.7,170,853,170,800,170C746.7,170,693,170,640,170C586.7,170,533,170,480,170C426.7,170,373,170,320,170C266.7,170,213,170,160,170C106.7,170,53,170,27,170L0,170Z"/><defs><linearGradient id="sw-gradient-2" x1="0" x2="0" y1="1" y2="0"><stop stop-color="rgba(75, 129, 133, 1)" offset="0%"/><stop stop-color="rgba(135, 171, 174, 1)" offset="100%"/></linearGradient></defs><path style="transform:translate(0, 100px); opacity:0.8" fill="url(#sw-gradient-2)" d="M0,34L26.7,42.5C53.3,51,107,68,160,87.8C213.3,108,267,130,320,124.7C373.3,119,427,85,480,73.7C533.3,62,587,74,640,76.5C693.3,79,747,74,800,70.8C853.3,68,907,68,960,56.7C1013.3,45,1067,23,1120,17C1173.3,11,1227,23,1280,25.5C1333.3,28,1387,23,1440,36.8C1493.3,51,1547,85,1600,99.2C1653.3,113,1707,108,1760,102C1813.3,96,1867,91,1920,82.2C1973.3,74,2027,62,2080,48.2C2133.3,34,2187,17,2240,31.2C2293.3,45,2347,91,2400,116.2C2453.3,142,2507,147,2560,141.7C2613.3,136,2667,119,2720,116.2C2773.3,113,2827,125,2880,121.8C2933.3,119,2987,102,3040,82.2C3093.3,62,3147,40,3200,48.2C3253.3,57,3307,96,3360,119C3413.3,142,3467,147,3520,138.8C3573.3,130,3627,108,3680,102C3733.3,96,3787,108,3813,113.3L3840,119L3840,170L3813.3,170C3786.7,170,3733,170,3680,170C3626.7,170,3573,170,3520,170C3466.7,170,3413,170,3360,170C3306.7,170,3253,170,3200,170C3146.7,170,3093,170,3040,170C2986.7,170,2933,170,2880,170C2826.7,170,2773,170,2720,170C2666.7,170,2613,170,2560,170C2506.7,170,2453,170,2400,170C2346.7,170,2293,170,2240,170C2186.7,170,2133,170,2080,170C2026.7,170,1973,170,1920,170C1866.7,170,1813,170,1760,170C1706.7,170,1653,170,1600,170C1546.7,170,1493,170,1440,170C1386.7,170,1333,170,1280,170C1226.7,170,1173,170,1120,170C1066.7,170,1013,170,960,170C906.7,170,853,170,800,170C746.7,170,693,170,640,170C586.7,170,533,170,480,170C426.7,170,373,170,320,170C266.7,170,213,170,160,170C106.7,170,53,170,27,170L0,170Z"/></svg>