<?xml version="1.0" standalone="no"?>
<svg xmlns:xlink="http://www.w3.org/1999/xlink" id="wave" style="transform:rotate(180deg); transition: 0.3s" viewBox="0 0 1440 490" version="1.1" xmlns="http://www.w3.org/2000/svg"><defs><linearGradient id="sw-gradient-0" x1="0" x2="0" y1="1" y2="0"><stop stop-color="rgba(98, 149, 132, 1)" offset="0%"/><stop stop-color="rgba(226, 241, 231, 1)" offset="100%"/></linearGradient></defs><path style="transform:translate(0, 0px); opacity:1" fill="url(#sw-gradient-0)" d="M0,0L48,0C96,0,192,0,288,49C384,98,480,196,576,204.2C672,212,768,131,864,89.8C960,49,1056,49,1152,73.5C1248,98,1344,147,1440,196C1536,245,1632,294,1728,310.3C1824,327,1920,310,2016,310.3C2112,310,2208,327,2304,334.8C2400,343,2496,343,2592,285.8C2688,229,2784,114,2880,122.5C2976,131,3072,261,3168,334.8C3264,408,3360,425,3456,416.5C3552,408,3648,376,3744,326.7C3840,278,3936,212,4032,179.7C4128,147,4224,147,4320,196C4416,245,4512,343,4608,318.5C4704,294,4800,147,4896,130.7C4992,114,5088,229,5184,294C5280,359,5376,376,5472,326.7C5568,278,5664,163,5760,98C5856,33,5952,16,6048,32.7C6144,49,6240,98,6336,114.3C6432,131,6528,114,6624,130.7C6720,147,6816,196,6864,220.5L6912,245L6912,490L6864,490C6816,490,6720,490,6624,490C6528,490,6432,490,6336,490C6240,490,6144,490,6048,490C5952,490,5856,490,5760,490C5664,490,5568,490,5472,490C5376,490,5280,490,5184,490C5088,490,4992,490,4896,490C4800,490,4704,490,4608,490C4512,490,4416,490,4320,490C4224,490,4128,490,4032,490C3936,490,3840,490,3744,490C3648,490,3552,490,3456,490C3360,490,3264,490,3168,490C3072,490,2976,490,2880,490C2784,490,2688,490,2592,490C2496,490,2400,490,2304,490C2208,490,2112,490,2016,490C1920,490,1824,490,1728,490C1632,490,1536,490,1440,490C1344,490,1248,490,1152,490C1056,490,960,490,864,490C768,490,672,490,576,490C480,490,384,490,288,490C192,490,96,490,48,490L0,490Z"/><defs><linearGradient id="sw-gradient-1" x1="0" x2="0" y1="1" y2="0"><stop stop-color="rgba(135, 171, 174, 1)" offset="0%"/><stop stop-color="rgba(226, 241, 231, 1)" offset="100%"/></linearGradient></defs><path style="transform:translate(0, 50px); opacity:0.9" fill="url(#sw-gradient-1)" d="M0,343L48,343C96,343,192,343,288,310.3C384,278,480,212,576,187.8C672,163,768,180,864,171.5C960,163,1056,131,1152,155.2C1248,180,1344,261,1440,277.7C1536,294,1632,245,1728,220.5C1824,196,1920,196,2016,163.3C2112,131,2208,65,2304,40.8C2400,16,2496,33,2592,89.8C2688,147,2784,245,2880,302.2C2976,359,3072,376,3168,367.5C3264,359,3360,327,3456,294C3552,261,3648,229,3744,204.2C3840,180,3936,163,4032,171.5C4128,180,4224,212,4320,187.8C4416,163,4512,82,4608,73.5C4704,65,4800,131,4896,138.8C4992,147,5088,98,5184,65.3C5280,33,5376,16,5472,32.7C5568,49,5664,98,5760,163.3C5856,229,5952,310,6048,359.3C6144,408,6240,425,6336,432.8C6432,441,6528,441,6624,392C6720,343,6816,245,6864,196L6912,147L6912,490L6864,490C6816,490,6720,490,6624,490C6528,490,6432,490,6336,490C6240,490,6144,490,6048,490C5952,490,5856,490,5760,490C5664,490,5568,490,5472,490C5376,490,5280,490,5184,490C5088,490,4992,490,4896,490C4800,490,4704,490,4608,490C4512,490,4416,490,4320,490C4224,490,4128,490,4032,490C3936,490,3840,490,3744,490C3648,490,3552,490,3456,490C3360,490,3264,490,3168,490C3072,490,2976,490,2880,490C2784,490,2688,490,2592,490C2496,490,2400,490,2304,490C2208,490,2112,490,2016,490C1920,490,1824,490,1728,490C1632,490,1536,490,1440,490C1344,490,1248,490,1152,490C1056,490,960,490,864,490C768,490,672,490,576,490C480,490,384,490,288,490C192,490,96,490,48,490L0,490Z"/><defs><linearGradient id="sw-gradient-2" x1="0" x2="0" y1="1" y2="0"><stop stop-color="rgba(135, 171, 174, 1)" offset="0%"/><stop stop-color="rgba(115, 157, 160, 1)" offset="100%"/></linearGradient></defs><path style="transform:translate(0, 100px); opacity:0.8" fill="url(#sw-gradient-2)" d="M0,196L48,236.8C96,278,192,359,288,351.2C384,343,480,245,576,204.2C672,163,768,180,864,196C960,212,1056,229,1152,236.8C1248,245,1344,245,1440,204.2C1536,163,1632,82,1728,40.8C1824,0,1920,0,2016,73.5C2112,147,2208,294,2304,334.8C2400,376,2496,310,2592,245C2688,180,2784,114,2880,89.8C2976,65,3072,82,3168,81.7C3264,82,3360,65,3456,106.2C3552,147,3648,245,3744,310.3C3840,376,3936,408,4032,424.7C4128,441,4224,441,4320,432.8C4416,425,4512,408,4608,367.5C4704,327,4800,261,4896,196C4992,131,5088,65,5184,98C5280,131,5376,261,5472,310.3C5568,359,5664,327,5760,269.5C5856,212,5952,131,6048,122.5C6144,114,6240,180,6336,228.7C6432,278,6528,310,6624,285.8C6720,261,6816,180,6864,138.8L6912,98L6912,490L6864,490C6816,490,6720,490,6624,490C6528,490,6432,490,6336,490C6240,490,6144,490,6048,490C5952,490,5856,490,5760,490C5664,490,5568,490,5472,490C5376,490,5280,490,5184,490C5088,490,4992,490,4896,490C4800,490,4704,490,4608,490C4512,490,4416,490,4320,490C4224,490,4128,490,4032,490C3936,490,3840,490,3744,490C3648,490,3552,490,3456,490C3360,490,3264,490,3168,490C3072,490,2976,490,2880,490C2784,490,2688,490,2592,490C2496,490,2400,490,2304,490C2208,490,2112,490,2016,490C1920,490,1824,490,1728,490C1632,490,1536,490,1440,490C1344,490,1248,490,1152,490C1056,490,960,490,864,490C768,490,672,490,576,490C480,490,384,490,288,490C192,490,96,490,48,490L0,490Z"/></svg>