<?xml version="1.0" standalone="no"?>
<svg xmlns:xlink="http://www.w3.org/1999/xlink" id="wave" style="transform:rotate(180deg); transition: 0.3s" viewBox="0 0 1440 490" version="1.1" xmlns="http://www.w3.org/2000/svg"><defs><linearGradient id="sw-gradient-0" x1="0" x2="0" y1="1" y2="0"><stop stop-color="rgba(98, 149, 132, 1)" offset="0%"/><stop stop-color="rgba(226, 241, 231, 1)" offset="100%"/></linearGradient></defs><path style="transform:translate(0, 0px); opacity:1" fill="url(#sw-gradient-0)" d="M0,147L40,147C80,147,160,147,240,122.5C320,98,400,49,480,49C560,49,640,98,720,122.5C800,147,880,147,960,171.5C1040,196,1120,245,1200,220.5C1280,196,1360,98,1440,114.3C1520,131,1600,261,1680,310.3C1760,359,1840,327,1920,285.8C2000,245,2080,196,2160,187.8C2240,180,2320,212,2400,228.7C2480,245,2560,245,2640,204.2C2720,163,2800,82,2880,98C2960,114,3040,229,3120,277.7C3200,327,3280,310,3360,277.7C3440,245,3520,196,3600,196C3680,196,3760,245,3840,261.3C3920,278,4000,261,4080,277.7C4160,294,4240,343,4320,343C4400,343,4480,294,4560,285.8C4640,278,4720,310,4800,285.8C4880,261,4960,180,5040,171.5C5120,163,5200,229,5280,228.7C5360,229,5440,163,5520,114.3C5600,65,5680,33,5720,16.3L5760,0L5760,490L5720,490C5680,490,5600,490,5520,490C5440,490,5360,490,5280,490C5200,490,5120,490,5040,490C4960,490,4880,490,4800,490C4720,490,4640,490,4560,490C4480,490,4400,490,4320,490C4240,490,4160,490,4080,490C4000,490,3920,490,3840,490C3760,490,3680,490,3600,490C3520,490,3440,490,3360,490C3280,490,3200,490,3120,490C3040,490,2960,490,2880,490C2800,490,2720,490,2640,490C2560,490,2480,490,2400,490C2320,490,2240,490,2160,490C2080,490,2000,490,1920,490C1840,490,1760,490,1680,490C1600,490,1520,490,1440,490C1360,490,1280,490,1200,490C1120,490,1040,490,960,490C880,490,800,490,720,490C640,490,560,490,480,490C400,490,320,490,240,490C160,490,80,490,40,490L0,490Z"/><defs><linearGradient id="sw-gradient-1" x1="0" x2="0" y1="1" y2="0"><stop stop-color="rgba(226, 241, 231, 1)" offset="0%"/><stop stop-color="rgba(98, 149, 132, 1)" offset="100%"/></linearGradient></defs><path style="transform:translate(0, 50px); opacity:0.9" fill="url(#sw-gradient-1)" d="M0,98L40,138.8C80,180,160,261,240,285.8C320,310,400,278,480,294C560,310,640,376,720,383.8C800,392,880,343,960,294C1040,245,1120,196,1200,204.2C1280,212,1360,278,1440,277.7C1520,278,1600,212,1680,163.3C1760,114,1840,82,1920,89.8C2000,98,2080,147,2160,187.8C2240,229,2320,261,2400,294C2480,327,2560,359,2640,375.7C2720,392,2800,392,2880,383.8C2960,376,3040,359,3120,351.2C3200,343,3280,343,3360,318.5C3440,294,3520,245,3600,236.8C3680,229,3760,261,3840,269.5C3920,278,4000,261,4080,261.3C4160,261,4240,278,4320,302.2C4400,327,4480,359,4560,318.5C4640,278,4720,163,4800,171.5C4880,180,4960,310,5040,326.7C5120,343,5200,245,5280,245C5360,245,5440,343,5520,326.7C5600,310,5680,180,5720,114.3L5760,49L5760,490L5720,490C5680,490,5600,490,5520,490C5440,490,5360,490,5280,490C5200,490,5120,490,5040,490C4960,490,4880,490,4800,490C4720,490,4640,490,4560,490C4480,490,4400,490,4320,490C4240,490,4160,490,4080,490C4000,490,3920,490,3840,490C3760,490,3680,490,3600,490C3520,490,3440,490,3360,490C3280,490,3200,490,3120,490C3040,490,2960,490,2880,490C2800,490,2720,490,2640,490C2560,490,2480,490,2400,490C2320,490,2240,490,2160,490C2080,490,2000,490,1920,490C1840,490,1760,490,1680,490C1600,490,1520,490,1440,490C1360,490,1280,490,1200,490C1120,490,1040,490,960,490C880,490,800,490,720,490C640,490,560,490,480,490C400,490,320,490,240,490C160,490,80,490,40,490L0,490Z"/><defs><linearGradient id="sw-gradient-2" x1="0" x2="0" y1="1" y2="0"><stop stop-color="rgba(98, 149, 132, 1)" offset="0%"/><stop stop-color="rgba(56, 116, 120, 1)" offset="100%"/></linearGradient></defs><path style="transform:translate(0, 100px); opacity:0.8" fill="url(#sw-gradient-2)" d="M0,343L40,310.3C80,278,160,212,240,212.3C320,212,400,278,480,285.8C560,294,640,245,720,261.3C800,278,880,359,960,400.2C1040,441,1120,441,1200,375.7C1280,310,1360,180,1440,130.7C1520,82,1600,114,1680,163.3C1760,212,1840,278,1920,253.2C2000,229,2080,114,2160,122.5C2240,131,2320,261,2400,261.3C2480,261,2560,131,2640,106.2C2720,82,2800,163,2880,204.2C2960,245,3040,245,3120,261.3C3200,278,3280,310,3360,318.5C3440,327,3520,310,3600,326.7C3680,343,3760,392,3840,416.5C3920,441,4000,441,4080,367.5C4160,294,4240,147,4320,81.7C4400,16,4480,33,4560,65.3C4640,98,4720,147,4800,163.3C4880,180,4960,163,5040,138.8C5120,114,5200,82,5280,98C5360,114,5440,180,5520,236.8C5600,294,5680,343,5720,367.5L5760,392L5760,490L5720,490C5680,490,5600,490,5520,490C5440,490,5360,490,5280,490C5200,490,5120,490,5040,490C4960,490,4880,490,4800,490C4720,490,4640,490,4560,490C4480,490,4400,490,4320,490C4240,490,4160,490,4080,490C4000,490,3920,490,3840,490C3760,490,3680,490,3600,490C3520,490,3440,490,3360,490C3280,490,3200,490,3120,490C3040,490,2960,490,2880,490C2800,490,2720,490,2640,490C2560,490,2480,490,2400,490C2320,490,2240,490,2160,490C2080,490,2000,490,1920,490C1840,490,1760,490,1680,490C1600,490,1520,490,1440,490C1360,490,1280,490,1200,490C1120,490,1040,490,960,490C880,490,800,490,720,490C640,490,560,490,480,490C400,490,320,490,240,490C160,490,80,490,40,490L0,490Z"/><defs><linearGradient id="sw-gradient-3" x1="0" x2="0" y1="1" y2="0"><stop stop-color="rgba(56, 116, 120, 1)" offset="0%"/><stop stop-color="rgba(226, 241, 231, 1)" offset="100%"/></linearGradient></defs><path style="transform:translate(0, 150px); opacity:0.7" fill="url(#sw-gradient-3)" d="M0,49L40,89.8C80,131,160,212,240,204.2C320,196,400,98,480,106.2C560,114,640,229,720,277.7C800,327,880,310,960,326.7C1040,343,1120,392,1200,408.3C1280,425,1360,408,1440,392C1520,376,1600,359,1680,351.2C1760,343,1840,343,1920,359.3C2000,376,2080,408,2160,375.7C2240,343,2320,245,2400,245C2480,245,2560,343,2640,318.5C2720,294,2800,147,2880,89.8C2960,33,3040,65,3120,73.5C3200,82,3280,65,3360,114.3C3440,163,3520,278,3600,285.8C3680,294,3760,196,3840,171.5C3920,147,4000,196,4080,245C4160,294,4240,343,4320,302.2C4400,261,4480,131,4560,106.2C4640,82,4720,163,4800,220.5C4880,278,4960,310,5040,334.8C5120,359,5200,376,5280,343C5360,310,5440,229,5520,171.5C5600,114,5680,82,5720,65.3L5760,49L5760,490L5720,490C5680,490,5600,490,5520,490C5440,490,5360,490,5280,490C5200,490,5120,490,5040,490C4960,490,4880,490,4800,490C4720,490,4640,490,4560,490C4480,490,4400,490,4320,490C4240,490,4160,490,4080,490C4000,490,3920,490,3840,490C3760,490,3680,490,3600,490C3520,490,3440,490,3360,490C3280,490,3200,490,3120,490C3040,490,2960,490,2880,490C2800,490,2720,490,2640,490C2560,490,2480,490,2400,490C2320,490,2240,490,2160,490C2080,490,2000,490,1920,490C1840,490,1760,490,1680,490C1600,490,1520,490,1440,490C1360,490,1280,490,1200,490C1120,490,1040,490,960,490C880,490,800,490,720,490C640,490,560,490,480,490C400,490,320,490,240,490C160,490,80,490,40,490L0,490Z"/></svg>