<?xml version="1.0" standalone="no"?>
<svg xmlns:xlink="http://www.w3.org/1999/xlink" id="wave" style="transform:rotate(180deg); transition: 0.3s" viewBox="0 0 1440 490" version="1.1" xmlns="http://www.w3.org/2000/svg"><defs><linearGradient id="sw-gradient-0" x1="0" x2="0" y1="1" y2="0"><stop stop-color="rgba(33, 69, 72, 1)" offset="0%"/><stop stop-color="rgba(95, 143, 147, 1)" offset="100%"/></linearGradient></defs><path style="transform:translate(0, 0px); opacity:1" fill="url(#sw-gradient-0)" d="M0,49L40,65.3C80,82,160,114,240,130.7C320,147,400,147,480,138.8C560,131,640,114,720,147C800,180,880,261,960,277.7C1040,294,1120,245,1200,204.2C1280,163,1360,131,1440,155.2C1520,180,1600,261,1680,253.2C1760,245,1840,147,1920,122.5C2000,98,2080,147,2160,187.8C2240,229,2320,261,2400,302.2C2480,343,2560,392,2640,367.5C2720,343,2800,245,2880,179.7C2960,114,3040,82,3120,89.8C3200,98,3280,147,3360,147C3440,147,3520,98,3600,114.3C3680,131,3760,212,3840,212.3C3920,212,4000,131,4080,147C4160,163,4240,278,4320,310.3C4400,343,4480,294,4560,253.2C4640,212,4720,180,4800,171.5C4880,163,4960,180,5040,155.2C5120,131,5200,65,5280,49C5360,33,5440,65,5520,89.8C5600,114,5680,131,5720,138.8L5760,147L5760,490L5720,490C5680,490,5600,490,5520,490C5440,490,5360,490,5280,490C5200,490,5120,490,5040,490C4960,490,4880,490,4800,490C4720,490,4640,490,4560,490C4480,490,4400,490,4320,490C4240,490,4160,490,4080,490C4000,490,3920,490,3840,490C3760,490,3680,490,3600,490C3520,490,3440,490,3360,490C3280,490,3200,490,3120,490C3040,490,2960,490,2880,490C2800,490,2720,490,2640,490C2560,490,2480,490,2400,490C2320,490,2240,490,2160,490C2080,490,2000,490,1920,490C1840,490,1760,490,1680,490C1600,490,1520,490,1440,490C1360,490,1280,490,1200,490C1120,490,1040,490,960,490C880,490,800,490,720,490C640,490,560,490,480,490C400,490,320,490,240,490C160,490,80,490,40,490L0,490Z"/><defs><linearGradient id="sw-gradient-1" x1="0" x2="0" y1="1" y2="0"><stop stop-color="rgba(95, 143, 147, 1)" offset="0%"/><stop stop-color="rgba(56, 116, 120, 1)" offset="100%"/></linearGradient></defs><path style="transform:translate(0, 50px); opacity:0.9" fill="url(#sw-gradient-1)" d="M0,441L40,375.7C80,310,160,180,240,138.8C320,98,400,147,480,155.2C560,163,640,131,720,163.3C800,196,880,294,960,326.7C1040,359,1120,327,1200,334.8C1280,343,1360,392,1440,400.2C1520,408,1600,376,1680,367.5C1760,359,1840,376,1920,375.7C2000,376,2080,359,2160,367.5C2240,376,2320,408,2400,416.5C2480,425,2560,408,2640,383.8C2720,359,2800,327,2880,318.5C2960,310,3040,327,3120,285.8C3200,245,3280,147,3360,106.2C3440,65,3520,82,3600,114.3C3680,147,3760,196,3840,196C3920,196,4000,147,4080,179.7C4160,212,4240,327,4320,367.5C4400,408,4480,376,4560,359.3C4640,343,4720,343,4800,294C4880,245,4960,147,5040,114.3C5120,82,5200,114,5280,171.5C5360,229,5440,310,5520,334.8C5600,359,5680,327,5720,310.3L5760,294L5760,490L5720,490C5680,490,5600,490,5520,490C5440,490,5360,490,5280,490C5200,490,5120,490,5040,490C4960,490,4880,490,4800,490C4720,490,4640,490,4560,490C4480,490,4400,490,4320,490C4240,490,4160,490,4080,490C4000,490,3920,490,3840,490C3760,490,3680,490,3600,490C3520,490,3440,490,3360,490C3280,490,3200,490,3120,490C3040,490,2960,490,2880,490C2800,490,2720,490,2640,490C2560,490,2480,490,2400,490C2320,490,2240,490,2160,490C2080,490,2000,490,1920,490C1840,490,1760,490,1680,490C1600,490,1520,490,1440,490C1360,490,1280,490,1200,490C1120,490,1040,490,960,490C880,490,800,490,720,490C640,490,560,490,480,490C400,490,320,490,240,490C160,490,80,490,40,490L0,490Z"/><defs><linearGradient id="sw-gradient-2" x1="0" x2="0" y1="1" y2="0"><stop stop-color="rgba(56, 116, 120, 1)" offset="0%"/><stop stop-color="rgba(175, 199, 201, 1)" offset="100%"/></linearGradient></defs><path style="transform:translate(0, 100px); opacity:0.8" fill="url(#sw-gradient-2)" d="M0,441L40,367.5C80,294,160,147,240,138.8C320,131,400,261,480,294C560,327,640,261,720,245C800,229,880,261,960,269.5C1040,278,1120,261,1200,277.7C1280,294,1360,343,1440,359.3C1520,376,1600,359,1680,294C1760,229,1840,114,1920,73.5C2000,33,2080,65,2160,89.8C2240,114,2320,131,2400,138.8C2480,147,2560,147,2640,122.5C2720,98,2800,49,2880,24.5C2960,0,3040,0,3120,65.3C3200,131,3280,261,3360,261.3C3440,261,3520,131,3600,122.5C3680,114,3760,229,3840,236.8C3920,245,4000,147,4080,130.7C4160,114,4240,180,4320,245C4400,310,4480,376,4560,375.7C4640,376,4720,310,4800,269.5C4880,229,4960,212,5040,212.3C5120,212,5200,229,5280,204.2C5360,180,5440,114,5520,114.3C5600,114,5680,180,5720,212.3L5760,245L5760,490L5720,490C5680,490,5600,490,5520,490C5440,490,5360,490,5280,490C5200,490,5120,490,5040,490C4960,490,4880,490,4800,490C4720,490,4640,490,4560,490C4480,490,4400,490,4320,490C4240,490,4160,490,4080,490C4000,490,3920,490,3840,490C3760,490,3680,490,3600,490C3520,490,3440,490,3360,490C3280,490,3200,490,3120,490C3040,490,2960,490,2880,490C2800,490,2720,490,2640,490C2560,490,2480,490,2400,490C2320,490,2240,490,2160,490C2080,490,2000,490,1920,490C1840,490,1760,490,1680,490C1600,490,1520,490,1440,490C1360,490,1280,490,1200,490C1120,490,1040,490,960,490C880,490,800,490,720,490C640,490,560,490,480,490C400,490,320,490,240,490C160,490,80,490,40,490L0,490Z"/><defs><linearGradient id="sw-gradient-3" x1="0" x2="0" y1="1" y2="0"><stop stop-color="rgba(56, 116, 120, 1)" offset="0%"/><stop stop-color="rgba(175, 199, 201, 1)" offset="100%"/></linearGradient></defs><path style="transform:translate(0, 150px); opacity:0.7" fill="url(#sw-gradient-3)" d="M0,294L40,261.3C80,229,160,163,240,130.7C320,98,400,98,480,98C560,98,640,98,720,81.7C800,65,880,33,960,89.8C1040,147,1120,294,1200,310.3C1280,327,1360,212,1440,155.2C1520,98,1600,98,1680,155.2C1760,212,1840,327,1920,351.2C2000,376,2080,310,2160,236.8C2240,163,2320,82,2400,81.7C2480,82,2560,163,2640,163.3C2720,163,2800,82,2880,40.8C2960,0,3040,0,3120,65.3C3200,131,3280,261,3360,261.3C3440,261,3520,131,3600,98C3680,65,3760,131,3840,179.7C3920,229,4000,261,4080,245C4160,229,4240,163,4320,179.7C4400,196,4480,294,4560,294C4640,294,4720,196,4800,163.3C4880,131,4960,163,5040,212.3C5120,261,5200,327,5280,302.2C5360,278,5440,163,5520,171.5C5600,180,5680,310,5720,375.7L5760,441L5760,490L5720,490C5680,490,5600,490,5520,490C5440,490,5360,490,5280,490C5200,490,5120,490,5040,490C4960,490,4880,490,4800,490C4720,490,4640,490,4560,490C4480,490,4400,490,4320,490C4240,490,4160,490,4080,490C4000,490,3920,490,3840,490C3760,490,3680,490,3600,490C3520,490,3440,490,3360,490C3280,490,3200,490,3120,490C3040,490,2960,490,2880,490C2800,490,2720,490,2640,490C2560,490,2480,490,2400,490C2320,490,2240,490,2160,490C2080,490,2000,490,1920,490C1840,490,1760,490,1680,490C1600,490,1520,490,1440,490C1360,490,1280,490,1200,490C1120,490,1040,490,960,490C880,490,800,490,720,490C640,490,560,490,480,490C400,490,320,490,240,490C160,490,80,490,40,490L0,490Z"/></svg>