<?xml version="1.0" standalone="no"?>
<svg xmlns:xlink="http://www.w3.org/1999/xlink" id="wave" style="transform:rotate(180deg); transition: 0.3s" viewBox="0 0 1440 490" version="1.1" xmlns="http://www.w3.org/2000/svg"><defs><linearGradient id="sw-gradient-0" x1="0" x2="0" y1="1" y2="0"><stop stop-color="rgba(36, 54, 66, 1)" offset="0%"/><stop stop-color="rgba(56, 116, 120, 1)" offset="100%"/></linearGradient></defs><path style="transform:translate(0, 0px); opacity:1" fill="url(#sw-gradient-0)" d="M0,392L26.7,359.3C53.3,327,107,261,160,220.5C213.3,180,267,163,320,155.2C373.3,147,427,147,480,138.8C533.3,131,587,114,640,89.8C693.3,65,747,33,800,73.5C853.3,114,907,229,960,302.2C1013.3,376,1067,408,1120,375.7C1173.3,343,1227,245,1280,187.8C1333.3,131,1387,114,1440,114.3C1493.3,114,1547,131,1600,163.3C1653.3,196,1707,245,1760,245C1813.3,245,1867,196,1920,171.5C1973.3,147,2027,147,2080,138.8C2133.3,131,2187,114,2240,163.3C2293.3,212,2347,327,2400,367.5C2453.3,408,2507,376,2560,359.3C2613.3,343,2667,343,2720,326.7C2773.3,310,2827,278,2880,220.5C2933.3,163,2987,82,3040,89.8C3093.3,98,3147,196,3200,269.5C3253.3,343,3307,392,3360,416.5C3413.3,441,3467,441,3520,375.7C3573.3,310,3627,180,3680,114.3C3733.3,49,3787,49,3813,49L3840,49L3840,490L3813.3,490C3786.7,490,3733,490,3680,490C3626.7,490,3573,490,3520,490C3466.7,490,3413,490,3360,490C3306.7,490,3253,490,3200,490C3146.7,490,3093,490,3040,490C2986.7,490,2933,490,2880,490C2826.7,490,2773,490,2720,490C2666.7,490,2613,490,2560,490C2506.7,490,2453,490,2400,490C2346.7,490,2293,490,2240,490C2186.7,490,2133,490,2080,490C2026.7,490,1973,490,1920,490C1866.7,490,1813,490,1760,490C1706.7,490,1653,490,1600,490C1546.7,490,1493,490,1440,490C1386.7,490,1333,490,1280,490C1226.7,490,1173,490,1120,490C1066.7,490,1013,490,960,490C906.7,490,853,490,800,490C746.7,490,693,490,640,490C586.7,490,533,490,480,490C426.7,490,373,490,320,490C266.7,490,213,490,160,490C106.7,490,53,490,27,490L0,490Z"/><defs><linearGradient id="sw-gradient-1" x1="0" x2="0" y1="1" y2="0"><stop stop-color="rgba(56, 116, 120, 1)" offset="0%"/><stop stop-color="rgba(98, 149, 132, 1)" offset="100%"/></linearGradient></defs><path style="transform:translate(0, 50px); opacity:0.9" fill="url(#sw-gradient-1)" d="M0,49L26.7,49C53.3,49,107,49,160,65.3C213.3,82,267,114,320,147C373.3,180,427,212,480,204.2C533.3,196,587,147,640,171.5C693.3,196,747,294,800,310.3C853.3,327,907,261,960,212.3C1013.3,163,1067,131,1120,122.5C1173.3,114,1227,131,1280,187.8C1333.3,245,1387,343,1440,383.8C1493.3,425,1547,408,1600,367.5C1653.3,327,1707,261,1760,196C1813.3,131,1867,65,1920,40.8C1973.3,16,2027,33,2080,89.8C2133.3,147,2187,245,2240,269.5C2293.3,294,2347,245,2400,187.8C2453.3,131,2507,65,2560,106.2C2613.3,147,2667,294,2720,302.2C2773.3,310,2827,180,2880,155.2C2933.3,131,2987,212,3040,228.7C3093.3,245,3147,196,3200,187.8C3253.3,180,3307,212,3360,187.8C3413.3,163,3467,82,3520,98C3573.3,114,3627,229,3680,236.8C3733.3,245,3787,147,3813,98L3840,49L3840,490L3813.3,490C3786.7,490,3733,490,3680,490C3626.7,490,3573,490,3520,490C3466.7,490,3413,490,3360,490C3306.7,490,3253,490,3200,490C3146.7,490,3093,490,3040,490C2986.7,490,2933,490,2880,490C2826.7,490,2773,490,2720,490C2666.7,490,2613,490,2560,490C2506.7,490,2453,490,2400,490C2346.7,490,2293,490,2240,490C2186.7,490,2133,490,2080,490C2026.7,490,1973,490,1920,490C1866.7,490,1813,490,1760,490C1706.7,490,1653,490,1600,490C1546.7,490,1493,490,1440,490C1386.7,490,1333,490,1280,490C1226.7,490,1173,490,1120,490C1066.7,490,1013,490,960,490C906.7,490,853,490,800,490C746.7,490,693,490,640,490C586.7,490,533,490,480,490C426.7,490,373,490,320,490C266.7,490,213,490,160,490C106.7,490,53,490,27,490L0,490Z"/><defs><linearGradient id="sw-gradient-2" x1="0" x2="0" y1="1" y2="0"><stop stop-color="rgba(98, 149, 132, 1)" offset="0%"/><stop stop-color="rgba(226, 241, 231, 1)" offset="100%"/></linearGradient></defs><path style="transform:translate(0, 100px); opacity:0.8" fill="url(#sw-gradient-2)" d="M0,294L26.7,310.3C53.3,327,107,359,160,351.2C213.3,343,267,294,320,277.7C373.3,261,427,278,480,310.3C533.3,343,587,392,640,408.3C693.3,425,747,408,800,359.3C853.3,310,907,229,960,228.7C1013.3,229,1067,310,1120,318.5C1173.3,327,1227,261,1280,236.8C1333.3,212,1387,229,1440,228.7C1493.3,229,1547,212,1600,171.5C1653.3,131,1707,65,1760,106.2C1813.3,147,1867,294,1920,343C1973.3,392,2027,343,2080,269.5C2133.3,196,2187,98,2240,73.5C2293.3,49,2347,98,2400,155.2C2453.3,212,2507,278,2560,318.5C2613.3,359,2667,376,2720,375.7C2773.3,376,2827,359,2880,302.2C2933.3,245,2987,147,3040,138.8C3093.3,131,3147,212,3200,269.5C3253.3,327,3307,359,3360,310.3C3413.3,261,3467,131,3520,98C3573.3,65,3627,131,3680,155.2C3733.3,180,3787,163,3813,155.2L3840,147L3840,490L3813.3,490C3786.7,490,3733,490,3680,490C3626.7,490,3573,490,3520,490C3466.7,490,3413,490,3360,490C3306.7,490,3253,490,3200,490C3146.7,490,3093,490,3040,490C2986.7,490,2933,490,2880,490C2826.7,490,2773,490,2720,490C2666.7,490,2613,490,2560,490C2506.7,490,2453,490,2400,490C2346.7,490,2293,490,2240,490C2186.7,490,2133,490,2080,490C2026.7,490,1973,490,1920,490C1866.7,490,1813,490,1760,490C1706.7,490,1653,490,1600,490C1546.7,490,1493,490,1440,490C1386.7,490,1333,490,1280,490C1226.7,490,1173,490,1120,490C1066.7,490,1013,490,960,490C906.7,490,853,490,800,490C746.7,490,693,490,640,490C586.7,490,533,490,480,490C426.7,490,373,490,320,490C266.7,490,213,490,160,490C106.7,490,53,490,27,490L0,490Z"/><defs><linearGradient id="sw-gradient-3" x1="0" x2="0" y1="1" y2="0"><stop stop-color="rgba(98, 149, 132, 1)" offset="0%"/><stop stop-color="rgba(226, 241, 231, 1)" offset="100%"/></linearGradient></defs><path style="transform:translate(0, 150px); opacity:0.7" fill="url(#sw-gradient-3)" d="M0,343L26.7,343C53.3,343,107,343,160,302.2C213.3,261,267,180,320,147C373.3,114,427,131,480,147C533.3,163,587,180,640,187.8C693.3,196,747,196,800,187.8C853.3,180,907,163,960,187.8C1013.3,212,1067,278,1120,310.3C1173.3,343,1227,343,1280,334.8C1333.3,327,1387,310,1440,326.7C1493.3,343,1547,392,1600,383.8C1653.3,376,1707,310,1760,253.2C1813.3,196,1867,147,1920,155.2C1973.3,163,2027,229,2080,212.3C2133.3,196,2187,98,2240,81.7C2293.3,65,2347,131,2400,147C2453.3,163,2507,131,2560,122.5C2613.3,114,2667,131,2720,147C2773.3,163,2827,180,2880,179.7C2933.3,180,2987,163,3040,179.7C3093.3,196,3147,245,3200,253.2C3253.3,261,3307,229,3360,245C3413.3,261,3467,327,3520,310.3C3573.3,294,3627,196,3680,130.7C3733.3,65,3787,33,3813,16.3L3840,0L3840,490L3813.3,490C3786.7,490,3733,490,3680,490C3626.7,490,3573,490,3520,490C3466.7,490,3413,490,3360,490C3306.7,490,3253,490,3200,490C3146.7,490,3093,490,3040,490C2986.7,490,2933,490,2880,490C2826.7,490,2773,490,2720,490C2666.7,490,2613,490,2560,490C2506.7,490,2453,490,2400,490C2346.7,490,2293,490,2240,490C2186.7,490,2133,490,2080,490C2026.7,490,1973,490,1920,490C1866.7,490,1813,490,1760,490C1706.7,490,1653,490,1600,490C1546.7,490,1493,490,1440,490C1386.7,490,1333,490,1280,490C1226.7,490,1173,490,1120,490C1066.7,490,1013,490,960,490C906.7,490,853,490,800,490C746.7,490,693,490,640,490C586.7,490,533,490,480,490C426.7,490,373,490,320,490C266.7,490,213,490,160,490C106.7,490,53,490,27,490L0,490Z"/></svg>