<?xml version="1.0" standalone="no"?>
<svg xmlns:xlink="http://www.w3.org/1999/xlink" id="wave" style="transform:rotate(180deg); transition: 0.3s" viewBox="0 0 1440 490" version="1.1" xmlns="http://www.w3.org/2000/svg"><defs><linearGradient id="sw-gradient-0" x1="0" x2="0" y1="1" y2="0"><stop stop-color="rgba(36, 54, 66, 1)" offset="0%"/><stop stop-color="rgba(56, 116, 120, 1)" offset="100%"/></linearGradient></defs><path style="transform:translate(0, 0px); opacity:1" fill="url(#sw-gradient-0)" d="M0,49L40,98C80,147,160,245,240,294C320,343,400,343,480,351.2C560,359,640,376,720,343C800,310,880,229,960,187.8C1040,147,1120,147,1200,147C1280,147,1360,147,1440,122.5C1520,98,1600,49,1680,65.3C1760,82,1840,163,1920,171.5C2000,180,2080,114,2160,81.7C2240,49,2320,49,2400,73.5C2480,98,2560,147,2640,187.8C2720,229,2800,261,2880,228.7C2960,196,3040,98,3120,89.8C3200,82,3280,163,3360,196C3440,229,3520,212,3600,220.5C3680,229,3760,261,3840,245C3920,229,4000,163,4080,138.8C4160,114,4240,131,4320,187.8C4400,245,4480,343,4560,326.7C4640,310,4720,180,4800,179.7C4880,180,4960,310,5040,302.2C5120,294,5200,147,5280,106.2C5360,65,5440,131,5520,171.5C5600,212,5680,229,5720,236.8L5760,245L5760,490L5720,490C5680,490,5600,490,5520,490C5440,490,5360,490,5280,490C5200,490,5120,490,5040,490C4960,490,4880,490,4800,490C4720,490,4640,490,4560,490C4480,490,4400,490,4320,490C4240,490,4160,490,4080,490C4000,490,3920,490,3840,490C3760,490,3680,490,3600,490C3520,490,3440,490,3360,490C3280,490,3200,490,3120,490C3040,490,2960,490,2880,490C2800,490,2720,490,2640,490C2560,490,2480,490,2400,490C2320,490,2240,490,2160,490C2080,490,2000,490,1920,490C1840,490,1760,490,1680,490C1600,490,1520,490,1440,490C1360,490,1280,490,1200,490C1120,490,1040,490,960,490C880,490,800,490,720,490C640,490,560,490,480,490C400,490,320,490,240,490C160,490,80,490,40,490L0,490Z"/><defs><linearGradient id="sw-gradient-1" x1="0" x2="0" y1="1" y2="0"><stop stop-color="rgba(56, 116, 120, 1)" offset="0%"/><stop stop-color="rgba(98, 149, 132, 1)" offset="100%"/></linearGradient></defs><path style="transform:translate(0, 50px); opacity:0.9" fill="url(#sw-gradient-1)" d="M0,392L40,326.7C80,261,160,131,240,98C320,65,400,131,480,171.5C560,212,640,229,720,269.5C800,310,880,376,960,375.7C1040,376,1120,310,1200,261.3C1280,212,1360,180,1440,138.8C1520,98,1600,49,1680,65.3C1760,82,1840,163,1920,204.2C2000,245,2080,245,2160,277.7C2240,310,2320,376,2400,392C2480,408,2560,376,2640,334.8C2720,294,2800,245,2880,253.2C2960,261,3040,327,3120,351.2C3200,376,3280,359,3360,310.3C3440,261,3520,180,3600,147C3680,114,3760,131,3840,138.8C3920,147,4000,147,4080,179.7C4160,212,4240,278,4320,326.7C4400,376,4480,408,4560,424.7C4640,441,4720,441,4800,375.7C4880,310,4960,180,5040,163.3C5120,147,5200,245,5280,302.2C5360,359,5440,376,5520,383.8C5600,392,5680,392,5720,392L5760,392L5760,490L5720,490C5680,490,5600,490,5520,490C5440,490,5360,490,5280,490C5200,490,5120,490,5040,490C4960,490,4880,490,4800,490C4720,490,4640,490,4560,490C4480,490,4400,490,4320,490C4240,490,4160,490,4080,490C4000,490,3920,490,3840,490C3760,490,3680,490,3600,490C3520,490,3440,490,3360,490C3280,490,3200,490,3120,490C3040,490,2960,490,2880,490C2800,490,2720,490,2640,490C2560,490,2480,490,2400,490C2320,490,2240,490,2160,490C2080,490,2000,490,1920,490C1840,490,1760,490,1680,490C1600,490,1520,490,1440,490C1360,490,1280,490,1200,490C1120,490,1040,490,960,490C880,490,800,490,720,490C640,490,560,490,480,490C400,490,320,490,240,490C160,490,80,490,40,490L0,490Z"/><defs><linearGradient id="sw-gradient-2" x1="0" x2="0" y1="1" y2="0"><stop stop-color="rgba(98, 149, 132, 1)" offset="0%"/><stop stop-color="rgba(226, 241, 231, 1)" offset="100%"/></linearGradient></defs><path style="transform:translate(0, 100px); opacity:0.8" fill="url(#sw-gradient-2)" d="M0,245L40,269.5C80,294,160,343,240,310.3C320,278,400,163,480,122.5C560,82,640,114,720,130.7C800,147,880,147,960,196C1040,245,1120,343,1200,383.8C1280,425,1360,408,1440,400.2C1520,392,1600,392,1680,383.8C1760,376,1840,359,1920,351.2C2000,343,2080,343,2160,285.8C2240,229,2320,114,2400,73.5C2480,33,2560,65,2640,65.3C2720,65,2800,33,2880,32.7C2960,33,3040,65,3120,65.3C3200,65,3280,33,3360,16.3C3440,0,3520,0,3600,73.5C3680,147,3760,294,3840,334.8C3920,376,4000,310,4080,294C4160,278,4240,310,4320,318.5C4400,327,4480,310,4560,261.3C4640,212,4720,131,4800,138.8C4880,147,4960,245,5040,269.5C5120,294,5200,245,5280,261.3C5360,278,5440,359,5520,359.3C5600,359,5680,278,5720,236.8L5760,196L5760,490L5720,490C5680,490,5600,490,5520,490C5440,490,5360,490,5280,490C5200,490,5120,490,5040,490C4960,490,4880,490,4800,490C4720,490,4640,490,4560,490C4480,490,4400,490,4320,490C4240,490,4160,490,4080,490C4000,490,3920,490,3840,490C3760,490,3680,490,3600,490C3520,490,3440,490,3360,490C3280,490,3200,490,3120,490C3040,490,2960,490,2880,490C2800,490,2720,490,2640,490C2560,490,2480,490,2400,490C2320,490,2240,490,2160,490C2080,490,2000,490,1920,490C1840,490,1760,490,1680,490C1600,490,1520,490,1440,490C1360,490,1280,490,1200,490C1120,490,1040,490,960,490C880,490,800,490,720,490C640,490,560,490,480,490C400,490,320,490,240,490C160,490,80,490,40,490L0,490Z"/><defs><linearGradient id="sw-gradient-3" x1="0" x2="0" y1="1" y2="0"><stop stop-color="rgba(226, 241, 231, 1)" offset="0%"/><stop stop-color="rgba(253, 139, 81, 1)" offset="100%"/></linearGradient></defs><path style="transform:translate(0, 150px); opacity:0.7" fill="url(#sw-gradient-3)" d="M0,343L40,351.2C80,359,160,376,240,392C320,408,400,425,480,416.5C560,408,640,376,720,367.5C800,359,880,376,960,351.2C1040,327,1120,261,1200,261.3C1280,261,1360,327,1440,334.8C1520,343,1600,294,1680,285.8C1760,278,1840,310,1920,285.8C2000,261,2080,180,2160,163.3C2240,147,2320,196,2400,220.5C2480,245,2560,245,2640,261.3C2720,278,2800,310,2880,302.2C2960,294,3040,245,3120,196C3200,147,3280,98,3360,65.3C3440,33,3520,16,3600,24.5C3680,33,3760,65,3840,138.8C3920,212,4000,327,4080,343C4160,359,4240,278,4320,212.3C4400,147,4480,98,4560,89.8C4640,82,4720,114,4800,122.5C4880,131,4960,114,5040,163.3C5120,212,5200,327,5280,351.2C5360,376,5440,310,5520,245C5600,180,5680,114,5720,81.7L5760,49L5760,490L5720,490C5680,490,5600,490,5520,490C5440,490,5360,490,5280,490C5200,490,5120,490,5040,490C4960,490,4880,490,4800,490C4720,490,4640,490,4560,490C4480,490,4400,490,4320,490C4240,490,4160,490,4080,490C4000,490,3920,490,3840,490C3760,490,3680,490,3600,490C3520,490,3440,490,3360,490C3280,490,3200,490,3120,490C3040,490,2960,490,2880,490C2800,490,2720,490,2640,490C2560,490,2480,490,2400,490C2320,490,2240,490,2160,490C2080,490,2000,490,1920,490C1840,490,1760,490,1680,490C1600,490,1520,490,1440,490C1360,490,1280,490,1200,490C1120,490,1040,490,960,490C880,490,800,490,720,490C640,490,560,490,480,490C400,490,320,490,240,490C160,490,80,490,40,490L0,490Z"/></svg>