<?xml version="1.0" standalone="no"?>
<svg xmlns:xlink="http://www.w3.org/1999/xlink" id="wave" style="transform:rotate(180deg); transition: 0.3s" viewBox="0 0 1440 490" version="1.1" xmlns="http://www.w3.org/2000/svg"><defs><linearGradient id="sw-gradient-0" x1="0" x2="0" y1="1" y2="0"><stop stop-color="rgba(255, 174, 70, 1)" offset="0%"/><stop stop-color="rgba(243, 254, 184, 1)" offset="100%"/></linearGradient></defs><path style="transform:translate(0, 0px); opacity:1" fill="url(#sw-gradient-0)" d="M0,98L34.3,81.7C68.6,65,137,33,206,32.7C274.3,33,343,65,411,106.2C480,147,549,196,617,228.7C685.7,261,754,278,823,302.2C891.4,327,960,359,1029,310.3C1097.1,261,1166,131,1234,106.2C1302.9,82,1371,163,1440,171.5C1508.6,180,1577,114,1646,106.2C1714.3,98,1783,147,1851,147C1920,147,1989,98,2057,122.5C2125.7,147,2194,245,2263,285.8C2331.4,327,2400,310,2469,253.2C2537.1,196,2606,98,2674,106.2C2742.9,114,2811,229,2880,236.8C2948.6,245,3017,147,3086,147C3154.3,147,3223,245,3291,261.3C3360,278,3429,212,3497,155.2C3565.7,98,3634,49,3703,57.2C3771.4,65,3840,131,3909,196C3977.1,261,4046,327,4114,367.5C4182.9,408,4251,425,4320,375.7C4388.6,327,4457,212,4526,163.3C4594.3,114,4663,131,4731,138.8C4800,147,4869,147,4903,147L4937.1,147L4937.1,490L4902.9,490C4868.6,490,4800,490,4731,490C4662.9,490,4594,490,4526,490C4457.1,490,4389,490,4320,490C4251.4,490,4183,490,4114,490C4045.7,490,3977,490,3909,490C3840,490,3771,490,3703,490C3634.3,490,3566,490,3497,490C3428.6,490,3360,490,3291,490C3222.9,490,3154,490,3086,490C3017.1,490,2949,490,2880,490C2811.4,490,2743,490,2674,490C2605.7,490,2537,490,2469,490C2400,490,2331,490,2263,490C2194.3,490,2126,490,2057,490C1988.6,490,1920,490,1851,490C1782.9,490,1714,490,1646,490C1577.1,490,1509,490,1440,490C1371.4,490,1303,490,1234,490C1165.7,490,1097,490,1029,490C960,490,891,490,823,490C754.3,490,686,490,617,490C548.6,490,480,490,411,490C342.9,490,274,490,206,490C137.1,490,69,490,34,490L0,490Z"/><defs><linearGradient id="sw-gradient-1" x1="0" x2="0" y1="1" y2="0"><stop stop-color="rgba(255, 125, 41, 1)" offset="0%"/><stop stop-color="rgba(255, 188, 66, 1)" offset="100%"/></linearGradient></defs><path style="transform:translate(0, 50px); opacity:0.9" fill="url(#sw-gradient-1)" d="M0,343L34.3,326.7C68.6,310,137,278,206,277.7C274.3,278,343,310,411,326.7C480,343,549,343,617,334.8C685.7,327,754,310,823,261.3C891.4,212,960,131,1029,155.2C1097.1,180,1166,310,1234,367.5C1302.9,425,1371,408,1440,343C1508.6,278,1577,163,1646,98C1714.3,33,1783,16,1851,40.8C1920,65,1989,131,2057,163.3C2125.7,196,2194,196,2263,212.3C2331.4,229,2400,261,2469,245C2537.1,229,2606,163,2674,130.7C2742.9,98,2811,98,2880,155.2C2948.6,212,3017,327,3086,367.5C3154.3,408,3223,376,3291,310.3C3360,245,3429,147,3497,89.8C3565.7,33,3634,16,3703,40.8C3771.4,65,3840,131,3909,130.7C3977.1,131,4046,65,4114,49C4182.9,33,4251,65,4320,106.2C4388.6,147,4457,196,4526,253.2C4594.3,310,4663,376,4731,400.2C4800,425,4869,408,4903,400.2L4937.1,392L4937.1,490L4902.9,490C4868.6,490,4800,490,4731,490C4662.9,490,4594,490,4526,490C4457.1,490,4389,490,4320,490C4251.4,490,4183,490,4114,490C4045.7,490,3977,490,3909,490C3840,490,3771,490,3703,490C3634.3,490,3566,490,3497,490C3428.6,490,3360,490,3291,490C3222.9,490,3154,490,3086,490C3017.1,490,2949,490,2880,490C2811.4,490,2743,490,2674,490C2605.7,490,2537,490,2469,490C2400,490,2331,490,2263,490C2194.3,490,2126,490,2057,490C1988.6,490,1920,490,1851,490C1782.9,490,1714,490,1646,490C1577.1,490,1509,490,1440,490C1371.4,490,1303,490,1234,490C1165.7,490,1097,490,1029,490C960,490,891,490,823,490C754.3,490,686,490,617,490C548.6,490,480,490,411,490C342.9,490,274,490,206,490C137.1,490,69,490,34,490L0,490Z"/><defs><linearGradient id="sw-gradient-2" x1="0" x2="0" y1="1" y2="0"><stop stop-color="rgba(255, 203, 85, 1)" offset="0%"/><stop stop-color="rgba(255, 193, 77, 1)" offset="100%"/></linearGradient></defs><path style="transform:translate(0, 100px); opacity:0.8" fill="url(#sw-gradient-2)" d="M0,0L34.3,65.3C68.6,131,137,261,206,302.2C274.3,343,343,294,411,236.8C480,180,549,114,617,98C685.7,82,754,114,823,163.3C891.4,212,960,278,1029,277.7C1097.1,278,1166,212,1234,179.7C1302.9,147,1371,147,1440,147C1508.6,147,1577,147,1646,147C1714.3,147,1783,147,1851,147C1920,147,1989,147,2057,187.8C2125.7,229,2194,310,2263,294C2331.4,278,2400,163,2469,155.2C2537.1,147,2606,245,2674,294C2742.9,343,2811,343,2880,294C2948.6,245,3017,147,3086,130.7C3154.3,114,3223,180,3291,220.5C3360,261,3429,278,3497,302.2C3565.7,327,3634,359,3703,326.7C3771.4,294,3840,196,3909,163.3C3977.1,131,4046,163,4114,171.5C4182.9,180,4251,163,4320,204.2C4388.6,245,4457,343,4526,326.7C4594.3,310,4663,180,4731,147C4800,114,4869,180,4903,212.3L4937.1,245L4937.1,490L4902.9,490C4868.6,490,4800,490,4731,490C4662.9,490,4594,490,4526,490C4457.1,490,4389,490,4320,490C4251.4,490,4183,490,4114,490C4045.7,490,3977,490,3909,490C3840,490,3771,490,3703,490C3634.3,490,3566,490,3497,490C3428.6,490,3360,490,3291,490C3222.9,490,3154,490,3086,490C3017.1,490,2949,490,2880,490C2811.4,490,2743,490,2674,490C2605.7,490,2537,490,2469,490C2400,490,2331,490,2263,490C2194.3,490,2126,490,2057,490C1988.6,490,1920,490,1851,490C1782.9,490,1714,490,1646,490C1577.1,490,1509,490,1440,490C1371.4,490,1303,490,1234,490C1165.7,490,1097,490,1029,490C960,490,891,490,823,490C754.3,490,686,490,617,490C548.6,490,480,490,411,490C342.9,490,274,490,206,490C137.1,490,69,490,34,490L0,490Z"/><defs><linearGradient id="sw-gradient-3" x1="0" x2="0" y1="1" y2="0"><stop stop-color="rgba(255, 238, 169, 1)" offset="0%"/><stop stop-color="rgba(255, 178, 44, 1)" offset="100%"/></linearGradient></defs><path style="transform:translate(0, 150px); opacity:0.7" fill="url(#sw-gradient-3)" d="M0,245L34.3,204.2C68.6,163,137,82,206,49C274.3,16,343,33,411,81.7C480,131,549,212,617,245C685.7,278,754,261,823,277.7C891.4,294,960,343,1029,359.3C1097.1,376,1166,359,1234,351.2C1302.9,343,1371,343,1440,310.3C1508.6,278,1577,212,1646,179.7C1714.3,147,1783,147,1851,155.2C1920,163,1989,180,2057,220.5C2125.7,261,2194,327,2263,318.5C2331.4,310,2400,229,2469,204.2C2537.1,180,2606,212,2674,204.2C2742.9,196,2811,147,2880,122.5C2948.6,98,3017,98,3086,114.3C3154.3,131,3223,163,3291,212.3C3360,261,3429,327,3497,326.7C3565.7,327,3634,261,3703,245C3771.4,229,3840,261,3909,245C3977.1,229,4046,163,4114,187.8C4182.9,212,4251,327,4320,351.2C4388.6,376,4457,310,4526,269.5C4594.3,229,4663,212,4731,196C4800,180,4869,163,4903,155.2L4937.1,147L4937.1,490L4902.9,490C4868.6,490,4800,490,4731,490C4662.9,490,4594,490,4526,490C4457.1,490,4389,490,4320,490C4251.4,490,4183,490,4114,490C4045.7,490,3977,490,3909,490C3840,490,3771,490,3703,490C3634.3,490,3566,490,3497,490C3428.6,490,3360,490,3291,490C3222.9,490,3154,490,3086,490C3017.1,490,2949,490,2880,490C2811.4,490,2743,490,2674,490C2605.7,490,2537,490,2469,490C2400,490,2331,490,2263,490C2194.3,490,2126,490,2057,490C1988.6,490,1920,490,1851,490C1782.9,490,1714,490,1646,490C1577.1,490,1509,490,1440,490C1371.4,490,1303,490,1234,490C1165.7,490,1097,490,1029,490C960,490,891,490,823,490C754.3,490,686,490,617,490C548.6,490,480,490,411,490C342.9,490,274,490,206,490C137.1,490,69,490,34,490L0,490Z"/></svg>