<?xml version="1.0" standalone="no"?>
<svg xmlns:xlink="http://www.w3.org/1999/xlink" id="wave" style="transform:rotate(180deg); transition: 0.3s" viewBox="0 0 1440 490" version="1.1" xmlns="http://www.w3.org/2000/svg"><defs><linearGradient id="sw-gradient-0" x1="0" x2="0" y1="1" y2="0"><stop stop-color="rgba(98, 149, 132, 1)" offset="0%"/><stop stop-color="rgba(226, 241, 231, 1)" offset="100%"/></linearGradient></defs><path style="transform:translate(0, 0px); opacity:1" fill="url(#sw-gradient-0)" d="M0,147L40,163.3C80,180,160,212,240,204.2C320,196,400,147,480,114.3C560,82,640,65,720,57.2C800,49,880,49,960,98C1040,147,1120,245,1200,285.8C1280,327,1360,310,1440,294C1520,278,1600,261,1680,236.8C1760,212,1840,180,1920,147C2000,114,2080,82,2160,98C2240,114,2320,180,2400,204.2C2480,229,2560,212,2640,171.5C2720,131,2800,65,2880,98C2960,131,3040,261,3120,277.7C3200,294,3280,196,3360,187.8C3440,180,3520,261,3600,285.8C3680,310,3760,278,3840,228.7C3920,180,4000,114,4080,147C4160,180,4240,310,4320,375.7C4400,441,4480,441,4560,383.8C4640,327,4720,212,4800,187.8C4880,163,4960,229,5040,261.3C5120,294,5200,294,5280,261.3C5360,229,5440,163,5520,163.3C5600,163,5680,229,5720,261.3L5760,294L5760,490L5720,490C5680,490,5600,490,5520,490C5440,490,5360,490,5280,490C5200,490,5120,490,5040,490C4960,490,4880,490,4800,490C4720,490,4640,490,4560,490C4480,490,4400,490,4320,490C4240,490,4160,490,4080,490C4000,490,3920,490,3840,490C3760,490,3680,490,3600,490C3520,490,3440,490,3360,490C3280,490,3200,490,3120,490C3040,490,2960,490,2880,490C2800,490,2720,490,2640,490C2560,490,2480,490,2400,490C2320,490,2240,490,2160,490C2080,490,2000,490,1920,490C1840,490,1760,490,1680,490C1600,490,1520,490,1440,490C1360,490,1280,490,1200,490C1120,490,1040,490,960,490C880,490,800,490,720,490C640,490,560,490,480,490C400,490,320,490,240,490C160,490,80,490,40,490L0,490Z"/><defs><linearGradient id="sw-gradient-1" x1="0" x2="0" y1="1" y2="0"><stop stop-color="rgba(226, 241, 231, 1)" offset="0%"/><stop stop-color="rgba(98, 149, 132, 1)" offset="100%"/></linearGradient></defs><path style="transform:translate(0, 50px); opacity:0.9" fill="url(#sw-gradient-1)" d="M0,0L40,57.2C80,114,160,229,240,261.3C320,294,400,245,480,236.8C560,229,640,261,720,236.8C800,212,880,131,960,122.5C1040,114,1120,180,1200,236.8C1280,294,1360,343,1440,318.5C1520,294,1600,196,1680,171.5C1760,147,1840,196,1920,212.3C2000,229,2080,212,2160,204.2C2240,196,2320,196,2400,187.8C2480,180,2560,163,2640,171.5C2720,180,2800,212,2880,196C2960,180,3040,114,3120,147C3200,180,3280,310,3360,343C3440,376,3520,310,3600,285.8C3680,261,3760,278,3840,285.8C3920,294,4000,294,4080,310.3C4160,327,4240,359,4320,334.8C4400,310,4480,229,4560,179.7C4640,131,4720,114,4800,147C4880,180,4960,261,5040,261.3C5120,261,5200,180,5280,163.3C5360,147,5440,196,5520,253.2C5600,310,5680,376,5720,408.3L5760,441L5760,490L5720,490C5680,490,5600,490,5520,490C5440,490,5360,490,5280,490C5200,490,5120,490,5040,490C4960,490,4880,490,4800,490C4720,490,4640,490,4560,490C4480,490,4400,490,4320,490C4240,490,4160,490,4080,490C4000,490,3920,490,3840,490C3760,490,3680,490,3600,490C3520,490,3440,490,3360,490C3280,490,3200,490,3120,490C3040,490,2960,490,2880,490C2800,490,2720,490,2640,490C2560,490,2480,490,2400,490C2320,490,2240,490,2160,490C2080,490,2000,490,1920,490C1840,490,1760,490,1680,490C1600,490,1520,490,1440,490C1360,490,1280,490,1200,490C1120,490,1040,490,960,490C880,490,800,490,720,490C640,490,560,490,480,490C400,490,320,490,240,490C160,490,80,490,40,490L0,490Z"/><defs><linearGradient id="sw-gradient-2" x1="0" x2="0" y1="1" y2="0"><stop stop-color="rgba(98, 149, 132, 1)" offset="0%"/><stop stop-color="rgba(56, 116, 120, 1)" offset="100%"/></linearGradient></defs><path style="transform:translate(0, 100px); opacity:0.8" fill="url(#sw-gradient-2)" d="M0,147L40,122.5C80,98,160,49,240,57.2C320,65,400,131,480,204.2C560,278,640,359,720,334.8C800,310,880,180,960,130.7C1040,82,1120,114,1200,106.2C1280,98,1360,49,1440,89.8C1520,131,1600,261,1680,277.7C1760,294,1840,196,1920,138.8C2000,82,2080,65,2160,114.3C2240,163,2320,278,2400,334.8C2480,392,2560,392,2640,359.3C2720,327,2800,261,2880,212.3C2960,163,3040,131,3120,138.8C3200,147,3280,196,3360,228.7C3440,261,3520,278,3600,294C3680,310,3760,327,3840,310.3C3920,294,4000,245,4080,236.8C4160,229,4240,261,4320,228.7C4400,196,4480,98,4560,89.8C4640,82,4720,163,4800,171.5C4880,180,4960,114,5040,89.8C5120,65,5200,82,5280,81.7C5360,82,5440,65,5520,106.2C5600,147,5680,245,5720,294L5760,343L5760,490L5720,490C5680,490,5600,490,5520,490C5440,490,5360,490,5280,490C5200,490,5120,490,5040,490C4960,490,4880,490,4800,490C4720,490,4640,490,4560,490C4480,490,4400,490,4320,490C4240,490,4160,490,4080,490C4000,490,3920,490,3840,490C3760,490,3680,490,3600,490C3520,490,3440,490,3360,490C3280,490,3200,490,3120,490C3040,490,2960,490,2880,490C2800,490,2720,490,2640,490C2560,490,2480,490,2400,490C2320,490,2240,490,2160,490C2080,490,2000,490,1920,490C1840,490,1760,490,1680,490C1600,490,1520,490,1440,490C1360,490,1280,490,1200,490C1120,490,1040,490,960,490C880,490,800,490,720,490C640,490,560,490,480,490C400,490,320,490,240,490C160,490,80,490,40,490L0,490Z"/><defs><linearGradient id="sw-gradient-3" x1="0" x2="0" y1="1" y2="0"><stop stop-color="rgba(56, 116, 120, 1)" offset="0%"/><stop stop-color="rgba(226, 241, 231, 1)" offset="100%"/></linearGradient></defs><path style="transform:translate(0, 150px); opacity:0.7" fill="url(#sw-gradient-3)" d="M0,147L40,163.3C80,180,160,212,240,228.7C320,245,400,245,480,236.8C560,229,640,212,720,196C800,180,880,163,960,179.7C1040,196,1120,245,1200,285.8C1280,327,1360,359,1440,318.5C1520,278,1600,163,1680,171.5C1760,180,1840,310,1920,343C2000,376,2080,310,2160,302.2C2240,294,2320,343,2400,359.3C2480,376,2560,359,2640,318.5C2720,278,2800,212,2880,155.2C2960,98,3040,49,3120,57.2C3200,65,3280,131,3360,130.7C3440,131,3520,65,3600,49C3680,33,3760,65,3840,73.5C3920,82,4000,65,4080,106.2C4160,147,4240,245,4320,236.8C4400,229,4480,114,4560,106.2C4640,98,4720,196,4800,236.8C4880,278,4960,261,5040,285.8C5120,310,5200,376,5280,367.5C5360,359,5440,278,5520,269.5C5600,261,5680,327,5720,359.3L5760,392L5760,490L5720,490C5680,490,5600,490,5520,490C5440,490,5360,490,5280,490C5200,490,5120,490,5040,490C4960,490,4880,490,4800,490C4720,490,4640,490,4560,490C4480,490,4400,490,4320,490C4240,490,4160,490,4080,490C4000,490,3920,490,3840,490C3760,490,3680,490,3600,490C3520,490,3440,490,3360,490C3280,490,3200,490,3120,490C3040,490,2960,490,2880,490C2800,490,2720,490,2640,490C2560,490,2480,490,2400,490C2320,490,2240,490,2160,490C2080,490,2000,490,1920,490C1840,490,1760,490,1680,490C1600,490,1520,490,1440,490C1360,490,1280,490,1200,490C1120,490,1040,490,960,490C880,490,800,490,720,490C640,490,560,490,480,490C400,490,320,490,240,490C160,490,80,490,40,490L0,490Z"/></svg>