<?xml version="1.0" standalone="no"?>
<svg xmlns:xlink="http://www.w3.org/1999/xlink" id="wave" style="transform:rotate(180deg); transition: 0.3s" viewBox="0 0 1440 490" version="1.1" xmlns="http://www.w3.org/2000/svg"><defs><linearGradient id="sw-gradient-0" x1="0" x2="0" y1="1" y2="0"><stop stop-color="rgba(255, 174, 70, 1)" offset="0%"/><stop stop-color="rgba(243, 254, 184, 1)" offset="100%"/></linearGradient></defs><path style="transform:translate(0, 0px); opacity:1" fill="url(#sw-gradient-0)" d="M0,294L34.3,318.5C68.6,343,137,392,206,343C274.3,294,343,147,411,147C480,147,549,294,617,294C685.7,294,754,147,823,130.7C891.4,114,960,229,1029,277.7C1097.1,327,1166,310,1234,261.3C1302.9,212,1371,131,1440,106.2C1508.6,82,1577,114,1646,163.3C1714.3,212,1783,278,1851,277.7C1920,278,1989,212,2057,155.2C2125.7,98,2194,49,2263,73.5C2331.4,98,2400,196,2469,204.2C2537.1,212,2606,131,2674,106.2C2742.9,82,2811,114,2880,155.2C2948.6,196,3017,245,3086,228.7C3154.3,212,3223,131,3291,147C3360,163,3429,278,3497,326.7C3565.7,376,3634,359,3703,318.5C3771.4,278,3840,212,3909,212.3C3977.1,212,4046,278,4114,326.7C4182.9,376,4251,408,4320,383.8C4388.6,359,4457,278,4526,277.7C4594.3,278,4663,359,4731,367.5C4800,376,4869,310,4903,277.7L4937.1,245L4937.1,490L4902.9,490C4868.6,490,4800,490,4731,490C4662.9,490,4594,490,4526,490C4457.1,490,4389,490,4320,490C4251.4,490,4183,490,4114,490C4045.7,490,3977,490,3909,490C3840,490,3771,490,3703,490C3634.3,490,3566,490,3497,490C3428.6,490,3360,490,3291,490C3222.9,490,3154,490,3086,490C3017.1,490,2949,490,2880,490C2811.4,490,2743,490,2674,490C2605.7,490,2537,490,2469,490C2400,490,2331,490,2263,490C2194.3,490,2126,490,2057,490C1988.6,490,1920,490,1851,490C1782.9,490,1714,490,1646,490C1577.1,490,1509,490,1440,490C1371.4,490,1303,490,1234,490C1165.7,490,1097,490,1029,490C960,490,891,490,823,490C754.3,490,686,490,617,490C548.6,490,480,490,411,490C342.9,490,274,490,206,490C137.1,490,69,490,34,490L0,490Z"/><defs><linearGradient id="sw-gradient-1" x1="0" x2="0" y1="1" y2="0"><stop stop-color="rgba(255, 125, 41, 1)" offset="0%"/><stop stop-color="rgba(255, 188, 66, 1)" offset="100%"/></linearGradient></defs><path style="transform:translate(0, 50px); opacity:0.9" fill="url(#sw-gradient-1)" d="M0,0L34.3,16.3C68.6,33,137,65,206,114.3C274.3,163,343,229,411,245C480,261,549,229,617,196C685.7,163,754,131,823,114.3C891.4,98,960,98,1029,81.7C1097.1,65,1166,33,1234,32.7C1302.9,33,1371,65,1440,122.5C1508.6,180,1577,261,1646,310.3C1714.3,359,1783,376,1851,334.8C1920,294,1989,196,2057,130.7C2125.7,65,2194,33,2263,24.5C2331.4,16,2400,33,2469,40.8C2537.1,49,2606,49,2674,57.2C2742.9,65,2811,82,2880,130.7C2948.6,180,3017,261,3086,318.5C3154.3,376,3223,408,3291,367.5C3360,327,3429,212,3497,204.2C3565.7,196,3634,294,3703,318.5C3771.4,343,3840,294,3909,285.8C3977.1,278,4046,310,4114,318.5C4182.9,327,4251,310,4320,261.3C4388.6,212,4457,131,4526,155.2C4594.3,180,4663,310,4731,367.5C4800,425,4869,408,4903,400.2L4937.1,392L4937.1,490L4902.9,490C4868.6,490,4800,490,4731,490C4662.9,490,4594,490,4526,490C4457.1,490,4389,490,4320,490C4251.4,490,4183,490,4114,490C4045.7,490,3977,490,3909,490C3840,490,3771,490,3703,490C3634.3,490,3566,490,3497,490C3428.6,490,3360,490,3291,490C3222.9,490,3154,490,3086,490C3017.1,490,2949,490,2880,490C2811.4,490,2743,490,2674,490C2605.7,490,2537,490,2469,490C2400,490,2331,490,2263,490C2194.3,490,2126,490,2057,490C1988.6,490,1920,490,1851,490C1782.9,490,1714,490,1646,490C1577.1,490,1509,490,1440,490C1371.4,490,1303,490,1234,490C1165.7,490,1097,490,1029,490C960,490,891,490,823,490C754.3,490,686,490,617,490C548.6,490,480,490,411,490C342.9,490,274,490,206,490C137.1,490,69,490,34,490L0,490Z"/><defs><linearGradient id="sw-gradient-2" x1="0" x2="0" y1="1" y2="0"><stop stop-color="rgba(255, 203, 85, 1)" offset="0%"/><stop stop-color="rgba(255, 193, 77, 1)" offset="100%"/></linearGradient></defs><path style="transform:translate(0, 100px); opacity:0.8" fill="url(#sw-gradient-2)" d="M0,392L34.3,383.8C68.6,376,137,359,206,310.3C274.3,261,343,180,411,171.5C480,163,549,229,617,261.3C685.7,294,754,294,823,253.2C891.4,212,960,131,1029,138.8C1097.1,147,1166,245,1234,253.2C1302.9,261,1371,180,1440,196C1508.6,212,1577,327,1646,310.3C1714.3,294,1783,147,1851,130.7C1920,114,1989,229,2057,277.7C2125.7,327,2194,310,2263,294C2331.4,278,2400,261,2469,236.8C2537.1,212,2606,180,2674,187.8C2742.9,196,2811,245,2880,245C2948.6,245,3017,196,3086,204.2C3154.3,212,3223,278,3291,294C3360,310,3429,278,3497,245C3565.7,212,3634,180,3703,155.2C3771.4,131,3840,114,3909,155.2C3977.1,196,4046,294,4114,277.7C4182.9,261,4251,131,4320,81.7C4388.6,33,4457,65,4526,130.7C4594.3,196,4663,294,4731,318.5C4800,343,4869,294,4903,269.5L4937.1,245L4937.1,490L4902.9,490C4868.6,490,4800,490,4731,490C4662.9,490,4594,490,4526,490C4457.1,490,4389,490,4320,490C4251.4,490,4183,490,4114,490C4045.7,490,3977,490,3909,490C3840,490,3771,490,3703,490C3634.3,490,3566,490,3497,490C3428.6,490,3360,490,3291,490C3222.9,490,3154,490,3086,490C3017.1,490,2949,490,2880,490C2811.4,490,2743,490,2674,490C2605.7,490,2537,490,2469,490C2400,490,2331,490,2263,490C2194.3,490,2126,490,2057,490C1988.6,490,1920,490,1851,490C1782.9,490,1714,490,1646,490C1577.1,490,1509,490,1440,490C1371.4,490,1303,490,1234,490C1165.7,490,1097,490,1029,490C960,490,891,490,823,490C754.3,490,686,490,617,490C548.6,490,480,490,411,490C342.9,490,274,490,206,490C137.1,490,69,490,34,490L0,490Z"/><defs><linearGradient id="sw-gradient-3" x1="0" x2="0" y1="1" y2="0"><stop stop-color="rgba(255, 238, 169, 1)" offset="0%"/><stop stop-color="rgba(255, 178, 44, 1)" offset="100%"/></linearGradient></defs><path style="transform:translate(0, 150px); opacity:0.7" fill="url(#sw-gradient-3)" d="M0,392L34.3,392C68.6,392,137,392,206,400.2C274.3,408,343,425,411,375.7C480,327,549,212,617,147C685.7,82,754,65,823,98C891.4,131,960,212,1029,277.7C1097.1,343,1166,392,1234,351.2C1302.9,310,1371,180,1440,138.8C1508.6,98,1577,147,1646,196C1714.3,245,1783,294,1851,334.8C1920,376,1989,408,2057,408.3C2125.7,408,2194,376,2263,318.5C2331.4,261,2400,180,2469,155.2C2537.1,131,2606,163,2674,155.2C2742.9,147,2811,98,2880,138.8C2948.6,180,3017,310,3086,334.8C3154.3,359,3223,278,3291,204.2C3360,131,3429,65,3497,106.2C3565.7,147,3634,294,3703,318.5C3771.4,343,3840,245,3909,212.3C3977.1,180,4046,212,4114,204.2C4182.9,196,4251,147,4320,114.3C4388.6,82,4457,65,4526,114.3C4594.3,163,4663,278,4731,302.2C4800,327,4869,261,4903,228.7L4937.1,196L4937.1,490L4902.9,490C4868.6,490,4800,490,4731,490C4662.9,490,4594,490,4526,490C4457.1,490,4389,490,4320,490C4251.4,490,4183,490,4114,490C4045.7,490,3977,490,3909,490C3840,490,3771,490,3703,490C3634.3,490,3566,490,3497,490C3428.6,490,3360,490,3291,490C3222.9,490,3154,490,3086,490C3017.1,490,2949,490,2880,490C2811.4,490,2743,490,2674,490C2605.7,490,2537,490,2469,490C2400,490,2331,490,2263,490C2194.3,490,2126,490,2057,490C1988.6,490,1920,490,1851,490C1782.9,490,1714,490,1646,490C1577.1,490,1509,490,1440,490C1371.4,490,1303,490,1234,490C1165.7,490,1097,490,1029,490C960,490,891,490,823,490C754.3,490,686,490,617,490C548.6,490,480,490,411,490C342.9,490,274,490,206,490C137.1,490,69,490,34,490L0,490Z"/></svg>