<?xml version="1.0" standalone="no"?>
<svg xmlns:xlink="http://www.w3.org/1999/xlink" id="wave" style="transform:rotate(180deg); transition: 0.3s" viewBox="0 0 1440 490" version="1.1" xmlns="http://www.w3.org/2000/svg"><defs><linearGradient id="sw-gradient-0" x1="0" x2="0" y1="1" y2="0"><stop stop-color="rgba(255, 174, 70, 1)" offset="0%"/><stop stop-color="rgba(243, 254, 184, 1)" offset="100%"/></linearGradient></defs><path style="transform:translate(0, 0px); opacity:1" fill="url(#sw-gradient-0)" d="M0,98L34.3,89.8C68.6,82,137,65,206,65.3C274.3,65,343,82,411,89.8C480,98,549,98,617,89.8C685.7,82,754,65,823,81.7C891.4,98,960,147,1029,138.8C1097.1,131,1166,65,1234,81.7C1302.9,98,1371,196,1440,269.5C1508.6,343,1577,392,1646,392C1714.3,392,1783,343,1851,285.8C1920,229,1989,163,2057,163.3C2125.7,163,2194,229,2263,277.7C2331.4,327,2400,359,2469,375.7C2537.1,392,2606,392,2674,359.3C2742.9,327,2811,261,2880,204.2C2948.6,147,3017,98,3086,122.5C3154.3,147,3223,245,3291,294C3360,343,3429,343,3497,294C3565.7,245,3634,147,3703,138.8C3771.4,131,3840,212,3909,236.8C3977.1,261,4046,229,4114,187.8C4182.9,147,4251,98,4320,65.3C4388.6,33,4457,16,4526,8.2C4594.3,0,4663,0,4731,57.2C4800,114,4869,229,4903,285.8L4937.1,343L4937.1,490L4902.9,490C4868.6,490,4800,490,4731,490C4662.9,490,4594,490,4526,490C4457.1,490,4389,490,4320,490C4251.4,490,4183,490,4114,490C4045.7,490,3977,490,3909,490C3840,490,3771,490,3703,490C3634.3,490,3566,490,3497,490C3428.6,490,3360,490,3291,490C3222.9,490,3154,490,3086,490C3017.1,490,2949,490,2880,490C2811.4,490,2743,490,2674,490C2605.7,490,2537,490,2469,490C2400,490,2331,490,2263,490C2194.3,490,2126,490,2057,490C1988.6,490,1920,490,1851,490C1782.9,490,1714,490,1646,490C1577.1,490,1509,490,1440,490C1371.4,490,1303,490,1234,490C1165.7,490,1097,490,1029,490C960,490,891,490,823,490C754.3,490,686,490,617,490C548.6,490,480,490,411,490C342.9,490,274,490,206,490C137.1,490,69,490,34,490L0,490Z"/><defs><linearGradient id="sw-gradient-1" x1="0" x2="0" y1="1" y2="0"><stop stop-color="rgba(255, 125, 41, 1)" offset="0%"/><stop stop-color="rgba(255, 188, 66, 1)" offset="100%"/></linearGradient></defs><path style="transform:translate(0, 50px); opacity:0.9" fill="url(#sw-gradient-1)" d="M0,49L34.3,57.2C68.6,65,137,82,206,122.5C274.3,163,343,229,411,245C480,261,549,229,617,204.2C685.7,180,754,163,823,147C891.4,131,960,114,1029,98C1097.1,82,1166,65,1234,81.7C1302.9,98,1371,147,1440,204.2C1508.6,261,1577,327,1646,302.2C1714.3,278,1783,163,1851,122.5C1920,82,1989,114,2057,106.2C2125.7,98,2194,49,2263,57.2C2331.4,65,2400,131,2469,187.8C2537.1,245,2606,294,2674,294C2742.9,294,2811,245,2880,220.5C2948.6,196,3017,196,3086,204.2C3154.3,212,3223,229,3291,253.2C3360,278,3429,310,3497,334.8C3565.7,359,3634,376,3703,351.2C3771.4,327,3840,261,3909,245C3977.1,229,4046,261,4114,245C4182.9,229,4251,163,4320,130.7C4388.6,98,4457,98,4526,130.7C4594.3,163,4663,229,4731,245C4800,261,4869,229,4903,212.3L4937.1,196L4937.1,490L4902.9,490C4868.6,490,4800,490,4731,490C4662.9,490,4594,490,4526,490C4457.1,490,4389,490,4320,490C4251.4,490,4183,490,4114,490C4045.7,490,3977,490,3909,490C3840,490,3771,490,3703,490C3634.3,490,3566,490,3497,490C3428.6,490,3360,490,3291,490C3222.9,490,3154,490,3086,490C3017.1,490,2949,490,2880,490C2811.4,490,2743,490,2674,490C2605.7,490,2537,490,2469,490C2400,490,2331,490,2263,490C2194.3,490,2126,490,2057,490C1988.6,490,1920,490,1851,490C1782.9,490,1714,490,1646,490C1577.1,490,1509,490,1440,490C1371.4,490,1303,490,1234,490C1165.7,490,1097,490,1029,490C960,490,891,490,823,490C754.3,490,686,490,617,490C548.6,490,480,490,411,490C342.9,490,274,490,206,490C137.1,490,69,490,34,490L0,490Z"/><defs><linearGradient id="sw-gradient-2" x1="0" x2="0" y1="1" y2="0"><stop stop-color="rgba(255, 203, 85, 1)" offset="0%"/><stop stop-color="rgba(255, 193, 77, 1)" offset="100%"/></linearGradient></defs><path style="transform:translate(0, 100px); opacity:0.8" fill="url(#sw-gradient-2)" d="M0,343L34.3,343C68.6,343,137,343,206,326.7C274.3,310,343,278,411,277.7C480,278,549,310,617,277.7C685.7,245,754,147,823,98C891.4,49,960,49,1029,49C1097.1,49,1166,49,1234,73.5C1302.9,98,1371,147,1440,171.5C1508.6,196,1577,196,1646,196C1714.3,196,1783,196,1851,187.8C1920,180,1989,163,2057,204.2C2125.7,245,2194,343,2263,392C2331.4,441,2400,441,2469,375.7C2537.1,310,2606,180,2674,179.7C2742.9,180,2811,310,2880,343C2948.6,376,3017,310,3086,310.3C3154.3,310,3223,376,3291,334.8C3360,294,3429,147,3497,98C3565.7,49,3634,98,3703,163.3C3771.4,229,3840,310,3909,343C3977.1,376,4046,359,4114,294C4182.9,229,4251,114,4320,114.3C4388.6,114,4457,229,4526,269.5C4594.3,310,4663,278,4731,261.3C4800,245,4869,245,4903,245L4937.1,245L4937.1,490L4902.9,490C4868.6,490,4800,490,4731,490C4662.9,490,4594,490,4526,490C4457.1,490,4389,490,4320,490C4251.4,490,4183,490,4114,490C4045.7,490,3977,490,3909,490C3840,490,3771,490,3703,490C3634.3,490,3566,490,3497,490C3428.6,490,3360,490,3291,490C3222.9,490,3154,490,3086,490C3017.1,490,2949,490,2880,490C2811.4,490,2743,490,2674,490C2605.7,490,2537,490,2469,490C2400,490,2331,490,2263,490C2194.3,490,2126,490,2057,490C1988.6,490,1920,490,1851,490C1782.9,490,1714,490,1646,490C1577.1,490,1509,490,1440,490C1371.4,490,1303,490,1234,490C1165.7,490,1097,490,1029,490C960,490,891,490,823,490C754.3,490,686,490,617,490C548.6,490,480,490,411,490C342.9,490,274,490,206,490C137.1,490,69,490,34,490L0,490Z"/><defs><linearGradient id="sw-gradient-3" x1="0" x2="0" y1="1" y2="0"><stop stop-color="rgba(255, 238, 169, 1)" offset="0%"/><stop stop-color="rgba(255, 178, 44, 1)" offset="100%"/></linearGradient></defs><path style="transform:translate(0, 150px); opacity:0.7" fill="url(#sw-gradient-3)" d="M0,147L34.3,147C68.6,147,137,147,206,196C274.3,245,343,343,411,375.7C480,408,549,376,617,351.2C685.7,327,754,310,823,326.7C891.4,343,960,392,1029,392C1097.1,392,1166,343,1234,269.5C1302.9,196,1371,98,1440,89.8C1508.6,82,1577,163,1646,212.3C1714.3,261,1783,278,1851,310.3C1920,343,1989,392,2057,351.2C2125.7,310,2194,180,2263,114.3C2331.4,49,2400,49,2469,49C2537.1,49,2606,49,2674,89.8C2742.9,131,2811,212,2880,253.2C2948.6,294,3017,294,3086,253.2C3154.3,212,3223,131,3291,138.8C3360,147,3429,245,3497,245C3565.7,245,3634,147,3703,147C3771.4,147,3840,245,3909,261.3C3977.1,278,4046,212,4114,163.3C4182.9,114,4251,82,4320,73.5C4388.6,65,4457,82,4526,130.7C4594.3,180,4663,261,4731,302.2C4800,343,4869,343,4903,343L4937.1,343L4937.1,490L4902.9,490C4868.6,490,4800,490,4731,490C4662.9,490,4594,490,4526,490C4457.1,490,4389,490,4320,490C4251.4,490,4183,490,4114,490C4045.7,490,3977,490,3909,490C3840,490,3771,490,3703,490C3634.3,490,3566,490,3497,490C3428.6,490,3360,490,3291,490C3222.9,490,3154,490,3086,490C3017.1,490,2949,490,2880,490C2811.4,490,2743,490,2674,490C2605.7,490,2537,490,2469,490C2400,490,2331,490,2263,490C2194.3,490,2126,490,2057,490C1988.6,490,1920,490,1851,490C1782.9,490,1714,490,1646,490C1577.1,490,1509,490,1440,490C1371.4,490,1303,490,1234,490C1165.7,490,1097,490,1029,490C960,490,891,490,823,490C754.3,490,686,490,617,490C548.6,490,480,490,411,490C342.9,490,274,490,206,490C137.1,490,69,490,34,490L0,490Z"/></svg>