<?xml version="1.0" standalone="no"?>
<svg xmlns:xlink="http://www.w3.org/1999/xlink" id="wave" style="transform:rotate(180deg); transition: 0.3s" viewBox="0 0 1440 490" version="1.1" xmlns="http://www.w3.org/2000/svg"><defs><linearGradient id="sw-gradient-0" x1="0" x2="0" y1="1" y2="0"><stop stop-color="rgba(36, 54, 66, 1)" offset="0%"/><stop stop-color="rgba(56, 116, 120, 1)" offset="100%"/></linearGradient></defs><path style="transform:translate(0, 0px); opacity:1" fill="url(#sw-gradient-0)" d="M0,294L26.7,302.2C53.3,310,107,327,160,294C213.3,261,267,180,320,179.7C373.3,180,427,261,480,261.3C533.3,261,587,180,640,138.8C693.3,98,747,98,800,106.2C853.3,114,907,131,960,179.7C1013.3,229,1067,310,1120,294C1173.3,278,1227,163,1280,171.5C1333.3,180,1387,310,1440,326.7C1493.3,343,1547,245,1600,204.2C1653.3,163,1707,180,1760,212.3C1813.3,245,1867,294,1920,277.7C1973.3,261,2027,180,2080,179.7C2133.3,180,2187,261,2240,310.3C2293.3,359,2347,376,2400,326.7C2453.3,278,2507,163,2560,155.2C2613.3,147,2667,245,2720,285.8C2773.3,327,2827,310,2880,318.5C2933.3,327,2987,359,3040,318.5C3093.3,278,3147,163,3200,171.5C3253.3,180,3307,310,3360,334.8C3413.3,359,3467,278,3520,220.5C3573.3,163,3627,131,3680,155.2C3733.3,180,3787,261,3813,302.2L3840,343L3840,490L3813.3,490C3786.7,490,3733,490,3680,490C3626.7,490,3573,490,3520,490C3466.7,490,3413,490,3360,490C3306.7,490,3253,490,3200,490C3146.7,490,3093,490,3040,490C2986.7,490,2933,490,2880,490C2826.7,490,2773,490,2720,490C2666.7,490,2613,490,2560,490C2506.7,490,2453,490,2400,490C2346.7,490,2293,490,2240,490C2186.7,490,2133,490,2080,490C2026.7,490,1973,490,1920,490C1866.7,490,1813,490,1760,490C1706.7,490,1653,490,1600,490C1546.7,490,1493,490,1440,490C1386.7,490,1333,490,1280,490C1226.7,490,1173,490,1120,490C1066.7,490,1013,490,960,490C906.7,490,853,490,800,490C746.7,490,693,490,640,490C586.7,490,533,490,480,490C426.7,490,373,490,320,490C266.7,490,213,490,160,490C106.7,490,53,490,27,490L0,490Z"/><defs><linearGradient id="sw-gradient-1" x1="0" x2="0" y1="1" y2="0"><stop stop-color="rgba(56, 116, 120, 1)" offset="0%"/><stop stop-color="rgba(98, 149, 132, 1)" offset="100%"/></linearGradient></defs><path style="transform:translate(0, 50px); opacity:0.9" fill="url(#sw-gradient-1)" d="M0,441L26.7,441C53.3,441,107,441,160,375.7C213.3,310,267,180,320,179.7C373.3,180,427,310,480,359.3C533.3,408,587,376,640,367.5C693.3,359,747,376,800,343C853.3,310,907,229,960,179.7C1013.3,131,1067,114,1120,147C1173.3,180,1227,261,1280,318.5C1333.3,376,1387,408,1440,400.2C1493.3,392,1547,343,1600,302.2C1653.3,261,1707,229,1760,236.8C1813.3,245,1867,294,1920,285.8C1973.3,278,2027,212,2080,228.7C2133.3,245,2187,343,2240,326.7C2293.3,310,2347,180,2400,155.2C2453.3,131,2507,212,2560,261.3C2613.3,310,2667,327,2720,343C2773.3,359,2827,376,2880,367.5C2933.3,359,2987,327,3040,269.5C3093.3,212,3147,131,3200,114.3C3253.3,98,3307,147,3360,196C3413.3,245,3467,294,3520,310.3C3573.3,327,3627,310,3680,269.5C3733.3,229,3787,163,3813,130.7L3840,98L3840,490L3813.3,490C3786.7,490,3733,490,3680,490C3626.7,490,3573,490,3520,490C3466.7,490,3413,490,3360,490C3306.7,490,3253,490,3200,490C3146.7,490,3093,490,3040,490C2986.7,490,2933,490,2880,490C2826.7,490,2773,490,2720,490C2666.7,490,2613,490,2560,490C2506.7,490,2453,490,2400,490C2346.7,490,2293,490,2240,490C2186.7,490,2133,490,2080,490C2026.7,490,1973,490,1920,490C1866.7,490,1813,490,1760,490C1706.7,490,1653,490,1600,490C1546.7,490,1493,490,1440,490C1386.7,490,1333,490,1280,490C1226.7,490,1173,490,1120,490C1066.7,490,1013,490,960,490C906.7,490,853,490,800,490C746.7,490,693,490,640,490C586.7,490,533,490,480,490C426.7,490,373,490,320,490C266.7,490,213,490,160,490C106.7,490,53,490,27,490L0,490Z"/><defs><linearGradient id="sw-gradient-2" x1="0" x2="0" y1="1" y2="0"><stop stop-color="rgba(98, 149, 132, 1)" offset="0%"/><stop stop-color="rgba(226, 241, 231, 1)" offset="100%"/></linearGradient></defs><path style="transform:translate(0, 100px); opacity:0.8" fill="url(#sw-gradient-2)" d="M0,441L26.7,441C53.3,441,107,441,160,375.7C213.3,310,267,180,320,122.5C373.3,65,427,82,480,73.5C533.3,65,587,33,640,40.8C693.3,49,747,98,800,147C853.3,196,907,245,960,261.3C1013.3,278,1067,261,1120,277.7C1173.3,294,1227,343,1280,310.3C1333.3,278,1387,163,1440,98C1493.3,33,1547,16,1600,57.2C1653.3,98,1707,196,1760,253.2C1813.3,310,1867,327,1920,277.7C1973.3,229,2027,114,2080,106.2C2133.3,98,2187,196,2240,245C2293.3,294,2347,294,2400,269.5C2453.3,245,2507,196,2560,179.7C2613.3,163,2667,180,2720,155.2C2773.3,131,2827,65,2880,106.2C2933.3,147,2987,294,3040,343C3093.3,392,3147,343,3200,285.8C3253.3,229,3307,163,3360,122.5C3413.3,82,3467,65,3520,49C3573.3,33,3627,16,3680,16.3C3733.3,16,3787,33,3813,40.8L3840,49L3840,490L3813.3,490C3786.7,490,3733,490,3680,490C3626.7,490,3573,490,3520,490C3466.7,490,3413,490,3360,490C3306.7,490,3253,490,3200,490C3146.7,490,3093,490,3040,490C2986.7,490,2933,490,2880,490C2826.7,490,2773,490,2720,490C2666.7,490,2613,490,2560,490C2506.7,490,2453,490,2400,490C2346.7,490,2293,490,2240,490C2186.7,490,2133,490,2080,490C2026.7,490,1973,490,1920,490C1866.7,490,1813,490,1760,490C1706.7,490,1653,490,1600,490C1546.7,490,1493,490,1440,490C1386.7,490,1333,490,1280,490C1226.7,490,1173,490,1120,490C1066.7,490,1013,490,960,490C906.7,490,853,490,800,490C746.7,490,693,490,640,490C586.7,490,533,490,480,490C426.7,490,373,490,320,490C266.7,490,213,490,160,490C106.7,490,53,490,27,490L0,490Z"/><defs><linearGradient id="sw-gradient-3" x1="0" x2="0" y1="1" y2="0"><stop stop-color="rgba(98, 149, 132, 1)" offset="0%"/><stop stop-color="rgba(226, 241, 231, 1)" offset="100%"/></linearGradient></defs><path style="transform:translate(0, 150px); opacity:0.7" fill="url(#sw-gradient-3)" d="M0,0L26.7,65.3C53.3,131,107,261,160,302.2C213.3,343,267,294,320,294C373.3,294,427,343,480,343C533.3,343,587,294,640,277.7C693.3,261,747,278,800,302.2C853.3,327,907,359,960,351.2C1013.3,343,1067,294,1120,277.7C1173.3,261,1227,278,1280,245C1333.3,212,1387,131,1440,155.2C1493.3,180,1547,310,1600,310.3C1653.3,310,1707,180,1760,147C1813.3,114,1867,180,1920,204.2C1973.3,229,2027,212,2080,179.7C2133.3,147,2187,98,2240,106.2C2293.3,114,2347,180,2400,187.8C2453.3,196,2507,147,2560,163.3C2613.3,180,2667,261,2720,277.7C2773.3,294,2827,245,2880,187.8C2933.3,131,2987,65,3040,40.8C3093.3,16,3147,33,3200,81.7C3253.3,131,3307,212,3360,245C3413.3,278,3467,261,3520,269.5C3573.3,278,3627,310,3680,334.8C3733.3,359,3787,376,3813,383.8L3840,392L3840,490L3813.3,490C3786.7,490,3733,490,3680,490C3626.7,490,3573,490,3520,490C3466.7,490,3413,490,3360,490C3306.7,490,3253,490,3200,490C3146.7,490,3093,490,3040,490C2986.7,490,2933,490,2880,490C2826.7,490,2773,490,2720,490C2666.7,490,2613,490,2560,490C2506.7,490,2453,490,2400,490C2346.7,490,2293,490,2240,490C2186.7,490,2133,490,2080,490C2026.7,490,1973,490,1920,490C1866.7,490,1813,490,1760,490C1706.7,490,1653,490,1600,490C1546.7,490,1493,490,1440,490C1386.7,490,1333,490,1280,490C1226.7,490,1173,490,1120,490C1066.7,490,1013,490,960,490C906.7,490,853,490,800,490C746.7,490,693,490,640,490C586.7,490,533,490,480,490C426.7,490,373,490,320,490C266.7,490,213,490,160,490C106.7,490,53,490,27,490L0,490Z"/></svg>