<?xml version="1.0" standalone="no"?>
<svg xmlns:xlink="http://www.w3.org/1999/xlink" id="wave" style="transform:rotate(180deg); transition: 0.3s" viewBox="0 0 1440 490" version="1.1" xmlns="http://www.w3.org/2000/svg"><defs><linearGradient id="sw-gradient-0" x1="0" x2="0" y1="1" y2="0"><stop stop-color="rgba(36, 54, 66, 1)" offset="0%"/><stop stop-color="rgba(56, 116, 120, 1)" offset="100%"/></linearGradient></defs><path style="transform:translate(0, 0px); opacity:1" fill="url(#sw-gradient-0)" d="M0,98L26.7,98C53.3,98,107,98,160,106.2C213.3,114,267,131,320,130.7C373.3,131,427,114,480,98C533.3,82,587,65,640,122.5C693.3,180,747,310,800,318.5C853.3,327,907,212,960,138.8C1013.3,65,1067,33,1120,89.8C1173.3,147,1227,294,1280,351.2C1333.3,408,1387,376,1440,302.2C1493.3,229,1547,114,1600,57.2C1653.3,0,1707,0,1760,49C1813.3,98,1867,196,1920,261.3C1973.3,327,2027,359,2080,310.3C2133.3,261,2187,131,2240,89.8C2293.3,49,2347,98,2400,155.2C2453.3,212,2507,278,2560,326.7C2613.3,376,2667,408,2720,408.3C2773.3,408,2827,376,2880,359.3C2933.3,343,2987,343,3040,351.2C3093.3,359,3147,376,3200,392C3253.3,408,3307,425,3360,416.5C3413.3,408,3467,376,3520,351.2C3573.3,327,3627,310,3680,285.8C3733.3,261,3787,229,3813,212.3L3840,196L3840,490L3813.3,490C3786.7,490,3733,490,3680,490C3626.7,490,3573,490,3520,490C3466.7,490,3413,490,3360,490C3306.7,490,3253,490,3200,490C3146.7,490,3093,490,3040,490C2986.7,490,2933,490,2880,490C2826.7,490,2773,490,2720,490C2666.7,490,2613,490,2560,490C2506.7,490,2453,490,2400,490C2346.7,490,2293,490,2240,490C2186.7,490,2133,490,2080,490C2026.7,490,1973,490,1920,490C1866.7,490,1813,490,1760,490C1706.7,490,1653,490,1600,490C1546.7,490,1493,490,1440,490C1386.7,490,1333,490,1280,490C1226.7,490,1173,490,1120,490C1066.7,490,1013,490,960,490C906.7,490,853,490,800,490C746.7,490,693,490,640,490C586.7,490,533,490,480,490C426.7,490,373,490,320,490C266.7,490,213,490,160,490C106.7,490,53,490,27,490L0,490Z"/><defs><linearGradient id="sw-gradient-1" x1="0" x2="0" y1="1" y2="0"><stop stop-color="rgba(56, 116, 120, 1)" offset="0%"/><stop stop-color="rgba(98, 149, 132, 1)" offset="100%"/></linearGradient></defs><path style="transform:translate(0, 50px); opacity:0.9" fill="url(#sw-gradient-1)" d="M0,294L26.7,302.2C53.3,310,107,327,160,334.8C213.3,343,267,343,320,285.8C373.3,229,427,114,480,65.3C533.3,16,587,33,640,73.5C693.3,114,747,180,800,171.5C853.3,163,907,82,960,49C1013.3,16,1067,33,1120,32.7C1173.3,33,1227,16,1280,49C1333.3,82,1387,163,1440,163.3C1493.3,163,1547,82,1600,65.3C1653.3,49,1707,98,1760,98C1813.3,98,1867,49,1920,89.8C1973.3,131,2027,261,2080,277.7C2133.3,294,2187,196,2240,155.2C2293.3,114,2347,131,2400,147C2453.3,163,2507,180,2560,187.8C2613.3,196,2667,196,2720,228.7C2773.3,261,2827,327,2880,326.7C2933.3,327,2987,261,3040,269.5C3093.3,278,3147,359,3200,392C3253.3,425,3307,408,3360,359.3C3413.3,310,3467,229,3520,204.2C3573.3,180,3627,212,3680,228.7C3733.3,245,3787,245,3813,245L3840,245L3840,490L3813.3,490C3786.7,490,3733,490,3680,490C3626.7,490,3573,490,3520,490C3466.7,490,3413,490,3360,490C3306.7,490,3253,490,3200,490C3146.7,490,3093,490,3040,490C2986.7,490,2933,490,2880,490C2826.7,490,2773,490,2720,490C2666.7,490,2613,490,2560,490C2506.7,490,2453,490,2400,490C2346.7,490,2293,490,2240,490C2186.7,490,2133,490,2080,490C2026.7,490,1973,490,1920,490C1866.7,490,1813,490,1760,490C1706.7,490,1653,490,1600,490C1546.7,490,1493,490,1440,490C1386.7,490,1333,490,1280,490C1226.7,490,1173,490,1120,490C1066.7,490,1013,490,960,490C906.7,490,853,490,800,490C746.7,490,693,490,640,490C586.7,490,533,490,480,490C426.7,490,373,490,320,490C266.7,490,213,490,160,490C106.7,490,53,490,27,490L0,490Z"/><defs><linearGradient id="sw-gradient-2" x1="0" x2="0" y1="1" y2="0"><stop stop-color="rgba(98, 149, 132, 1)" offset="0%"/><stop stop-color="rgba(226, 241, 231, 1)" offset="100%"/></linearGradient></defs><path style="transform:translate(0, 100px); opacity:0.8" fill="url(#sw-gradient-2)" d="M0,49L26.7,89.8C53.3,131,107,212,160,277.7C213.3,343,267,392,320,408.3C373.3,425,427,408,480,375.7C533.3,343,587,294,640,269.5C693.3,245,747,245,800,220.5C853.3,196,907,147,960,130.7C1013.3,114,1067,131,1120,122.5C1173.3,114,1227,82,1280,89.8C1333.3,98,1387,147,1440,163.3C1493.3,180,1547,163,1600,187.8C1653.3,212,1707,278,1760,326.7C1813.3,376,1867,408,1920,351.2C1973.3,294,2027,147,2080,98C2133.3,49,2187,98,2240,130.7C2293.3,163,2347,180,2400,196C2453.3,212,2507,229,2560,228.7C2613.3,229,2667,212,2720,204.2C2773.3,196,2827,196,2880,204.2C2933.3,212,2987,229,3040,245C3093.3,261,3147,278,3200,277.7C3253.3,278,3307,261,3360,285.8C3413.3,310,3467,376,3520,375.7C3573.3,376,3627,310,3680,294C3733.3,278,3787,310,3813,326.7L3840,343L3840,490L3813.3,490C3786.7,490,3733,490,3680,490C3626.7,490,3573,490,3520,490C3466.7,490,3413,490,3360,490C3306.7,490,3253,490,3200,490C3146.7,490,3093,490,3040,490C2986.7,490,2933,490,2880,490C2826.7,490,2773,490,2720,490C2666.7,490,2613,490,2560,490C2506.7,490,2453,490,2400,490C2346.7,490,2293,490,2240,490C2186.7,490,2133,490,2080,490C2026.7,490,1973,490,1920,490C1866.7,490,1813,490,1760,490C1706.7,490,1653,490,1600,490C1546.7,490,1493,490,1440,490C1386.7,490,1333,490,1280,490C1226.7,490,1173,490,1120,490C1066.7,490,1013,490,960,490C906.7,490,853,490,800,490C746.7,490,693,490,640,490C586.7,490,533,490,480,490C426.7,490,373,490,320,490C266.7,490,213,490,160,490C106.7,490,53,490,27,490L0,490Z"/><defs><linearGradient id="sw-gradient-3" x1="0" x2="0" y1="1" y2="0"><stop stop-color="rgba(98, 149, 132, 1)" offset="0%"/><stop stop-color="rgba(56, 116, 120, 1)" offset="100%"/></linearGradient></defs><path style="transform:translate(0, 150px); opacity:0.7" fill="url(#sw-gradient-3)" d="M0,245L26.7,220.5C53.3,196,107,147,160,122.5C213.3,98,267,98,320,81.7C373.3,65,427,33,480,65.3C533.3,98,587,196,640,253.2C693.3,310,747,327,800,326.7C853.3,327,907,310,960,302.2C1013.3,294,1067,294,1120,245C1173.3,196,1227,98,1280,65.3C1333.3,33,1387,65,1440,122.5C1493.3,180,1547,261,1600,269.5C1653.3,278,1707,212,1760,155.2C1813.3,98,1867,49,1920,98C1973.3,147,2027,294,2080,294C2133.3,294,2187,147,2240,106.2C2293.3,65,2347,131,2400,138.8C2453.3,147,2507,98,2560,106.2C2613.3,114,2667,180,2720,179.7C2773.3,180,2827,114,2880,138.8C2933.3,163,2987,278,3040,318.5C3093.3,359,3147,327,3200,294C3253.3,261,3307,229,3360,204.2C3413.3,180,3467,163,3520,147C3573.3,131,3627,114,3680,147C3733.3,180,3787,261,3813,302.2L3840,343L3840,490L3813.3,490C3786.7,490,3733,490,3680,490C3626.7,490,3573,490,3520,490C3466.7,490,3413,490,3360,490C3306.7,490,3253,490,3200,490C3146.7,490,3093,490,3040,490C2986.7,490,2933,490,2880,490C2826.7,490,2773,490,2720,490C2666.7,490,2613,490,2560,490C2506.7,490,2453,490,2400,490C2346.7,490,2293,490,2240,490C2186.7,490,2133,490,2080,490C2026.7,490,1973,490,1920,490C1866.7,490,1813,490,1760,490C1706.7,490,1653,490,1600,490C1546.7,490,1493,490,1440,490C1386.7,490,1333,490,1280,490C1226.7,490,1173,490,1120,490C1066.7,490,1013,490,960,490C906.7,490,853,490,800,490C746.7,490,693,490,640,490C586.7,490,533,490,480,490C426.7,490,373,490,320,490C266.7,490,213,490,160,490C106.7,490,53,490,27,490L0,490Z"/></svg>