<?xml version="1.0" standalone="no"?>
<svg xmlns:xlink="http://www.w3.org/1999/xlink" id="wave" style="transform:rotate(180deg); transition: 0.3s" viewBox="0 0 1440 490" version="1.1" xmlns="http://www.w3.org/2000/svg"><defs><linearGradient id="sw-gradient-0" x1="0" x2="0" y1="1" y2="0"><stop stop-color="rgba(36, 54, 66, 1)" offset="0%"/><stop stop-color="rgba(56, 116, 120, 1)" offset="100%"/></linearGradient></defs><path style="transform:translate(0, 0px); opacity:1" fill="url(#sw-gradient-0)" d="M0,294L34.3,310.3C68.6,327,137,359,206,318.5C274.3,278,343,163,411,106.2C480,49,549,49,617,57.2C685.7,65,754,82,823,138.8C891.4,196,960,294,1029,351.2C1097.1,408,1166,425,1234,383.8C1302.9,343,1371,245,1440,187.8C1508.6,131,1577,114,1646,114.3C1714.3,114,1783,131,1851,147C1920,163,1989,180,2057,155.2C2125.7,131,2194,65,2263,89.8C2331.4,114,2400,229,2469,269.5C2537.1,310,2606,278,2674,245C2742.9,212,2811,180,2880,196C2948.6,212,3017,278,3086,253.2C3154.3,229,3223,114,3291,130.7C3360,147,3429,294,3497,294C3565.7,294,3634,147,3703,138.8C3771.4,131,3840,261,3909,310.3C3977.1,359,4046,327,4114,326.7C4182.9,327,4251,359,4320,334.8C4388.6,310,4457,229,4526,171.5C4594.3,114,4663,82,4731,130.7C4800,180,4869,310,4903,375.7L4937.1,441L4937.1,490L4902.9,490C4868.6,490,4800,490,4731,490C4662.9,490,4594,490,4526,490C4457.1,490,4389,490,4320,490C4251.4,490,4183,490,4114,490C4045.7,490,3977,490,3909,490C3840,490,3771,490,3703,490C3634.3,490,3566,490,3497,490C3428.6,490,3360,490,3291,490C3222.9,490,3154,490,3086,490C3017.1,490,2949,490,2880,490C2811.4,490,2743,490,2674,490C2605.7,490,2537,490,2469,490C2400,490,2331,490,2263,490C2194.3,490,2126,490,2057,490C1988.6,490,1920,490,1851,490C1782.9,490,1714,490,1646,490C1577.1,490,1509,490,1440,490C1371.4,490,1303,490,1234,490C1165.7,490,1097,490,1029,490C960,490,891,490,823,490C754.3,490,686,490,617,490C548.6,490,480,490,411,490C342.9,490,274,490,206,490C137.1,490,69,490,34,490L0,490Z"/><defs><linearGradient id="sw-gradient-1" x1="0" x2="0" y1="1" y2="0"><stop stop-color="rgba(56, 116, 120, 1)" offset="0%"/><stop stop-color="rgba(98, 149, 132, 1)" offset="100%"/></linearGradient></defs><path style="transform:translate(0, 50px); opacity:0.9" fill="url(#sw-gradient-1)" d="M0,49L34.3,89.8C68.6,131,137,212,206,228.7C274.3,245,343,196,411,196C480,196,549,245,617,269.5C685.7,294,754,294,823,245C891.4,196,960,98,1029,57.2C1097.1,16,1166,33,1234,32.7C1302.9,33,1371,16,1440,8.2C1508.6,0,1577,0,1646,16.3C1714.3,33,1783,65,1851,65.3C1920,65,1989,33,2057,73.5C2125.7,114,2194,229,2263,228.7C2331.4,229,2400,114,2469,57.2C2537.1,0,2606,0,2674,8.2C2742.9,16,2811,33,2880,106.2C2948.6,180,3017,310,3086,302.2C3154.3,294,3223,147,3291,106.2C3360,65,3429,131,3497,147C3565.7,163,3634,131,3703,171.5C3771.4,212,3840,327,3909,326.7C3977.1,327,4046,212,4114,163.3C4182.9,114,4251,131,4320,122.5C4388.6,114,4457,82,4526,65.3C4594.3,49,4663,49,4731,40.8C4800,33,4869,16,4903,8.2L4937.1,0L4937.1,490L4902.9,490C4868.6,490,4800,490,4731,490C4662.9,490,4594,490,4526,490C4457.1,490,4389,490,4320,490C4251.4,490,4183,490,4114,490C4045.7,490,3977,490,3909,490C3840,490,3771,490,3703,490C3634.3,490,3566,490,3497,490C3428.6,490,3360,490,3291,490C3222.9,490,3154,490,3086,490C3017.1,490,2949,490,2880,490C2811.4,490,2743,490,2674,490C2605.7,490,2537,490,2469,490C2400,490,2331,490,2263,490C2194.3,490,2126,490,2057,490C1988.6,490,1920,490,1851,490C1782.9,490,1714,490,1646,490C1577.1,490,1509,490,1440,490C1371.4,490,1303,490,1234,490C1165.7,490,1097,490,1029,490C960,490,891,490,823,490C754.3,490,686,490,617,490C548.6,490,480,490,411,490C342.9,490,274,490,206,490C137.1,490,69,490,34,490L0,490Z"/><defs><linearGradient id="sw-gradient-2" x1="0" x2="0" y1="1" y2="0"><stop stop-color="rgba(98, 149, 132, 1)" offset="0%"/><stop stop-color="rgba(226, 241, 231, 1)" offset="100%"/></linearGradient></defs><path style="transform:translate(0, 100px); opacity:0.8" fill="url(#sw-gradient-2)" d="M0,196L34.3,179.7C68.6,163,137,131,206,155.2C274.3,180,343,261,411,318.5C480,376,549,408,617,359.3C685.7,310,754,180,823,147C891.4,114,960,180,1029,196C1097.1,212,1166,180,1234,187.8C1302.9,196,1371,245,1440,245C1508.6,245,1577,196,1646,187.8C1714.3,180,1783,212,1851,253.2C1920,294,1989,343,2057,375.7C2125.7,408,2194,425,2263,424.7C2331.4,425,2400,408,2469,359.3C2537.1,310,2606,229,2674,163.3C2742.9,98,2811,49,2880,73.5C2948.6,98,3017,196,3086,253.2C3154.3,310,3223,327,3291,277.7C3360,229,3429,114,3497,57.2C3565.7,0,3634,0,3703,73.5C3771.4,147,3840,294,3909,351.2C3977.1,408,4046,376,4114,367.5C4182.9,359,4251,376,4320,334.8C4388.6,294,4457,196,4526,187.8C4594.3,180,4663,261,4731,277.7C4800,294,4869,245,4903,220.5L4937.1,196L4937.1,490L4902.9,490C4868.6,490,4800,490,4731,490C4662.9,490,4594,490,4526,490C4457.1,490,4389,490,4320,490C4251.4,490,4183,490,4114,490C4045.7,490,3977,490,3909,490C3840,490,3771,490,3703,490C3634.3,490,3566,490,3497,490C3428.6,490,3360,490,3291,490C3222.9,490,3154,490,3086,490C3017.1,490,2949,490,2880,490C2811.4,490,2743,490,2674,490C2605.7,490,2537,490,2469,490C2400,490,2331,490,2263,490C2194.3,490,2126,490,2057,490C1988.6,490,1920,490,1851,490C1782.9,490,1714,490,1646,490C1577.1,490,1509,490,1440,490C1371.4,490,1303,490,1234,490C1165.7,490,1097,490,1029,490C960,490,891,490,823,490C754.3,490,686,490,617,490C548.6,490,480,490,411,490C342.9,490,274,490,206,490C137.1,490,69,490,34,490L0,490Z"/><defs><linearGradient id="sw-gradient-3" x1="0" x2="0" y1="1" y2="0"><stop stop-color="rgba(98, 149, 132, 1)" offset="0%"/><stop stop-color="rgba(56, 116, 120, 1)" offset="100%"/></linearGradient></defs><path style="transform:translate(0, 150px); opacity:0.7" fill="url(#sw-gradient-3)" d="M0,196L34.3,228.7C68.6,261,137,327,206,294C274.3,261,343,131,411,89.8C480,49,549,98,617,171.5C685.7,245,754,343,823,392C891.4,441,960,441,1029,432.8C1097.1,425,1166,408,1234,383.8C1302.9,359,1371,327,1440,302.2C1508.6,278,1577,261,1646,277.7C1714.3,294,1783,343,1851,351.2C1920,359,1989,327,2057,285.8C2125.7,245,2194,196,2263,155.2C2331.4,114,2400,82,2469,73.5C2537.1,65,2606,82,2674,98C2742.9,114,2811,131,2880,179.7C2948.6,229,3017,310,3086,326.7C3154.3,343,3223,294,3291,261.3C3360,229,3429,212,3497,228.7C3565.7,245,3634,294,3703,318.5C3771.4,343,3840,343,3909,343C3977.1,343,4046,343,4114,285.8C4182.9,229,4251,114,4320,81.7C4388.6,49,4457,98,4526,147C4594.3,196,4663,245,4731,269.5C4800,294,4869,294,4903,294L4937.1,294L4937.1,490L4902.9,490C4868.6,490,4800,490,4731,490C4662.9,490,4594,490,4526,490C4457.1,490,4389,490,4320,490C4251.4,490,4183,490,4114,490C4045.7,490,3977,490,3909,490C3840,490,3771,490,3703,490C3634.3,490,3566,490,3497,490C3428.6,490,3360,490,3291,490C3222.9,490,3154,490,3086,490C3017.1,490,2949,490,2880,490C2811.4,490,2743,490,2674,490C2605.7,490,2537,490,2469,490C2400,490,2331,490,2263,490C2194.3,490,2126,490,2057,490C1988.6,490,1920,490,1851,490C1782.9,490,1714,490,1646,490C1577.1,490,1509,490,1440,490C1371.4,490,1303,490,1234,490C1165.7,490,1097,490,1029,490C960,490,891,490,823,490C754.3,490,686,490,617,490C548.6,490,480,490,411,490C342.9,490,274,490,206,490C137.1,490,69,490,34,490L0,490Z"/></svg>