<?xml version="1.0" standalone="no"?>
<svg xmlns:xlink="http://www.w3.org/1999/xlink" id="wave" style="transform:rotate(180deg); transition: 0.3s" viewBox="0 0 1440 490" version="1.1" xmlns="http://www.w3.org/2000/svg"><defs><linearGradient id="sw-gradient-0" x1="0" x2="0" y1="1" y2="0"><stop stop-color="rgba(105, 153, 142, 1)" offset="0%"/><stop stop-color="rgba(124, 167, 162, 1)" offset="100%"/></linearGradient></defs><path style="transform:translate(0, 0px); opacity:1" fill="url(#sw-gradient-0)" d="M0,49L30,57.2C60,65,120,82,180,122.5C240,163,300,229,360,212.3C420,196,480,98,540,65.3C600,33,660,65,720,65.3C780,65,840,33,900,81.7C960,131,1020,261,1080,277.7C1140,294,1200,196,1260,130.7C1320,65,1380,33,1440,40.8C1500,49,1560,98,1620,138.8C1680,180,1740,212,1800,212.3C1860,212,1920,180,1980,147C2040,114,2100,82,2160,89.8C2220,98,2280,147,2340,212.3C2400,278,2460,359,2520,392C2580,425,2640,408,2700,392C2760,376,2820,359,2880,367.5C2940,376,3000,408,3060,375.7C3120,343,3180,245,3240,187.8C3300,131,3360,114,3420,89.8C3480,65,3540,33,3600,24.5C3660,16,3720,33,3780,73.5C3840,114,3900,180,3960,245C4020,310,4080,376,4140,359.3C4200,343,4260,245,4290,196L4320,147L4320,490L4290,490C4260,490,4200,490,4140,490C4080,490,4020,490,3960,490C3900,490,3840,490,3780,490C3720,490,3660,490,3600,490C3540,490,3480,490,3420,490C3360,490,3300,490,3240,490C3180,490,3120,490,3060,490C3000,490,2940,490,2880,490C2820,490,2760,490,2700,490C2640,490,2580,490,2520,490C2460,490,2400,490,2340,490C2280,490,2220,490,2160,490C2100,490,2040,490,1980,490C1920,490,1860,490,1800,490C1740,490,1680,490,1620,490C1560,490,1500,490,1440,490C1380,490,1320,490,1260,490C1200,490,1140,490,1080,490C1020,490,960,490,900,490C840,490,780,490,720,490C660,490,600,490,540,490C480,490,420,490,360,490C300,490,240,490,180,490C120,490,60,490,30,490L0,490Z"/><defs><linearGradient id="sw-gradient-1" x1="0" x2="0" y1="1" y2="0"><stop stop-color="rgba(124, 167, 162, 1)" offset="0%"/><stop stop-color="rgba(179, 207, 195, 1)" offset="100%"/></linearGradient></defs><path style="transform:translate(0, 50px); opacity:0.9" fill="url(#sw-gradient-1)" d="M0,294L30,302.2C60,310,120,327,180,351.2C240,376,300,408,360,400.2C420,392,480,343,540,318.5C600,294,660,294,720,269.5C780,245,840,196,900,155.2C960,114,1020,82,1080,57.2C1140,33,1200,16,1260,65.3C1320,114,1380,229,1440,294C1500,359,1560,376,1620,367.5C1680,359,1740,327,1800,334.8C1860,343,1920,392,1980,375.7C2040,359,2100,278,2160,212.3C2220,147,2280,98,2340,65.3C2400,33,2460,16,2520,81.7C2580,147,2640,294,2700,351.2C2760,408,2820,376,2880,375.7C2940,376,3000,408,3060,416.5C3120,425,3180,408,3240,375.7C3300,343,3360,294,3420,245C3480,196,3540,147,3600,114.3C3660,82,3720,65,3780,106.2C3840,147,3900,245,3960,310.3C4020,376,4080,408,4140,408.3C4200,408,4260,376,4290,359.3L4320,343L4320,490L4290,490C4260,490,4200,490,4140,490C4080,490,4020,490,3960,490C3900,490,3840,490,3780,490C3720,490,3660,490,3600,490C3540,490,3480,490,3420,490C3360,490,3300,490,3240,490C3180,490,3120,490,3060,490C3000,490,2940,490,2880,490C2820,490,2760,490,2700,490C2640,490,2580,490,2520,490C2460,490,2400,490,2340,490C2280,490,2220,490,2160,490C2100,490,2040,490,1980,490C1920,490,1860,490,1800,490C1740,490,1680,490,1620,490C1560,490,1500,490,1440,490C1380,490,1320,490,1260,490C1200,490,1140,490,1080,490C1020,490,960,490,900,490C840,490,780,490,720,490C660,490,600,490,540,490C480,490,420,490,360,490C300,490,240,490,180,490C120,490,60,490,30,490L0,490Z"/><defs><linearGradient id="sw-gradient-2" x1="0" x2="0" y1="1" y2="0"><stop stop-color="rgba(179, 207, 195, 1)" offset="0%"/><stop stop-color="rgba(105, 153, 142, 1)" offset="100%"/></linearGradient></defs><path style="transform:translate(0, 100px); opacity:0.8" fill="url(#sw-gradient-2)" d="M0,49L30,65.3C60,82,120,114,180,114.3C240,114,300,82,360,98C420,114,480,180,540,187.8C600,196,660,147,720,122.5C780,98,840,98,900,130.7C960,163,1020,229,1080,269.5C1140,310,1200,327,1260,294C1320,261,1380,180,1440,130.7C1500,82,1560,65,1620,81.7C1680,98,1740,147,1800,179.7C1860,212,1920,229,1980,261.3C2040,294,2100,343,2160,310.3C2220,278,2280,163,2340,98C2400,33,2460,16,2520,57.2C2580,98,2640,196,2700,261.3C2760,327,2820,359,2880,383.8C2940,408,3000,425,3060,408.3C3120,392,3180,343,3240,277.7C3300,212,3360,131,3420,114.3C3480,98,3540,147,3600,163.3C3660,180,3720,163,3780,171.5C3840,180,3900,212,3960,236.8C4020,261,4080,278,4140,236.8C4200,196,4260,98,4290,49L4320,0L4320,490L4290,490C4260,490,4200,490,4140,490C4080,490,4020,490,3960,490C3900,490,3840,490,3780,490C3720,490,3660,490,3600,490C3540,490,3480,490,3420,490C3360,490,3300,490,3240,490C3180,490,3120,490,3060,490C3000,490,2940,490,2880,490C2820,490,2760,490,2700,490C2640,490,2580,490,2520,490C2460,490,2400,490,2340,490C2280,490,2220,490,2160,490C2100,490,2040,490,1980,490C1920,490,1860,490,1800,490C1740,490,1680,490,1620,490C1560,490,1500,490,1440,490C1380,490,1320,490,1260,490C1200,490,1140,490,1080,490C1020,490,960,490,900,490C840,490,780,490,720,490C660,490,600,490,540,490C480,490,420,490,360,490C300,490,240,490,180,490C120,490,60,490,30,490L0,490Z"/><defs><linearGradient id="sw-gradient-3" x1="0" x2="0" y1="1" y2="0"><stop stop-color="rgba(179, 207, 195, 1)" offset="0%"/><stop stop-color="rgba(124, 167, 162, 1)" offset="100%"/></linearGradient></defs><path style="transform:translate(0, 150px); opacity:0.7" fill="url(#sw-gradient-3)" d="M0,245L30,228.7C60,212,120,180,180,138.8C240,98,300,49,360,73.5C420,98,480,196,540,261.3C600,327,660,359,720,383.8C780,408,840,425,900,408.3C960,392,1020,343,1080,318.5C1140,294,1200,294,1260,245C1320,196,1380,98,1440,106.2C1500,114,1560,229,1620,294C1680,359,1740,376,1800,375.7C1860,376,1920,359,1980,318.5C2040,278,2100,212,2160,196C2220,180,2280,212,2340,253.2C2400,294,2460,343,2520,334.8C2580,327,2640,261,2700,204.2C2760,147,2820,98,2880,106.2C2940,114,3000,180,3060,245C3120,310,3180,376,3240,392C3300,408,3360,376,3420,310.3C3480,245,3540,147,3600,122.5C3660,98,3720,147,3780,212.3C3840,278,3900,359,3960,326.7C4020,294,4080,147,4140,73.5C4200,0,4260,0,4290,0L4320,0L4320,490L4290,490C4260,490,4200,490,4140,490C4080,490,4020,490,3960,490C3900,490,3840,490,3780,490C3720,490,3660,490,3600,490C3540,490,3480,490,3420,490C3360,490,3300,490,3240,490C3180,490,3120,490,3060,490C3000,490,2940,490,2880,490C2820,490,2760,490,2700,490C2640,490,2580,490,2520,490C2460,490,2400,490,2340,490C2280,490,2220,490,2160,490C2100,490,2040,490,1980,490C1920,490,1860,490,1800,490C1740,490,1680,490,1620,490C1560,490,1500,490,1440,490C1380,490,1320,490,1260,490C1200,490,1140,490,1080,490C1020,490,960,490,900,490C840,490,780,490,720,490C660,490,600,490,540,490C480,490,420,490,360,490C300,490,240,490,180,490C120,490,60,490,30,490L0,490Z"/></svg>