<?xml version="1.0" standalone="no"?>
<svg xmlns:xlink="http://www.w3.org/1999/xlink" id="wave" style="transform:rotate(180deg); transition: 0.3s" viewBox="0 0 1440 490" version="1.1" xmlns="http://www.w3.org/2000/svg"><defs><linearGradient id="sw-gradient-0" x1="0" x2="0" y1="1" y2="0"><stop stop-color="rgba(255, 174, 70, 1)" offset="0%"/><stop stop-color="rgba(243, 254, 184, 1)" offset="100%"/></linearGradient></defs><path style="transform:translate(0, 0px); opacity:1" fill="url(#sw-gradient-0)" d="M0,294L34.3,285.8C68.6,278,137,261,206,285.8C274.3,310,343,376,411,359.3C480,343,549,245,617,179.7C685.7,114,754,82,823,81.7C891.4,82,960,114,1029,138.8C1097.1,163,1166,180,1234,179.7C1302.9,180,1371,163,1440,179.7C1508.6,196,1577,245,1646,294C1714.3,343,1783,392,1851,343C1920,294,1989,147,2057,138.8C2125.7,131,2194,261,2263,310.3C2331.4,359,2400,327,2469,326.7C2537.1,327,2606,359,2674,351.2C2742.9,343,2811,294,2880,302.2C2948.6,310,3017,376,3086,383.8C3154.3,392,3223,343,3291,285.8C3360,229,3429,163,3497,147C3565.7,131,3634,163,3703,187.8C3771.4,212,3840,229,3909,212.3C3977.1,196,4046,147,4114,114.3C4182.9,82,4251,65,4320,49C4388.6,33,4457,16,4526,32.7C4594.3,49,4663,98,4731,155.2C4800,212,4869,278,4903,310.3L4937.1,343L4937.1,490L4902.9,490C4868.6,490,4800,490,4731,490C4662.9,490,4594,490,4526,490C4457.1,490,4389,490,4320,490C4251.4,490,4183,490,4114,490C4045.7,490,3977,490,3909,490C3840,490,3771,490,3703,490C3634.3,490,3566,490,3497,490C3428.6,490,3360,490,3291,490C3222.9,490,3154,490,3086,490C3017.1,490,2949,490,2880,490C2811.4,490,2743,490,2674,490C2605.7,490,2537,490,2469,490C2400,490,2331,490,2263,490C2194.3,490,2126,490,2057,490C1988.6,490,1920,490,1851,490C1782.9,490,1714,490,1646,490C1577.1,490,1509,490,1440,490C1371.4,490,1303,490,1234,490C1165.7,490,1097,490,1029,490C960,490,891,490,823,490C754.3,490,686,490,617,490C548.6,490,480,490,411,490C342.9,490,274,490,206,490C137.1,490,69,490,34,490L0,490Z"/><defs><linearGradient id="sw-gradient-1" x1="0" x2="0" y1="1" y2="0"><stop stop-color="rgba(255, 125, 41, 1)" offset="0%"/><stop stop-color="rgba(255, 188, 66, 1)" offset="100%"/></linearGradient></defs><path style="transform:translate(0, 50px); opacity:0.9" fill="url(#sw-gradient-1)" d="M0,98L34.3,98C68.6,98,137,98,206,89.8C274.3,82,343,65,411,73.5C480,82,549,114,617,155.2C685.7,196,754,245,823,261.3C891.4,278,960,261,1029,236.8C1097.1,212,1166,180,1234,155.2C1302.9,131,1371,114,1440,163.3C1508.6,212,1577,327,1646,318.5C1714.3,310,1783,180,1851,163.3C1920,147,1989,245,2057,269.5C2125.7,294,2194,245,2263,196C2331.4,147,2400,98,2469,73.5C2537.1,49,2606,49,2674,89.8C2742.9,131,2811,212,2880,220.5C2948.6,229,3017,163,3086,147C3154.3,131,3223,163,3291,204.2C3360,245,3429,294,3497,310.3C3565.7,327,3634,310,3703,302.2C3771.4,294,3840,294,3909,310.3C3977.1,327,4046,359,4114,375.7C4182.9,392,4251,392,4320,375.7C4388.6,359,4457,327,4526,261.3C4594.3,196,4663,98,4731,57.2C4800,16,4869,33,4903,40.8L4937.1,49L4937.1,490L4902.9,490C4868.6,490,4800,490,4731,490C4662.9,490,4594,490,4526,490C4457.1,490,4389,490,4320,490C4251.4,490,4183,490,4114,490C4045.7,490,3977,490,3909,490C3840,490,3771,490,3703,490C3634.3,490,3566,490,3497,490C3428.6,490,3360,490,3291,490C3222.9,490,3154,490,3086,490C3017.1,490,2949,490,2880,490C2811.4,490,2743,490,2674,490C2605.7,490,2537,490,2469,490C2400,490,2331,490,2263,490C2194.3,490,2126,490,2057,490C1988.6,490,1920,490,1851,490C1782.9,490,1714,490,1646,490C1577.1,490,1509,490,1440,490C1371.4,490,1303,490,1234,490C1165.7,490,1097,490,1029,490C960,490,891,490,823,490C754.3,490,686,490,617,490C548.6,490,480,490,411,490C342.9,490,274,490,206,490C137.1,490,69,490,34,490L0,490Z"/><defs><linearGradient id="sw-gradient-2" x1="0" x2="0" y1="1" y2="0"><stop stop-color="rgba(255, 203, 85, 1)" offset="0%"/><stop stop-color="rgba(255, 193, 77, 1)" offset="100%"/></linearGradient></defs><path style="transform:translate(0, 100px); opacity:0.8" fill="url(#sw-gradient-2)" d="M0,147L34.3,163.3C68.6,180,137,212,206,220.5C274.3,229,343,212,411,187.8C480,163,549,131,617,114.3C685.7,98,754,98,823,155.2C891.4,212,960,327,1029,375.7C1097.1,425,1166,408,1234,367.5C1302.9,327,1371,261,1440,253.2C1508.6,245,1577,294,1646,285.8C1714.3,278,1783,212,1851,179.7C1920,147,1989,147,2057,122.5C2125.7,98,2194,49,2263,81.7C2331.4,114,2400,229,2469,302.2C2537.1,376,2606,408,2674,408.3C2742.9,408,2811,376,2880,310.3C2948.6,245,3017,147,3086,155.2C3154.3,163,3223,278,3291,269.5C3360,261,3429,131,3497,122.5C3565.7,114,3634,229,3703,261.3C3771.4,294,3840,245,3909,220.5C3977.1,196,4046,196,4114,187.8C4182.9,180,4251,163,4320,187.8C4388.6,212,4457,278,4526,285.8C4594.3,294,4663,245,4731,228.7C4800,212,4869,229,4903,236.8L4937.1,245L4937.1,490L4902.9,490C4868.6,490,4800,490,4731,490C4662.9,490,4594,490,4526,490C4457.1,490,4389,490,4320,490C4251.4,490,4183,490,4114,490C4045.7,490,3977,490,3909,490C3840,490,3771,490,3703,490C3634.3,490,3566,490,3497,490C3428.6,490,3360,490,3291,490C3222.9,490,3154,490,3086,490C3017.1,490,2949,490,2880,490C2811.4,490,2743,490,2674,490C2605.7,490,2537,490,2469,490C2400,490,2331,490,2263,490C2194.3,490,2126,490,2057,490C1988.6,490,1920,490,1851,490C1782.9,490,1714,490,1646,490C1577.1,490,1509,490,1440,490C1371.4,490,1303,490,1234,490C1165.7,490,1097,490,1029,490C960,490,891,490,823,490C754.3,490,686,490,617,490C548.6,490,480,490,411,490C342.9,490,274,490,206,490C137.1,490,69,490,34,490L0,490Z"/><defs><linearGradient id="sw-gradient-3" x1="0" x2="0" y1="1" y2="0"><stop stop-color="rgba(255, 238, 169, 1)" offset="0%"/><stop stop-color="rgba(255, 178, 44, 1)" offset="100%"/></linearGradient></defs><path style="transform:translate(0, 150px); opacity:0.7" fill="url(#sw-gradient-3)" d="M0,0L34.3,8.2C68.6,16,137,33,206,49C274.3,65,343,82,411,147C480,212,549,327,617,359.3C685.7,392,754,343,823,269.5C891.4,196,960,98,1029,65.3C1097.1,33,1166,65,1234,138.8C1302.9,212,1371,327,1440,383.8C1508.6,441,1577,441,1646,441C1714.3,441,1783,441,1851,400.2C1920,359,1989,278,2057,212.3C2125.7,147,2194,98,2263,73.5C2331.4,49,2400,49,2469,65.3C2537.1,82,2606,114,2674,122.5C2742.9,131,2811,114,2880,114.3C2948.6,114,3017,131,3086,179.7C3154.3,229,3223,310,3291,343C3360,376,3429,359,3497,310.3C3565.7,261,3634,180,3703,147C3771.4,114,3840,131,3909,138.8C3977.1,147,4046,147,4114,179.7C4182.9,212,4251,278,4320,318.5C4388.6,359,4457,376,4526,375.7C4594.3,376,4663,359,4731,318.5C4800,278,4869,212,4903,179.7L4937.1,147L4937.1,490L4902.9,490C4868.6,490,4800,490,4731,490C4662.9,490,4594,490,4526,490C4457.1,490,4389,490,4320,490C4251.4,490,4183,490,4114,490C4045.7,490,3977,490,3909,490C3840,490,3771,490,3703,490C3634.3,490,3566,490,3497,490C3428.6,490,3360,490,3291,490C3222.9,490,3154,490,3086,490C3017.1,490,2949,490,2880,490C2811.4,490,2743,490,2674,490C2605.7,490,2537,490,2469,490C2400,490,2331,490,2263,490C2194.3,490,2126,490,2057,490C1988.6,490,1920,490,1851,490C1782.9,490,1714,490,1646,490C1577.1,490,1509,490,1440,490C1371.4,490,1303,490,1234,490C1165.7,490,1097,490,1029,490C960,490,891,490,823,490C754.3,490,686,490,617,490C548.6,490,480,490,411,490C342.9,490,274,490,206,490C137.1,490,69,490,34,490L0,490Z"/></svg>