<?xml version="1.0" standalone="no"?>
<svg xmlns:xlink="http://www.w3.org/1999/xlink" id="wave" style="transform:rotate(180deg); transition: 0.3s" viewBox="0 0 1440 490" version="1.1" xmlns="http://www.w3.org/2000/svg"><defs><linearGradient id="sw-gradient-0" x1="0" x2="0" y1="1" y2="0"><stop stop-color="rgba(36, 54, 66, 1)" offset="0%"/><stop stop-color="rgba(56, 116, 120, 1)" offset="100%"/></linearGradient></defs><path style="transform:translate(0, 0px); opacity:1" fill="url(#sw-gradient-0)" d="M0,0L34.3,24.5C68.6,49,137,98,206,122.5C274.3,147,343,147,411,179.7C480,212,549,278,617,318.5C685.7,359,754,376,823,375.7C891.4,376,960,359,1029,326.7C1097.1,294,1166,245,1234,228.7C1302.9,212,1371,229,1440,204.2C1508.6,180,1577,114,1646,138.8C1714.3,163,1783,278,1851,294C1920,310,1989,229,2057,204.2C2125.7,180,2194,212,2263,220.5C2331.4,229,2400,212,2469,236.8C2537.1,261,2606,327,2674,310.3C2742.9,294,2811,196,2880,130.7C2948.6,65,3017,33,3086,49C3154.3,65,3223,131,3291,130.7C3360,131,3429,65,3497,81.7C3565.7,98,3634,196,3703,261.3C3771.4,327,3840,359,3909,343C3977.1,327,4046,261,4114,269.5C4182.9,278,4251,359,4320,392C4388.6,425,4457,408,4526,334.8C4594.3,261,4663,131,4731,98C4800,65,4869,131,4903,163.3L4937.1,196L4937.1,490L4902.9,490C4868.6,490,4800,490,4731,490C4662.9,490,4594,490,4526,490C4457.1,490,4389,490,4320,490C4251.4,490,4183,490,4114,490C4045.7,490,3977,490,3909,490C3840,490,3771,490,3703,490C3634.3,490,3566,490,3497,490C3428.6,490,3360,490,3291,490C3222.9,490,3154,490,3086,490C3017.1,490,2949,490,2880,490C2811.4,490,2743,490,2674,490C2605.7,490,2537,490,2469,490C2400,490,2331,490,2263,490C2194.3,490,2126,490,2057,490C1988.6,490,1920,490,1851,490C1782.9,490,1714,490,1646,490C1577.1,490,1509,490,1440,490C1371.4,490,1303,490,1234,490C1165.7,490,1097,490,1029,490C960,490,891,490,823,490C754.3,490,686,490,617,490C548.6,490,480,490,411,490C342.9,490,274,490,206,490C137.1,490,69,490,34,490L0,490Z"/><defs><linearGradient id="sw-gradient-1" x1="0" x2="0" y1="1" y2="0"><stop stop-color="rgba(56, 116, 120, 1)" offset="0%"/><stop stop-color="rgba(98, 149, 132, 1)" offset="100%"/></linearGradient></defs><path style="transform:translate(0, 50px); opacity:0.9" fill="url(#sw-gradient-1)" d="M0,0L34.3,65.3C68.6,131,137,261,206,318.5C274.3,376,343,359,411,318.5C480,278,549,212,617,220.5C685.7,229,754,310,823,351.2C891.4,392,960,392,1029,383.8C1097.1,376,1166,359,1234,326.7C1302.9,294,1371,245,1440,261.3C1508.6,278,1577,359,1646,367.5C1714.3,376,1783,310,1851,269.5C1920,229,1989,212,2057,228.7C2125.7,245,2194,294,2263,294C2331.4,294,2400,245,2469,187.8C2537.1,131,2606,65,2674,65.3C2742.9,65,2811,131,2880,163.3C2948.6,196,3017,196,3086,220.5C3154.3,245,3223,294,3291,261.3C3360,229,3429,114,3497,81.7C3565.7,49,3634,98,3703,98C3771.4,98,3840,49,3909,89.8C3977.1,131,4046,261,4114,310.3C4182.9,359,4251,327,4320,285.8C4388.6,245,4457,196,4526,171.5C4594.3,147,4663,147,4731,138.8C4800,131,4869,114,4903,106.2L4937.1,98L4937.1,490L4902.9,490C4868.6,490,4800,490,4731,490C4662.9,490,4594,490,4526,490C4457.1,490,4389,490,4320,490C4251.4,490,4183,490,4114,490C4045.7,490,3977,490,3909,490C3840,490,3771,490,3703,490C3634.3,490,3566,490,3497,490C3428.6,490,3360,490,3291,490C3222.9,490,3154,490,3086,490C3017.1,490,2949,490,2880,490C2811.4,490,2743,490,2674,490C2605.7,490,2537,490,2469,490C2400,490,2331,490,2263,490C2194.3,490,2126,490,2057,490C1988.6,490,1920,490,1851,490C1782.9,490,1714,490,1646,490C1577.1,490,1509,490,1440,490C1371.4,490,1303,490,1234,490C1165.7,490,1097,490,1029,490C960,490,891,490,823,490C754.3,490,686,490,617,490C548.6,490,480,490,411,490C342.9,490,274,490,206,490C137.1,490,69,490,34,490L0,490Z"/><defs><linearGradient id="sw-gradient-2" x1="0" x2="0" y1="1" y2="0"><stop stop-color="rgba(98, 149, 132, 1)" offset="0%"/><stop stop-color="rgba(226, 241, 231, 1)" offset="100%"/></linearGradient></defs><path style="transform:translate(0, 100px); opacity:0.8" fill="url(#sw-gradient-2)" d="M0,245L34.3,253.2C68.6,261,137,278,206,294C274.3,310,343,327,411,326.7C480,327,549,310,617,285.8C685.7,261,754,229,823,196C891.4,163,960,131,1029,114.3C1097.1,98,1166,98,1234,155.2C1302.9,212,1371,327,1440,310.3C1508.6,294,1577,147,1646,130.7C1714.3,114,1783,229,1851,236.8C1920,245,1989,147,2057,89.8C2125.7,33,2194,16,2263,57.2C2331.4,98,2400,196,2469,212.3C2537.1,229,2606,163,2674,114.3C2742.9,65,2811,33,2880,24.5C2948.6,16,3017,33,3086,40.8C3154.3,49,3223,49,3291,114.3C3360,180,3429,310,3497,343C3565.7,376,3634,310,3703,269.5C3771.4,229,3840,212,3909,179.7C3977.1,147,4046,98,4114,89.8C4182.9,82,4251,114,4320,106.2C4388.6,98,4457,49,4526,73.5C4594.3,98,4663,196,4731,204.2C4800,212,4869,131,4903,89.8L4937.1,49L4937.1,490L4902.9,490C4868.6,490,4800,490,4731,490C4662.9,490,4594,490,4526,490C4457.1,490,4389,490,4320,490C4251.4,490,4183,490,4114,490C4045.7,490,3977,490,3909,490C3840,490,3771,490,3703,490C3634.3,490,3566,490,3497,490C3428.6,490,3360,490,3291,490C3222.9,490,3154,490,3086,490C3017.1,490,2949,490,2880,490C2811.4,490,2743,490,2674,490C2605.7,490,2537,490,2469,490C2400,490,2331,490,2263,490C2194.3,490,2126,490,2057,490C1988.6,490,1920,490,1851,490C1782.9,490,1714,490,1646,490C1577.1,490,1509,490,1440,490C1371.4,490,1303,490,1234,490C1165.7,490,1097,490,1029,490C960,490,891,490,823,490C754.3,490,686,490,617,490C548.6,490,480,490,411,490C342.9,490,274,490,206,490C137.1,490,69,490,34,490L0,490Z"/><defs><linearGradient id="sw-gradient-3" x1="0" x2="0" y1="1" y2="0"><stop stop-color="rgba(226, 241, 231, 1)" offset="0%"/><stop stop-color="rgba(253, 139, 81, 1)" offset="100%"/></linearGradient></defs><path style="transform:translate(0, 150px); opacity:0.7" fill="url(#sw-gradient-3)" d="M0,294L34.3,261.3C68.6,229,137,163,206,163.3C274.3,163,343,229,411,269.5C480,310,549,327,617,294C685.7,261,754,180,823,163.3C891.4,147,960,196,1029,196C1097.1,196,1166,147,1234,114.3C1302.9,82,1371,65,1440,98C1508.6,131,1577,212,1646,253.2C1714.3,294,1783,294,1851,294C1920,294,1989,294,2057,245C2125.7,196,2194,98,2263,114.3C2331.4,131,2400,261,2469,261.3C2537.1,261,2606,131,2674,81.7C2742.9,33,2811,65,2880,106.2C2948.6,147,3017,196,3086,245C3154.3,294,3223,343,3291,334.8C3360,327,3429,261,3497,261.3C3565.7,261,3634,327,3703,310.3C3771.4,294,3840,196,3909,179.7C3977.1,163,4046,229,4114,228.7C4182.9,229,4251,163,4320,138.8C4388.6,114,4457,131,4526,187.8C4594.3,245,4663,343,4731,351.2C4800,359,4869,278,4903,236.8L4937.1,196L4937.1,490L4902.9,490C4868.6,490,4800,490,4731,490C4662.9,490,4594,490,4526,490C4457.1,490,4389,490,4320,490C4251.4,490,4183,490,4114,490C4045.7,490,3977,490,3909,490C3840,490,3771,490,3703,490C3634.3,490,3566,490,3497,490C3428.6,490,3360,490,3291,490C3222.9,490,3154,490,3086,490C3017.1,490,2949,490,2880,490C2811.4,490,2743,490,2674,490C2605.7,490,2537,490,2469,490C2400,490,2331,490,2263,490C2194.3,490,2126,490,2057,490C1988.6,490,1920,490,1851,490C1782.9,490,1714,490,1646,490C1577.1,490,1509,490,1440,490C1371.4,490,1303,490,1234,490C1165.7,490,1097,490,1029,490C960,490,891,490,823,490C754.3,490,686,490,617,490C548.6,490,480,490,411,490C342.9,490,274,490,206,490C137.1,490,69,490,34,490L0,490Z"/></svg>