<?xml version="1.0" standalone="no"?>
<svg xmlns:xlink="http://www.w3.org/1999/xlink" id="wave" style="transform:rotate(180deg); transition: 0.3s" viewBox="0 0 1440 490" version="1.1" xmlns="http://www.w3.org/2000/svg"><defs><linearGradient id="sw-gradient-0" x1="0" x2="0" y1="1" y2="0"><stop stop-color="rgba(36, 54, 66, 1)" offset="0%"/><stop stop-color="rgba(56, 116, 120, 1)" offset="100%"/></linearGradient></defs><path style="transform:translate(0, 0px); opacity:1" fill="url(#sw-gradient-0)" d="M0,343L34.3,302.2C68.6,261,137,180,206,163.3C274.3,147,343,196,411,212.3C480,229,549,212,617,228.7C685.7,245,754,294,823,269.5C891.4,245,960,147,1029,138.8C1097.1,131,1166,212,1234,269.5C1302.9,327,1371,359,1440,351.2C1508.6,343,1577,294,1646,245C1714.3,196,1783,147,1851,138.8C1920,131,1989,163,2057,220.5C2125.7,278,2194,359,2263,375.7C2331.4,392,2400,343,2469,326.7C2537.1,310,2606,327,2674,318.5C2742.9,310,2811,278,2880,285.8C2948.6,294,3017,343,3086,318.5C3154.3,294,3223,196,3291,163.3C3360,131,3429,163,3497,220.5C3565.7,278,3634,359,3703,326.7C3771.4,294,3840,147,3909,114.3C3977.1,82,4046,163,4114,163.3C4182.9,163,4251,82,4320,98C4388.6,114,4457,229,4526,277.7C4594.3,327,4663,310,4731,302.2C4800,294,4869,294,4903,294L4937.1,294L4937.1,490L4902.9,490C4868.6,490,4800,490,4731,490C4662.9,490,4594,490,4526,490C4457.1,490,4389,490,4320,490C4251.4,490,4183,490,4114,490C4045.7,490,3977,490,3909,490C3840,490,3771,490,3703,490C3634.3,490,3566,490,3497,490C3428.6,490,3360,490,3291,490C3222.9,490,3154,490,3086,490C3017.1,490,2949,490,2880,490C2811.4,490,2743,490,2674,490C2605.7,490,2537,490,2469,490C2400,490,2331,490,2263,490C2194.3,490,2126,490,2057,490C1988.6,490,1920,490,1851,490C1782.9,490,1714,490,1646,490C1577.1,490,1509,490,1440,490C1371.4,490,1303,490,1234,490C1165.7,490,1097,490,1029,490C960,490,891,490,823,490C754.3,490,686,490,617,490C548.6,490,480,490,411,490C342.9,490,274,490,206,490C137.1,490,69,490,34,490L0,490Z"/><defs><linearGradient id="sw-gradient-1" x1="0" x2="0" y1="1" y2="0"><stop stop-color="rgba(56, 116, 120, 1)" offset="0%"/><stop stop-color="rgba(98, 149, 132, 1)" offset="100%"/></linearGradient></defs><path style="transform:translate(0, 50px); opacity:0.9" fill="url(#sw-gradient-1)" d="M0,196L34.3,212.3C68.6,229,137,261,206,253.2C274.3,245,343,196,411,212.3C480,229,549,310,617,285.8C685.7,261,754,131,823,81.7C891.4,33,960,65,1029,130.7C1097.1,196,1166,294,1234,294C1302.9,294,1371,196,1440,163.3C1508.6,131,1577,163,1646,212.3C1714.3,261,1783,327,1851,359.3C1920,392,1989,392,2057,367.5C2125.7,343,2194,294,2263,236.8C2331.4,180,2400,114,2469,130.7C2537.1,147,2606,245,2674,285.8C2742.9,327,2811,310,2880,285.8C2948.6,261,3017,229,3086,187.8C3154.3,147,3223,98,3291,114.3C3360,131,3429,212,3497,228.7C3565.7,245,3634,196,3703,196C3771.4,196,3840,245,3909,253.2C3977.1,261,4046,229,4114,245C4182.9,261,4251,327,4320,302.2C4388.6,278,4457,163,4526,171.5C4594.3,180,4663,310,4731,351.2C4800,392,4869,343,4903,318.5L4937.1,294L4937.1,490L4902.9,490C4868.6,490,4800,490,4731,490C4662.9,490,4594,490,4526,490C4457.1,490,4389,490,4320,490C4251.4,490,4183,490,4114,490C4045.7,490,3977,490,3909,490C3840,490,3771,490,3703,490C3634.3,490,3566,490,3497,490C3428.6,490,3360,490,3291,490C3222.9,490,3154,490,3086,490C3017.1,490,2949,490,2880,490C2811.4,490,2743,490,2674,490C2605.7,490,2537,490,2469,490C2400,490,2331,490,2263,490C2194.3,490,2126,490,2057,490C1988.6,490,1920,490,1851,490C1782.9,490,1714,490,1646,490C1577.1,490,1509,490,1440,490C1371.4,490,1303,490,1234,490C1165.7,490,1097,490,1029,490C960,490,891,490,823,490C754.3,490,686,490,617,490C548.6,490,480,490,411,490C342.9,490,274,490,206,490C137.1,490,69,490,34,490L0,490Z"/><defs><linearGradient id="sw-gradient-2" x1="0" x2="0" y1="1" y2="0"><stop stop-color="rgba(98, 149, 132, 1)" offset="0%"/><stop stop-color="rgba(226, 241, 231, 1)" offset="100%"/></linearGradient></defs><path style="transform:translate(0, 100px); opacity:0.8" fill="url(#sw-gradient-2)" d="M0,441L34.3,392C68.6,343,137,245,206,236.8C274.3,229,343,310,411,351.2C480,392,549,392,617,400.2C685.7,408,754,425,823,432.8C891.4,441,960,441,1029,383.8C1097.1,327,1166,212,1234,171.5C1302.9,131,1371,163,1440,171.5C1508.6,180,1577,163,1646,147C1714.3,131,1783,114,1851,122.5C1920,131,1989,163,2057,147C2125.7,131,2194,65,2263,40.8C2331.4,16,2400,33,2469,106.2C2537.1,180,2606,310,2674,367.5C2742.9,425,2811,408,2880,359.3C2948.6,310,3017,229,3086,163.3C3154.3,98,3223,49,3291,49C3360,49,3429,98,3497,155.2C3565.7,212,3634,278,3703,294C3771.4,310,3840,278,3909,228.7C3977.1,180,4046,114,4114,73.5C4182.9,33,4251,16,4320,49C4388.6,82,4457,163,4526,171.5C4594.3,180,4663,114,4731,147C4800,180,4869,310,4903,375.7L4937.1,441L4937.1,490L4902.9,490C4868.6,490,4800,490,4731,490C4662.9,490,4594,490,4526,490C4457.1,490,4389,490,4320,490C4251.4,490,4183,490,4114,490C4045.7,490,3977,490,3909,490C3840,490,3771,490,3703,490C3634.3,490,3566,490,3497,490C3428.6,490,3360,490,3291,490C3222.9,490,3154,490,3086,490C3017.1,490,2949,490,2880,490C2811.4,490,2743,490,2674,490C2605.7,490,2537,490,2469,490C2400,490,2331,490,2263,490C2194.3,490,2126,490,2057,490C1988.6,490,1920,490,1851,490C1782.9,490,1714,490,1646,490C1577.1,490,1509,490,1440,490C1371.4,490,1303,490,1234,490C1165.7,490,1097,490,1029,490C960,490,891,490,823,490C754.3,490,686,490,617,490C548.6,490,480,490,411,490C342.9,490,274,490,206,490C137.1,490,69,490,34,490L0,490Z"/><defs><linearGradient id="sw-gradient-3" x1="0" x2="0" y1="1" y2="0"><stop stop-color="rgba(98, 149, 132, 1)" offset="0%"/><stop stop-color="rgba(56, 116, 120, 1)" offset="100%"/></linearGradient></defs><path style="transform:translate(0, 150px); opacity:0.7" fill="url(#sw-gradient-3)" d="M0,196L34.3,179.7C68.6,163,137,131,206,106.2C274.3,82,343,65,411,106.2C480,147,549,245,617,253.2C685.7,261,754,180,823,196C891.4,212,960,327,1029,343C1097.1,359,1166,278,1234,277.7C1302.9,278,1371,359,1440,375.7C1508.6,392,1577,343,1646,269.5C1714.3,196,1783,98,1851,122.5C1920,147,1989,294,2057,334.8C2125.7,376,2194,310,2263,261.3C2331.4,212,2400,180,2469,171.5C2537.1,163,2606,180,2674,179.7C2742.9,180,2811,163,2880,130.7C2948.6,98,3017,49,3086,57.2C3154.3,65,3223,131,3291,155.2C3360,180,3429,163,3497,155.2C3565.7,147,3634,147,3703,187.8C3771.4,229,3840,310,3909,302.2C3977.1,294,4046,196,4114,138.8C4182.9,82,4251,65,4320,89.8C4388.6,114,4457,180,4526,196C4594.3,212,4663,180,4731,171.5C4800,163,4869,180,4903,187.8L4937.1,196L4937.1,490L4902.9,490C4868.6,490,4800,490,4731,490C4662.9,490,4594,490,4526,490C4457.1,490,4389,490,4320,490C4251.4,490,4183,490,4114,490C4045.7,490,3977,490,3909,490C3840,490,3771,490,3703,490C3634.3,490,3566,490,3497,490C3428.6,490,3360,490,3291,490C3222.9,490,3154,490,3086,490C3017.1,490,2949,490,2880,490C2811.4,490,2743,490,2674,490C2605.7,490,2537,490,2469,490C2400,490,2331,490,2263,490C2194.3,490,2126,490,2057,490C1988.6,490,1920,490,1851,490C1782.9,490,1714,490,1646,490C1577.1,490,1509,490,1440,490C1371.4,490,1303,490,1234,490C1165.7,490,1097,490,1029,490C960,490,891,490,823,490C754.3,490,686,490,617,490C548.6,490,480,490,411,490C342.9,490,274,490,206,490C137.1,490,69,490,34,490L0,490Z"/></svg>