<?xml version="1.0" standalone="no"?>
<svg xmlns:xlink="http://www.w3.org/1999/xlink" id="wave" style="transform:rotate(180deg); transition: 0.3s" viewBox="0 0 1440 490" version="1.1" xmlns="http://www.w3.org/2000/svg"><defs><linearGradient id="sw-gradient-0" x1="0" x2="0" y1="1" y2="0"><stop stop-color="rgba(36, 54, 66, 1)" offset="0%"/><stop stop-color="rgba(56, 116, 120, 1)" offset="100%"/></linearGradient></defs><path style="transform:translate(0, 0px); opacity:1" fill="url(#sw-gradient-0)" d="M0,49L40,114.3C80,180,160,310,240,334.8C320,359,400,278,480,236.8C560,196,640,196,720,187.8C800,180,880,163,960,138.8C1040,114,1120,82,1200,114.3C1280,147,1360,245,1440,285.8C1520,327,1600,310,1680,310.3C1760,310,1840,327,1920,334.8C2000,343,2080,343,2160,343C2240,343,2320,343,2400,334.8C2480,327,2560,310,2640,326.7C2720,343,2800,392,2880,392C2960,392,3040,343,3120,294C3200,245,3280,196,3360,163.3C3440,131,3520,114,3600,130.7C3680,147,3760,196,3840,204.2C3920,212,4000,180,4080,196C4160,212,4240,278,4320,277.7C4400,278,4480,212,4560,204.2C4640,196,4720,245,4800,253.2C4880,261,4960,229,5040,236.8C5120,245,5200,294,5280,277.7C5360,261,5440,180,5520,130.7C5600,82,5680,65,5720,57.2L5760,49L5760,490L5720,490C5680,490,5600,490,5520,490C5440,490,5360,490,5280,490C5200,490,5120,490,5040,490C4960,490,4880,490,4800,490C4720,490,4640,490,4560,490C4480,490,4400,490,4320,490C4240,490,4160,490,4080,490C4000,490,3920,490,3840,490C3760,490,3680,490,3600,490C3520,490,3440,490,3360,490C3280,490,3200,490,3120,490C3040,490,2960,490,2880,490C2800,490,2720,490,2640,490C2560,490,2480,490,2400,490C2320,490,2240,490,2160,490C2080,490,2000,490,1920,490C1840,490,1760,490,1680,490C1600,490,1520,490,1440,490C1360,490,1280,490,1200,490C1120,490,1040,490,960,490C880,490,800,490,720,490C640,490,560,490,480,490C400,490,320,490,240,490C160,490,80,490,40,490L0,490Z"/><defs><linearGradient id="sw-gradient-1" x1="0" x2="0" y1="1" y2="0"><stop stop-color="rgba(56, 116, 120, 1)" offset="0%"/><stop stop-color="rgba(98, 149, 132, 1)" offset="100%"/></linearGradient></defs><path style="transform:translate(0, 50px); opacity:0.9" fill="url(#sw-gradient-1)" d="M0,98L40,98C80,98,160,98,240,122.5C320,147,400,196,480,253.2C560,310,640,376,720,392C800,408,880,376,960,326.7C1040,278,1120,212,1200,212.3C1280,212,1360,278,1440,253.2C1520,229,1600,114,1680,57.2C1760,0,1840,0,1920,0C2000,0,2080,0,2160,40.8C2240,82,2320,163,2400,228.7C2480,294,2560,343,2640,343C2720,343,2800,294,2880,277.7C2960,261,3040,278,3120,236.8C3200,196,3280,98,3360,65.3C3440,33,3520,65,3600,81.7C3680,98,3760,98,3840,122.5C3920,147,4000,196,4080,187.8C4160,180,4240,114,4320,130.7C4400,147,4480,245,4560,269.5C4640,294,4720,245,4800,245C4880,245,4960,294,5040,326.7C5120,359,5200,376,5280,359.3C5360,343,5440,294,5520,302.2C5600,310,5680,376,5720,408.3L5760,441L5760,490L5720,490C5680,490,5600,490,5520,490C5440,490,5360,490,5280,490C5200,490,5120,490,5040,490C4960,490,4880,490,4800,490C4720,490,4640,490,4560,490C4480,490,4400,490,4320,490C4240,490,4160,490,4080,490C4000,490,3920,490,3840,490C3760,490,3680,490,3600,490C3520,490,3440,490,3360,490C3280,490,3200,490,3120,490C3040,490,2960,490,2880,490C2800,490,2720,490,2640,490C2560,490,2480,490,2400,490C2320,490,2240,490,2160,490C2080,490,2000,490,1920,490C1840,490,1760,490,1680,490C1600,490,1520,490,1440,490C1360,490,1280,490,1200,490C1120,490,1040,490,960,490C880,490,800,490,720,490C640,490,560,490,480,490C400,490,320,490,240,490C160,490,80,490,40,490L0,490Z"/><defs><linearGradient id="sw-gradient-2" x1="0" x2="0" y1="1" y2="0"><stop stop-color="rgba(98, 149, 132, 1)" offset="0%"/><stop stop-color="rgba(226, 241, 231, 1)" offset="100%"/></linearGradient></defs><path style="transform:translate(0, 100px); opacity:0.8" fill="url(#sw-gradient-2)" d="M0,343L40,285.8C80,229,160,114,240,98C320,82,400,163,480,179.7C560,196,640,147,720,179.7C800,212,880,327,960,383.8C1040,441,1120,441,1200,441C1280,441,1360,441,1440,432.8C1520,425,1600,408,1680,351.2C1760,294,1840,196,1920,179.7C2000,163,2080,229,2160,228.7C2240,229,2320,163,2400,163.3C2480,163,2560,229,2640,212.3C2720,196,2800,98,2880,89.8C2960,82,3040,163,3120,212.3C3200,261,3280,278,3360,245C3440,212,3520,131,3600,114.3C3680,98,3760,147,3840,212.3C3920,278,4000,359,4080,359.3C4160,359,4240,278,4320,277.7C4400,278,4480,359,4560,392C4640,425,4720,408,4800,408.3C4880,408,4960,425,5040,408.3C5120,392,5200,343,5280,302.2C5360,261,5440,229,5520,220.5C5600,212,5680,229,5720,236.8L5760,245L5760,490L5720,490C5680,490,5600,490,5520,490C5440,490,5360,490,5280,490C5200,490,5120,490,5040,490C4960,490,4880,490,4800,490C4720,490,4640,490,4560,490C4480,490,4400,490,4320,490C4240,490,4160,490,4080,490C4000,490,3920,490,3840,490C3760,490,3680,490,3600,490C3520,490,3440,490,3360,490C3280,490,3200,490,3120,490C3040,490,2960,490,2880,490C2800,490,2720,490,2640,490C2560,490,2480,490,2400,490C2320,490,2240,490,2160,490C2080,490,2000,490,1920,490C1840,490,1760,490,1680,490C1600,490,1520,490,1440,490C1360,490,1280,490,1200,490C1120,490,1040,490,960,490C880,490,800,490,720,490C640,490,560,490,480,490C400,490,320,490,240,490C160,490,80,490,40,490L0,490Z"/><defs><linearGradient id="sw-gradient-3" x1="0" x2="0" y1="1" y2="0"><stop stop-color="rgba(226, 241, 231, 1)" offset="0%"/><stop stop-color="rgba(253, 139, 81, 1)" offset="100%"/></linearGradient></defs><path style="transform:translate(0, 150px); opacity:0.7" fill="url(#sw-gradient-3)" d="M0,441L40,392C80,343,160,245,240,179.7C320,114,400,82,480,114.3C560,147,640,245,720,294C800,343,880,343,960,318.5C1040,294,1120,245,1200,212.3C1280,180,1360,163,1440,147C1520,131,1600,114,1680,98C1760,82,1840,65,1920,65.3C2000,65,2080,82,2160,73.5C2240,65,2320,33,2400,16.3C2480,0,2560,0,2640,24.5C2720,49,2800,98,2880,171.5C2960,245,3040,343,3120,318.5C3200,294,3280,147,3360,138.8C3440,131,3520,261,3600,285.8C3680,310,3760,229,3840,171.5C3920,114,4000,82,4080,114.3C4160,147,4240,245,4320,294C4400,343,4480,343,4560,318.5C4640,294,4720,245,4800,187.8C4880,131,4960,65,5040,106.2C5120,147,5200,294,5280,302.2C5360,310,5440,180,5520,163.3C5600,147,5680,245,5720,294L5760,343L5760,490L5720,490C5680,490,5600,490,5520,490C5440,490,5360,490,5280,490C5200,490,5120,490,5040,490C4960,490,4880,490,4800,490C4720,490,4640,490,4560,490C4480,490,4400,490,4320,490C4240,490,4160,490,4080,490C4000,490,3920,490,3840,490C3760,490,3680,490,3600,490C3520,490,3440,490,3360,490C3280,490,3200,490,3120,490C3040,490,2960,490,2880,490C2800,490,2720,490,2640,490C2560,490,2480,490,2400,490C2320,490,2240,490,2160,490C2080,490,2000,490,1920,490C1840,490,1760,490,1680,490C1600,490,1520,490,1440,490C1360,490,1280,490,1200,490C1120,490,1040,490,960,490C880,490,800,490,720,490C640,490,560,490,480,490C400,490,320,490,240,490C160,490,80,490,40,490L0,490Z"/></svg>