<?xml version="1.0" standalone="no"?>
<svg xmlns:xlink="http://www.w3.org/1999/xlink" id="wave" style="transform:rotate(180deg); transition: 0.3s" viewBox="0 0 1440 490" version="1.1" xmlns="http://www.w3.org/2000/svg"><defs><linearGradient id="sw-gradient-0" x1="0" x2="0" y1="1" y2="0"><stop stop-color="rgba(36, 54, 66, 1)" offset="0%"/><stop stop-color="rgba(56, 116, 120, 1)" offset="100%"/></linearGradient></defs><path style="transform:translate(0, 0px); opacity:1" fill="url(#sw-gradient-0)" d="M0,294L34.3,285.8C68.6,278,137,261,206,220.5C274.3,180,343,114,411,138.8C480,163,549,278,617,277.7C685.7,278,754,163,823,106.2C891.4,49,960,49,1029,73.5C1097.1,98,1166,147,1234,212.3C1302.9,278,1371,359,1440,343C1508.6,327,1577,212,1646,204.2C1714.3,196,1783,294,1851,326.7C1920,359,1989,327,2057,326.7C2125.7,327,2194,359,2263,326.7C2331.4,294,2400,196,2469,155.2C2537.1,114,2606,131,2674,130.7C2742.9,131,2811,114,2880,147C2948.6,180,3017,261,3086,269.5C3154.3,278,3223,212,3291,171.5C3360,131,3429,114,3497,155.2C3565.7,196,3634,294,3703,302.2C3771.4,310,3840,229,3909,236.8C3977.1,245,4046,343,4114,359.3C4182.9,376,4251,310,4320,310.3C4388.6,310,4457,376,4526,343C4594.3,310,4663,180,4731,114.3C4800,49,4869,49,4903,49L4937.1,49L4937.1,490L4902.9,490C4868.6,490,4800,490,4731,490C4662.9,490,4594,490,4526,490C4457.1,490,4389,490,4320,490C4251.4,490,4183,490,4114,490C4045.7,490,3977,490,3909,490C3840,490,3771,490,3703,490C3634.3,490,3566,490,3497,490C3428.6,490,3360,490,3291,490C3222.9,490,3154,490,3086,490C3017.1,490,2949,490,2880,490C2811.4,490,2743,490,2674,490C2605.7,490,2537,490,2469,490C2400,490,2331,490,2263,490C2194.3,490,2126,490,2057,490C1988.6,490,1920,490,1851,490C1782.9,490,1714,490,1646,490C1577.1,490,1509,490,1440,490C1371.4,490,1303,490,1234,490C1165.7,490,1097,490,1029,490C960,490,891,490,823,490C754.3,490,686,490,617,490C548.6,490,480,490,411,490C342.9,490,274,490,206,490C137.1,490,69,490,34,490L0,490Z"/><defs><linearGradient id="sw-gradient-1" x1="0" x2="0" y1="1" y2="0"><stop stop-color="rgba(56, 116, 120, 1)" offset="0%"/><stop stop-color="rgba(98, 149, 132, 1)" offset="100%"/></linearGradient></defs><path style="transform:translate(0, 50px); opacity:0.9" fill="url(#sw-gradient-1)" d="M0,392L34.3,343C68.6,294,137,196,206,130.7C274.3,65,343,33,411,73.5C480,114,549,229,617,228.7C685.7,229,754,114,823,130.7C891.4,147,960,294,1029,294C1097.1,294,1166,147,1234,73.5C1302.9,0,1371,0,1440,0C1508.6,0,1577,0,1646,57.2C1714.3,114,1783,229,1851,253.2C1920,278,1989,212,2057,196C2125.7,180,2194,212,2263,212.3C2331.4,212,2400,180,2469,179.7C2537.1,180,2606,212,2674,187.8C2742.9,163,2811,82,2880,98C2948.6,114,3017,229,3086,228.7C3154.3,229,3223,114,3291,114.3C3360,114,3429,229,3497,269.5C3565.7,310,3634,278,3703,285.8C3771.4,294,3840,343,3909,310.3C3977.1,278,4046,163,4114,130.7C4182.9,98,4251,147,4320,204.2C4388.6,261,4457,327,4526,310.3C4594.3,294,4663,196,4731,163.3C4800,131,4869,163,4903,179.7L4937.1,196L4937.1,490L4902.9,490C4868.6,490,4800,490,4731,490C4662.9,490,4594,490,4526,490C4457.1,490,4389,490,4320,490C4251.4,490,4183,490,4114,490C4045.7,490,3977,490,3909,490C3840,490,3771,490,3703,490C3634.3,490,3566,490,3497,490C3428.6,490,3360,490,3291,490C3222.9,490,3154,490,3086,490C3017.1,490,2949,490,2880,490C2811.4,490,2743,490,2674,490C2605.7,490,2537,490,2469,490C2400,490,2331,490,2263,490C2194.3,490,2126,490,2057,490C1988.6,490,1920,490,1851,490C1782.9,490,1714,490,1646,490C1577.1,490,1509,490,1440,490C1371.4,490,1303,490,1234,490C1165.7,490,1097,490,1029,490C960,490,891,490,823,490C754.3,490,686,490,617,490C548.6,490,480,490,411,490C342.9,490,274,490,206,490C137.1,490,69,490,34,490L0,490Z"/><defs><linearGradient id="sw-gradient-2" x1="0" x2="0" y1="1" y2="0"><stop stop-color="rgba(98, 149, 132, 1)" offset="0%"/><stop stop-color="rgba(226, 241, 231, 1)" offset="100%"/></linearGradient></defs><path style="transform:translate(0, 100px); opacity:0.8" fill="url(#sw-gradient-2)" d="M0,98L34.3,122.5C68.6,147,137,196,206,236.8C274.3,278,343,310,411,269.5C480,229,549,114,617,98C685.7,82,754,163,823,179.7C891.4,196,960,147,1029,155.2C1097.1,163,1166,229,1234,245C1302.9,261,1371,229,1440,187.8C1508.6,147,1577,98,1646,65.3C1714.3,33,1783,16,1851,32.7C1920,49,1989,98,2057,122.5C2125.7,147,2194,147,2263,147C2331.4,147,2400,147,2469,187.8C2537.1,229,2606,310,2674,318.5C2742.9,327,2811,261,2880,269.5C2948.6,278,3017,359,3086,400.2C3154.3,441,3223,441,3291,400.2C3360,359,3429,278,3497,212.3C3565.7,147,3634,98,3703,130.7C3771.4,163,3840,278,3909,285.8C3977.1,294,4046,196,4114,163.3C4182.9,131,4251,163,4320,204.2C4388.6,245,4457,294,4526,285.8C4594.3,278,4663,212,4731,228.7C4800,245,4869,343,4903,392L4937.1,441L4937.1,490L4902.9,490C4868.6,490,4800,490,4731,490C4662.9,490,4594,490,4526,490C4457.1,490,4389,490,4320,490C4251.4,490,4183,490,4114,490C4045.7,490,3977,490,3909,490C3840,490,3771,490,3703,490C3634.3,490,3566,490,3497,490C3428.6,490,3360,490,3291,490C3222.9,490,3154,490,3086,490C3017.1,490,2949,490,2880,490C2811.4,490,2743,490,2674,490C2605.7,490,2537,490,2469,490C2400,490,2331,490,2263,490C2194.3,490,2126,490,2057,490C1988.6,490,1920,490,1851,490C1782.9,490,1714,490,1646,490C1577.1,490,1509,490,1440,490C1371.4,490,1303,490,1234,490C1165.7,490,1097,490,1029,490C960,490,891,490,823,490C754.3,490,686,490,617,490C548.6,490,480,490,411,490C342.9,490,274,490,206,490C137.1,490,69,490,34,490L0,490Z"/><defs><linearGradient id="sw-gradient-3" x1="0" x2="0" y1="1" y2="0"><stop stop-color="rgba(98, 149, 132, 1)" offset="0%"/><stop stop-color="rgba(56, 116, 120, 1)" offset="100%"/></linearGradient></defs><path style="transform:translate(0, 150px); opacity:0.7" fill="url(#sw-gradient-3)" d="M0,49L34.3,40.8C68.6,33,137,16,206,73.5C274.3,131,343,261,411,269.5C480,278,549,163,617,147C685.7,131,754,212,823,236.8C891.4,261,960,229,1029,179.7C1097.1,131,1166,65,1234,81.7C1302.9,98,1371,196,1440,236.8C1508.6,278,1577,261,1646,261.3C1714.3,261,1783,278,1851,253.2C1920,229,1989,163,2057,122.5C2125.7,82,2194,65,2263,73.5C2331.4,82,2400,114,2469,171.5C2537.1,229,2606,310,2674,351.2C2742.9,392,2811,392,2880,392C2948.6,392,3017,392,3086,392C3154.3,392,3223,392,3291,326.7C3360,261,3429,131,3497,89.8C3565.7,49,3634,98,3703,147C3771.4,196,3840,245,3909,269.5C3977.1,294,4046,294,4114,261.3C4182.9,229,4251,163,4320,163.3C4388.6,163,4457,229,4526,212.3C4594.3,196,4663,98,4731,122.5C4800,147,4869,294,4903,367.5L4937.1,441L4937.1,490L4902.9,490C4868.6,490,4800,490,4731,490C4662.9,490,4594,490,4526,490C4457.1,490,4389,490,4320,490C4251.4,490,4183,490,4114,490C4045.7,490,3977,490,3909,490C3840,490,3771,490,3703,490C3634.3,490,3566,490,3497,490C3428.6,490,3360,490,3291,490C3222.9,490,3154,490,3086,490C3017.1,490,2949,490,2880,490C2811.4,490,2743,490,2674,490C2605.7,490,2537,490,2469,490C2400,490,2331,490,2263,490C2194.3,490,2126,490,2057,490C1988.6,490,1920,490,1851,490C1782.9,490,1714,490,1646,490C1577.1,490,1509,490,1440,490C1371.4,490,1303,490,1234,490C1165.7,490,1097,490,1029,490C960,490,891,490,823,490C754.3,490,686,490,617,490C548.6,490,480,490,411,490C342.9,490,274,490,206,490C137.1,490,69,490,34,490L0,490Z"/></svg>