<?xml version="1.0" standalone="no"?>
<svg xmlns:xlink="http://www.w3.org/1999/xlink" id="wave" style="transform:rotate(180deg); transition: 0.3s" viewBox="0 0 1440 490" version="1.1" xmlns="http://www.w3.org/2000/svg"><defs><linearGradient id="sw-gradient-0" x1="0" x2="0" y1="1" y2="0"><stop stop-color="rgba(36, 54, 66, 1)" offset="0%"/><stop stop-color="rgba(56, 116, 120, 1)" offset="100%"/></linearGradient></defs><path style="transform:translate(0, 0px); opacity:1" fill="url(#sw-gradient-0)" d="M0,49L34.3,98C68.6,147,137,245,206,236.8C274.3,229,343,114,411,98C480,82,549,163,617,171.5C685.7,180,754,114,823,73.5C891.4,33,960,16,1029,24.5C1097.1,33,1166,65,1234,106.2C1302.9,147,1371,196,1440,253.2C1508.6,310,1577,376,1646,383.8C1714.3,392,1783,343,1851,318.5C1920,294,1989,294,2057,285.8C2125.7,278,2194,261,2263,261.3C2331.4,261,2400,278,2469,285.8C2537.1,294,2606,294,2674,285.8C2742.9,278,2811,261,2880,253.2C2948.6,245,3017,245,3086,277.7C3154.3,310,3223,376,3291,392C3360,408,3429,376,3497,367.5C3565.7,359,3634,376,3703,334.8C3771.4,294,3840,196,3909,196C3977.1,196,4046,294,4114,294C4182.9,294,4251,196,4320,187.8C4388.6,180,4457,261,4526,253.2C4594.3,245,4663,147,4731,138.8C4800,131,4869,212,4903,253.2L4937.1,294L4937.1,490L4902.9,490C4868.6,490,4800,490,4731,490C4662.9,490,4594,490,4526,490C4457.1,490,4389,490,4320,490C4251.4,490,4183,490,4114,490C4045.7,490,3977,490,3909,490C3840,490,3771,490,3703,490C3634.3,490,3566,490,3497,490C3428.6,490,3360,490,3291,490C3222.9,490,3154,490,3086,490C3017.1,490,2949,490,2880,490C2811.4,490,2743,490,2674,490C2605.7,490,2537,490,2469,490C2400,490,2331,490,2263,490C2194.3,490,2126,490,2057,490C1988.6,490,1920,490,1851,490C1782.9,490,1714,490,1646,490C1577.1,490,1509,490,1440,490C1371.4,490,1303,490,1234,490C1165.7,490,1097,490,1029,490C960,490,891,490,823,490C754.3,490,686,490,617,490C548.6,490,480,490,411,490C342.9,490,274,490,206,490C137.1,490,69,490,34,490L0,490Z"/><defs><linearGradient id="sw-gradient-1" x1="0" x2="0" y1="1" y2="0"><stop stop-color="rgba(56, 116, 120, 1)" offset="0%"/><stop stop-color="rgba(98, 149, 132, 1)" offset="100%"/></linearGradient></defs><path style="transform:translate(0, 50px); opacity:0.9" fill="url(#sw-gradient-1)" d="M0,441L34.3,383.8C68.6,327,137,212,206,147C274.3,82,343,65,411,114.3C480,163,549,278,617,269.5C685.7,261,754,131,823,114.3C891.4,98,960,196,1029,261.3C1097.1,327,1166,359,1234,318.5C1302.9,278,1371,163,1440,138.8C1508.6,114,1577,180,1646,179.7C1714.3,180,1783,114,1851,130.7C1920,147,1989,245,2057,269.5C2125.7,294,2194,245,2263,261.3C2331.4,278,2400,359,2469,400.2C2537.1,441,2606,441,2674,367.5C2742.9,294,2811,147,2880,138.8C2948.6,131,3017,261,3086,261.3C3154.3,261,3223,131,3291,106.2C3360,82,3429,163,3497,196C3565.7,229,3634,212,3703,228.7C3771.4,245,3840,294,3909,318.5C3977.1,343,4046,343,4114,359.3C4182.9,376,4251,408,4320,400.2C4388.6,392,4457,343,4526,302.2C4594.3,261,4663,229,4731,236.8C4800,245,4869,294,4903,318.5L4937.1,343L4937.1,490L4902.9,490C4868.6,490,4800,490,4731,490C4662.9,490,4594,490,4526,490C4457.1,490,4389,490,4320,490C4251.4,490,4183,490,4114,490C4045.7,490,3977,490,3909,490C3840,490,3771,490,3703,490C3634.3,490,3566,490,3497,490C3428.6,490,3360,490,3291,490C3222.9,490,3154,490,3086,490C3017.1,490,2949,490,2880,490C2811.4,490,2743,490,2674,490C2605.7,490,2537,490,2469,490C2400,490,2331,490,2263,490C2194.3,490,2126,490,2057,490C1988.6,490,1920,490,1851,490C1782.9,490,1714,490,1646,490C1577.1,490,1509,490,1440,490C1371.4,490,1303,490,1234,490C1165.7,490,1097,490,1029,490C960,490,891,490,823,490C754.3,490,686,490,617,490C548.6,490,480,490,411,490C342.9,490,274,490,206,490C137.1,490,69,490,34,490L0,490Z"/><defs><linearGradient id="sw-gradient-2" x1="0" x2="0" y1="1" y2="0"><stop stop-color="rgba(98, 149, 132, 1)" offset="0%"/><stop stop-color="rgba(226, 241, 231, 1)" offset="100%"/></linearGradient></defs><path style="transform:translate(0, 100px); opacity:0.8" fill="url(#sw-gradient-2)" d="M0,245L34.3,245C68.6,245,137,245,206,228.7C274.3,212,343,180,411,196C480,212,549,278,617,310.3C685.7,343,754,343,823,334.8C891.4,327,960,310,1029,294C1097.1,278,1166,261,1234,269.5C1302.9,278,1371,310,1440,294C1508.6,278,1577,212,1646,163.3C1714.3,114,1783,82,1851,98C1920,114,1989,180,2057,171.5C2125.7,163,2194,82,2263,81.7C2331.4,82,2400,163,2469,228.7C2537.1,294,2606,343,2674,343C2742.9,343,2811,294,2880,285.8C2948.6,278,3017,310,3086,294C3154.3,278,3223,212,3291,204.2C3360,196,3429,245,3497,253.2C3565.7,261,3634,229,3703,204.2C3771.4,180,3840,163,3909,187.8C3977.1,212,4046,278,4114,310.3C4182.9,343,4251,343,4320,294C4388.6,245,4457,147,4526,155.2C4594.3,163,4663,278,4731,294C4800,310,4869,229,4903,187.8L4937.1,147L4937.1,490L4902.9,490C4868.6,490,4800,490,4731,490C4662.9,490,4594,490,4526,490C4457.1,490,4389,490,4320,490C4251.4,490,4183,490,4114,490C4045.7,490,3977,490,3909,490C3840,490,3771,490,3703,490C3634.3,490,3566,490,3497,490C3428.6,490,3360,490,3291,490C3222.9,490,3154,490,3086,490C3017.1,490,2949,490,2880,490C2811.4,490,2743,490,2674,490C2605.7,490,2537,490,2469,490C2400,490,2331,490,2263,490C2194.3,490,2126,490,2057,490C1988.6,490,1920,490,1851,490C1782.9,490,1714,490,1646,490C1577.1,490,1509,490,1440,490C1371.4,490,1303,490,1234,490C1165.7,490,1097,490,1029,490C960,490,891,490,823,490C754.3,490,686,490,617,490C548.6,490,480,490,411,490C342.9,490,274,490,206,490C137.1,490,69,490,34,490L0,490Z"/><defs><linearGradient id="sw-gradient-3" x1="0" x2="0" y1="1" y2="0"><stop stop-color="rgba(98, 149, 132, 1)" offset="0%"/><stop stop-color="rgba(56, 116, 120, 1)" offset="100%"/></linearGradient></defs><path style="transform:translate(0, 150px); opacity:0.7" fill="url(#sw-gradient-3)" d="M0,0L34.3,16.3C68.6,33,137,65,206,130.7C274.3,196,343,294,411,310.3C480,327,549,261,617,196C685.7,131,754,65,823,89.8C891.4,114,960,229,1029,245C1097.1,261,1166,180,1234,122.5C1302.9,65,1371,33,1440,57.2C1508.6,82,1577,163,1646,220.5C1714.3,278,1783,310,1851,343C1920,376,1989,408,2057,367.5C2125.7,327,2194,212,2263,212.3C2331.4,212,2400,327,2469,343C2537.1,359,2606,278,2674,212.3C2742.9,147,2811,98,2880,89.8C2948.6,82,3017,114,3086,130.7C3154.3,147,3223,147,3291,147C3360,147,3429,147,3497,196C3565.7,245,3634,343,3703,359.3C3771.4,376,3840,310,3909,310.3C3977.1,310,4046,376,4114,334.8C4182.9,294,4251,147,4320,81.7C4388.6,16,4457,33,4526,73.5C4594.3,114,4663,180,4731,171.5C4800,163,4869,82,4903,40.8L4937.1,0L4937.1,490L4902.9,490C4868.6,490,4800,490,4731,490C4662.9,490,4594,490,4526,490C4457.1,490,4389,490,4320,490C4251.4,490,4183,490,4114,490C4045.7,490,3977,490,3909,490C3840,490,3771,490,3703,490C3634.3,490,3566,490,3497,490C3428.6,490,3360,490,3291,490C3222.9,490,3154,490,3086,490C3017.1,490,2949,490,2880,490C2811.4,490,2743,490,2674,490C2605.7,490,2537,490,2469,490C2400,490,2331,490,2263,490C2194.3,490,2126,490,2057,490C1988.6,490,1920,490,1851,490C1782.9,490,1714,490,1646,490C1577.1,490,1509,490,1440,490C1371.4,490,1303,490,1234,490C1165.7,490,1097,490,1029,490C960,490,891,490,823,490C754.3,490,686,490,617,490C548.6,490,480,490,411,490C342.9,490,274,490,206,490C137.1,490,69,490,34,490L0,490Z"/></svg>