<?xml version="1.0" standalone="no"?>
<svg xmlns:xlink="http://www.w3.org/1999/xlink" id="wave" style="transform:rotate(180deg); transition: 0.3s" viewBox="0 0 1440 490" version="1.1" xmlns="http://www.w3.org/2000/svg"><defs><linearGradient id="sw-gradient-0" x1="0" x2="0" y1="1" y2="0"><stop stop-color="rgba(36, 54, 66, 1)" offset="0%"/><stop stop-color="rgba(56, 116, 120, 1)" offset="100%"/></linearGradient></defs><path style="transform:translate(0, 0px); opacity:1" fill="url(#sw-gradient-0)" d="M0,196L34.3,187.8C68.6,180,137,163,206,163.3C274.3,163,343,180,411,228.7C480,278,549,359,617,326.7C685.7,294,754,147,823,130.7C891.4,114,960,229,1029,261.3C1097.1,294,1166,245,1234,253.2C1302.9,261,1371,327,1440,294C1508.6,261,1577,131,1646,81.7C1714.3,33,1783,65,1851,65.3C1920,65,1989,33,2057,89.8C2125.7,147,2194,294,2263,302.2C2331.4,310,2400,180,2469,155.2C2537.1,131,2606,212,2674,228.7C2742.9,245,2811,196,2880,147C2948.6,98,3017,49,3086,40.8C3154.3,33,3223,65,3291,98C3360,131,3429,163,3497,171.5C3565.7,180,3634,163,3703,196C3771.4,229,3840,310,3909,310.3C3977.1,310,4046,229,4114,220.5C4182.9,212,4251,278,4320,310.3C4388.6,343,4457,343,4526,310.3C4594.3,278,4663,212,4731,196C4800,180,4869,212,4903,228.7L4937.1,245L4937.1,490L4902.9,490C4868.6,490,4800,490,4731,490C4662.9,490,4594,490,4526,490C4457.1,490,4389,490,4320,490C4251.4,490,4183,490,4114,490C4045.7,490,3977,490,3909,490C3840,490,3771,490,3703,490C3634.3,490,3566,490,3497,490C3428.6,490,3360,490,3291,490C3222.9,490,3154,490,3086,490C3017.1,490,2949,490,2880,490C2811.4,490,2743,490,2674,490C2605.7,490,2537,490,2469,490C2400,490,2331,490,2263,490C2194.3,490,2126,490,2057,490C1988.6,490,1920,490,1851,490C1782.9,490,1714,490,1646,490C1577.1,490,1509,490,1440,490C1371.4,490,1303,490,1234,490C1165.7,490,1097,490,1029,490C960,490,891,490,823,490C754.3,490,686,490,617,490C548.6,490,480,490,411,490C342.9,490,274,490,206,490C137.1,490,69,490,34,490L0,490Z"/><defs><linearGradient id="sw-gradient-1" x1="0" x2="0" y1="1" y2="0"><stop stop-color="rgba(56, 116, 120, 1)" offset="0%"/><stop stop-color="rgba(98, 149, 132, 1)" offset="100%"/></linearGradient></defs><path style="transform:translate(0, 50px); opacity:0.9" fill="url(#sw-gradient-1)" d="M0,343L34.3,310.3C68.6,278,137,212,206,155.2C274.3,98,343,49,411,98C480,147,549,294,617,334.8C685.7,376,754,310,823,277.7C891.4,245,960,245,1029,228.7C1097.1,212,1166,180,1234,138.8C1302.9,98,1371,49,1440,98C1508.6,147,1577,294,1646,302.2C1714.3,310,1783,180,1851,122.5C1920,65,1989,82,2057,122.5C2125.7,163,2194,229,2263,212.3C2331.4,196,2400,98,2469,122.5C2537.1,147,2606,294,2674,351.2C2742.9,408,2811,376,2880,367.5C2948.6,359,3017,376,3086,326.7C3154.3,278,3223,163,3291,147C3360,131,3429,212,3497,236.8C3565.7,261,3634,229,3703,187.8C3771.4,147,3840,98,3909,106.2C3977.1,114,4046,180,4114,220.5C4182.9,261,4251,278,4320,277.7C4388.6,278,4457,261,4526,253.2C4594.3,245,4663,245,4731,245C4800,245,4869,245,4903,245L4937.1,245L4937.1,490L4902.9,490C4868.6,490,4800,490,4731,490C4662.9,490,4594,490,4526,490C4457.1,490,4389,490,4320,490C4251.4,490,4183,490,4114,490C4045.7,490,3977,490,3909,490C3840,490,3771,490,3703,490C3634.3,490,3566,490,3497,490C3428.6,490,3360,490,3291,490C3222.9,490,3154,490,3086,490C3017.1,490,2949,490,2880,490C2811.4,490,2743,490,2674,490C2605.7,490,2537,490,2469,490C2400,490,2331,490,2263,490C2194.3,490,2126,490,2057,490C1988.6,490,1920,490,1851,490C1782.9,490,1714,490,1646,490C1577.1,490,1509,490,1440,490C1371.4,490,1303,490,1234,490C1165.7,490,1097,490,1029,490C960,490,891,490,823,490C754.3,490,686,490,617,490C548.6,490,480,490,411,490C342.9,490,274,490,206,490C137.1,490,69,490,34,490L0,490Z"/><defs><linearGradient id="sw-gradient-2" x1="0" x2="0" y1="1" y2="0"><stop stop-color="rgba(98, 149, 132, 1)" offset="0%"/><stop stop-color="rgba(226, 241, 231, 1)" offset="100%"/></linearGradient></defs><path style="transform:translate(0, 100px); opacity:0.8" fill="url(#sw-gradient-2)" d="M0,49L34.3,106.2C68.6,163,137,278,206,277.7C274.3,278,343,163,411,155.2C480,147,549,245,617,302.2C685.7,359,754,376,823,343C891.4,310,960,229,1029,228.7C1097.1,229,1166,310,1234,359.3C1302.9,408,1371,425,1440,367.5C1508.6,310,1577,180,1646,163.3C1714.3,147,1783,245,1851,302.2C1920,359,1989,376,2057,375.7C2125.7,376,2194,359,2263,334.8C2331.4,310,2400,278,2469,245C2537.1,212,2606,180,2674,212.3C2742.9,245,2811,343,2880,359.3C2948.6,376,3017,310,3086,310.3C3154.3,310,3223,376,3291,334.8C3360,294,3429,147,3497,106.2C3565.7,65,3634,131,3703,204.2C3771.4,278,3840,359,3909,326.7C3977.1,294,4046,147,4114,81.7C4182.9,16,4251,33,4320,89.8C4388.6,147,4457,245,4526,302.2C4594.3,359,4663,376,4731,326.7C4800,278,4869,163,4903,106.2L4937.1,49L4937.1,490L4902.9,490C4868.6,490,4800,490,4731,490C4662.9,490,4594,490,4526,490C4457.1,490,4389,490,4320,490C4251.4,490,4183,490,4114,490C4045.7,490,3977,490,3909,490C3840,490,3771,490,3703,490C3634.3,490,3566,490,3497,490C3428.6,490,3360,490,3291,490C3222.9,490,3154,490,3086,490C3017.1,490,2949,490,2880,490C2811.4,490,2743,490,2674,490C2605.7,490,2537,490,2469,490C2400,490,2331,490,2263,490C2194.3,490,2126,490,2057,490C1988.6,490,1920,490,1851,490C1782.9,490,1714,490,1646,490C1577.1,490,1509,490,1440,490C1371.4,490,1303,490,1234,490C1165.7,490,1097,490,1029,490C960,490,891,490,823,490C754.3,490,686,490,617,490C548.6,490,480,490,411,490C342.9,490,274,490,206,490C137.1,490,69,490,34,490L0,490Z"/><defs><linearGradient id="sw-gradient-3" x1="0" x2="0" y1="1" y2="0"><stop stop-color="rgba(98, 149, 132, 1)" offset="0%"/><stop stop-color="rgba(56, 116, 120, 1)" offset="100%"/></linearGradient></defs><path style="transform:translate(0, 150px); opacity:0.7" fill="url(#sw-gradient-3)" d="M0,441L34.3,408.3C68.6,376,137,310,206,253.2C274.3,196,343,147,411,114.3C480,82,549,65,617,114.3C685.7,163,754,278,823,334.8C891.4,392,960,392,1029,383.8C1097.1,376,1166,359,1234,343C1302.9,327,1371,310,1440,302.2C1508.6,294,1577,294,1646,310.3C1714.3,327,1783,359,1851,326.7C1920,294,1989,196,2057,179.7C2125.7,163,2194,229,2263,228.7C2331.4,229,2400,163,2469,138.8C2537.1,114,2606,131,2674,179.7C2742.9,229,2811,310,2880,334.8C2948.6,359,3017,327,3086,269.5C3154.3,212,3223,131,3291,130.7C3360,131,3429,212,3497,245C3565.7,278,3634,261,3703,220.5C3771.4,180,3840,114,3909,130.7C3977.1,147,4046,245,4114,277.7C4182.9,310,4251,278,4320,245C4388.6,212,4457,180,4526,163.3C4594.3,147,4663,147,4731,122.5C4800,98,4869,49,4903,24.5L4937.1,0L4937.1,490L4902.9,490C4868.6,490,4800,490,4731,490C4662.9,490,4594,490,4526,490C4457.1,490,4389,490,4320,490C4251.4,490,4183,490,4114,490C4045.7,490,3977,490,3909,490C3840,490,3771,490,3703,490C3634.3,490,3566,490,3497,490C3428.6,490,3360,490,3291,490C3222.9,490,3154,490,3086,490C3017.1,490,2949,490,2880,490C2811.4,490,2743,490,2674,490C2605.7,490,2537,490,2469,490C2400,490,2331,490,2263,490C2194.3,490,2126,490,2057,490C1988.6,490,1920,490,1851,490C1782.9,490,1714,490,1646,490C1577.1,490,1509,490,1440,490C1371.4,490,1303,490,1234,490C1165.7,490,1097,490,1029,490C960,490,891,490,823,490C754.3,490,686,490,617,490C548.6,490,480,490,411,490C342.9,490,274,490,206,490C137.1,490,69,490,34,490L0,490Z"/></svg>