<?xml version="1.0" standalone="no"?>
<svg xmlns:xlink="http://www.w3.org/1999/xlink" id="wave" style="transform:rotate(180deg); transition: 0.3s" viewBox="0 0 1440 490" version="1.1" xmlns="http://www.w3.org/2000/svg"><defs><linearGradient id="sw-gradient-0" x1="0" x2="0" y1="1" y2="0"><stop stop-color="rgba(124, 68, 79, 1)" offset="0%"/><stop stop-color="rgba(159, 82, 85, 1)" offset="100%"/></linearGradient></defs><path style="transform:translate(0, 0px); opacity:1" fill="url(#sw-gradient-0)" d="M0,147L34.3,147C68.6,147,137,147,206,163.3C274.3,180,343,212,411,220.5C480,229,549,212,617,196C685.7,180,754,163,823,138.8C891.4,114,960,82,1029,98C1097.1,114,1166,180,1234,220.5C1302.9,261,1371,278,1440,269.5C1508.6,261,1577,229,1646,253.2C1714.3,278,1783,359,1851,326.7C1920,294,1989,147,2057,122.5C2125.7,98,2194,196,2263,245C2331.4,294,2400,294,2469,294C2537.1,294,2606,294,2674,245C2742.9,196,2811,98,2880,114.3C2948.6,131,3017,261,3086,318.5C3154.3,376,3223,359,3291,334.8C3360,310,3429,278,3497,261.3C3565.7,245,3634,245,3703,245C3771.4,245,3840,245,3909,269.5C3977.1,294,4046,343,4114,334.8C4182.9,327,4251,261,4320,196C4388.6,131,4457,65,4526,65.3C4594.3,65,4663,131,4731,130.7C4800,131,4869,65,4903,32.7L4937.1,0L4937.1,490L4902.9,490C4868.6,490,4800,490,4731,490C4662.9,490,4594,490,4526,490C4457.1,490,4389,490,4320,490C4251.4,490,4183,490,4114,490C4045.7,490,3977,490,3909,490C3840,490,3771,490,3703,490C3634.3,490,3566,490,3497,490C3428.6,490,3360,490,3291,490C3222.9,490,3154,490,3086,490C3017.1,490,2949,490,2880,490C2811.4,490,2743,490,2674,490C2605.7,490,2537,490,2469,490C2400,490,2331,490,2263,490C2194.3,490,2126,490,2057,490C1988.6,490,1920,490,1851,490C1782.9,490,1714,490,1646,490C1577.1,490,1509,490,1440,490C1371.4,490,1303,490,1234,490C1165.7,490,1097,490,1029,490C960,490,891,490,823,490C754.3,490,686,490,617,490C548.6,490,480,490,411,490C342.9,490,274,490,206,490C137.1,490,69,490,34,490L0,490Z"/><defs><linearGradient id="sw-gradient-1" x1="0" x2="0" y1="1" y2="0"><stop stop-color="rgba(159, 82, 85, 1)" offset="0%"/><stop stop-color="rgba(225, 106, 84, 1)" offset="100%"/></linearGradient></defs><path style="transform:translate(0, 50px); opacity:0.9" fill="url(#sw-gradient-1)" d="M0,343L34.3,334.8C68.6,327,137,310,206,310.3C274.3,310,343,327,411,294C480,261,549,180,617,122.5C685.7,65,754,33,823,81.7C891.4,131,960,261,1029,326.7C1097.1,392,1166,392,1234,359.3C1302.9,327,1371,261,1440,245C1508.6,229,1577,261,1646,285.8C1714.3,310,1783,327,1851,277.7C1920,229,1989,114,2057,98C2125.7,82,2194,163,2263,187.8C2331.4,212,2400,180,2469,147C2537.1,114,2606,82,2674,65.3C2742.9,49,2811,49,2880,98C2948.6,147,3017,245,3086,277.7C3154.3,310,3223,278,3291,269.5C3360,261,3429,278,3497,269.5C3565.7,261,3634,229,3703,204.2C3771.4,180,3840,163,3909,179.7C3977.1,196,4046,245,4114,245C4182.9,245,4251,196,4320,163.3C4388.6,131,4457,114,4526,89.8C4594.3,65,4663,33,4731,49C4800,65,4869,131,4903,163.3L4937.1,196L4937.1,490L4902.9,490C4868.6,490,4800,490,4731,490C4662.9,490,4594,490,4526,490C4457.1,490,4389,490,4320,490C4251.4,490,4183,490,4114,490C4045.7,490,3977,490,3909,490C3840,490,3771,490,3703,490C3634.3,490,3566,490,3497,490C3428.6,490,3360,490,3291,490C3222.9,490,3154,490,3086,490C3017.1,490,2949,490,2880,490C2811.4,490,2743,490,2674,490C2605.7,490,2537,490,2469,490C2400,490,2331,490,2263,490C2194.3,490,2126,490,2057,490C1988.6,490,1920,490,1851,490C1782.9,490,1714,490,1646,490C1577.1,490,1509,490,1440,490C1371.4,490,1303,490,1234,490C1165.7,490,1097,490,1029,490C960,490,891,490,823,490C754.3,490,686,490,617,490C548.6,490,480,490,411,490C342.9,490,274,490,206,490C137.1,490,69,490,34,490L0,490Z"/><defs><linearGradient id="sw-gradient-2" x1="0" x2="0" y1="1" y2="0"><stop stop-color="rgba(225, 106, 84, 1)" offset="0%"/><stop stop-color="rgba(243, 158, 96, 1)" offset="100%"/></linearGradient></defs><path style="transform:translate(0, 100px); opacity:0.8" fill="url(#sw-gradient-2)" d="M0,245L34.3,245C68.6,245,137,245,206,236.8C274.3,229,343,212,411,187.8C480,163,549,131,617,155.2C685.7,180,754,261,823,285.8C891.4,310,960,278,1029,269.5C1097.1,261,1166,278,1234,236.8C1302.9,196,1371,98,1440,114.3C1508.6,131,1577,261,1646,302.2C1714.3,343,1783,294,1851,277.7C1920,261,1989,278,2057,294C2125.7,310,2194,327,2263,285.8C2331.4,245,2400,147,2469,130.7C2537.1,114,2606,180,2674,220.5C2742.9,261,2811,278,2880,285.8C2948.6,294,3017,294,3086,261.3C3154.3,229,3223,163,3291,122.5C3360,82,3429,65,3497,98C3565.7,131,3634,212,3703,261.3C3771.4,310,3840,327,3909,294C3977.1,261,4046,180,4114,187.8C4182.9,196,4251,294,4320,351.2C4388.6,408,4457,425,4526,367.5C4594.3,310,4663,180,4731,138.8C4800,98,4869,147,4903,171.5L4937.1,196L4937.1,490L4902.9,490C4868.6,490,4800,490,4731,490C4662.9,490,4594,490,4526,490C4457.1,490,4389,490,4320,490C4251.4,490,4183,490,4114,490C4045.7,490,3977,490,3909,490C3840,490,3771,490,3703,490C3634.3,490,3566,490,3497,490C3428.6,490,3360,490,3291,490C3222.9,490,3154,490,3086,490C3017.1,490,2949,490,2880,490C2811.4,490,2743,490,2674,490C2605.7,490,2537,490,2469,490C2400,490,2331,490,2263,490C2194.3,490,2126,490,2057,490C1988.6,490,1920,490,1851,490C1782.9,490,1714,490,1646,490C1577.1,490,1509,490,1440,490C1371.4,490,1303,490,1234,490C1165.7,490,1097,490,1029,490C960,490,891,490,823,490C754.3,490,686,490,617,490C548.6,490,480,490,411,490C342.9,490,274,490,206,490C137.1,490,69,490,34,490L0,490Z"/><defs><linearGradient id="sw-gradient-3" x1="0" x2="0" y1="1" y2="0"><stop stop-color="rgba(243, 158, 96, 1)" offset="0%"/><stop stop-color="rgba(255, 179, 11, 1)" offset="100%"/></linearGradient></defs><path style="transform:translate(0, 150px); opacity:0.7" fill="url(#sw-gradient-3)" d="M0,343L34.3,302.2C68.6,261,137,180,206,196C274.3,212,343,327,411,334.8C480,343,549,245,617,187.8C685.7,131,754,114,823,114.3C891.4,114,960,131,1029,138.8C1097.1,147,1166,147,1234,130.7C1302.9,114,1371,82,1440,89.8C1508.6,98,1577,147,1646,187.8C1714.3,229,1783,261,1851,302.2C1920,343,1989,392,2057,416.5C2125.7,441,2194,441,2263,367.5C2331.4,294,2400,147,2469,138.8C2537.1,131,2606,261,2674,285.8C2742.9,310,2811,229,2880,204.2C2948.6,180,3017,212,3086,253.2C3154.3,294,3223,343,3291,326.7C3360,310,3429,229,3497,236.8C3565.7,245,3634,343,3703,359.3C3771.4,376,3840,310,3909,277.7C3977.1,245,4046,245,4114,277.7C4182.9,310,4251,376,4320,392C4388.6,408,4457,376,4526,375.7C4594.3,376,4663,408,4731,375.7C4800,343,4869,245,4903,196L4937.1,147L4937.1,490L4902.9,490C4868.6,490,4800,490,4731,490C4662.9,490,4594,490,4526,490C4457.1,490,4389,490,4320,490C4251.4,490,4183,490,4114,490C4045.7,490,3977,490,3909,490C3840,490,3771,490,3703,490C3634.3,490,3566,490,3497,490C3428.6,490,3360,490,3291,490C3222.9,490,3154,490,3086,490C3017.1,490,2949,490,2880,490C2811.4,490,2743,490,2674,490C2605.7,490,2537,490,2469,490C2400,490,2331,490,2263,490C2194.3,490,2126,490,2057,490C1988.6,490,1920,490,1851,490C1782.9,490,1714,490,1646,490C1577.1,490,1509,490,1440,490C1371.4,490,1303,490,1234,490C1165.7,490,1097,490,1029,490C960,490,891,490,823,490C754.3,490,686,490,617,490C548.6,490,480,490,411,490C342.9,490,274,490,206,490C137.1,490,69,490,34,490L0,490Z"/></svg>