<?xml version="1.0" standalone="no"?>
<svg xmlns:xlink="http://www.w3.org/1999/xlink" id="wave" style="transform:rotate(180deg); transition: 0.3s" viewBox="0 0 1440 490" version="1.1" xmlns="http://www.w3.org/2000/svg"><defs><linearGradient id="sw-gradient-0" x1="0" x2="0" y1="1" y2="0"><stop stop-color="rgba(36, 54, 66, 1)" offset="0%"/><stop stop-color="rgba(56, 116, 120, 1)" offset="100%"/></linearGradient></defs><path style="transform:translate(0, 0px); opacity:1" fill="url(#sw-gradient-0)" d="M0,196L34.3,228.7C68.6,261,137,327,206,318.5C274.3,310,343,229,411,196C480,163,549,180,617,212.3C685.7,245,754,294,823,310.3C891.4,327,960,310,1029,326.7C1097.1,343,1166,392,1234,400.2C1302.9,408,1371,376,1440,302.2C1508.6,229,1577,114,1646,114.3C1714.3,114,1783,229,1851,261.3C1920,294,1989,245,2057,253.2C2125.7,261,2194,327,2263,302.2C2331.4,278,2400,163,2469,147C2537.1,131,2606,212,2674,261.3C2742.9,310,2811,327,2880,310.3C2948.6,294,3017,245,3086,228.7C3154.3,212,3223,229,3291,204.2C3360,180,3429,114,3497,89.8C3565.7,65,3634,82,3703,89.8C3771.4,98,3840,98,3909,98C3977.1,98,4046,98,4114,155.2C4182.9,212,4251,327,4320,318.5C4388.6,310,4457,180,4526,122.5C4594.3,65,4663,82,4731,138.8C4800,196,4869,294,4903,343L4937.1,392L4937.1,490L4902.9,490C4868.6,490,4800,490,4731,490C4662.9,490,4594,490,4526,490C4457.1,490,4389,490,4320,490C4251.4,490,4183,490,4114,490C4045.7,490,3977,490,3909,490C3840,490,3771,490,3703,490C3634.3,490,3566,490,3497,490C3428.6,490,3360,490,3291,490C3222.9,490,3154,490,3086,490C3017.1,490,2949,490,2880,490C2811.4,490,2743,490,2674,490C2605.7,490,2537,490,2469,490C2400,490,2331,490,2263,490C2194.3,490,2126,490,2057,490C1988.6,490,1920,490,1851,490C1782.9,490,1714,490,1646,490C1577.1,490,1509,490,1440,490C1371.4,490,1303,490,1234,490C1165.7,490,1097,490,1029,490C960,490,891,490,823,490C754.3,490,686,490,617,490C548.6,490,480,490,411,490C342.9,490,274,490,206,490C137.1,490,69,490,34,490L0,490Z"/><defs><linearGradient id="sw-gradient-1" x1="0" x2="0" y1="1" y2="0"><stop stop-color="rgba(56, 116, 120, 1)" offset="0%"/><stop stop-color="rgba(98, 149, 132, 1)" offset="100%"/></linearGradient></defs><path style="transform:translate(0, 50px); opacity:0.9" fill="url(#sw-gradient-1)" d="M0,343L34.3,326.7C68.6,310,137,278,206,220.5C274.3,163,343,82,411,98C480,114,549,229,617,236.8C685.7,245,754,147,823,114.3C891.4,82,960,114,1029,130.7C1097.1,147,1166,147,1234,130.7C1302.9,114,1371,82,1440,89.8C1508.6,98,1577,147,1646,187.8C1714.3,229,1783,261,1851,277.7C1920,294,1989,294,2057,253.2C2125.7,212,2194,131,2263,130.7C2331.4,131,2400,212,2469,253.2C2537.1,294,2606,294,2674,261.3C2742.9,229,2811,163,2880,147C2948.6,131,3017,163,3086,179.7C3154.3,196,3223,196,3291,204.2C3360,212,3429,229,3497,253.2C3565.7,278,3634,310,3703,310.3C3771.4,310,3840,278,3909,277.7C3977.1,278,4046,310,4114,318.5C4182.9,327,4251,310,4320,318.5C4388.6,327,4457,359,4526,359.3C4594.3,359,4663,327,4731,261.3C4800,196,4869,98,4903,49L4937.1,0L4937.1,490L4902.9,490C4868.6,490,4800,490,4731,490C4662.9,490,4594,490,4526,490C4457.1,490,4389,490,4320,490C4251.4,490,4183,490,4114,490C4045.7,490,3977,490,3909,490C3840,490,3771,490,3703,490C3634.3,490,3566,490,3497,490C3428.6,490,3360,490,3291,490C3222.9,490,3154,490,3086,490C3017.1,490,2949,490,2880,490C2811.4,490,2743,490,2674,490C2605.7,490,2537,490,2469,490C2400,490,2331,490,2263,490C2194.3,490,2126,490,2057,490C1988.6,490,1920,490,1851,490C1782.9,490,1714,490,1646,490C1577.1,490,1509,490,1440,490C1371.4,490,1303,490,1234,490C1165.7,490,1097,490,1029,490C960,490,891,490,823,490C754.3,490,686,490,617,490C548.6,490,480,490,411,490C342.9,490,274,490,206,490C137.1,490,69,490,34,490L0,490Z"/><defs><linearGradient id="sw-gradient-2" x1="0" x2="0" y1="1" y2="0"><stop stop-color="rgba(98, 149, 132, 1)" offset="0%"/><stop stop-color="rgba(226, 241, 231, 1)" offset="100%"/></linearGradient></defs><path style="transform:translate(0, 100px); opacity:0.8" fill="url(#sw-gradient-2)" d="M0,343L34.3,318.5C68.6,294,137,245,206,245C274.3,245,343,294,411,294C480,294,549,245,617,220.5C685.7,196,754,196,823,179.7C891.4,163,960,131,1029,98C1097.1,65,1166,33,1234,57.2C1302.9,82,1371,163,1440,179.7C1508.6,196,1577,147,1646,138.8C1714.3,131,1783,163,1851,204.2C1920,245,1989,294,2057,277.7C2125.7,261,2194,180,2263,130.7C2331.4,82,2400,65,2469,57.2C2537.1,49,2606,49,2674,73.5C2742.9,98,2811,147,2880,196C2948.6,245,3017,294,3086,285.8C3154.3,278,3223,212,3291,187.8C3360,163,3429,180,3497,212.3C3565.7,245,3634,294,3703,269.5C3771.4,245,3840,147,3909,98C3977.1,49,4046,49,4114,106.2C4182.9,163,4251,278,4320,269.5C4388.6,261,4457,131,4526,73.5C4594.3,16,4663,33,4731,65.3C4800,98,4869,147,4903,171.5L4937.1,196L4937.1,490L4902.9,490C4868.6,490,4800,490,4731,490C4662.9,490,4594,490,4526,490C4457.1,490,4389,490,4320,490C4251.4,490,4183,490,4114,490C4045.7,490,3977,490,3909,490C3840,490,3771,490,3703,490C3634.3,490,3566,490,3497,490C3428.6,490,3360,490,3291,490C3222.9,490,3154,490,3086,490C3017.1,490,2949,490,2880,490C2811.4,490,2743,490,2674,490C2605.7,490,2537,490,2469,490C2400,490,2331,490,2263,490C2194.3,490,2126,490,2057,490C1988.6,490,1920,490,1851,490C1782.9,490,1714,490,1646,490C1577.1,490,1509,490,1440,490C1371.4,490,1303,490,1234,490C1165.7,490,1097,490,1029,490C960,490,891,490,823,490C754.3,490,686,490,617,490C548.6,490,480,490,411,490C342.9,490,274,490,206,490C137.1,490,69,490,34,490L0,490Z"/><defs><linearGradient id="sw-gradient-3" x1="0" x2="0" y1="1" y2="0"><stop stop-color="rgba(98, 149, 132, 1)" offset="0%"/><stop stop-color="rgba(56, 116, 120, 1)" offset="100%"/></linearGradient></defs><path style="transform:translate(0, 150px); opacity:0.7" fill="url(#sw-gradient-3)" d="M0,98L34.3,89.8C68.6,82,137,65,206,89.8C274.3,114,343,180,411,245C480,310,549,376,617,408.3C685.7,441,754,441,823,375.7C891.4,310,960,180,1029,114.3C1097.1,49,1166,49,1234,81.7C1302.9,114,1371,180,1440,171.5C1508.6,163,1577,82,1646,73.5C1714.3,65,1783,131,1851,155.2C1920,180,1989,163,2057,130.7C2125.7,98,2194,49,2263,49C2331.4,49,2400,98,2469,138.8C2537.1,180,2606,212,2674,236.8C2742.9,261,2811,278,2880,269.5C2948.6,261,3017,229,3086,245C3154.3,261,3223,327,3291,294C3360,261,3429,131,3497,138.8C3565.7,147,3634,294,3703,302.2C3771.4,310,3840,180,3909,106.2C3977.1,33,4046,16,4114,57.2C4182.9,98,4251,196,4320,245C4388.6,294,4457,294,4526,285.8C4594.3,278,4663,261,4731,220.5C4800,180,4869,114,4903,81.7L4937.1,49L4937.1,490L4902.9,490C4868.6,490,4800,490,4731,490C4662.9,490,4594,490,4526,490C4457.1,490,4389,490,4320,490C4251.4,490,4183,490,4114,490C4045.7,490,3977,490,3909,490C3840,490,3771,490,3703,490C3634.3,490,3566,490,3497,490C3428.6,490,3360,490,3291,490C3222.9,490,3154,490,3086,490C3017.1,490,2949,490,2880,490C2811.4,490,2743,490,2674,490C2605.7,490,2537,490,2469,490C2400,490,2331,490,2263,490C2194.3,490,2126,490,2057,490C1988.6,490,1920,490,1851,490C1782.9,490,1714,490,1646,490C1577.1,490,1509,490,1440,490C1371.4,490,1303,490,1234,490C1165.7,490,1097,490,1029,490C960,490,891,490,823,490C754.3,490,686,490,617,490C548.6,490,480,490,411,490C342.9,490,274,490,206,490C137.1,490,69,490,34,490L0,490Z"/></svg>