<?xml version="1.0" standalone="no"?>
<svg xmlns:xlink="http://www.w3.org/1999/xlink" id="wave" style="transform:rotate(180deg); transition: 0.3s" viewBox="0 0 1440 490" version="1.1" xmlns="http://www.w3.org/2000/svg"><defs><linearGradient id="sw-gradient-0" x1="0" x2="0" y1="1" y2="0"><stop stop-color="rgba(36, 54, 66, 1)" offset="0%"/><stop stop-color="rgba(56, 116, 120, 1)" offset="100%"/></linearGradient></defs><path style="transform:translate(0, 0px); opacity:1" fill="url(#sw-gradient-0)" d="M0,147L34.3,122.5C68.6,98,137,49,206,24.5C274.3,0,343,0,411,40.8C480,82,549,163,617,171.5C685.7,180,754,114,823,114.3C891.4,114,960,180,1029,171.5C1097.1,163,1166,82,1234,57.2C1302.9,33,1371,65,1440,81.7C1508.6,98,1577,98,1646,89.8C1714.3,82,1783,65,1851,81.7C1920,98,1989,147,2057,171.5C2125.7,196,2194,196,2263,212.3C2331.4,229,2400,261,2469,269.5C2537.1,278,2606,261,2674,245C2742.9,229,2811,212,2880,212.3C2948.6,212,3017,229,3086,212.3C3154.3,196,3223,147,3291,155.2C3360,163,3429,229,3497,212.3C3565.7,196,3634,98,3703,49C3771.4,0,3840,0,3909,8.2C3977.1,16,4046,33,4114,98C4182.9,163,4251,278,4320,302.2C4388.6,327,4457,261,4526,245C4594.3,229,4663,261,4731,228.7C4800,196,4869,98,4903,49L4937.1,0L4937.1,490L4902.9,490C4868.6,490,4800,490,4731,490C4662.9,490,4594,490,4526,490C4457.1,490,4389,490,4320,490C4251.4,490,4183,490,4114,490C4045.7,490,3977,490,3909,490C3840,490,3771,490,3703,490C3634.3,490,3566,490,3497,490C3428.6,490,3360,490,3291,490C3222.9,490,3154,490,3086,490C3017.1,490,2949,490,2880,490C2811.4,490,2743,490,2674,490C2605.7,490,2537,490,2469,490C2400,490,2331,490,2263,490C2194.3,490,2126,490,2057,490C1988.6,490,1920,490,1851,490C1782.9,490,1714,490,1646,490C1577.1,490,1509,490,1440,490C1371.4,490,1303,490,1234,490C1165.7,490,1097,490,1029,490C960,490,891,490,823,490C754.3,490,686,490,617,490C548.6,490,480,490,411,490C342.9,490,274,490,206,490C137.1,490,69,490,34,490L0,490Z"/><defs><linearGradient id="sw-gradient-1" x1="0" x2="0" y1="1" y2="0"><stop stop-color="rgba(56, 116, 120, 1)" offset="0%"/><stop stop-color="rgba(98, 149, 132, 1)" offset="100%"/></linearGradient></defs><path style="transform:translate(0, 50px); opacity:0.9" fill="url(#sw-gradient-1)" d="M0,343L34.3,359.3C68.6,376,137,408,206,408.3C274.3,408,343,376,411,326.7C480,278,549,212,617,163.3C685.7,114,754,82,823,81.7C891.4,82,960,114,1029,106.2C1097.1,98,1166,49,1234,32.7C1302.9,16,1371,33,1440,73.5C1508.6,114,1577,180,1646,187.8C1714.3,196,1783,147,1851,106.2C1920,65,1989,33,2057,32.7C2125.7,33,2194,65,2263,73.5C2331.4,82,2400,65,2469,114.3C2537.1,163,2606,278,2674,285.8C2742.9,294,2811,196,2880,171.5C2948.6,147,3017,196,3086,212.3C3154.3,229,3223,212,3291,228.7C3360,245,3429,294,3497,334.8C3565.7,376,3634,408,3703,359.3C3771.4,310,3840,180,3909,147C3977.1,114,4046,180,4114,228.7C4182.9,278,4251,310,4320,334.8C4388.6,359,4457,376,4526,318.5C4594.3,261,4663,131,4731,138.8C4800,147,4869,294,4903,367.5L4937.1,441L4937.1,490L4902.9,490C4868.6,490,4800,490,4731,490C4662.9,490,4594,490,4526,490C4457.1,490,4389,490,4320,490C4251.4,490,4183,490,4114,490C4045.7,490,3977,490,3909,490C3840,490,3771,490,3703,490C3634.3,490,3566,490,3497,490C3428.6,490,3360,490,3291,490C3222.9,490,3154,490,3086,490C3017.1,490,2949,490,2880,490C2811.4,490,2743,490,2674,490C2605.7,490,2537,490,2469,490C2400,490,2331,490,2263,490C2194.3,490,2126,490,2057,490C1988.6,490,1920,490,1851,490C1782.9,490,1714,490,1646,490C1577.1,490,1509,490,1440,490C1371.4,490,1303,490,1234,490C1165.7,490,1097,490,1029,490C960,490,891,490,823,490C754.3,490,686,490,617,490C548.6,490,480,490,411,490C342.9,490,274,490,206,490C137.1,490,69,490,34,490L0,490Z"/><defs><linearGradient id="sw-gradient-2" x1="0" x2="0" y1="1" y2="0"><stop stop-color="rgba(98, 149, 132, 1)" offset="0%"/><stop stop-color="rgba(226, 241, 231, 1)" offset="100%"/></linearGradient></defs><path style="transform:translate(0, 100px); opacity:0.8" fill="url(#sw-gradient-2)" d="M0,245L34.3,253.2C68.6,261,137,278,206,245C274.3,212,343,131,411,155.2C480,180,549,310,617,326.7C685.7,343,754,245,823,220.5C891.4,196,960,245,1029,285.8C1097.1,327,1166,359,1234,310.3C1302.9,261,1371,131,1440,81.7C1508.6,33,1577,65,1646,106.2C1714.3,147,1783,196,1851,196C1920,196,1989,147,2057,163.3C2125.7,180,2194,261,2263,310.3C2331.4,359,2400,376,2469,375.7C2537.1,376,2606,359,2674,326.7C2742.9,294,2811,245,2880,261.3C2948.6,278,3017,359,3086,326.7C3154.3,294,3223,147,3291,122.5C3360,98,3429,196,3497,269.5C3565.7,343,3634,392,3703,359.3C3771.4,327,3840,212,3909,187.8C3977.1,163,4046,229,4114,285.8C4182.9,343,4251,392,4320,383.8C4388.6,376,4457,310,4526,253.2C4594.3,196,4663,147,4731,179.7C4800,212,4869,327,4903,383.8L4937.1,441L4937.1,490L4902.9,490C4868.6,490,4800,490,4731,490C4662.9,490,4594,490,4526,490C4457.1,490,4389,490,4320,490C4251.4,490,4183,490,4114,490C4045.7,490,3977,490,3909,490C3840,490,3771,490,3703,490C3634.3,490,3566,490,3497,490C3428.6,490,3360,490,3291,490C3222.9,490,3154,490,3086,490C3017.1,490,2949,490,2880,490C2811.4,490,2743,490,2674,490C2605.7,490,2537,490,2469,490C2400,490,2331,490,2263,490C2194.3,490,2126,490,2057,490C1988.6,490,1920,490,1851,490C1782.9,490,1714,490,1646,490C1577.1,490,1509,490,1440,490C1371.4,490,1303,490,1234,490C1165.7,490,1097,490,1029,490C960,490,891,490,823,490C754.3,490,686,490,617,490C548.6,490,480,490,411,490C342.9,490,274,490,206,490C137.1,490,69,490,34,490L0,490Z"/><defs><linearGradient id="sw-gradient-3" x1="0" x2="0" y1="1" y2="0"><stop stop-color="rgba(98, 149, 132, 1)" offset="0%"/><stop stop-color="rgba(56, 116, 120, 1)" offset="100%"/></linearGradient></defs><path style="transform:translate(0, 150px); opacity:0.7" fill="url(#sw-gradient-3)" d="M0,147L34.3,196C68.6,245,137,343,206,318.5C274.3,294,343,147,411,98C480,49,549,98,617,122.5C685.7,147,754,147,823,187.8C891.4,229,960,310,1029,302.2C1097.1,294,1166,196,1234,196C1302.9,196,1371,294,1440,302.2C1508.6,310,1577,229,1646,212.3C1714.3,196,1783,245,1851,253.2C1920,261,1989,229,2057,204.2C2125.7,180,2194,163,2263,155.2C2331.4,147,2400,147,2469,171.5C2537.1,196,2606,245,2674,261.3C2742.9,278,2811,261,2880,285.8C2948.6,310,3017,376,3086,343C3154.3,310,3223,180,3291,155.2C3360,131,3429,212,3497,245C3565.7,278,3634,261,3703,269.5C3771.4,278,3840,310,3909,343C3977.1,376,4046,408,4114,383.8C4182.9,359,4251,278,4320,269.5C4388.6,261,4457,327,4526,310.3C4594.3,294,4663,196,4731,196C4800,196,4869,294,4903,343L4937.1,392L4937.1,490L4902.9,490C4868.6,490,4800,490,4731,490C4662.9,490,4594,490,4526,490C4457.1,490,4389,490,4320,490C4251.4,490,4183,490,4114,490C4045.7,490,3977,490,3909,490C3840,490,3771,490,3703,490C3634.3,490,3566,490,3497,490C3428.6,490,3360,490,3291,490C3222.9,490,3154,490,3086,490C3017.1,490,2949,490,2880,490C2811.4,490,2743,490,2674,490C2605.7,490,2537,490,2469,490C2400,490,2331,490,2263,490C2194.3,490,2126,490,2057,490C1988.6,490,1920,490,1851,490C1782.9,490,1714,490,1646,490C1577.1,490,1509,490,1440,490C1371.4,490,1303,490,1234,490C1165.7,490,1097,490,1029,490C960,490,891,490,823,490C754.3,490,686,490,617,490C548.6,490,480,490,411,490C342.9,490,274,490,206,490C137.1,490,69,490,34,490L0,490Z"/></svg>