<?xml version="1.0" standalone="no"?>
<svg xmlns:xlink="http://www.w3.org/1999/xlink" id="wave" style="transform:rotate(180deg); transition: 0.3s" viewBox="0 0 1440 490" version="1.1" xmlns="http://www.w3.org/2000/svg"><defs><linearGradient id="sw-gradient-0" x1="0" x2="0" y1="1" y2="0"><stop stop-color="rgba(255, 174, 70, 1)" offset="0%"/><stop stop-color="rgba(243, 254, 184, 1)" offset="100%"/></linearGradient></defs><path style="transform:translate(0, 0px); opacity:1" fill="url(#sw-gradient-0)" d="M0,49L34.3,89.8C68.6,131,137,212,206,212.3C274.3,212,343,131,411,147C480,163,549,278,617,277.7C685.7,278,754,163,823,130.7C891.4,98,960,147,1029,147C1097.1,147,1166,98,1234,89.8C1302.9,82,1371,114,1440,179.7C1508.6,245,1577,343,1646,318.5C1714.3,294,1783,147,1851,81.7C1920,16,1989,33,2057,40.8C2125.7,49,2194,49,2263,98C2331.4,147,2400,245,2469,236.8C2537.1,229,2606,114,2674,73.5C2742.9,33,2811,65,2880,130.7C2948.6,196,3017,294,3086,310.3C3154.3,327,3223,261,3291,220.5C3360,180,3429,163,3497,196C3565.7,229,3634,310,3703,334.8C3771.4,359,3840,327,3909,334.8C3977.1,343,4046,392,4114,351.2C4182.9,310,4251,180,4320,106.2C4388.6,33,4457,16,4526,16.3C4594.3,16,4663,33,4731,49C4800,65,4869,82,4903,89.8L4937.1,98L4937.1,490L4902.9,490C4868.6,490,4800,490,4731,490C4662.9,490,4594,490,4526,490C4457.1,490,4389,490,4320,490C4251.4,490,4183,490,4114,490C4045.7,490,3977,490,3909,490C3840,490,3771,490,3703,490C3634.3,490,3566,490,3497,490C3428.6,490,3360,490,3291,490C3222.9,490,3154,490,3086,490C3017.1,490,2949,490,2880,490C2811.4,490,2743,490,2674,490C2605.7,490,2537,490,2469,490C2400,490,2331,490,2263,490C2194.3,490,2126,490,2057,490C1988.6,490,1920,490,1851,490C1782.9,490,1714,490,1646,490C1577.1,490,1509,490,1440,490C1371.4,490,1303,490,1234,490C1165.7,490,1097,490,1029,490C960,490,891,490,823,490C754.3,490,686,490,617,490C548.6,490,480,490,411,490C342.9,490,274,490,206,490C137.1,490,69,490,34,490L0,490Z"/><defs><linearGradient id="sw-gradient-1" x1="0" x2="0" y1="1" y2="0"><stop stop-color="rgba(255, 125, 41, 1)" offset="0%"/><stop stop-color="rgba(255, 188, 66, 1)" offset="100%"/></linearGradient></defs><path style="transform:translate(0, 50px); opacity:0.9" fill="url(#sw-gradient-1)" d="M0,392L34.3,359.3C68.6,327,137,261,206,204.2C274.3,147,343,98,411,89.8C480,82,549,114,617,130.7C685.7,147,754,147,823,155.2C891.4,163,960,180,1029,212.3C1097.1,245,1166,294,1234,269.5C1302.9,245,1371,147,1440,122.5C1508.6,98,1577,147,1646,171.5C1714.3,196,1783,196,1851,228.7C1920,261,1989,327,2057,302.2C2125.7,278,2194,163,2263,163.3C2331.4,163,2400,278,2469,277.7C2537.1,278,2606,163,2674,171.5C2742.9,180,2811,310,2880,326.7C2948.6,343,3017,245,3086,236.8C3154.3,229,3223,310,3291,310.3C3360,310,3429,229,3497,228.7C3565.7,229,3634,310,3703,310.3C3771.4,310,3840,229,3909,171.5C3977.1,114,4046,82,4114,65.3C4182.9,49,4251,49,4320,81.7C4388.6,114,4457,180,4526,212.3C4594.3,245,4663,245,4731,261.3C4800,278,4869,310,4903,326.7L4937.1,343L4937.1,490L4902.9,490C4868.6,490,4800,490,4731,490C4662.9,490,4594,490,4526,490C4457.1,490,4389,490,4320,490C4251.4,490,4183,490,4114,490C4045.7,490,3977,490,3909,490C3840,490,3771,490,3703,490C3634.3,490,3566,490,3497,490C3428.6,490,3360,490,3291,490C3222.9,490,3154,490,3086,490C3017.1,490,2949,490,2880,490C2811.4,490,2743,490,2674,490C2605.7,490,2537,490,2469,490C2400,490,2331,490,2263,490C2194.3,490,2126,490,2057,490C1988.6,490,1920,490,1851,490C1782.9,490,1714,490,1646,490C1577.1,490,1509,490,1440,490C1371.4,490,1303,490,1234,490C1165.7,490,1097,490,1029,490C960,490,891,490,823,490C754.3,490,686,490,617,490C548.6,490,480,490,411,490C342.9,490,274,490,206,490C137.1,490,69,490,34,490L0,490Z"/><defs><linearGradient id="sw-gradient-2" x1="0" x2="0" y1="1" y2="0"><stop stop-color="rgba(255, 203, 85, 1)" offset="0%"/><stop stop-color="rgba(255, 193, 77, 1)" offset="100%"/></linearGradient></defs><path style="transform:translate(0, 100px); opacity:0.8" fill="url(#sw-gradient-2)" d="M0,196L34.3,196C68.6,196,137,196,206,196C274.3,196,343,196,411,212.3C480,229,549,261,617,269.5C685.7,278,754,261,823,253.2C891.4,245,960,245,1029,220.5C1097.1,196,1166,147,1234,163.3C1302.9,180,1371,261,1440,310.3C1508.6,359,1577,376,1646,392C1714.3,408,1783,425,1851,416.5C1920,408,1989,376,2057,302.2C2125.7,229,2194,114,2263,65.3C2331.4,16,2400,33,2469,40.8C2537.1,49,2606,49,2674,89.8C2742.9,131,2811,212,2880,269.5C2948.6,327,3017,359,3086,359.3C3154.3,359,3223,327,3291,269.5C3360,212,3429,131,3497,106.2C3565.7,82,3634,114,3703,106.2C3771.4,98,3840,49,3909,24.5C3977.1,0,4046,0,4114,73.5C4182.9,147,4251,294,4320,294C4388.6,294,4457,147,4526,73.5C4594.3,0,4663,0,4731,0C4800,0,4869,0,4903,0L4937.1,0L4937.1,490L4902.9,490C4868.6,490,4800,490,4731,490C4662.9,490,4594,490,4526,490C4457.1,490,4389,490,4320,490C4251.4,490,4183,490,4114,490C4045.7,490,3977,490,3909,490C3840,490,3771,490,3703,490C3634.3,490,3566,490,3497,490C3428.6,490,3360,490,3291,490C3222.9,490,3154,490,3086,490C3017.1,490,2949,490,2880,490C2811.4,490,2743,490,2674,490C2605.7,490,2537,490,2469,490C2400,490,2331,490,2263,490C2194.3,490,2126,490,2057,490C1988.6,490,1920,490,1851,490C1782.9,490,1714,490,1646,490C1577.1,490,1509,490,1440,490C1371.4,490,1303,490,1234,490C1165.7,490,1097,490,1029,490C960,490,891,490,823,490C754.3,490,686,490,617,490C548.6,490,480,490,411,490C342.9,490,274,490,206,490C137.1,490,69,490,34,490L0,490Z"/><defs><linearGradient id="sw-gradient-3" x1="0" x2="0" y1="1" y2="0"><stop stop-color="rgba(255, 238, 169, 1)" offset="0%"/><stop stop-color="rgba(255, 178, 44, 1)" offset="100%"/></linearGradient></defs><path style="transform:translate(0, 150px); opacity:0.7" fill="url(#sw-gradient-3)" d="M0,98L34.3,155.2C68.6,212,137,327,206,343C274.3,359,343,278,411,253.2C480,229,549,261,617,269.5C685.7,278,754,261,823,269.5C891.4,278,960,310,1029,302.2C1097.1,294,1166,245,1234,204.2C1302.9,163,1371,131,1440,130.7C1508.6,131,1577,163,1646,147C1714.3,131,1783,65,1851,49C1920,33,1989,65,2057,81.7C2125.7,98,2194,98,2263,114.3C2331.4,131,2400,163,2469,147C2537.1,131,2606,65,2674,32.7C2742.9,0,2811,0,2880,49C2948.6,98,3017,196,3086,220.5C3154.3,245,3223,196,3291,187.8C3360,180,3429,212,3497,196C3565.7,180,3634,114,3703,147C3771.4,180,3840,310,3909,334.8C3977.1,359,4046,278,4114,269.5C4182.9,261,4251,327,4320,351.2C4388.6,376,4457,359,4526,367.5C4594.3,376,4663,408,4731,424.7C4800,441,4869,441,4903,441L4937.1,441L4937.1,490L4902.9,490C4868.6,490,4800,490,4731,490C4662.9,490,4594,490,4526,490C4457.1,490,4389,490,4320,490C4251.4,490,4183,490,4114,490C4045.7,490,3977,490,3909,490C3840,490,3771,490,3703,490C3634.3,490,3566,490,3497,490C3428.6,490,3360,490,3291,490C3222.9,490,3154,490,3086,490C3017.1,490,2949,490,2880,490C2811.4,490,2743,490,2674,490C2605.7,490,2537,490,2469,490C2400,490,2331,490,2263,490C2194.3,490,2126,490,2057,490C1988.6,490,1920,490,1851,490C1782.9,490,1714,490,1646,490C1577.1,490,1509,490,1440,490C1371.4,490,1303,490,1234,490C1165.7,490,1097,490,1029,490C960,490,891,490,823,490C754.3,490,686,490,617,490C548.6,490,480,490,411,490C342.9,490,274,490,206,490C137.1,490,69,490,34,490L0,490Z"/></svg>