<?xml version="1.0" standalone="no"?>
<svg xmlns:xlink="http://www.w3.org/1999/xlink" id="wave" style="transform:rotate(180deg); transition: 0.3s" viewBox="0 0 1440 490" version="1.1" xmlns="http://www.w3.org/2000/svg"><defs><linearGradient id="sw-gradient-0" x1="0" x2="0" y1="1" y2="0"><stop stop-color="rgba(36, 54, 66, 1)" offset="0%"/><stop stop-color="rgba(56, 116, 120, 1)" offset="100%"/></linearGradient></defs><path style="transform:translate(0, 0px); opacity:1" fill="url(#sw-gradient-0)" d="M0,0L26.7,8.2C53.3,16,107,33,160,65.3C213.3,98,267,147,320,147C373.3,147,427,98,480,89.8C533.3,82,587,114,640,106.2C693.3,98,747,49,800,73.5C853.3,98,907,196,960,196C1013.3,196,1067,98,1120,114.3C1173.3,131,1227,261,1280,261.3C1333.3,261,1387,131,1440,98C1493.3,65,1547,131,1600,179.7C1653.3,229,1707,261,1760,277.7C1813.3,294,1867,294,1920,277.7C1973.3,261,2027,229,2080,204.2C2133.3,180,2187,163,2240,187.8C2293.3,212,2347,278,2400,285.8C2453.3,294,2507,245,2560,220.5C2613.3,196,2667,196,2720,171.5C2773.3,147,2827,98,2880,106.2C2933.3,114,2987,180,3040,187.8C3093.3,196,3147,147,3200,171.5C3253.3,196,3307,294,3360,318.5C3413.3,343,3467,294,3520,228.7C3573.3,163,3627,82,3680,89.8C3733.3,98,3787,196,3813,245L3840,294L3840,490L3813.3,490C3786.7,490,3733,490,3680,490C3626.7,490,3573,490,3520,490C3466.7,490,3413,490,3360,490C3306.7,490,3253,490,3200,490C3146.7,490,3093,490,3040,490C2986.7,490,2933,490,2880,490C2826.7,490,2773,490,2720,490C2666.7,490,2613,490,2560,490C2506.7,490,2453,490,2400,490C2346.7,490,2293,490,2240,490C2186.7,490,2133,490,2080,490C2026.7,490,1973,490,1920,490C1866.7,490,1813,490,1760,490C1706.7,490,1653,490,1600,490C1546.7,490,1493,490,1440,490C1386.7,490,1333,490,1280,490C1226.7,490,1173,490,1120,490C1066.7,490,1013,490,960,490C906.7,490,853,490,800,490C746.7,490,693,490,640,490C586.7,490,533,490,480,490C426.7,490,373,490,320,490C266.7,490,213,490,160,490C106.7,490,53,490,27,490L0,490Z"/><defs><linearGradient id="sw-gradient-1" x1="0" x2="0" y1="1" y2="0"><stop stop-color="rgba(56, 116, 120, 1)" offset="0%"/><stop stop-color="rgba(98, 149, 132, 1)" offset="100%"/></linearGradient></defs><path style="transform:translate(0, 50px); opacity:0.9" fill="url(#sw-gradient-1)" d="M0,0L26.7,32.7C53.3,65,107,131,160,187.8C213.3,245,267,294,320,285.8C373.3,278,427,212,480,220.5C533.3,229,587,310,640,359.3C693.3,408,747,425,800,432.8C853.3,441,907,441,960,441C1013.3,441,1067,441,1120,383.8C1173.3,327,1227,212,1280,138.8C1333.3,65,1387,33,1440,32.7C1493.3,33,1547,65,1600,65.3C1653.3,65,1707,33,1760,49C1813.3,65,1867,131,1920,155.2C1973.3,180,2027,163,2080,147C2133.3,131,2187,114,2240,155.2C2293.3,196,2347,294,2400,326.7C2453.3,359,2507,327,2560,294C2613.3,261,2667,229,2720,179.7C2773.3,131,2827,65,2880,49C2933.3,33,2987,65,3040,138.8C3093.3,212,3147,327,3200,375.7C3253.3,425,3307,408,3360,375.7C3413.3,343,3467,294,3520,285.8C3573.3,278,3627,310,3680,294C3733.3,278,3787,212,3813,179.7L3840,147L3840,490L3813.3,490C3786.7,490,3733,490,3680,490C3626.7,490,3573,490,3520,490C3466.7,490,3413,490,3360,490C3306.7,490,3253,490,3200,490C3146.7,490,3093,490,3040,490C2986.7,490,2933,490,2880,490C2826.7,490,2773,490,2720,490C2666.7,490,2613,490,2560,490C2506.7,490,2453,490,2400,490C2346.7,490,2293,490,2240,490C2186.7,490,2133,490,2080,490C2026.7,490,1973,490,1920,490C1866.7,490,1813,490,1760,490C1706.7,490,1653,490,1600,490C1546.7,490,1493,490,1440,490C1386.7,490,1333,490,1280,490C1226.7,490,1173,490,1120,490C1066.7,490,1013,490,960,490C906.7,490,853,490,800,490C746.7,490,693,490,640,490C586.7,490,533,490,480,490C426.7,490,373,490,320,490C266.7,490,213,490,160,490C106.7,490,53,490,27,490L0,490Z"/><defs><linearGradient id="sw-gradient-2" x1="0" x2="0" y1="1" y2="0"><stop stop-color="rgba(98, 149, 132, 1)" offset="0%"/><stop stop-color="rgba(226, 241, 231, 1)" offset="100%"/></linearGradient></defs><path style="transform:translate(0, 100px); opacity:0.8" fill="url(#sw-gradient-2)" d="M0,196L26.7,179.7C53.3,163,107,131,160,98C213.3,65,267,33,320,57.2C373.3,82,427,163,480,220.5C533.3,278,587,310,640,310.3C693.3,310,747,278,800,285.8C853.3,294,907,343,960,318.5C1013.3,294,1067,196,1120,138.8C1173.3,82,1227,65,1280,57.2C1333.3,49,1387,49,1440,81.7C1493.3,114,1547,180,1600,204.2C1653.3,229,1707,212,1760,179.7C1813.3,147,1867,98,1920,114.3C1973.3,131,2027,212,2080,245C2133.3,278,2187,261,2240,236.8C2293.3,212,2347,180,2400,147C2453.3,114,2507,82,2560,65.3C2613.3,49,2667,49,2720,81.7C2773.3,114,2827,180,2880,196C2933.3,212,2987,180,3040,204.2C3093.3,229,3147,310,3200,285.8C3253.3,261,3307,131,3360,130.7C3413.3,131,3467,261,3520,318.5C3573.3,376,3627,359,3680,294C3733.3,229,3787,114,3813,57.2L3840,0L3840,490L3813.3,490C3786.7,490,3733,490,3680,490C3626.7,490,3573,490,3520,490C3466.7,490,3413,490,3360,490C3306.7,490,3253,490,3200,490C3146.7,490,3093,490,3040,490C2986.7,490,2933,490,2880,490C2826.7,490,2773,490,2720,490C2666.7,490,2613,490,2560,490C2506.7,490,2453,490,2400,490C2346.7,490,2293,490,2240,490C2186.7,490,2133,490,2080,490C2026.7,490,1973,490,1920,490C1866.7,490,1813,490,1760,490C1706.7,490,1653,490,1600,490C1546.7,490,1493,490,1440,490C1386.7,490,1333,490,1280,490C1226.7,490,1173,490,1120,490C1066.7,490,1013,490,960,490C906.7,490,853,490,800,490C746.7,490,693,490,640,490C586.7,490,533,490,480,490C426.7,490,373,490,320,490C266.7,490,213,490,160,490C106.7,490,53,490,27,490L0,490Z"/><defs><linearGradient id="sw-gradient-3" x1="0" x2="0" y1="1" y2="0"><stop stop-color="rgba(98, 149, 132, 1)" offset="0%"/><stop stop-color="rgba(226, 241, 231, 1)" offset="100%"/></linearGradient></defs><path style="transform:translate(0, 150px); opacity:0.7" fill="url(#sw-gradient-3)" d="M0,441L26.7,367.5C53.3,294,107,147,160,147C213.3,147,267,294,320,359.3C373.3,425,427,408,480,375.7C533.3,343,587,294,640,302.2C693.3,310,747,376,800,408.3C853.3,441,907,441,960,375.7C1013.3,310,1067,180,1120,138.8C1173.3,98,1227,147,1280,179.7C1333.3,212,1387,229,1440,204.2C1493.3,180,1547,114,1600,147C1653.3,180,1707,310,1760,334.8C1813.3,359,1867,278,1920,236.8C1973.3,196,2027,196,2080,236.8C2133.3,278,2187,359,2240,359.3C2293.3,359,2347,278,2400,228.7C2453.3,180,2507,163,2560,179.7C2613.3,196,2667,245,2720,285.8C2773.3,327,2827,359,2880,326.7C2933.3,294,2987,196,3040,179.7C3093.3,163,3147,229,3200,277.7C3253.3,327,3307,359,3360,367.5C3413.3,376,3467,359,3520,302.2C3573.3,245,3627,147,3680,163.3C3733.3,180,3787,310,3813,375.7L3840,441L3840,490L3813.3,490C3786.7,490,3733,490,3680,490C3626.7,490,3573,490,3520,490C3466.7,490,3413,490,3360,490C3306.7,490,3253,490,3200,490C3146.7,490,3093,490,3040,490C2986.7,490,2933,490,2880,490C2826.7,490,2773,490,2720,490C2666.7,490,2613,490,2560,490C2506.7,490,2453,490,2400,490C2346.7,490,2293,490,2240,490C2186.7,490,2133,490,2080,490C2026.7,490,1973,490,1920,490C1866.7,490,1813,490,1760,490C1706.7,490,1653,490,1600,490C1546.7,490,1493,490,1440,490C1386.7,490,1333,490,1280,490C1226.7,490,1173,490,1120,490C1066.7,490,1013,490,960,490C906.7,490,853,490,800,490C746.7,490,693,490,640,490C586.7,490,533,490,480,490C426.7,490,373,490,320,490C266.7,490,213,490,160,490C106.7,490,53,490,27,490L0,490Z"/></svg>