<?xml version="1.0" standalone="no"?>
<svg xmlns:xlink="http://www.w3.org/1999/xlink" id="wave" style="transform:rotate(180deg); transition: 0.3s" viewBox="0 0 1440 490" version="1.1" xmlns="http://www.w3.org/2000/svg"><defs><linearGradient id="sw-gradient-0" x1="0" x2="0" y1="1" y2="0"><stop stop-color="rgba(36, 54, 66, 1)" offset="0%"/><stop stop-color="rgba(56, 116, 120, 1)" offset="100%"/></linearGradient></defs><path style="transform:translate(0, 0px); opacity:1" fill="url(#sw-gradient-0)" d="M0,343L34.3,285.8C68.6,229,137,114,206,106.2C274.3,98,343,196,411,212.3C480,229,549,163,617,155.2C685.7,147,754,196,823,204.2C891.4,212,960,180,1029,147C1097.1,114,1166,82,1234,106.2C1302.9,131,1371,212,1440,220.5C1508.6,229,1577,163,1646,114.3C1714.3,65,1783,33,1851,40.8C1920,49,1989,98,2057,163.3C2125.7,229,2194,310,2263,318.5C2331.4,327,2400,261,2469,212.3C2537.1,163,2606,131,2674,171.5C2742.9,212,2811,327,2880,310.3C2948.6,294,3017,147,3086,89.8C3154.3,33,3223,65,3291,73.5C3360,82,3429,65,3497,81.7C3565.7,98,3634,147,3703,163.3C3771.4,180,3840,163,3909,187.8C3977.1,212,4046,278,4114,318.5C4182.9,359,4251,376,4320,383.8C4388.6,392,4457,392,4526,375.7C4594.3,359,4663,327,4731,294C4800,261,4869,229,4903,212.3L4937.1,196L4937.1,490L4902.9,490C4868.6,490,4800,490,4731,490C4662.9,490,4594,490,4526,490C4457.1,490,4389,490,4320,490C4251.4,490,4183,490,4114,490C4045.7,490,3977,490,3909,490C3840,490,3771,490,3703,490C3634.3,490,3566,490,3497,490C3428.6,490,3360,490,3291,490C3222.9,490,3154,490,3086,490C3017.1,490,2949,490,2880,490C2811.4,490,2743,490,2674,490C2605.7,490,2537,490,2469,490C2400,490,2331,490,2263,490C2194.3,490,2126,490,2057,490C1988.6,490,1920,490,1851,490C1782.9,490,1714,490,1646,490C1577.1,490,1509,490,1440,490C1371.4,490,1303,490,1234,490C1165.7,490,1097,490,1029,490C960,490,891,490,823,490C754.3,490,686,490,617,490C548.6,490,480,490,411,490C342.9,490,274,490,206,490C137.1,490,69,490,34,490L0,490Z"/><defs><linearGradient id="sw-gradient-1" x1="0" x2="0" y1="1" y2="0"><stop stop-color="rgba(56, 116, 120, 1)" offset="0%"/><stop stop-color="rgba(98, 149, 132, 1)" offset="100%"/></linearGradient></defs><path style="transform:translate(0, 50px); opacity:0.9" fill="url(#sw-gradient-1)" d="M0,441L34.3,416.5C68.6,392,137,343,206,326.7C274.3,310,343,327,411,351.2C480,376,549,408,617,351.2C685.7,294,754,147,823,98C891.4,49,960,98,1029,114.3C1097.1,131,1166,114,1234,106.2C1302.9,98,1371,98,1440,147C1508.6,196,1577,294,1646,285.8C1714.3,278,1783,163,1851,106.2C1920,49,1989,49,2057,114.3C2125.7,180,2194,310,2263,343C2331.4,376,2400,310,2469,269.5C2537.1,229,2606,212,2674,179.7C2742.9,147,2811,98,2880,89.8C2948.6,82,3017,114,3086,155.2C3154.3,196,3223,245,3291,236.8C3360,229,3429,163,3497,179.7C3565.7,196,3634,294,3703,277.7C3771.4,261,3840,131,3909,138.8C3977.1,147,4046,294,4114,351.2C4182.9,408,4251,376,4320,343C4388.6,310,4457,278,4526,277.7C4594.3,278,4663,310,4731,285.8C4800,261,4869,180,4903,138.8L4937.1,98L4937.1,490L4902.9,490C4868.6,490,4800,490,4731,490C4662.9,490,4594,490,4526,490C4457.1,490,4389,490,4320,490C4251.4,490,4183,490,4114,490C4045.7,490,3977,490,3909,490C3840,490,3771,490,3703,490C3634.3,490,3566,490,3497,490C3428.6,490,3360,490,3291,490C3222.9,490,3154,490,3086,490C3017.1,490,2949,490,2880,490C2811.4,490,2743,490,2674,490C2605.7,490,2537,490,2469,490C2400,490,2331,490,2263,490C2194.3,490,2126,490,2057,490C1988.6,490,1920,490,1851,490C1782.9,490,1714,490,1646,490C1577.1,490,1509,490,1440,490C1371.4,490,1303,490,1234,490C1165.7,490,1097,490,1029,490C960,490,891,490,823,490C754.3,490,686,490,617,490C548.6,490,480,490,411,490C342.9,490,274,490,206,490C137.1,490,69,490,34,490L0,490Z"/><defs><linearGradient id="sw-gradient-2" x1="0" x2="0" y1="1" y2="0"><stop stop-color="rgba(98, 149, 132, 1)" offset="0%"/><stop stop-color="rgba(226, 241, 231, 1)" offset="100%"/></linearGradient></defs><path style="transform:translate(0, 100px); opacity:0.8" fill="url(#sw-gradient-2)" d="M0,49L34.3,57.2C68.6,65,137,82,206,147C274.3,212,343,327,411,343C480,359,549,278,617,236.8C685.7,196,754,196,823,236.8C891.4,278,960,359,1029,334.8C1097.1,310,1166,180,1234,171.5C1302.9,163,1371,278,1440,277.7C1508.6,278,1577,163,1646,155.2C1714.3,147,1783,245,1851,236.8C1920,229,1989,114,2057,106.2C2125.7,98,2194,196,2263,196C2331.4,196,2400,98,2469,98C2537.1,98,2606,196,2674,245C2742.9,294,2811,294,2880,277.7C2948.6,261,3017,229,3086,220.5C3154.3,212,3223,229,3291,261.3C3360,294,3429,343,3497,351.2C3565.7,359,3634,327,3703,326.7C3771.4,327,3840,359,3909,334.8C3977.1,310,4046,229,4114,212.3C4182.9,196,4251,245,4320,236.8C4388.6,229,4457,163,4526,138.8C4594.3,114,4663,131,4731,187.8C4800,245,4869,343,4903,392L4937.1,441L4937.1,490L4902.9,490C4868.6,490,4800,490,4731,490C4662.9,490,4594,490,4526,490C4457.1,490,4389,490,4320,490C4251.4,490,4183,490,4114,490C4045.7,490,3977,490,3909,490C3840,490,3771,490,3703,490C3634.3,490,3566,490,3497,490C3428.6,490,3360,490,3291,490C3222.9,490,3154,490,3086,490C3017.1,490,2949,490,2880,490C2811.4,490,2743,490,2674,490C2605.7,490,2537,490,2469,490C2400,490,2331,490,2263,490C2194.3,490,2126,490,2057,490C1988.6,490,1920,490,1851,490C1782.9,490,1714,490,1646,490C1577.1,490,1509,490,1440,490C1371.4,490,1303,490,1234,490C1165.7,490,1097,490,1029,490C960,490,891,490,823,490C754.3,490,686,490,617,490C548.6,490,480,490,411,490C342.9,490,274,490,206,490C137.1,490,69,490,34,490L0,490Z"/><defs><linearGradient id="sw-gradient-3" x1="0" x2="0" y1="1" y2="0"><stop stop-color="rgba(98, 149, 132, 1)" offset="0%"/><stop stop-color="rgba(56, 116, 120, 1)" offset="100%"/></linearGradient></defs><path style="transform:translate(0, 150px); opacity:0.7" fill="url(#sw-gradient-3)" d="M0,441L34.3,424.7C68.6,408,137,376,206,343C274.3,310,343,278,411,277.7C480,278,549,310,617,302.2C685.7,294,754,245,823,196C891.4,147,960,98,1029,130.7C1097.1,163,1166,278,1234,277.7C1302.9,278,1371,163,1440,98C1508.6,33,1577,16,1646,73.5C1714.3,131,1783,261,1851,269.5C1920,278,1989,163,2057,147C2125.7,131,2194,212,2263,245C2331.4,278,2400,261,2469,253.2C2537.1,245,2606,245,2674,212.3C2742.9,180,2811,114,2880,147C2948.6,180,3017,310,3086,343C3154.3,376,3223,310,3291,261.3C3360,212,3429,180,3497,187.8C3565.7,196,3634,245,3703,228.7C3771.4,212,3840,131,3909,122.5C3977.1,114,4046,180,4114,179.7C4182.9,180,4251,114,4320,73.5C4388.6,33,4457,16,4526,16.3C4594.3,16,4663,33,4731,65.3C4800,98,4869,147,4903,171.5L4937.1,196L4937.1,490L4902.9,490C4868.6,490,4800,490,4731,490C4662.9,490,4594,490,4526,490C4457.1,490,4389,490,4320,490C4251.4,490,4183,490,4114,490C4045.7,490,3977,490,3909,490C3840,490,3771,490,3703,490C3634.3,490,3566,490,3497,490C3428.6,490,3360,490,3291,490C3222.9,490,3154,490,3086,490C3017.1,490,2949,490,2880,490C2811.4,490,2743,490,2674,490C2605.7,490,2537,490,2469,490C2400,490,2331,490,2263,490C2194.3,490,2126,490,2057,490C1988.6,490,1920,490,1851,490C1782.9,490,1714,490,1646,490C1577.1,490,1509,490,1440,490C1371.4,490,1303,490,1234,490C1165.7,490,1097,490,1029,490C960,490,891,490,823,490C754.3,490,686,490,617,490C548.6,490,480,490,411,490C342.9,490,274,490,206,490C137.1,490,69,490,34,490L0,490Z"/></svg>