<?xml version="1.0" encoding="utf-8"?>
<!-- Generator: Adobe Illustrator 22.1.0, SVG Export Plug-In . SVG Version: 6.00 Build 0)  -->
<svg version="1.1" id="Layer_1" xmlns="http://www.w3.org/2000/svg" xmlns:xlink="http://www.w3.org/1999/xlink" x="0px" y="0px"
	 width="218px" height="62px" viewBox="0 0 218 10" style="enable-background:new 0 0 218 36;" xml:space="preserve">
<style type="text/css">
	.st0{fill:#95BF47;}
	.st1{fill:#5F8F3E;}
	.st2{fill:#FFFFFF;}
	.st3{fill:#C23522;}
	.st4{fill:#F3F3F5;}
	.st5{fill:#009ADE;}
	.st6{fill:#002F87;}
	.st7{fill:#002169;}
</style>
<g id="Page-1_1_">
	<g id="QB---50_x2F_50---tablet-option-2-Copy-6" transform="translate(-688.000000, -1462.000000)">
		<g id="Logo_shopify" transform="translate(688.000000, 1462.000000)">
			<g id="Group-2">
				<g id="Page-1">
					<path id="Fill-1" class="st0" d="M199.1,1.2c0.2,0,0.4,0.1,0.6,0.2c-1.4,0.7-2.9,2.5-3.6,6l-2.7,0.9
						C194.1,5.6,195.9,1.2,199.1,1.2L199.1,1.2z M200.4,2.6c0.3,0.7,0.4,1.7,0.4,3.1c0,0.1,0,0.1,0,0.2c-1.1,0.3-2.2,0.7-3.4,1.1
						C198.1,4.3,199.3,3,200.4,2.6z M203.6,5L202,5.5c0-0.1,0-0.2,0-0.4c0-1.1-0.2-2.1-0.4-2.8C202.5,2.5,203.2,3.6,203.6,5z
						 M211.5,7c0-0.2-0.2-0.3-0.3-0.3s-2.7-0.2-2.7-0.2s-1.8-1.9-2-2.1s-0.6-0.1-0.7-0.1c0,0-0.4,0.1-1,0.3
						c-0.6-1.8-1.7-3.5-3.6-3.5c-0.1,0-0.1,0-0.2,0c-0.5-0.7-1.2-1.1-1.8-1.1c-4.4,0-6.5,5.8-7.2,8.8c-1.7,0.6-2.9,1-3.1,1
						c-1,0.3-1,0.3-1.1,1.3c-0.1,0.7-2.6,21.1-2.6,21.1l19.4,3.8l10.5-2.4C215.2,33.6,211.5,7.2,211.5,7L211.5,7z"/>
					<path id="Fill-3" class="st1" d="M211.2,6.7c-0.1,0-2.7-0.2-2.7-0.2s-1.8-1.9-2-2.1c-0.1-0.1-0.2-0.1-0.3-0.1L204.7,36
						l10.5-2.4c0,0-3.7-26.4-3.7-26.6C211.5,6.8,211.3,6.7,211.2,6.7"/>
					<path id="Fill-5" class="st2" d="M201.1,12.9l-1.3,4.1c0,0-1.1-0.6-2.5-0.6c-2,0-2.1,1.4-2.1,1.7c0,1.9,4.6,2.6,4.6,6.9
						c0,3.4-2.1,5.6-4.8,5.6c-3.3,0-5-2.2-5-2.2l0.9-3.1c0,0,1.8,1.6,3.2,1.6c1,0,1.4-0.8,1.4-1.4c0-2.4-3.8-2.5-3.8-6.5
						c0-3.4,2.3-6.6,6.9-6.6C200.2,12.3,201.1,12.9,201.1,12.9"/>
				</g>
			</g>
		</g>
	</g>
</g>
<title>lgo_square_transparent</title>
<desc>Created with Sketch.</desc>
<title>circular_tsheets_logo</title>
<desc>Created with Sketch.</desc>
<title>lgo_paypal</title>
<desc>Created with Sketch.</desc>
<g>
	<g>
		<g>
			<path class="st3" d="M16.5,1.6C8.4,2.1,1.7,8.8,1.2,17c-0.6,9.5,7,17.5,16.4,17.5C26.6,34.4,34,27.1,34,18
				C34,8.6,26.1,1,16.5,1.6z"/>
		</g>
		<path class="st4" d="M28.3,14.3c-0.4,0.4-1,0.7-1.7,0.7h-6.8v10.7c0,0.7-0.2,1.3-0.7,1.6c-0.4,0.4-1,0.6-1.6,0.6
			c-0.6,0-1.1-0.2-1.6-0.6c-0.4-0.4-0.7-1-0.7-1.7V14.9H8.6c-0.7,0-1.3-0.2-1.7-0.7c-0.4-0.4-0.6-1-0.6-1.6c0-0.6,0.2-1.2,0.6-1.6
			c0.4-0.4,1-0.7,1.7-0.7h18.1c0.7,0,1.3,0.2,1.7,0.7c0.4,0.4,0.6,1,0.6,1.6C28.9,13.3,28.7,13.8,28.3,14.3z"/>
	</g>
</g>
<g>
	<g>
		<g>
			<g>
				<g>
					<path class="st5" d="M148,26.4h-2.6c-0.2,0-0.3,0.1-0.4,0.3l-1.1,6.8c0,0.1,0.1,0.3,0.2,0.3h1.4c0.1,0,0.2-0.1,0.3-0.2l0.3-1.9
						c0-0.2,0.2-0.3,0.4-0.3h0.8c1.7,0,2.7-0.8,3-2.5c0.1-0.7,0-1.3-0.3-1.7C149.6,26.7,148.9,26.4,148,26.4z M148.3,28.9
						c-0.1,0.9-0.9,0.9-1.6,0.9h-0.4l0.3-1.8c0-0.1,0.1-0.2,0.2-0.2h0.2c0.5,0,0.9,0,1.2,0.3C148.3,28.3,148.4,28.6,148.3,28.9z"/>
					<path class="st6" d="M129.1,26.4h-2.6c-0.2,0-0.3,0.1-0.4,0.3l-1.1,6.8c0,0.1,0.1,0.3,0.2,0.3h1.3c0.2,0,0.3-0.1,0.4-0.3
						l0.3-1.8c0-0.2,0.2-0.3,0.4-0.3h0.8c1.7,0,2.7-0.8,3-2.5c0.1-0.7,0-1.3-0.3-1.7C130.7,26.7,130,26.4,129.1,26.4z M129.4,28.9
						c-0.1,0.9-0.9,0.9-1.6,0.9h-0.4l0.3-1.8c0-0.1,0.1-0.2,0.2-0.2h0.2c0.5,0,0.9,0,1.2,0.3C129.5,28.3,129.5,28.6,129.4,28.9z"/>
					<path class="st6" d="M137.1,28.9h-1.3c-0.1,0-0.2,0.1-0.2,0.2l-0.1,0.4l-0.1-0.1c-0.3-0.4-0.9-0.5-1.5-0.5
						c-1.4,0-2.6,1.1-2.8,2.5c-0.1,0.7,0.1,1.5,0.5,1.9c0.4,0.5,0.9,0.6,1.6,0.6c1.1,0,1.8-0.7,1.8-0.7l-0.1,0.4
						c0,0.1,0.1,0.3,0.2,0.3h1.1c0.2,0,0.3-0.1,0.4-0.3l0.7-4.3C137.3,29,137.2,28.9,137.1,28.9z M135.3,31.3
						c-0.1,0.7-0.7,1.2-1.4,1.2c-0.4,0-0.7-0.1-0.9-0.3c-0.2-0.2-0.3-0.5-0.2-0.9c0.1-0.7,0.7-1.2,1.4-1.2c0.4,0,0.7,0.1,0.8,0.3
						C135.3,30.7,135.3,31,135.3,31.3z"/>
					<path class="st5" d="M155.9,28.9h-1.3c-0.1,0-0.2,0.1-0.2,0.2l-0.1,0.4l-0.1-0.1c-0.3-0.4-0.9-0.5-1.5-0.5
						c-1.4,0-2.6,1.1-2.8,2.5c-0.1,0.7,0.1,1.5,0.5,1.9c0.4,0.5,0.9,0.6,1.6,0.6c1.1,0,1.8-0.7,1.8-0.7l-0.1,0.4
						c0,0.1,0.1,0.3,0.2,0.3h1.1c0.2,0,0.3-0.1,0.4-0.3l0.7-4.3C156.2,29,156.1,28.9,155.9,28.9z M154.2,31.3
						c-0.1,0.7-0.7,1.2-1.4,1.2c-0.4,0-0.7-0.1-0.9-0.3c-0.2-0.2-0.3-0.5-0.2-0.9c0.1-0.7,0.7-1.2,1.4-1.2c0.4,0,0.7,0.1,0.8,0.3
						C154.1,30.7,154.2,31,154.2,31.3z"/>
					<path class="st6" d="M143.8,28.9h-1.3c-0.1,0-0.2,0.1-0.3,0.2l-1.8,2.6l-0.7-2.5c0-0.2-0.2-0.3-0.4-0.3h-1.3
						c-0.2,0-0.3,0.1-0.2,0.3l1.4,4.1l-1.3,1.9c-0.1,0.1,0,0.3,0.2,0.3h1.3c0.1,0,0.2-0.1,0.3-0.2l4.2-6.1
						C144.1,29.1,144,28.9,143.8,28.9z"/>
					<path class="st5" d="M157.4,26.6l-1.1,6.9c0,0.1,0.1,0.3,0.2,0.3h1.1c0.2,0,0.3-0.1,0.4-0.3l1.1-6.8c0-0.1-0.1-0.3-0.2-0.3
						h-1.2C157.5,26.4,157.4,26.5,157.4,26.6z"/>
				</g>
			</g>
		</g>
	</g>
	<g>
		<path class="st5" d="M150.3,7.4c0.3-1.7,0-2.9-0.9-3.9c-1-1.2-2.9-1.7-5.2-1.7h-6.8c-0.5,0-0.9,0.3-1,0.8l-2.8,18
			c-0.1,0.4,0.2,0.7,0.6,0.7h4.2l-0.3,1.8c0,0.3,0.2,0.6,0.5,0.6h3.5c0.4,0,0.8-0.3,0.8-0.7l0-0.2l0.7-4.2l0-0.2
			c0.1-0.4,0.4-0.7,0.8-0.7h0.5c3.4,0,6.1-1.4,6.9-5.4c0.3-1.7,0.2-3.1-0.7-4.1C151,7.8,150.7,7.6,150.3,7.4L150.3,7.4"/>
		<path class="st7" d="M150.3,7.4c0.3-1.7,0-2.9-0.9-3.9c-1-1.2-2.9-1.7-5.2-1.7h-6.8c-0.5,0-0.9,0.3-1,0.8l-2.8,18
			c-0.1,0.4,0.2,0.7,0.6,0.7h4.2l1.1-6.7l0,0.2c0.1-0.5,0.5-0.8,1-0.8h2c3.9,0,7-1.6,7.9-6.2C150.3,7.7,150.3,7.5,150.3,7.4"/>
		<path class="st6" d="M140.5,7.4c0-0.3,0.2-0.5,0.5-0.6c0.1-0.1,0.2-0.1,0.4-0.1h5.3c0.6,0,1.2,0,1.8,0.1c0.2,0,0.3,0.1,0.5,0.1
			c0.1,0,0.3,0.1,0.4,0.1c0.1,0,0.1,0,0.2,0.1c0.3,0.1,0.5,0.2,0.7,0.3c0.3-1.7,0-2.9-0.9-3.9c-1-1.2-2.9-1.7-5.2-1.7h-6.8
			c-0.5,0-0.9,0.3-1,0.8l-2.8,18c-0.1,0.4,0.2,0.7,0.6,0.7h4.2l1.1-6.7L140.5,7.4z"/>
	</g>
</g>
<path d="M82.3,20.9c0,0.5-0.4,1-1,1h-6.9c-0.5,0-1-0.4-1-1v-6.9c0-0.5,0.4-1,1-1h6.9c0.5,0,1,0.4,1,1V20.9z M88.2,26.1
	c0,1-0.8,1.7-1.7,1.7H69.2c-1,0-1.7-0.8-1.7-1.7V8.7c0-1,0.8-1.7,1.7-1.7h17.3c1,0,1.7,0.8,1.7,1.7V26.1z M88.7,1.1H66.9
	c-3,0-5.5,2.5-5.5,5.5v21.8c0,3,2.5,5.5,5.5,5.5h21.8c3,0,5.5-2.5,5.5-5.5V6.5C94.2,3.5,91.7,1.1,88.7,1.1"/>
</svg>
