<?xml version="1.0" encoding="UTF-8"?>
<svg width="84px" height="29px" viewBox="0 0 84 29" version="1.1" xmlns="http://www.w3.org/2000/svg" xmlns:xlink="http://www.w3.org/1999/xlink">
    <!-- Generator: Sketch 48 (47235) - http://www.bohemiancoding.com/sketch -->
    <title>Group 3</title>
    <desc>Created with Sketch.</desc>
    <defs>
        <polygon id="path-1" points="83.53779 0.361464286 0 0.361464286 0 28.9998964 83.53779 28.9998964"></polygon>
    </defs>
    <g id="4-lineup---carrots-&amp;-underline-copy-2" stroke="none" stroke-width="1" fill="none" fill-rule="evenodd" transform="translate(-561.000000, -1418.000000)">
        <g id="Page-1" transform="translate(561.000000, 1418.000000)">
            <g id="Group-3">
                <mask id="mask-2" fill="white">
                    <use xlink:href="#path-1"></use>
                </mask>
                <g id="Clip-2"></g>
                <path d="M75.10524,7.77345 C74.544015,7.77345 74.30724,8.27628929 74.27049,8.64034286 L75.851265,8.64034286 C75.85914,8.31253929 75.710565,7.77345 75.10524,7.77345 Z M39.76749,9.71852143 C39.76749,10.0685929 39.996915,10.2291286 40.284615,10.2291286 C40.654215,10.2291286 40.912515,9.995575 41.00124,9.74078929 C41.02329,9.67502143 41.02329,9.60925357 41.02329,9.54348571 L41.02329,9.05618214 C40.38069,9.04893214 39.76749,9.17943214 39.76749,9.71852143 Z M57.251565,7.8097 C56.608965,7.8097 56.35014,8.42905714 56.35014,9.01889643 C56.35014,9.70453929 56.697165,10.2218786 57.244215,10.2218786 C57.76134,10.2218786 58.123065,9.72628929 58.123065,9.00491429 C58.123065,8.451325 57.872115,7.8097 57.251565,7.8097 Z M51.14739,7.77345 C50.586165,7.77345 50.349915,8.27628929 50.31264,8.64034286 L51.893415,8.64034286 C51.900765,8.31253929 51.75324,7.77345 51.14739,7.77345 Z M44.607465,7.86045 C44.23839,7.86045 43.898715,8.12352143 43.80264,8.516575 C43.787415,8.58234286 43.77219,8.66209286 43.77219,8.74961071 L43.77219,9.32495 C43.77219,9.39796786 43.780065,9.47098571 43.794765,9.53675357 C43.89084,9.90028929 44.208465,10.1633607 44.600115,10.1633607 C45.169215,10.1633607 45.51624,9.71852143 45.51624,8.99766429 C45.51624,8.37105714 45.21279,7.86045 44.607465,7.86045 Z M76.68549,19.4490571 L72.02874,19.4490571 C72.047115,20.1284857 72.27234,20.6463429 72.70494,21.0052179 C73.09659,21.327325 73.60374,21.4878607 74.226915,21.4878607 C74.91834,21.4878607 75.54414,21.3796286 76.109565,21.1595393 L76.354215,22.2237357 C75.69534,22.5095929 74.91309,22.6483786 74.01009,22.6483786 C72.92964,22.6483786 72.07914,22.3355929 71.46174,21.7074321 C70.84434,21.0792714 70.53249,20.2356821 70.53249,19.1782179 C70.53249,18.137325 70.821765,17.274575 71.395065,16.5816821 C72.00144,15.8452893 72.815715,15.4776107 73.83894,15.4776107 C74.84799,15.4776107 75.60819,15.8452893 76.12374,16.5816821 C76.534815,17.16945 76.741665,17.8928964 76.741665,18.7530571 C76.741665,19.02545 76.721715,19.2569321 76.68549,19.4490571 Z M70.279965,8.66209286 L70.279965,10.78945 L69.371715,10.78945 L69.371715,5.61709286 L70.279965,5.61709286 L70.279965,7.72218214 L70.294665,7.72218214 C70.40544,7.55491429 70.56084,7.41664643 70.745115,7.32187857 C70.929915,7.21934286 71.144115,7.16134286 71.37354,7.16134286 C71.98674,7.16134286 72.62934,7.56216429 72.62934,8.69886071 L72.62934,10.78945 L71.720565,10.78945 L71.720565,8.79362857 C71.720565,8.28302143 71.528415,7.88996786 71.02599,7.88996786 C70.671615,7.88996786 70.42014,8.12352143 70.31724,8.39228929 C70.287315,8.473075 70.279965,8.567325 70.279965,8.66209286 Z M70.04424,16.9788786 C69.891465,16.95195 69.72714,16.9400393 69.55599,16.9400393 C69.00999,16.9400393 68.589465,17.1435571 68.291265,17.5485214 C68.031915,17.9084321 67.90329,18.3558607 67.90329,18.9078964 L67.90329,22.5220214 L66.35139,22.5220214 L66.35139,17.7996821 C66.35139,17.0104679 66.33774,16.2870214 66.309915,15.6329679 L67.660215,15.6329679 L67.71849,16.95195 L67.761015,16.95195 C67.922715,16.4998607 68.18049,16.1347714 68.53644,15.8623786 C68.88189,15.614325 69.25674,15.4947 69.65889,15.4947 C69.801165,15.4947 69.93189,15.5024679 70.04424,15.5205929 L70.04424,16.9788786 Z M66.06054,7.24161071 L66.570315,7.24161071 L66.570315,6.57771786 L67.46439,6.33018214 L67.46439,7.24161071 L68.32854,7.24161071 L68.32854,7.91171786 L67.46439,7.91171786 L67.46439,9.47823571 C67.46439,9.915825 67.582515,10.1343607 67.92954,10.1343607 C68.09229,10.1343607 68.181015,10.1265929 68.28444,10.0975929 L68.29914,10.7754679 C68.16579,10.8262179 67.92219,10.8702357 67.64184,10.8702357 C67.302165,10.8702357 67.028115,10.7609679 66.85854,10.5786821 C66.65904,10.3746464 66.570315,10.0468429 66.570315,9.58025357 L66.570315,7.91171786 L66.06054,7.91171786 L66.06054,7.24161071 Z M64.45719,21.631825 C63.813015,22.3288607 62.960415,22.6778964 61.899915,22.6778964 C60.873015,22.6778964 60.05349,22.3433607 59.446065,21.6722179 C58.83864,21.0026286 58.53519,20.1533429 58.53519,19.1342 C58.53519,18.0674143 58.84809,17.1922357 59.475465,16.5128071 C60.104415,15.8302714 60.94704,15.4941821 62.01069,15.4941821 C63.03969,15.4941821 63.862365,15.8266464 64.485015,16.5008964 C65.077215,17.1487357 65.37489,17.992325 65.37489,19.021825 C65.37489,20.0834321 65.07039,20.9487714 64.45719,21.631825 Z M57.214815,10.8702357 C56.202615,10.8702357 55.411965,10.1845929 55.411965,9.04116429 C55.411965,7.87546786 56.187915,7.16134286 57.273615,7.16134286 C58.344615,7.16134286 59.06124,7.90498571 59.06124,8.98316429 C59.06124,10.2871286 58.130415,10.8702357 57.214815,10.8702357 Z M58.08999,16.7800214 L56.376915,16.7800214 L56.376915,20.1284857 C56.376915,20.9782893 56.68089,21.399825 57.285165,21.399825 C57.56289,21.399825 57.79074,21.3796286 57.973965,21.3335393 L58.018065,22.4930214 C57.71094,22.6064321 57.30984,22.6633964 56.81109,22.6633964 C56.20104,22.6633964 55.718565,22.4816286 55.375215,22.1108429 C55.02714,21.7442 54.855465,21.1238071 54.855465,20.2548429 L54.855465,16.7800214 L53.835915,16.7800214 L53.835915,15.6329679 L54.855465,15.6329679 L54.855465,14.3719857 L56.376915,13.9183429 L56.376915,15.6329679 L58.08999,15.6329679 L58.08999,16.7800214 Z M52.618965,21.8270571 C51.984765,22.3853071 51.10644,22.6623607 49.97979,22.6623607 C48.93504,22.6623607 48.10029,22.4629857 47.46924,22.0683786 L47.829915,20.7928964 C48.50979,21.1875036 49.25634,21.3879143 50.06904,21.3879143 C50.65599,21.3879143 51.10959,21.2563786 51.435615,20.9984857 C51.75954,20.7395571 51.922815,20.3925929 51.922815,19.9529321 C51.922815,19.5702357 51.788415,19.2439857 51.521715,18.978325 C51.250815,18.7137 50.80929,18.4697893 50.18559,18.2414143 C48.49194,17.6194679 47.643015,16.7070036 47.643015,15.5076464 C47.643015,14.7230929 47.939115,14.0788786 48.538665,13.5781107 C49.13769,13.0783786 49.93044,12.8277357 50.91849,12.8277357 C51.798915,12.8277357 52.53234,12.9799857 53.117715,13.2803429 L52.726065,14.5278607 C52.180065,14.2357893 51.559515,14.0876821 50.867565,14.0876821 C50.320515,14.0876821 49.89159,14.2249143 49.58289,14.483325 C49.325115,14.7230929 49.194915,15.0115393 49.194915,15.3507357 C49.194915,15.7256643 49.344015,16.0389679 49.640115,16.2880571 C49.899465,16.5138429 50.36934,16.7587893 51.047115,17.0223786 C51.88344,17.3507 52.49454,17.7406464 52.888815,18.1860036 C53.280465,18.630325 53.477865,19.1818429 53.477865,19.8426286 C53.477865,20.6556643 53.18964,21.3190393 52.618965,21.8270571 Z M44.806965,10.8702357 C44.34129,10.8702357 43.92759,10.6957179 43.66929,10.2581286 L43.65459,10.2581286 L43.61049,10.78945 L42.83454,10.78945 C42.849765,10.5491643 42.864465,10.1566286 42.864465,9.79102143 L42.864465,5.61709286 L43.77219,5.61709286 L43.77219,7.72943214 L43.787415,7.72943214 C44.008965,7.38712857 44.400615,7.16134286 44.93979,7.16134286 C45.819165,7.16134286 46.44654,7.88271786 46.43919,8.96089643 C46.43919,10.2363786 45.619665,10.8702357 44.806965,10.8702357 Z M43.741215,21.7732 C43.162665,22.3754679 42.446565,22.6778964 41.58819,22.6778964 C40.663665,22.6778964 39.99954,22.3526821 39.595815,21.6986286 L39.595815,25.3163786 L38.04339,25.3163786 L38.04339,17.8970393 C38.04339,17.1601286 38.02344,16.4066464 37.986165,15.6329679 L39.348015,15.6329679 L39.43779,16.7240929 L39.46404,16.7240929 C39.98484,15.9048429 40.76814,15.4941821 41.821815,15.4941821 C42.646065,15.4941821 43.33329,15.8126643 43.884015,16.4573964 C44.436315,17.0985036 44.71089,17.9462357 44.71089,18.9938607 C44.71089,20.1693964 44.38854,21.0917 43.741215,21.7732 Z M36.775515,10.78945 L37.68324,10.78945 L37.68324,5.61709286 L36.775515,5.61709286 L36.775515,10.78945 Z M36.06834,21.7732 C35.491365,22.3754679 34.772115,22.6778964 33.91584,22.6778964 C32.98869,22.6778964 32.325615,22.3526821 31.92189,21.6986286 L31.92189,25.3163786 L30.37104,25.3163786 L30.37104,17.8970393 C30.37104,17.1601286 30.35109,16.4066464 30.311715,15.6329679 L31.676715,15.6329679 L31.76229,16.7240929 L31.78959,16.7240929 C32.30934,15.9048429 33.094215,15.4941821 34.14894,15.4941821 C34.97319,15.4941821 35.658315,15.8126643 36.212715,16.4573964 C36.761865,17.0985036 37.038015,17.9462357 37.038015,18.9938607 C37.038015,20.1693964 36.715665,21.0917 36.06834,21.7732 Z M29.991465,9.81328929 C29.991465,8.92464643 30.796815,8.46530714 32.12664,8.473075 L32.12664,8.41455714 C32.12664,8.18152143 32.03004,7.79468214 31.39479,7.79468214 C31.03989,7.79468214 30.67134,7.90498571 30.427215,8.05775357 L30.25029,7.47464643 C30.515415,7.31411071 30.98109,7.16134286 31.55019,7.16134286 C32.70204,7.16134286 33.03489,7.88271786 33.03489,8.66209286 L33.03489,9.937575 C33.03489,10.2581286 33.04959,10.5709143 33.094215,10.78945 L32.27364,10.78945 L32.20749,10.3963964 L32.18544,10.3963964 C31.97124,10.67345 31.59429,10.8702357 31.12179,10.8702357 C30.397815,10.8702357 29.991465,10.3523786 29.991465,9.81328929 Z M28.121415,10.78945 L27.22734,10.78945 L25.890165,7.24161071 L26.872965,7.24161071 L27.455715,9.04116429 C27.559665,9.35446786 27.633165,9.63877143 27.69984,9.930325 L27.722415,9.930325 C27.788565,9.63877143 27.86994,9.3612 27.966015,9.04116429 L28.542465,7.24161071 L29.49534,7.24161071 L28.121415,10.78945 Z M27.768615,22.5220214 L26.86404,19.717825 L23.71614,19.717825 L22.85304,22.5220214 L21.244965,22.5220214 L24.36084,12.9685929 L26.28864,12.9685929 L29.422365,22.5220214 L27.768615,22.5220214 Z M16.80189,22.1631464 C16.80189,23.0284857 16.08684,23.7296643 15.21009,23.7296643 L8.387715,23.7296643 C7.509915,23.7296643 6.794865,23.0284857 6.794865,22.1631464 L6.794865,7.20898571 C6.794865,6.34364643 7.509915,5.64039643 8.387715,5.64039643 L15.21009,5.64039643 C16.08684,5.64039643 16.80189,6.34364643 16.80189,7.20898571 L16.80189,22.1631464 Z M22.852515,5.87912857 L24.01224,5.87912857 L25.629765,10.78945 L24.64749,10.78945 L24.19704,9.39796786 L22.62309,9.39796786 L22.19469,10.78945 L21.256515,10.78945 L22.852515,5.87912857 Z M34.440315,10.78945 L35.34804,10.78945 L35.34804,7.24109286 L34.440315,7.24109286 L34.440315,10.78945 Z M34.898115,5.76209286 C35.20839,5.76209286 35.40054,5.97389643 35.40789,6.25043214 C35.40789,6.51246786 35.20839,6.73152143 34.89024,6.73152143 C34.587315,6.73152143 34.38834,6.51246786 34.38834,6.25043214 C34.38834,5.97389643 34.59519,5.76209286 34.898115,5.76209286 Z M40.269915,7.79468214 C39.91554,7.79468214 39.546465,7.90498571 39.302865,8.05775357 L39.125415,7.47464643 C39.391065,7.31411071 39.856215,7.16134286 40.42479,7.16134286 C41.57769,7.16134286 41.910015,7.88271786 41.910015,8.66209286 L41.910015,9.937575 C41.910015,10.2581286 41.924715,10.5709143 41.968815,10.78945 L41.148765,10.78945 L41.082615,10.3963964 L41.060565,10.3963964 C40.846365,10.67345 40.469415,10.8702357 39.996915,10.8702357 C39.272415,10.8702357 38.86659,10.3523786 38.86659,9.81328929 C38.86659,8.92464643 39.671415,8.46530714 41.00124,8.473075 L41.00124,8.41455714 C41.00124,8.18152143 40.90464,7.79468214 40.269915,7.79468214 Z M47.47554,10.78945 L48.383265,10.78945 L48.383265,5.61709286 L47.47554,5.61709286 L47.47554,10.78945 Z M51.199365,7.16134286 C52.365915,7.16134286 52.75074,8.10798571 52.75074,8.88787857 C52.75074,9.05618214 52.73604,9.1872 52.720815,9.26746786 L50.31264,9.26746786 C50.33469,9.90805714 50.837115,10.1845929 51.420915,10.1845929 C51.84144,10.1845929 52.137015,10.1198607 52.41789,10.0250929 L52.550715,10.6366821 C52.24044,10.7677 51.812565,10.8624679 51.294915,10.8624679 C50.128365,10.8624679 49.44114,10.1566286 49.44114,9.07068214 C49.44114,8.08623571 50.04699,7.16134286 51.199365,7.16134286 Z M60.74019,7.24161071 L60.78429,7.77345 L60.806865,7.77345 C60.968565,7.49639643 61.360215,7.16134286 61.958715,7.16134286 C62.586615,7.16134286 63.23709,7.56216429 63.23709,8.68384286 L63.23709,10.78945 L62.328315,10.78945 L62.328315,8.78586071 C62.328315,8.27628929 62.136165,7.88996786 61.64109,7.88996786 C61.279365,7.88996786 61.028415,8.14475357 60.931815,8.41455714 C60.90189,8.487575 60.887715,8.59684286 60.887715,8.69886071 L60.887715,10.78945 L59.97894,10.78945 L59.97894,8.29855714 C59.97894,7.88996786 59.96424,7.54766429 59.94954,7.24161071 L60.74019,7.24161071 Z M75.157215,7.16134286 C76.323765,7.16134286 76.70859,8.10798571 76.70859,8.88787857 C76.70859,9.05618214 76.693365,9.1872 76.678665,9.26746786 L74.27049,9.26746786 C74.29254,9.90805714 74.794965,10.1845929 75.378765,10.1845929 C75.79929,10.1845929 76.09539,10.1198607 76.37574,10.0250929 L76.508565,10.6366821 C76.19829,10.7677 75.770415,10.8624679 75.252765,10.8624679 C74.086215,10.8624679 73.39899,10.1566286 73.39899,9.07068214 C73.39899,8.08623571 74.004315,7.16134286 75.157215,7.16134286 Z M80.007165,0.361360714 L3.52989,0.361360714 C1.583715,0.361360714 -0.00021,1.92321786 -0.00021,3.84395 L-0.00021,25.5224857 C-0.00021,27.4406286 1.583715,28.9998964 3.52989,28.9998964 L80.007165,28.9998964 C81.953865,28.9998964 83.53779,27.4406286 83.53779,25.5224857 L83.53779,3.84395 C83.53779,1.92321786 81.953865,0.361360714 80.007165,0.361360714 Z M23.657865,7.51089643 C23.561265,7.21209286 23.480415,6.87755714 23.40639,6.59325357 L23.391165,6.59325357 C23.317665,6.87755714 23.23629,7.21934286 23.154915,7.51089643 L22.77114,8.72061071 L24.04899,8.72061071 L23.657865,7.51089643 Z M32.12664,9.74078929 C32.148165,9.67502143 32.148165,9.60925357 32.148165,9.54348571 L32.148165,9.05618214 C31.505565,9.04893214 30.89289,9.17943214 30.89289,9.71852143 C30.89289,10.0685929 31.12179,10.2291286 31.410015,10.2291286 C31.77909,10.2291286 32.03739,9.995575 32.12664,9.74078929 Z M73.723965,16.5392179 C73.21734,16.5392179 72.80574,16.752575 72.48864,17.165825 C72.229815,17.4951821 72.075465,17.8928964 72.02874,18.3537893 L75.26169,18.3537893 C75.269565,17.9017 75.17139,17.5112357 74.96139,17.1782536 C74.69154,16.7551643 74.27889,16.5392179 73.723965,16.5392179 Z M25.282215,14.2445929 L25.254915,14.2445929 C25.157265,14.6511107 25.006065,15.2502714 24.79344,16.0451821 L23.988615,18.5402179 L26.58894,18.5402179 L25.77309,16.0451821 C25.68489,15.7888429 25.520565,15.1881286 25.282215,14.2445929 Z M41.31939,16.709075 C40.934565,16.709075 40.591215,16.8333607 40.278315,17.0840036 C39.96699,17.3377536 39.762765,17.666075 39.666165,18.0725929 C39.61839,18.2626464 39.595815,18.4174857 39.595815,18.5407357 L39.595815,19.6877893 C39.595815,20.1895929 39.749115,20.6132 40.062015,20.9580929 C40.372815,21.2998786 40.778115,21.4733607 41.27424,21.4733607 C41.861715,21.4733607 42.31584,21.2527536 42.641865,20.8073964 C42.968415,20.3635929 43.132215,19.7778964 43.132215,19.0477179 C43.132215,18.3786464 42.977865,17.8250571 42.672315,17.3916107 C42.334215,16.9400393 41.883765,16.709075 41.31939,16.709075 Z M61.953465,16.6137893 C61.332915,16.6137893 60.85779,16.8861821 60.533865,17.4330393 C60.25299,17.883575 60.11544,18.4335393 60.11544,19.0844857 C60.11544,19.717825 60.25299,20.2584679 60.533865,20.7100393 C60.86619,21.2563786 61.33554,21.5287714 61.94244,21.5287714 C62.53254,21.5287714 62.99874,21.2527536 63.332115,20.69295 C63.621915,20.2356821 63.765765,19.6877893 63.765765,19.0575571 C63.765765,18.427325 63.62769,17.883575 63.351015,17.4330393 C63.02079,16.8861821 62.558265,16.6137893 61.953465,16.6137893 Z M33.64389,16.709075 C33.26169,16.709075 32.91624,16.8333607 32.603865,17.0840036 C32.29149,17.3377536 32.08884,17.666075 31.992765,18.0725929 C31.945515,18.2626464 31.92189,18.4174857 31.92189,18.5407357 L31.92189,19.6877893 C31.92189,20.1895929 32.074665,20.6132 32.38809,20.9580929 C32.69889,21.2998786 33.10419,21.4733607 33.601365,21.4733607 C34.18464,21.4733607 34.642965,21.2527536 34.96794,20.8073964 C35.29344,20.3635929 35.45514,19.7778964 35.45514,19.0477179 C35.45514,18.3786464 35.303415,17.8250571 34.996815,17.3916107 C34.659765,16.9400393 34.20984,16.709075 33.64389,16.709075 Z M7.76244,20.5764321 L15.83484,20.5764321 L15.83484,8.80036071 L7.76244,8.80036071 L7.76244,20.5764321 Z M11.79759,21.2713964 C11.34504,21.2713964 10.975965,21.6370036 10.975965,22.08495 C10.975965,22.5318607 11.34504,22.8959143 11.79759,22.8959143 C12.25224,22.8959143 12.620265,22.5318607 12.620265,22.08495 C12.620265,21.6370036 12.25224,21.2713964 11.79759,21.2713964 Z M11.00694,7.59841429 L12.588765,7.59841429 C12.69219,7.59841429 12.776715,7.51452143 12.776715,7.41664643 C12.776715,7.313075 12.69219,7.2297 12.588765,7.2297 L11.00694,7.2297 C10.906665,7.2297 10.820565,7.313075 10.820565,7.41664643 C10.820565,7.51452143 10.906665,7.59841429 11.00694,7.59841429 Z" id="Fill-1" fill="#58585B" mask="url(#mask-2)"></path>
            </g>
        </g>
    </g>
</svg>