<?xml version="1.0" encoding="utf-8"?>
<!-- Generator: Adobe Illustrator 22.1.0, SVG Export Plug-In . SVG Version: 6.00 Build 0)  -->
<svg version="1.1" id="Layer_1" xmlns="http://www.w3.org/2000/svg" xmlns:xlink="http://www.w3.org/1999/xlink" x="0px" y="0px"
	 width="97.8px" height="29px" viewBox="0 0 97.8 29" style="enable-background:new 0 0 97.8 29;" xml:space="preserve">
<style type="text/css">
	.st0{fill:#58585B;}
	.st1{fill:#A6A6A6;}
	.st2{fill:#FFFFFF;stroke:#FFFFFF;stroke-width:0.2;stroke-miterlimit:10;}
	.st3{fill:#FFFFFF;}
	.st4{fill:#FFFFFF;stroke:#58585B;stroke-miterlimit:10;}
	.st5{opacity:0.2;fill:#FFFFFF;stroke:#58585B;stroke-miterlimit:10;enable-background:new    ;}
	.st6{opacity:0.12;fill:#FFFFFF;stroke:#58585B;stroke-miterlimit:10;enable-background:new    ;}
	.st7{opacity:0.25;fill:#FFFFFF;stroke:#58585B;stroke-miterlimit:10;enable-background:new    ;}
</style>
<title>Group 2</title>
<desc>Created with Sketch.</desc>
<path class="st0" d="M93.6,29h-90c-2,0-3.6-1.6-3.6-3.6V3.8c0-2,1.6-3.6,3.6-3.6h90c2,0,3.6,1.6,3.6,3.6v21.6
	C97.2,27.4,95.6,29,93.6,29z"/>
<g>
	<g>
		<path class="st1" d="M94.1,0.7c1.6,0,3.1,1.3,3.1,3.1v21.8c0,1.6-1.3,3.1-3.1,3.1H3.6c-1.6,0-3.1-1.3-3.1-3.1V3.6
			c0-1.6,1.3-3.1,3.1-3.1h90.5 M94.1,0H3.6C1.6,0,0,1.6,0,3.6v21.7c0,2,1.6,3.6,3.6,3.6h90.5c2,0,3.6-1.6,3.6-3.6V3.6
			C97.8,1.6,96.1,0,94.1,0L94.1,0z"/>
	</g>
</g>
<g>
	<path class="st2" d="M34.4,7.5c0,0.7-0.2,1.1-0.5,1.4c-0.4,0.4-1,0.7-1.6,0.7c-0.7,0-1.2-0.2-1.6-0.7c-0.4-0.4-0.7-1-0.7-1.6
		s0.2-1.2,0.7-1.6s1-0.7,1.6-0.7c0.3,0,0.7,0.1,0.9,0.2c0.3,0.1,0.5,0.3,0.7,0.4l-0.3,0.3c-0.3-0.3-0.7-0.5-1.2-0.5
		c-0.4,0-0.9,0.1-1.2,0.4c-0.3,0.3-0.5,0.8-0.5,1.2c0,0.5,0.2,0.9,0.5,1.2c0.3,0.3,0.8,0.4,1.2,0.4c0.4,0,0.9-0.1,1.2-0.4
		c0.2-0.2,0.3-0.5,0.3-0.9h-1.5V7.1h2.1C34.4,7.2,34.4,7.4,34.4,7.5z"/>
	<path class="st2" d="M37.7,5.6h-2V7h1.8v0.5h-1.8V9h2v0.5h-2.5V5.2h2.5V5.6z"/>
	<path class="st2" d="M40,9.4h-0.5V5.6h-1.2V5.1h3v0.5H40C40,5.6,40,9.4,40,9.4z"/>
	<path class="st2" d="M43.4,9.4V5.1h0.5v4.4H43.4z"/>
	<path class="st2" d="M46.5,9.4h-0.5V5.6h-1.2V5.1h3v0.5h-1.2C46.5,5.6,46.5,9.4,46.5,9.4z"/>
	<path class="st2" d="M53.3,8.9c-0.4,0.4-1,0.7-1.6,0.7s-1.2-0.2-1.5-0.7c-0.4-0.4-0.7-1-0.7-1.6s0.2-1.2,0.7-1.6
		c0.4-0.4,1-0.7,1.5-0.7c0.7,0,1.2,0.2,1.5,0.7c0.4,0.4,0.7,1,0.7,1.6C53.9,7.9,53.7,8.5,53.3,8.9z M50.5,8.6
		C50.9,8.9,51.3,9,51.7,9c0.4,0,0.9-0.1,1.2-0.4c0.3-0.3,0.4-0.8,0.4-1.2s-0.1-0.9-0.4-1.2c-0.3-0.3-0.8-0.4-1.2-0.4
		c-0.4,0-0.9,0.1-1.2,0.4c-0.3,0.3-0.4,0.8-0.4,1.2C50.1,7.8,50.2,8.2,50.5,8.6z"/>
	<path class="st2" d="M54.7,9.4V5.1h0.7l2.1,3.4l0,0V7.6V5.1H58v4.4h-0.5l-2.2-3.5l0,0v0.9v2.7h-0.5V9.4z"/>
</g>
<path class="st3" d="M49.3,15.8c-1.8,0-3.1,1.3-3.1,3.1c0,1.8,1.4,3.1,3.1,3.1c1.8,0,3.1-1.3,3.1-3.1C52.4,17,51.1,15.8,49.3,15.8z
	 M49.3,20.8c-0.9,0-1.8-0.8-1.8-1.9c0-1.1,0.8-1.9,1.8-1.9c0.9,0,1.8,0.8,1.8,1.9C51.1,20,50.3,20.8,49.3,20.8z M42.6,15.8
	c-1.8,0-3.1,1.3-3.1,3.1c0,1.8,1.4,3.1,3.1,3.1c1.8,0,3.1-1.3,3.1-3.1C45.7,17,44.3,15.8,42.6,15.8z M42.6,20.8
	c-0.9,0-1.8-0.8-1.8-1.9c0-1.1,0.8-1.9,1.8-1.9c0.9,0,1.8,0.8,1.8,1.9C44.4,20,43.5,20.8,42.6,20.8z M34.6,16.7V18h3.1
	c-0.1,0.8-0.3,1.3-0.7,1.6c-0.4,0.4-1.2,1-2.4,1c-2,0-3.4-1.5-3.4-3.5s1.5-3.5,3.4-3.5c1,0,1.8,0.4,2.3,0.9l0.9-0.9
	c-0.8-0.8-1.9-1.3-3.3-1.3c-2.6,0-4.8,2.2-4.8,4.8s2.2,4.8,4.8,4.8c1.4,0,2.5-0.4,3.3-1.3c0.9-0.9,1.1-2.1,1.1-3.1
	c0-0.3,0-0.5-0.1-0.8h-4.2V16.7z M67.3,17.8c-0.2-0.7-1-2-2.6-2c-1.5,0-2.9,1.2-2.9,3.1c0,1.8,1.3,3.1,3.1,3.1
	c1.4,0,2.2-0.9,2.5-1.3L66.3,20c-0.3,0.5-0.9,0.9-1.5,0.9c-0.7,0-1.2-0.3-1.5-0.9l4.1-1.8V17.8z M63.2,18.8c0-1.2,0.9-1.8,1.6-1.8
	c0.5,0,1,0.2,1.1,0.7L63.2,18.8z M59.9,21.8h1.3v-9h-1.3V21.8z M57.7,16.5L57.7,16.5c-0.3-0.3-0.9-0.7-1.6-0.7c-1.5,0-3,1.3-3,3.1
	c0,1.8,1.4,3.1,3,3.1c0.8,0,1.3-0.3,1.6-0.7l0,0v0.4c0,1.2-0.7,1.8-1.6,1.8c-0.9,0-1.3-0.5-1.5-1.1l-1.2,0.4
	c0.3,0.8,1.2,1.9,2.7,1.9s3-0.9,3-3.2V16h-1.3V16.5z M56,20.8c-0.9,0-1.8-0.8-1.8-1.9c0-1.1,0.8-1.9,1.8-1.9c0.9,0,1.6,0.8,1.6,1.9
	C57.7,20,57,20.8,56,20.8z M73.7,12.7h-3.2v9h1.3v-3.4h1.9c1.5,0,3-1.1,3-2.9S75.2,12.7,73.7,12.7z M73.7,17h-1.9V14h1.9
	c1,0,1.5,0.9,1.5,1.5C75.4,16.3,74.8,17,73.7,17z M82.2,15.8c-1,0-2,0.4-2.4,1.4l1.2,0.5c0.2-0.5,0.8-0.7,1.2-0.7
	c0.7,0,1.4,0.4,1.4,1.2v0.1c-0.2-0.1-0.8-0.3-1.4-0.3c-1.3,0-2.6,0.7-2.6,2.1c0,1.2,1.1,2,2.2,2c0.9,0,1.4-0.4,1.8-0.9l0,0V22h1.3
	v-3.5C84.9,16.7,83.7,15.8,82.2,15.8z M81.9,20.8c-0.4,0-1.1-0.2-1.1-0.8c0-0.7,0.8-1,1.4-1c0.5,0,0.9,0.1,1.2,0.3
	C83.5,20.1,82.7,20.8,81.9,20.8z M89.6,15.9l-1.5,4l0,0l-1.6-4H85l2.4,5.5L86,24.5h1.4l3.7-8.6C91.2,15.9,89.6,15.9,89.6,15.9z
	 M77.4,21.8h1.3v-9h-1.3V21.8z"/>
<g>
	<path class="st4" d="M7.6,5.5C7.4,5.7,7.2,6,7.2,6.5v16c0,0.4,0.1,0.8,0.3,1l0,0l9-9v-0.1v-0.1L7.6,5.5L7.6,5.5z"/>
	<path class="st4" d="M19.6,17.6l-3-3v-0.1v-0.1l3-3h0.1l3.5,2c1,0.5,1,1.5,0,2.1L19.6,17.6L19.6,17.6z"/>
	<path class="st4" d="M19.7,17.6l-3.1-3.1l-9,9c0.3,0.3,0.9,0.4,1.5,0L19.7,17.6"/>
	<path class="st4" d="M19.7,11.4L9,5.5c-0.7-0.3-1.2-0.3-1.5,0l9,9L19.7,11.4z"/>
	<g>
		<path class="st5" d="M19.6,17.5L9,23.5c-0.5,0.3-1.1,0.3-1.4,0l0,0l0,0l0,0l0,0l0,0c0.3,0.3,0.9,0.3,1.4,0L19.6,17.5L19.6,17.5z"
			/>
		<path class="st6" d="M7.6,23.4c-0.2-0.2-0.3-0.5-0.3-1v0.1C7.2,23,7.4,23.3,7.6,23.4L7.6,23.4L7.6,23.4z"/>
	</g>
	<path class="st6" d="M23.2,15.5l-3.6,2.1l0.1,0.1L23.2,15.5c0.5-0.2,0.8-0.5,0.8-1l0,0C23.9,14.8,23.6,15.2,23.2,15.5z"/>
	<path class="st7" d="M9,5.6l14.2,8c0.4,0.2,0.8,0.5,0.8,1l0,0c0-0.3-0.2-0.8-0.8-1.1L9,5.6C8,4.8,7.2,5.4,7.2,6.5v0.1
		C7.2,5.5,8,4.9,9,5.6z"/>
</g>
</svg>
