<svg height="511pt" viewBox="1 -22 511.99998 511" width="511pt" xmlns="http://www.w3.org/2000/svg"><path d="m436.46875 34.90625v334.714844c0 14.804687-11.992188 26.796875-26.796875 26.796875h-375.269531c-14.804688 0-26.796875-11.992188-26.796875-26.796875v-334.714844c0-14.804688 11.992187-26.796875 26.796875-26.796875h375.269531c14.804687 0 26.796875 11.992187 26.796875 26.796875zm0 0" fill="#c4e2f2"/><path d="m436.46875 34.90625v32.007812h-428.863281v-32.007812c0-14.804688 11.992187-26.796875 26.796875-26.796875h375.269531c14.804687 0 26.796875 11.992187 26.796875 26.796875zm0 0" fill="#83b2c6"/><path d="m246.289062 131.257812c-19.632812-11.335937-35.453124-37.703124-56.601562-37.683593-21.816406.019531-37.703125 26.78125-56.605469 37.671875-18.328125 10.558594-49.5625 10.558594-60.894531 30.191406-11.335938 19.632812 4.28125 46.683594 4.296875 67.832031.023437 21.820313-15.210937 48.957031-4.320313 67.859375 10.558594 18.324219 41.304688 18.84375 60.9375 30.179688 19.632813 11.332031 35.453126 37.703125 56.601563 37.683594 21.820313-.019532 37.703125-26.78125 56.609375-37.675782 18.324219-10.554687 49.558594-10.558594 60.894531-30.191406 11.332031-19.632812-4.28125-46.683594-4.300781-67.832031-.019531-21.816407 15.214844-48.953125 4.320312-67.859375-10.558593-18.324219-41.304687-18.839844-60.9375-30.175782zm0 0" fill="#ff491f"/><path d="m504.394531 348.308594c0 61.992187-50.25 112.246094-112.242187 112.246094-61.988282 0-112.242188-50.253907-112.242188-112.246094 0-61.988282 50.253906-112.242188 112.242188-112.242188 61.992187 0 112.242187 50.253906 112.242187 112.242188zm0 0" fill="#ffe14d"/><path d="m471.519531 348.308594c0 43.839844-35.535156 79.375-79.367187 79.375-4.90625 0-9.710938-.445313-14.375-1.296875-36.964844-6.765625-64.988282-39.148438-64.988282-78.078125 0-38.921875 28.023438-71.308594 64.988282-78.070313 4.664062-.851562 9.46875-1.296875 14.375-1.296875 43.832031 0 79.367187 35.535156 79.367187 79.367188zm0 0" fill="#fff"/><path d="m442.765625 348.308594c0 38.929687-28.023437 71.3125-64.988281 78.078125-36.964844-6.765625-64.988282-39.148438-64.988282-78.078125 0-38.921875 28.023438-71.308594 64.988282-78.070313 36.964844 6.761719 64.988281 39.148438 64.988281 78.070313zm0 0" fill="#e6e6e6"/><path d="m36.0625 42.441406c1.164062 2.8125 3.984375 4.695313 7.027344 4.695313 3.1875 0 6.074218-2.054688 7.152344-5.039063 1.054687-2.917968.164062-6.292968-2.1875-8.3125-2.609376-2.242187-6.484376-2.441406-9.308594-.484375-2.914063 2.023438-3.992188 5.863281-2.683594 9.140625zm0 0"/><path d="m87.773438 42.441406c2.59375 6.285156 11.890624 6.050782 14.175781-.34375 1.042969-2.921875.167969-6.289062-2.1875-8.3125-2.574219-2.214844-6.355469-2.429687-9.183594-.570312-3.007813 1.984375-4.136719 5.910156-2.804687 9.226562zm0 0"/><path d="m64.71875 45.859375c5.816406 3.835937 13.542969-1.824219 11.496094-8.527344-1.984375-6.503906-11.3125-7.230469-14.175782-.972656-1.527343 3.335937-.40625 7.46875 2.679688 9.5zm0 0"/><path d="m482.058594 269.058594c-2.777344-3.148438-7.582032-3.449219-10.734375-.671875-3.148438 2.777343-3.449219 7.582031-.671875 10.734375 16.855468 19.105468 26.140625 43.679687 26.140625 69.1875 0 57.699218-46.941407 104.640625-104.640625 104.640625-57.699219 0-104.640625-46.941407-104.640625-104.640625 0-57.695313 46.941406-104.636719 104.640625-104.636719 22.742187 0 44.367187 7.167969 62.535156 20.734375 3.367188 2.511719 8.128906 1.820312 10.644531-1.546875 2.511719-3.363281 1.820313-8.128906-1.546875-10.640625-20.8125-15.542969-45.585937-23.757812-71.632812-23.757812-29.164063 0-55.925782 10.476562-76.730469 27.859374-.339844-1.441406-.6875-2.875-1.03125-4.296874-1.996094-8.238282-3.878906-16.019532-3.882813-22.734376-.007812-7.117187 1.886719-15.191406 3.890626-23.738281 3.84375-16.386719 7.816406-33.335937-.582032-47.921875-8.125-14.089844-24.515625-19.132812-40.367187-24.003906-8.257813-2.539062-16.796875-5.164062-23.359375-8.953125-6.558594-3.789063-13.101563-9.867187-19.425782-15.746094-12.144531-11.289062-24.699218-22.957031-40.957031-22.957031-.007812 0-.023437 0-.03125 0-16.824219.015625-29.507812 11.925781-41.777343 23.449219-.972657.910156-1.941407 1.824219-2.914063 2.726562-3.074219 2.863281-3.246094 7.671875-.386719 10.746094 2.859375 3.078125 7.671875 3.25 10.746094.390625.988281-.921875 1.976562-1.847656 2.964844-2.777344 10.578125-9.933594 20.570312-19.320312 31.382812-19.328125h.015625c10.28125 0 20.152344 9.175781 30.601563 18.886719 6.945312 6.457031 14.128906 13.132812 22.179687 17.78125s17.425781 7.53125 26.492188 10.316406c13.640625 4.195313 26.523437 8.15625 31.660156 17.0625 5.398437 9.371094 2.265625 22.722656-1.050781 36.859375-2.113282 9.015625-4.300782 18.339844-4.289063 27.222657.003907 8.519531 2.195313 17.558593 4.308594 26.296874 1.0625 4.382813 2.148437 8.878907 2.933594 13.21875-9.980469 11.238282-17.886719 24.355469-23.105469 38.75-3.867188 1.351563-7.960938 2.5625-11.953125 3.734376-8.640625 2.542968-17.578125 5.167968-24.972656 9.425781-7.691407 4.429687-14.671875 10.984375-21.417969 17.324219-10.585938 9.9375-20.582031 19.324218-31.394531 19.335937-.007813 0-.011719 0-.019531 0-10.28125 0-20.152344-9.175781-30.601563-18.890625-6.945313-6.453125-14.128906-13.128906-22.175781-17.777344-8.050782-4.648437-17.421875-7.53125-26.484375-10.316406-13.644531-4.195312-26.527344-8.160156-31.664063-17.078125-5.402344-9.367187-2.269531-22.714844 1.042969-36.851563 2.113281-9.011718 4.300781-18.335937 4.292969-27.21875-.007813-8.523437-2.199219-17.566406-4.320313-26.316406-3.457031-14.285156-6.726562-27.777344-.996093-37.699218 5.730468-9.929688 19.050781-13.847657 33.160156-17.992188 8.632812-2.539062 17.558594-5.160156 24.941406-9.414062 3.640625-2.097657 4.890625-6.746094 2.792969-10.386719-2.09375-3.636719-6.746094-4.890625-10.382813-2.792969-5.816406 3.351562-13.503906 5.609375-21.640625 8.003906-15.59375 4.582032-33.269531 9.777344-42.042969 24.976563-8.769531 15.191406-4.433593 33.09375-.609374 48.886719 1.996093 8.246093 3.882812 16.035156 3.890624 22.75.003907 7.117187-1.886718 15.1875-3.890624 23.734374-3.84375 16.390626-7.816407 33.339844.585937 47.914063 8.117187 14.101563 24.511719 19.144531 40.367187 24.019531 8.257813 2.539063 16.792969 5.164063 23.351563 8.953125 6.558594 3.789063 13.101563 9.867188 19.425781 15.746094 12.144532 11.289063 24.699219 22.957031 40.957032 22.957031h.03125c16.828124-.015625 29.519531-11.933594 41.792968-23.457031 6.394532-6.007813 12.4375-11.683594 18.597656-15.230469 5.828126-3.351562 13.523438-5.617187 21.671876-8.011718.929687-.273438 1.867187-.550782 2.804687-.832032-1.484375 7.523438-2.273437 15.292969-2.273437 23.242188 0 14.210937 2.492187 27.84375 7.050781 40.503906h-244.953125c-10.585938 0-19.195313-8.609375-19.195313-19.195312v-295.101563h413.660157v148.558594c0 4.199219 3.402343 7.605469 7.601562 7.605469s7.605469-3.40625 7.605469-7.605469v-188.171875c0-18.96875-15.433594-34.402344-34.402344-34.402344h-375.269531c-18.96875 0-34.402344 15.433594-34.402344 34.402344v334.714844c0 18.96875 15.433594 34.402343 34.402344 34.402343h251.664062c20.089844 38.101563 60.101563 64.136719 106.085938 64.136719 66.085937 0 119.847656-53.761719 119.847656-119.847656 0-29.214844-10.632812-57.359375-29.941406-79.25zm-447.65625-253.351563h375.269531c10.585937 0 19.195313 8.609375 19.195313 19.195313v24.40625h-413.660157v-24.40625c0-10.585938 8.609375-19.195313 19.195313-19.195313zm0 0"/><path d="m392.152344 261.339844c-47.957032 0-86.972656 39.015625-86.972656 86.96875 0 47.957031 39.015624 86.972656 86.972656 86.972656 47.957031 0 86.972656-39.015625 86.972656-86.972656 0-47.953125-39.015625-86.96875-86.972656-86.96875zm0 158.734375c-39.570313 0-71.761719-32.195313-71.761719-71.765625 0-39.570313 32.191406-71.761719 71.761719-71.761719 39.570312 0 71.765625 32.191406 71.765625 71.761719 0 39.570312-32.195313 71.765625-71.765625 71.765625zm0 0"/><path d="m392.152344 306.210938c4.199218 0 7.605468-3.402344 7.605468-7.601563v-7.4375c0-4.199219-3.40625-7.601563-7.605468-7.601563-4.199219 0-7.605469 3.402344-7.605469 7.601563v7.4375c0 4.199219 3.40625 7.601563 7.605469 7.601563zm0 0"/><path d="m392.152344 390.699219c-4.199219 0-7.605469 3.40625-7.605469 7.605469v7.433593c0 4.199219 3.40625 7.605469 7.605469 7.605469 4.199218 0 7.605468-3.40625 7.605468-7.605469v-7.433593c0-4.199219-3.40625-7.605469-7.605468-7.605469zm0 0"/><path d="m434.398438 348.457031c0 4.199219 3.402343 7.601563 7.601562 7.601563h7.4375c4.199219 0 7.601562-3.402344 7.601562-7.601563s-3.402343-7.605469-7.601562-7.605469h-7.4375c-4.199219 0-7.601562 3.40625-7.601562 7.605469zm0 0"/><path d="m342.304688 340.851562h-7.433594c-4.199219 0-7.605469 3.40625-7.605469 7.605469s3.40625 7.601563 7.605469 7.601563h7.433594c4.199218 0 7.605468-3.402344 7.605468-7.601563s-3.40625-7.605469-7.605468-7.605469zm0 0"/><path d="m407.40625 340.707031h-7.648438v-14.726562c0-4.199219-3.40625-7.601563-7.605468-7.601563-4.199219 0-7.605469 3.402344-7.605469 7.601563v22.328125c0 4.199218 3.40625 7.605468 7.605469 7.605468h15.253906c4.199219 0 7.601562-3.40625 7.601562-7.605468 0-4.199219-3.402343-7.601563-7.601562-7.601563zm0 0"/><path d="m118.222656 247.539062c-4.5625 0-7.054687-2.09375-9.058594-3.773437-1.328124-1.117187-2.476562-2.082031-3.871093-2.078125-2.761719 0-4.839844 3.535156-4.839844 5.828125 0 4.691406 7.730469 9.9375 18.070313 9.9375 11.476562 0 18.605468-6.519531 18.605468-17.007813 0-11.976562-8.765625-15.695312-15.808594-18.683593-4.804687-2.039063-8.601562-3.648438-8.601562-7.171875 0-3.398438 2.949219-5.347656 8.085938-5.347656 3.851562 0 5.914062 1.058593 7.566406 1.910156 1.027344.527344 1.914062.980468 2.929687.980468 3.113281 0 4.460938-3.808593 4.460938-5.753906 0-5.199218-9.402344-6.589844-14.957031-6.589844-9.175782 0-18.984376 4.128907-18.984376 15.714844 0 10.367188 7.746094 13.808594 14.582032 16.839844 5.273437 2.34375 9.828125 4.363281 9.828125 9.089844 0 4.5-4.136719 6.105468-8.007813 6.105468zm0 0"/><path d="m154.144531 254.421875 2.785157-9.746094h16.644531l2.785156 9.734375c.28125 1.074219 1.175781 2.355469 3.835937 2.355469 2.746094 0 6.742188-1.796875 6.742188-4.613281 0-.246094-.058594-.46875-.121094-.703125l-14.730468-48.03125c-.820313-2.730469-4.085938-3.707031-6.871094-3.707031-2.621094 0-5.976563.972656-6.796875 3.707031l-14.679688 47.851562c-.101562.402344-.167969.683594-.167969.882813 0 2.859375 3.925782 4.613281 6.742188 4.613281 2.65625 0 3.550781-1.28125 3.832031-2.34375zm5.125-18.515625 5.945313-20.976562 5.941406 20.976562zm0 0"/><path d="m201.183594 200.167969c-3.308594 0-5.449219 1.394531-5.449219 3.550781v49.421875c0 2.492187 2.511719 3.625 4.839844 3.625h24.105469c2.277343 0 3.472656-2.433594 3.472656-4.839844 0-1.242187-.292969-2.398437-.816406-3.257812-.625-1.023438-1.566407-1.585938-2.65625-1.585938h-18.046876v-43.363281c0-2.453125-2.734374-3.550781-5.449218-3.550781zm0 0"/><path d="m269.011719 209.851562c2.136719 0 3.625-2.023437 3.625-4.917968 0-2.296875-1.136719-4.765625-3.625-4.765625h-27.070313c-2.328125 0-4.839844 1.132812-4.839844 3.625v49.347656c0 2.488281 2.511719 3.625 4.839844 3.625h27.070313c2.492187 0 3.625-2.46875 3.625-4.765625 0-2.894531-1.488281-4.917969-3.625-4.917969h-21.011719v-14.269531h11.050781c2.378907 0 3.625-2.167969 3.625-4.308594 0-2.214844-1.246093-4.460937-3.625-4.460937h-11.050781v-14.191407zm0 0"/><path d="m406.191406 122.011719h-59.308594c-4.199218 0-7.601562 3.40625-7.601562 7.605469 0 4.199218 3.402344 7.605468 7.601562 7.605468h59.308594c4.199219 0 7.605469-3.40625 7.605469-7.605468 0-4.199219-3.40625-7.605469-7.605469-7.605469zm0 0"/><path d="m406.191406 152.425781h-59.308594c-4.199218 0-7.601562 3.40625-7.601562 7.605469s3.402344 7.605469 7.601562 7.605469h59.308594c4.199219 0 7.605469-3.40625 7.605469-7.605469s-3.40625-7.605469-7.605469-7.605469zm0 0"/><path d="m406.191406 185.878906h-59.308594c-4.199218 0-7.601562 3.40625-7.601562 7.605469s3.402344 7.605469 7.601562 7.605469h59.308594c4.199219 0 7.605469-3.40625 7.605469-7.605469s-3.40625-7.605469-7.605469-7.605469zm0 0"/></svg>