<?xml version="1.0" encoding="iso-8859-1"?>
<!-- Generator: Adobe Illustrator 19.0.0, SVG Export Plug-In . SVG Version: 6.00 Build 0)  -->
<svg version="1.1" id="Capa_1" xmlns="http://www.w3.org/2000/svg" xmlns:xlink="http://www.w3.org/1999/xlink" x="0px" y="0px"
	 viewBox="0 0 480.001 480.001" style="enable-background:new 0 0 480.001 480.001;" xml:space="preserve">
<path style="fill:#CBCFD3;" d="M168.001,80.001h144v88h-144V80.001z"/>
<path style="fill:#E1E4E7;" d="M168.001,168.001l72-64l72,64H168.001z"/>
<path style="fill:#EFF2FA;" d="M168.001,80.001l72,64l72-64H168.001z"/>
<path style="fill:#E1E4E7;" d="M8.001,248.001h304v224h-304V248.001z"/>
<path style="fill:#1598FC;" d="M40.001,280.001h64v64h-64V280.001z"/>
<g>
	<path style="fill:#505968;" d="M360.001,223.996l24.002-24.002l47.999,47.999L408,271.995L360.001,223.996z"/>
	<path style="fill:#505968;" d="M448.001,256.001h24v32h-24V256.001z"/>
</g>
<g>
	<circle style="fill:#FAA41B;" cx="360.001" cy="200.001" r="24"/>
	<circle style="fill:#FAA41B;" cx="432.001" cy="272.001" r="24"/>
</g>
<g>
	<path style="fill:#505968;" d="M48.005,80.004l47.999-47.999l24.002,24.002l-47.999,47.999L48.005,80.004z"/>
	<path style="fill:#505968;" d="M8.001,88.001h24v32h-24V88.001z"/>
</g>
<g>
	<circle style="fill:#FAA41B;" cx="120.001" cy="32.001" r="24"/>
	<circle style="fill:#FAA41B;" cx="48.001" cy="104.001" r="24"/>
</g>
<path d="M165.201,72.569c-0.275,0.11-0.542,0.238-0.8,0.384c-0.574,0.295-1.111,0.658-1.6,1.08c-0.238,0.198-0.465,0.409-0.68,0.632
	c-0.47,0.532-0.868,1.124-1.184,1.76c-0.104,0.208-0.248,0.376-0.336,0.592c-0.024,0.05-0.05,0.098-0.08,0.144
	c-0.308,0.849-0.471,1.745-0.48,2.648v0.192v88v0.192c0.009,0.903,0.172,1.799,0.48,2.648c0.03,0.046,0.056,0.094,0.08,0.144
	c0.088,0.216,0.232,0.384,0.336,0.592c0.318,0.635,0.715,1.227,1.184,1.76c0.215,0.223,0.442,0.434,0.68,0.632
	c0.489,0.422,1.026,0.785,1.6,1.08c0.258,0.146,0.525,0.274,0.8,0.384c0.891,0.359,1.84,0.552,2.8,0.568h144
	c0.96-0.016,1.909-0.209,2.8-0.568c0.275-0.11,0.542-0.238,0.8-0.384c0.574-0.295,1.111-0.658,1.6-1.08
	c0.238-0.198,0.465-0.409,0.68-0.632c0.472-0.531,0.87-1.123,1.184-1.76c0.104-0.208,0.248-0.376,0.336-0.6l0.08-0.136
	c0.308-0.849,0.471-1.745,0.48-2.648c0-0.064,0.04-0.12,0.04-0.192v-88c0-0.072-0.04-0.128-0.04-0.192
	c-0.009-0.903-0.172-1.799-0.48-2.648l-0.08-0.136c-0.102-0.207-0.217-0.407-0.344-0.6c-0.311-0.637-0.706-1.229-1.176-1.76
	c-0.215-0.223-0.442-0.434-0.68-0.632c-0.487-0.422-1.024-0.782-1.6-1.072c-0.256-0.151-0.523-0.282-0.8-0.392
	c-0.891-0.359-1.84-0.551-2.8-0.568h-144C167.041,72.018,166.092,72.211,165.201,72.569z M176.001,97.809l29.464,26.192
	l-29.464,26.192V97.809z M189.041,160.001l28.464-25.304l17.184,15.28c3.03,2.691,7.594,2.691,10.624,0l17.184-15.28l28.464,25.304
	H189.041z M274.537,124.001l29.464-26.192v52.384L274.537,124.001z M290.961,88.001l-50.96,45.296l-50.96-45.296H290.961z"/>
<path d="M312.001,240.001h-304c-4.418,0-8,3.582-8,8v224c0,4.418,3.582,8,8,8h304c4.418,0,8-3.582,8-8v-224
	C320.001,243.583,316.419,240.001,312.001,240.001z M304.001,464.001h-288v-208h288V464.001z"/>
<path d="M40.001,352.001h64c4.418,0,8-3.582,8-8v-64c0-4.418-3.582-8-8-8h-64c-4.418,0-8,3.582-8,8v64
	C32.001,348.42,35.582,352.001,40.001,352.001z M48.001,288.001h48v48h-48V288.001z"/>
<path d="M480.001,256.001c0-4.418-3.582-8-8-8h-19.056c-4.843-4.237-10.863-6.896-17.256-7.624l-44.064-44.064
	c-1.947-17.472-17.69-30.057-35.162-28.11c-13.176,1.469-24.061,10.949-27.326,23.798h-41.136c-4.418,0-8,3.582-8,8v32
	c0,4.418,3.582,8,8,8s8-3.582,8-8v-24h33.136c2.913,11.202,11.662,19.951,22.864,22.864v33.136h-24c-4.418,0-8,3.582-8,8
	s3.582,8,8,8h32c4.418,0,8-3.582,8-8v-28.688l32.376,32.376c1.868,17.405,17.492,30.001,34.897,28.133
	c6.561-0.704,12.738-3.438,17.671-7.821h19.056c4.418,0,8-3.582,8-8s-3.582-8-8-8h-9.136c1.515-5.226,1.515-10.774,0-16h9.136
	C476.419,264.002,480.001,260.42,480.001,256.001L480.001,256.001z M404.049,256.737l-28.8-28.8
	c5.351-2.935,9.753-7.337,12.688-12.688l28.8,28.8C411.386,246.984,406.984,251.386,404.049,256.737L404.049,256.737z
	 M344.001,200.001c0-8.837,7.163-16,16-16s16,7.163,16,16s-7.163,16-16,16S344.001,208.838,344.001,200.001z M416.001,272.001
	c0-8.837,7.163-16,16-16s16,7.163,16,16s-7.163,16-16,16S416.001,280.838,416.001,272.001z"/>
<path d="M0.001,120.001c0,4.418,3.582,8,8,8h19.056c13.086,11.627,33.12,10.445,44.747-2.641c4.383-4.933,7.117-11.11,7.821-17.671
	l32.376-32.376v28.688c0,4.418,3.582,8,8,8h32c4.418,0,8-3.582,8-8s-3.582-8-8-8h-24V62.865
	c11.202-2.913,19.951-11.662,22.864-22.864h33.136v24c0,4.418,3.582,8,8,8s8-3.582,8-8v-32c0-4.418-3.582-8-8-8h-41.136
	c-4.329-17.039-21.651-27.343-38.69-23.014c-12.849,3.264-22.329,14.15-23.798,27.326L44.313,72.377
	c-6.393,0.728-12.413,3.387-17.256,7.624H8.001c-4.418,0-8,3.582-8,8s3.582,8,8,8h9.136c-1.515,5.226-1.515,10.774,0,16H8.001
	C3.582,112.001,0.001,115.583,0.001,120.001z M48.001,120.001c-8.837,0-16-7.163-16-16s7.163-16,16-16s16,7.163,16,16
	S56.837,120.001,48.001,120.001z M104.737,59.953l-28.8,28.8C73.002,83.402,68.6,79,63.249,76.065l28.8-28.8
	C94.984,52.617,99.386,57.019,104.737,59.953z M120.001,16.001c8.837,0,16,7.163,16,16s-7.163,16-16,16c-8.837,0-16-7.163-16-16
	S111.164,16.001,120.001,16.001z"/>
<path d="M136.001,304.001h144c4.418,0,8-3.582,8-8s-3.582-8-8-8h-144c-4.418,0-8,3.582-8,8S131.582,304.001,136.001,304.001z"/>
<path d="M136.001,336.001h144c4.418,0,8-3.582,8-8s-3.582-8-8-8h-144c-4.418,0-8,3.582-8,8S131.582,336.001,136.001,336.001z"/>
<path d="M40.001,384.001h240c4.418,0,8-3.582,8-8s-3.582-8-8-8h-240c-4.418,0-8,3.582-8,8S35.582,384.001,40.001,384.001z"/>
<path d="M40.001,416.001h240c4.418,0,8-3.582,8-8s-3.582-8-8-8h-240c-4.418,0-8,3.582-8,8S35.582,416.001,40.001,416.001z"/>
<path d="M40.001,448.001h240c4.418,0,8-3.582,8-8s-3.582-8-8-8h-240c-4.418,0-8,3.582-8,8S35.582,448.001,40.001,448.001z"/>
<g>
</g>
<g>
</g>
<g>
</g>
<g>
</g>
<g>
</g>
<g>
</g>
<g>
</g>
<g>
</g>
<g>
</g>
<g>
</g>
<g>
</g>
<g>
</g>
<g>
</g>
<g>
</g>
<g>
</g>
</svg>
