<svg height="511pt" viewBox="0 0 511 511.8976" width="511pt" xmlns="http://www.w3.org/2000/svg"><path d="m503.617188 354.636719c-.039063-58.234375-47.238282-105.433594-105.472657-105.472657h-1.449219l-1.621093 2.390626-67.414063 98.902343c-1.117187 16.09375-.167968 32.269531 2.816406 48.125 2.957032 12.039063 9.90625 22.714844 19.710938 30.292969 3.847656 2.699219 8.441406 4.132812 13.140625 4.097656 2.511719-.085937 4.988281-.574218 7.339844-1.449218 8.488281-3.105469 14.5-10.734376 15.53125-19.714844.167969 7.421875 1.140625 14.804687 2.902343 22.015625 2.957032 12.011719 9.910157 22.664062 19.710938 30.210937 3.90625 2.777344 8.605469 4.210938 13.398438 4.09375 12.636718-.464844 22.652343-10.820312 22.699218-23.464844v-78.25l.253906.085938v53.417969c0 6.570312-.253906 13.140625-.171874 19.710937-.285157 9.875.71875 19.742188 2.988281 29.355469 2.96875 12.007813 9.878906 22.675781 19.625 30.292969 5.984375 4.257812 13.699219 5.25 20.566406 2.644531 9.320313-3.367187 15.554687-12.191406 15.617187-22.101563zm0 0" fill="#00bad2"/><path d="m101.015625 126.140625c.617187-.101563 1.242187-.140625 1.867187-.121094h43.042969c-8.960937.007813-36.164062.46875-44.910156.121094zm60.859375 58.511719c-16.085938 1.140625-32.25.195312-48.09375-2.816406-16.914062-4.480469-40.464844-19.566407-32.914062-40.214844 3.085937-8.464844 10.679687-14.460938 19.628906-15.507813-7.410156-.148437-14.78125-1.121093-21.976563-2.902343-16.835937-4.394532-40.386719-19.625-32.921875-40.214844 3.355469-9.304688 12.15625-15.527344 22.042969-15.589844h78.269531l-.078125-.257812h-53.402343c-6.628907 0-13.183594.246093-19.738282.171874-9.867187.292969-19.734375-.710937-29.34375-2.988281-16.835937-4.386719-40.464844-19.558593-32.921875-40.207031 3.363281-9.304688 12.164063-15.527344 22.058594-15.589844l125.199219.167969c58.238281.027344 105.441406 47.234375 105.464844 105.472656v1.492188zm0 0" fill="#00bad2"/><path d="m503.617188 354.636719c-.039063-58.234375-47.238282-105.433594-105.472657-105.472657h-1.449219l-1.621093 2.390626c48.398437 10.664062 82.882812 53.523437 82.945312 103.082031l.167969 125.183593c-.007812 7.859376-3.988281 15.179688-10.582031 19.457032 5.984375 4.257812 13.699219 5.25 20.566406 2.644531 9.320313-3.367187 15.554687-12.191406 15.617187-22.101563zm0 0" fill="#00818d"/><path d="m478.1875 479.820312c-.007812 7.859376-3.988281 15.179688-10.582031 19.457032-9.746094-7.617188-16.65625-18.285156-19.625-30.292969-2.269531-9.613281-3.273438-19.480469-2.988281-29.355469-.082032-6.570312.171874-13.140625.171874-19.710937v-53.417969l-.253906-.085938v78.25c-.046875 12.644532-10.0625 23-22.699218 23.464844-4.792969.117188-9.492188-1.316406-13.398438-4.09375-9.800781-7.546875-16.753906-18.199218-19.710938-30.210937-1.761718-7.210938-2.734374-14.59375-2.902343-22.015625-1.03125 8.980468-7.042969 16.609375-15.53125 19.714844-2.351563.875-4.828125 1.363281-7.339844 1.449218-4.699219.035156-9.292969-1.398437-13.140625-4.097656-9.804688-7.578125-16.753906-18.253906-19.710938-30.292969-2.984374-15.855469-3.933593-32.03125-2.816406-48.125l67.414063-98.902343c48.398437 10.664062 82.882812 53.523437 82.945312 103.082031zm0 0" fill="#00bad2"/><path d="m260.503906 220.835938-114.175781-12.714844c-.246094-4.804688 1.550781-9.484375 4.949219-12.886719l83.625-83.625c3.453125-3.535156 8.300781-5.347656 13.226562-4.953125zm0 0" fill="#ff9601"/><path d="m304.277344 365.902344c-4.269532-.09375-8.335938-1.835938-11.347656-4.867188l-141.652344-141.652344c-3.03125-2.984374-4.800782-7.015624-4.949219-11.261718l114.175781 12.714844 2.046875 18.601562c.582031 5.445312 4.882813 9.746094 10.324219 10.324219l18.6875 2.132812zm0 0" fill="#f37c00"/><path d="m405.742188 264.867188c.160156 4.6875-1.632813 9.230468-4.949219 12.542968l-83.714844 83.625c-3.355469 3.40625-8.027344 5.183594-12.800781 4.867188l-12.714844-114.007813zm0 0" fill="#ff9601"/><path d="m405.742188 264.867188-114.179688-12.972657-18.6875-2.132812c-5.441406-.578125-9.742188-4.878907-10.324219-10.324219l-2.046875-18.601562-12.375-114.179688c4.117188.289062 7.992188 2.046875 10.921875 4.953125l141.742188 141.652344c3.125 3.054687 4.90625 7.230469 4.949219 11.605469zm0 0" fill="#fcbf08"/><path d="m400.296875 240.742188-128.710937-128.714844c-1.207032-62.066406-51.816407-111.769532-113.890626-111.855469l-125.210937-.171875c-13.492187.0234375-25.519531 8.5-30.082031 21.195312-3.09375 8.195313-2.4921878 17.332032 1.65625 25.046876 8.460937 13.285156 21.773437 22.738281 37.105468 26.351562l.246094.058594c-1.605468 2.300781-2.902344 4.804687-3.859375 7.441406-3.0625 8.195312-2.441406 17.316406 1.707031 25.019531 8.453126 13.289063 21.765626 22.746094 37.097657 26.359375h.125c-1.527344 2.230469-2.765625 4.644532-3.683594 7.183594-3.089844 8.175781-2.503906 17.285156 1.609375 24.996094 8.488281 13.289062 21.808594 22.757812 37.148438 26.402344 9.917968 2.386718 20.101562 3.492187 30.300781 3.285156-6.570313 10.128906-5.167969 23.472656 3.363281 32.015625l141.710938 141.738281c8.546874 8.53125 21.886718 9.933594 32.019531 3.363281-.203125 10.214844.902343 20.414063 3.292969 30.34375 3.636718 15.339844 13.105468 28.660157 26.394531 37.136719 7.691406 4.121094 16.789062 4.714844 24.949219 1.632812 2.5625-.925781 4.992187-2.171874 7.238281-3.714843v.15625c3.617187 15.320312 13.074219 28.625 26.359375 37.078125 7.6875 4.15625 16.800781 4.777344 24.984375 1.703125 2.652343-.945313 5.164062-2.25 7.46875-3.871094l.058593.230469c3.605469 15.339844 13.0625 28.664062 26.351563 37.136718 4.394531 2.347657 9.300781 3.585938 14.285156 3.609376 3.652344-.015626 7.273438-.671876 10.699219-1.945313 12.742188-4.542969 21.261719-16.597656 21.289062-30.125l-.167968-125.191406c-.085938-62.074219-49.792969-112.6875-111.855469-113.894531zm-78.652344 103.738281-10.0625 10.054687-10.324219-93.015625 92.960938 10.351563zm-81.1875-226.378907 10.34375 93.011719-93.011719-10.382812zm17.691407 4.617188 131.464843 131.464844-115.773437-12.878906c-1.484375-.15625-2.660156-1.328126-2.816406-2.816407zm-168.601563 33.074219c-1.925781-3.464844-2.179687-7.613281-.691406-11.289063 1.902343-5.203125 6.472656-8.96875 11.945312-9.832031h.691407l1.707031.042969h8.695312c6.65625 0 14.601563-.074219 21.582031-.144532 5.121094-.050781 9.652344-.101562 12.398438-.101562 4.710938 0 8.53125-3.820312 8.53125-8.535156 0-4.710938-3.820312-8.53125-8.53125-8.53125h-43.023438c-.691406 0-1.460937 0-2.203124.09375-6.738282-.109375-13.445313-.96875-19.992188-2.5625-10.671875-2.445313-20.039062-8.785156-26.277344-17.78125-1.949218-3.457032-2.230468-7.609375-.765625-11.296875 2.121094-5.878907 7.660157-9.828125 13.910157-9.917969h78.394531c2.753906-.042969 5.320312-1.410156 6.886719-3.675781 1.601562-2.285157 2.015624-5.195313 1.117187-7.835938-1.171875-3.464843-4.421875-5.800781-8.082031-5.800781h-53.410156c-2.890626 0-5.769532.050781-8.636719.09375-3.675781.050781-7.34375.117188-11.089844.066406-9.132813.292969-18.265625-.625-27.15625-2.730468-10.695313-2.417969-20.101563-8.746094-26.375-17.738282-1.941406-3.472656-2.203125-7.636718-.71875-11.324218 2.167969-5.894532 7.742187-9.84375 14.023437-9.925782l125.207032.171875c47.6875.085938 88.238281 34.8125 95.660156 81.917969-8.710938-2.238281-17.960938.179688-24.457031 6.402344l-70.621094 70.621094c-2.003906 0-4.003906 0-5.972656.066406-12.175781.785156-24.402344-.101563-36.335938-2.636719-10.707031-2.457031-20.121093-8.808594-26.410156-17.816406zm72.90625 62.652343 90.285156 10.078126 1.3125 11.851562c1.003907 9.453125 8.46875 16.917969 17.921875 17.921875l11.902344 1.328125 9.992188 90.292969zm322.808594 275.4375c-3.671875 1.480469-7.816407 1.210938-11.261719-.734374-8.996094-6.265626-15.328125-15.667969-17.757812-26.359376-2.113282-8.941406-3.027344-18.121093-2.714844-27.304687-.050782-3.652344 0-7.304687.078125-10.972656.042969-2.867188.09375-5.753907.09375-8.65625v-53.367188c-.105469-3.734375-2.539063-7-6.085938-8.171875-2.601562-.867187-5.460937-.429687-7.6875 1.171875-2.226562 1.605469-3.542969 4.179688-3.542969 6.925781v78.34375c-.070312 6.28125-4.042968 11.855469-9.957031 13.96875-3.6875 1.449219-7.828125 1.164063-11.28125-.777343-8.984375-6.242188-15.320312-15.605469-17.773437-26.265625-1.613282-6.550782-2.492188-13.257813-2.621094-20 .058594-.753906.085938-1.519532.085938-2.203125v-43.035157c0-4.710937-3.820313-8.53125-8.535157-8.53125-4.710937 0-8.53125 3.820313-8.53125 8.53125 0 2.742188 0 7.222657-.09375 12.359376 0 2.6875-.0625 5.519531-.085937 8.371093-.078125 9.027344-.113282 18.140625.042968 23.304688v1.003906c-.867187 5.5-4.644531 10.09375-9.875 12-3.667968 1.46875-7.800781 1.210937-11.253906-.707031-8.992187-6.28125-15.332031-15.675782-17.792968-26.363282-2.527344-11.941406-3.414063-24.175781-2.628907-36.359374 0-2.003907 0-3.992188.058594-5.972657l70.625-70.628906c6.359375-6.398437 8.871094-15.683594 6.59375-24.414063 47.011719 7.5 81.632813 48 81.726563 95.605469l.167968 125.203125c-.089844 6.300782-4.066406 11.886719-9.992187 14.035156zm0 0"/><path d="m51.523438 315.46875c2.261718 0 4.429687-.898438 6.03125-2.5l59.734374-59.734375c3.234376-3.347656 3.1875-8.667969-.105468-11.960937-3.289063-3.292969-8.613282-3.339844-11.960938-.105469l-59.734375 59.734375c-2.4375 2.441406-3.167969 6.109375-1.847656 9.296875 1.320313 3.191406 4.429687 5.269531 7.882813 5.269531zm0 0"/><path d="m45.488281 398.300781c3.332031 3.332031 8.734375 3.332031 12.066407 0l59.734374-59.730469c3.234376-3.351562 3.1875-8.671874-.105468-11.964843-3.289063-3.289063-8.613282-3.335938-11.960938-.101563l-59.734375 59.730469c-3.332031 3.332031-3.332031 8.734375 0 12.066406zm0 0"/><path d="m202.621094 326.503906c-3.332032-3.332031-8.734375-3.332031-12.066406 0l-93.867188 93.863282c-2.21875 2.144531-3.105469 5.316406-2.324219 8.300781.777344 2.984375 3.109375 5.3125 6.09375 6.09375s6.15625-.109375 8.296875-2.328125l93.867188-93.863282c3.332031-3.335937 3.332031-8.734374 0-12.066406zm0 0"/><path d="m228.222656 483.636719 59.730469-59.734375c3.234375-3.347656 3.1875-8.671875-.101563-11.960938-3.292968-3.292968-8.613281-3.339844-11.964843-.105468l-59.730469 59.734374c-2.21875 2.140626-3.109375 5.3125-2.328125 8.296876.78125 2.984374 3.109375 5.3125 6.09375 6.09375s6.15625-.109376 8.300781-2.324219zm0 0"/><path d="m190.554688 411.835938-59.734376 59.734374c-2.214843 2.140626-3.105468 5.3125-2.324218 8.296876.78125 2.984374 3.109375 5.3125 6.09375 6.09375s6.15625-.109376 8.296875-2.324219l59.734375-59.734375c3.234375-3.347656 3.1875-8.671875-.105469-11.960938-3.289063-3.292968-8.613281-3.339844-11.960937-.105468zm0 0"/></svg>