<svg height="480pt" viewBox="0 -116 480 480" width="480pt" xmlns="http://www.w3.org/2000/svg"><path d="m112 56v-48h360v200h-120" fill="#92d7e7"/><path d="m8 56h344v184h-344zm0 0" fill="#d0ecf4"/><path d="m256 88h64v64h-64zm0 0" fill="#f29200"/><path d="m376 40h64v64h-64zm0 0" fill="#f9a01b"/><path d="m472 0h-360c-4.417969 0-8 3.582031-8 8v40h-96c-4.417969 0-8 3.582031-8 8v184c0 4.417969 3.582031 8 8 8h344c4.417969 0 8-3.582031 8-8v-24h112c4.417969 0 8-3.582031 8-8v-200c0-4.417969-3.582031-8-8-8zm-128 232h-232v-16h-16v16h-80v-168h80v8h16v-8h232zm120-32h-104v-144c0-4.417969-3.582031-8-8-8h-232v-32h344zm0 0"/><path d="m256 160h64c4.417969 0 8-3.582031 8-8v-64c0-4.417969-3.582031-8-8-8h-64c-4.417969 0-8 3.582031-8 8v64c0 4.417969 3.582031 8 8 8zm8-64h48v48h-48zm0 0"/><path d="m376 112h64c4.417969 0 8-3.582031 8-8v-64c0-4.417969-3.582031-8-8-8h-64c-4.417969 0-8 3.582031-8 8v64c0 4.417969 3.582031 8 8 8zm8-64h48v48h-48zm0 0"/><path d="m96 88h16v16h-16zm0 0"/><path d="m96 120h16v16h-16zm0 0"/><path d="m96 152h16v16h-16zm0 0"/><path d="m96 184h16v16h-16zm0 0"/><path d="m128 176h144v16h-144zm0 0"/><path d="m128 208h88v16h-88zm0 0"/><path d="m32 72h48v16h-48zm0 0"/><path d="m32 104h32v16h-32zm0 0"/><path d="m32 136h16v16h-16zm0 0"/><path d="m32 168h48v16h-48zm0 0"/></svg>