<?xml version="1.0" encoding="iso-8859-1"?>
<!-- Generator: Adobe Illustrator 19.0.0, SVG Export Plug-In . SVG Version: 6.00 Build 0)  -->
<svg version="1.1" id="Capa_1" xmlns="http://www.w3.org/2000/svg" xmlns:xlink="http://www.w3.org/1999/xlink" x="0px" y="0px"
	 viewBox="0 0 512 512" style="enable-background:new 0 0 512 512;" xml:space="preserve">
<path style="fill:#EFEDEE;" d="M377.969,106.846l-215.23-86.237c-9.241-3.702-19.734,0.787-23.437,10.028L8.769,356.424
	c-3.702,9.241,0.787,19.734,10.028,23.437l215.23,86.236c9.241,3.702,19.734-0.787,23.437-10.028l130.533-325.786
	C391.699,121.042,387.21,110.549,377.969,106.846z"/>
<path style="fill:#D2D2D2;" d="M377.969,106.846l-114.64-45.933L43.956,280.285c-16.777,16.777-16.777,44.074,0,60.851
	l81.432,81.432l108.639,43.528c9.241,3.702,19.734-0.787,23.437-10.028l130.533-325.786
	C391.699,121.041,387.21,110.549,377.969,106.846z"/>
<rect x="77.541" y="120.256" transform="matrix(-0.3719 0.9283 -0.9283 -0.3719 488.6143 106.1935)" style="fill:#85E7FF;" width="261.677" height="196.298"/>
<polygon style="fill:#57D0E6;" points="348.141,133.471 235.787,88.454 100.516,223.726 68.607,303.363 250.818,376.369 "/>
<path style="fill:#EFEDEE;" d="M499.249,213.748L335.297,49.796c-7.04-7.04-18.452-7.04-25.492,0L61.636,297.964
	c-7.04,7.04-7.04,18.452,0,25.492l163.952,163.952c7.04,7.04,18.452,7.04,25.492,0l248.169-248.169
	C506.289,232.201,506.289,220.787,499.249,213.748z"/>
<polygon style="fill:#FADC60;" points="322.552,87.693 222.453,187.792 218.759,209.187 340.313,330.741 361.253,326.591 
	461.352,226.492 "/>
<polygon style="fill:#FA9F6A;" points="361.365,187.68 376.758,194.662 376.876,211.564 388.098,224.204 381.331,239.692 
	386.442,255.803 373.96,267.201 372.076,283.998 356.037,289.332 347.484,303.911 330.663,302.262 316.92,312.101 302.223,303.752 
	285.666,307.151 275.636,293.547 259.128,289.917 255.498,273.408 241.894,263.378 245.293,246.821 236.944,232.125 
	246.783,218.382 245.134,201.56 259.712,193.007 265.047,176.968 281.844,175.084 293.241,162.603 309.353,167.713 324.841,160.946 
	337.481,172.169 354.383,172.287 "/>
<circle style="fill:#FADC60;" cx="312.666" cy="236.377" r="49.196"/>
<polygon style="fill:#85E7FF;" points="340.313,330.741 218.759,209.187 189.184,221.06 155.915,254.329 163.075,275.634 
	275.133,387.692 294.715,393.129 327.984,359.86 "/>
<path style="fill:#B3F0FF;" d="M361.253,326.591l-33.269,33.269l-2.279-11.117c-1.298-6.312-4.419-11.927-8.787-16.296
	c-4.368-4.368-9.984-7.49-16.296-8.787c-6.306-1.291-11.927-4.407-16.296-8.775c-4.368-4.369-7.483-9.99-8.781-16.302
	s-4.42-11.927-8.787-16.296c-4.368-4.369-9.984-7.49-16.296-8.787c-6.312-1.298-11.933-4.413-16.302-8.781
	c-4.368-4.368-7.483-9.99-8.781-16.302c-2.602-12.617-12.465-22.482-25.077-25.077l-11.117-2.279l33.269-33.269l11.117,2.279
	c12.617,2.589,22.482,12.453,25.077,25.077c1.298,6.312,4.413,11.933,8.781,16.302c4.368,4.368,9.99,7.483,16.302,8.781
	c6.312,1.298,11.933,4.413,16.302,8.781s7.483,9.99,8.781,16.302s4.413,11.933,8.781,16.302c4.369,4.369,9.99,7.483,16.296,8.775
	c6.312,1.298,11.933,4.413,16.302,8.781c4.369,4.368,7.483,9.99,8.781,16.302L361.253,326.591z"/>
<path style="fill:#57D0E6;" d="M294.715,393.129l-18.391,18.391L137.523,272.721l18.391-18.391l11.111,2.285
	c6.306,1.291,11.927,4.407,16.296,8.775c4.368,4.369,7.483,9.99,8.781,16.302s4.413,11.933,8.781,16.302
	c4.368,4.369,9.99,7.483,16.302,8.781c6.312,1.298,11.933,4.413,16.302,8.781c4.368,4.368,7.483,9.99,8.781,16.302
	c1.298,6.312,4.413,11.933,8.781,16.302s9.99,7.483,16.296,8.775c12.623,2.595,22.488,12.459,25.083,25.083L294.715,393.129z"/>
<path d="M129.518,312.445l-8.731,8.731c-2.929,2.929-2.929,7.679,0,10.607c2.91,2.91,7.698,2.91,10.608,0l8.731-8.731
	c2.929-2.929,2.929-7.679,0-10.607C137.197,309.516,132.448,309.516,129.518,312.445z"/>
<path d="M226.002,408.928l-8.731,8.731c-2.929,2.929-2.929,7.678,0,10.608c2.902,2.903,7.71,2.898,10.608,0l8.731-8.731
	c2.929-2.929,2.929-7.679,0-10.608C233.681,406,228.931,406,226.002,408.928z"/>
<path d="M163.537,354.723c-4.144-0.277-7.709,2.848-7.987,6.981c-0.567,8.434,2.647,16.811,8.818,22.982
	c5.706,5.705,13.295,8.883,21.072,8.883c4.688,0,9.243-2.778,8.89-8.051c-0.277-4.132-3.846-7.261-7.986-6.981
	c-4.114,0.276-8.258-1.349-11.368-4.458c-3.109-3.11-4.735-7.254-4.459-11.368C170.796,358.576,167.671,355.001,163.537,354.723z"/>
<path d="M15.99,386.85l164.163,65.776c0,0,40.083,40.083,40.114,40.114c9.846,9.846,26.266,9.835,36.1,0l54.333-54.333
	c2.929-2.929,2.929-7.679,0-10.607c-2.929-2.929-7.679-2.929-10.607,0c0,0-54.228,54.228-54.333,54.333
	c-4.066,4.066-10.823,4.06-14.884,0L66.923,318.18c-4.03-4.029-4.018-10.865,0-14.884l46.177-46.177
	c0,0,201.725-201.725,201.99-201.99c4.055-4.055,10.834-4.051,14.885,0l163.952,163.951c4.103,4.103,4.103,10.78,0,14.884
	l-172.83,172.83c-2.929,2.929-2.929,7.679,0,10.607c2.929,2.929,7.679,2.929,10.607,0l172.831-172.83
	c9.952-9.953,9.952-26.147,0-36.099c0,0-163.869-163.869-163.952-163.952c-9.845-9.845-26.264-9.837-36.1,0l-17.732,17.732
	c0,0-121.199-48.561-121.24-48.578c-12.942-5.186-28.008,1.271-33.189,14.201c0,0-130.472,325.633-130.534,325.787
	C-3.384,366.57,3.062,381.67,15.99,386.85z M15.714,359.24c0,0,130.384-325.414,130.533-325.786
	c2.118-5.287,8.402-7.971,13.684-5.856l115.281,46.19l-16.003,16.003c0,0-90.413-36.226-90.507-36.264
	c-3.794-1.52-8.231,0.374-9.753,4.172l-13.936,34.78c-1.541,3.845,0.328,8.212,4.172,9.752c3.845,1.541,8.212-0.328,9.752-4.172
	l11.145-27.817l77.587,31.087L97.433,251.569l50.365-125.702c1.541-3.845-0.328-8.212-4.172-9.752
	c-3.847-1.541-8.212,0.327-9.752,4.172L70.467,278.535c0,0-14.148,14.148-14.153,14.153c-9.716,9.716-9.764,26.338,0,36.1
	l96.872,96.873c0,0-131.473-52.678-131.617-52.735C16.249,370.793,13.59,364.544,15.714,359.24z"/>
<path d="M276.306,418.976c1.925,0.005,3.863-0.684,5.304-2.124l185.028-185.028c2.929-2.929,2.929-7.679,0-10.607
	c0,0-138.641-138.641-138.8-138.8c-2.894-2.894-7.716-2.893-10.608,0c0,0-184.987,184.987-185.028,185.028
	c-2.902,2.901-2.901,7.706,0,10.608c0,0,138.453,138.453,138.8,138.8C272.393,418.243,274.343,418.971,276.306,418.976z
	 M374.164,241.987l3.659,11.539l-8.939,8.163c-1.342,1.226-2.193,2.896-2.396,4.704l-1.349,12.029l-11.487,3.821
	c-1.724,0.574-3.182,1.754-4.101,3.321l-1.469,2.504c-1.446-0.883-2.963-1.595-4.476-2.352c-0.572-0.255-1.15-0.497-1.734-0.725
	c3.919-2.36,7.568-5.199,10.864-8.495c22.105-22.106,22.105-58.072,0-80.177c-10.708-10.708-24.945-16.606-40.089-16.606
	c-15.144,0-29.38,5.897-40.089,16.606c-3.297,3.297-6.137,6.947-8.497,10.868c-0.159-0.407-0.329-0.808-0.501-1.208
	c-0.731-1.714-1.585-3.376-2.554-4.968c-0.007-0.012-0.014-0.025-0.021-0.037l2.506-1.471c1.567-0.92,2.748-2.377,3.321-4.101
	l3.821-11.486l12.03-1.35c1.806-0.203,3.477-1.054,4.703-2.396l8.162-8.939l11.539,3.66c1.732,0.549,3.605,0.452,5.271-0.276
	l11.093-4.847l9.052,8.037c1.359,1.207,3.11,1.879,4.928,1.892l12.105,0.084l5.001,11.024c0.75,1.655,2.077,2.981,3.732,3.732
	l11.023,5.001l0.084,12.105c0.013,1.817,0.685,3.568,1.892,4.928l8.037,9.053l-4.846,11.092
	C373.713,238.381,373.615,240.255,374.164,241.987z M316.144,263.83c-1.553-7.552-5.376-14.647-10.824-20.095
	c-4.823-4.823-10.745-8.292-17.266-10.135c-5.789-1.636-10.921-3.01-15.339-7.427c-0.131-0.131-0.249-0.271-0.376-0.405
	c1.866-7.122,5.569-13.583,10.827-18.84c7.875-7.875,18.344-12.211,29.481-12.211s21.607,4.337,29.481,12.211
	c16.255,16.256,16.255,42.706,0,58.962c-5.258,5.258-11.718,8.96-18.84,10.826c-0.134-0.127-0.274-0.246-0.405-0.377
	C319.511,272.955,317.105,268.516,316.144,263.83z M322.534,98.327L450.727,226.52l-85.01,85.01c-0.018-0.067-0.043-0.133-0.062-0.2
	c-0.971-3.481-2.501-6.982-4.391-10.066c-0.588-0.96-1.212-1.909-1.879-2.816l1.677-2.859l13.364-4.446
	c2.775-0.923,4.761-3.375,5.087-6.282l1.57-13.996l10.399-9.496c2.159-1.972,2.976-5.02,2.091-7.807l-4.257-13.424l5.638-12.905
	c1.171-2.68,0.677-5.796-1.264-7.983l-9.35-10.531l-0.098-14.083c-0.021-2.924-1.739-5.571-4.403-6.779l-12.824-5.818l-5.818-12.825
	c-1.208-2.663-3.854-4.382-6.779-4.403l-14.083-0.098l-10.531-9.35c-2.187-1.941-5.304-2.435-7.983-1.264l-12.905,5.638
	l-13.424-4.258c-2.788-0.884-5.835-0.068-7.807,2.092l-9.496,10.399l-13.996,1.57c-2.906,0.326-5.358,2.311-6.281,5.086
	l-4.446,13.364l-2.855,1.675c-0.074-0.055-0.153-0.104-0.227-0.158c-3.771-2.745-8.13-4.85-12.648-6.107
	c-0.071-0.02-0.139-0.046-0.21-0.065L322.534,98.327z M224.885,195.977c7.225,1.481,14.148,2.683,19.588,8.124
	c0.015,0.015,0.026,0.031,0.041,0.046c3.37,3.37,5.795,7.797,6.769,12.538c3.103,15.098,15.065,27.299,30.084,30.738
	c5.009,1.147,9.678,3.251,13.345,6.92c3.026,3.027,5.266,6.881,6.383,11.015c2.608,9.661,6.862,18.592,14.911,24.855
	c5.169,4.02,10.947,6.217,17.242,7.75c7.345,1.789,13.616,7.008,16.706,13.906c1.721,3.841,2.283,8.199,3.124,12.3l-20.629,20.63
	c-0.018-0.065-0.042-0.129-0.06-0.195c-3.956-14.242-15.947-25.275-30.375-28.289c-9.543-1.994-17.176-9.672-19.138-19.216
	c-1.558-7.582-5.357-14.617-10.83-20.089c-5.472-5.471-12.509-9.272-20.089-10.83c-9.646-1.983-17.238-9.698-19.261-19.306
	c-1.527-7.359-5.184-14.23-10.419-19.618c-4.914-5.057-11.217-8.784-18.02-10.647L224.885,195.977z M191.615,229.246
	c7.283,1.493,14.184,2.722,19.661,8.201c4.958,4.958,6.006,11.785,8.316,18.093c0.013,0.035,0.029,0.068,0.042,0.103
	c3.632,9.918,11.397,18.252,21.039,22.57c7.11,3.183,14.987,3.628,20.763,9.406c3.366,3.367,5.784,7.835,6.744,12.502
	c2.976,14.47,14.113,26.379,28.355,30.292c5.599,1.538,10.851,3.157,15.061,7.366c4.444,4.442,6.254,10.11,7.483,16.107l0.729,3.553
	l-20.636,20.636c-0.02-0.072-0.046-0.142-0.066-0.214c-1.755-6.315-5.14-12.194-9.685-16.91c-4.635-4.81-10.504-8.388-16.881-10.364
	c-4.943-1.521-10.039-2.588-14.172-5.904c-4.471-3.587-7.612-8.686-8.768-14.308c-1.557-7.571-5.361-14.631-10.824-20.096
	c-4.961-4.961-11.291-8.564-18.074-10.331c-10.362-2.699-18.973-8.576-21.267-19.739c-1.554-7.559-5.368-14.639-10.824-20.095
	c-4.811-4.811-10.884-8.345-17.435-10.172c-0.065-0.018-0.127-0.042-0.192-0.059L191.615,229.246z M158.345,262.518
	c0,0,7.159,1.472,7.16,1.472c9.569,1.968,17.267,9.666,19.234,19.239c1.57,7.635,5.314,14.585,10.824,20.096
	c5.456,5.456,12.539,9.27,20.095,10.823c9.556,1.964,17.283,9.698,19.247,19.247c3.143,15.282,15.63,27.785,30.914,30.913
	c9.581,1.97,17.278,9.67,19.247,19.248l1.471,7.153l-10.23,10.23L148.113,272.748L158.345,262.518z"/>
<g>
</g>
<g>
</g>
<g>
</g>
<g>
</g>
<g>
</g>
<g>
</g>
<g>
</g>
<g>
</g>
<g>
</g>
<g>
</g>
<g>
</g>
<g>
</g>
<g>
</g>
<g>
</g>
<g>
</g>
</svg>
