<svg height="496pt" viewBox="-48 0 496 496" width="496pt" xmlns="http://www.w3.org/2000/svg"><path d="m264 488h-224c-17.671875 0-32-14.328125-32-32v-416c0-17.671875 14.328125-32 32-32h224c17.671875 0 32 14.328125 32 32v416c0 17.671875-14.328125 32-32 32zm0 0" fill="#656665"/><path d="m168 440c0 8.835938-7.164062 16-16 16s-16-7.164062-16-16 7.164062-16 16-16 16 7.164062 16 16zm0 0" fill="#bab8b9"/><path d="m40 72h224v320h-224zm0 0" fill="#d9d7d8"/><path d="m40 72h192v320h-192zm0 0" fill="#efedee"/><path d="m184 280h-72c-22.089844 0-40 17.910156-40 40s17.910156 40 40 40h32c22.089844 0 40-17.910156 40-40zm0 0" fill="#eebc5a"/><path d="m160 320v-40h-48c-22.089844 0-40 17.910156-40 40s17.910156 40 40 40h8c22.089844 0 40-17.910156 40-40zm0 0" fill="#f8cf6a"/><path d="m168 104h224v144h-224zm0 0" fill="#70b48f"/><path d="m392 248-112-112-112 112" fill="#599072"/><path d="m168 104 112 96 112-96" fill="#599072"/><path d="m264 496h-224c-22.054688 0-40-17.945312-40-40v-416c0-22.054688 17.945312-40 40-40h224c22.054688 0 40 17.945312 40 40v64h-16v-64c0-13.230469-10.769531-24-24-24h-224c-13.230469 0-24 10.769531-24 24v416c0 13.230469 10.769531 24 24 24h224c13.230469 0 24-10.769531 24-24v-208h16v208c0 22.054688-17.945312 40-40 40zm0 0"/><path d="m152 464c-13.230469 0-24-10.769531-24-24s10.769531-24 24-24 24 10.769531 24 24-10.769531 24-24 24zm0-32c-4.40625 0-8 3.585938-8 8s3.59375 8 8 8 8-3.585938 8-8-3.59375-8-8-8zm0 0"/><path d="m120 32h64v16h-64zm0 0"/><path d="m264 400h-224c-4.414062 0-8-3.574219-8-8v-320c0-4.425781 3.585938-8 8-8h224c4.414062 0 8 3.574219 8 8v32h-16v-24h-208v304h208v-136h16v144c0 4.425781-3.585938 8-8 8zm0 0"/><path d="m392 256h-224c-4.414062 0-8-3.574219-8-8v-144c0-4.425781 3.585938-8 8-8h224c4.414062 0 8 3.574219 8 8v144c0 4.425781-3.585938 8-8 8zm-216-16h208v-128h-208zm0 0"/><path d="m280 208c-1.855469 0-3.703125-.640625-5.207031-1.929688l-112-96 10.414062-12.140624 106.792969 91.535156 106.792969-91.527344 10.414062 12.140625-112 96c-1.503906 1.28125-3.351562 1.921875-5.207031 1.921875zm0 0"/><path d="m162.339844 242.34375 80-80 11.3125 11.3125-79.996094 80zm0 0"/><path d="m306.339844 173.660156 11.3125-11.316406 80 80-11.3125 11.3125zm0 0"/><path d="m144 368h-32c-26.472656 0-48-21.527344-48-48s21.527344-48 48-48h72c4.414062 0 8 3.574219 8 8v40c0 26.472656-21.527344 48-48 48zm-32-80c-17.648438 0-32 14.351562-32 32s14.351562 32 32 32h32c17.648438 0 32-14.351562 32-32v-32zm0 0"/><path d="m96 312h16v16h-16zm0 0"/><path d="m128 312h16v16h-16zm0 0"/></svg>