<?xml version="1.0" encoding="utf-8"?>
<!-- Generator: Adobe Illustrator 16.0.0, SVG Export Plug-In . SVG Version: 6.00 Build 0)  -->
<!DOCTYPE svg PUBLIC "-//W3C//DTD SVG 1.1//EN" "http://www.w3.org/Graphics/SVG/1.1/DTD/svg11.dtd">
<svg version="1.1" id="Capa_1" xmlns="http://www.w3.org/2000/svg" xmlns:xlink="http://www.w3.org/1999/xlink" x="0px" y="0px"
	 width="600px" height="512px" viewBox="0 144.5 600 512" enable-background="new 0 144.5 600 512" xml:space="preserve">
<rect x="178.473" y="164.58" fill="#8CE0FF" width="244.227" height="394.521"/>
<rect x="178.473" y="202.152" fill="#00ACF0" width="37.574" height="356.947"/>
<polygon fill="#898890" points="422.7,202.152 347.554,202.152 338.161,211.546 263.013,211.546 253.621,202.152 178.473,202.152 
	178.473,164.58 422.7,164.58 "/>
<rect x="178.473" y="164.58" fill="#57565C" width="37.574" height="37.574"/>
<rect x="178.473" y="559.1" fill="#898890" width="244.227" height="75.146"/>
<rect x="178.473" y="559.1" fill="#57565C" width="37.574" height="75.146"/>
<polygon fill="#9DD18C" points="140.899,408.807 112.72,380.626 9.394,380.626 9.394,286.692 140.899,286.692 "/>
<rect x="9.394" y="286.692" fill="#00A36D" width="28.18" height="93.934"/>
<polygon fill="#9DD18C" points="375.733,502.739 403.914,474.56 507.24,474.56 507.24,380.626 375.733,380.626 "/>
<rect x="479.061" y="380.626" fill="#00A36D" width="28.18" height="93.934"/>
<polygon fill="#9DD18C" points="460.273,314.873 488.454,286.692 591.78,286.692 591.78,192.76 460.273,192.76 "/>
<rect x="563.601" y="192.76" fill="#00A36D" width="28.18" height="93.934"/>
<rect x="263.013" y="588.454" width="75.147" height="17.612"/>
<path d="M430.92,156.36H169.081V643.64H430.92v-140.9h-17.612v48.141H186.692V211.546h63.28l9.394,9.394h82.441l9.394-9.394h62.106
	v160.861h-46.967v151.594l41.22-40.048h107.9V372.407h-84.54L430.92,156.36L430.92,156.36z M413.308,568.493v57.534H186.692v-57.534
	H413.308z M343.906,193.934l-9.394,9.394h-67.852l-9.394-9.394h-70.576v-19.962h226.615v19.96h-69.4V193.934z M497.848,390.019
	v76.321h-97.582l-16.312,15.139v-91.459H497.848z"/>
<path d="M0,390.019h109.073l40.047,40.047V278.473H0V390.019z M17.612,296.086h113.895v91.459l-15.14-15.138H17.612V296.086z"/>
<path d="M450.88,184.54v151.594l41.221-40.047H600V184.54H450.88z M582.388,278.473h-97.581l-16.313,15.138v-91.459h113.895V278.473
	L582.388,278.473z"/>
<g>
	<rect x="254.501" y="512.721" fill="#FFFFFF" width="17.612" height="17.611"/>
	<rect x="291.487" y="512.721" fill="#FFFFFF" width="17.612" height="17.611"/>
	<rect x="329.061" y="512.721" fill="#FFFFFF" width="17.611" height="17.611"/>
</g>
</svg>
