<?xml version="1.0" encoding="utf-8"?>
<!-- Generator: Adobe Illustrator 16.0.0, SVG Export Plug-In . SVG Version: 6.00 Build 0)  -->
<!DOCTYPE svg PUBLIC "-//W3C//DTD SVG 1.1//EN" "http://www.w3.org/Graphics/SVG/1.1/DTD/svg11.dtd">
<svg version="1.1" id="Capa_1" xmlns="http://www.w3.org/2000/svg" xmlns:xlink="http://www.w3.org/1999/xlink" x="0px" y="0px"
	 width="600px" height="731px" viewBox="0 25.5 600 731" enable-background="new 0 25.5 600 731" xml:space="preserve">
<path fill="#2196F3" d="M517.13,100H82.097C38.414,100,3,135.414,3,179.097v355.936c0,43.684,35.414,79.096,79.097,79.096v79.099
	c-0.002,7.675,4.438,14.66,11.391,17.914c2.627,1.219,5.488,1.854,8.384,1.859c4.628,0.02,9.113-1.607,12.656-4.588l113.147-94.284
	H517.13c43.683,0,79.096-35.412,79.096-79.096V179.097C596.226,135.414,560.812,100,517.13,100z"/>
<path fill="#FAFAFA" d="M161.194,337.29c0-21.842,17.707-39.548,39.548-39.548c21.842,0,39.549,17.706,39.549,39.548
	s-17.707,39.549-39.549,39.549C178.9,376.839,161.194,359.132,161.194,337.29z M398.484,376.839
	c-21.843,0-39.549-17.707-39.549-39.549s17.706-39.548,39.549-39.548c21.842,0,39.549,17.706,39.549,39.548
	S420.326,376.839,398.484,376.839z"/>
<path d="M101.871,713c-2.901-0.001-5.765-0.65-8.384-1.899c-6.94-3.248-11.378-10.213-11.391-17.874v-79.099
	C38.414,614.128,3,578.716,3,535.032V179.097C3,135.414,38.414,100,82.097,100H517.13c43.683,0,79.096,35.414,79.096,79.097v355.936
	c0,43.684-35.413,79.096-79.096,79.096H227.674l-113.147,94.284C110.975,711.375,106.496,712.998,101.871,713z M82.097,139.548
	c-21.841,0-39.548,17.707-39.548,39.549v355.936c0,21.842,17.707,39.549,39.548,39.549h19.774c10.922,0,19.774,8.852,19.774,19.774
	v56.632l86.215-71.818c3.552-2.963,8.031-4.586,12.655-4.588H517.13c21.842,0,39.549-17.707,39.549-39.549V179.097
	c0-21.842-17.707-39.549-39.549-39.549H82.097z"/>
<path d="M200.742,416.388c-43.683,0-79.096-35.414-79.096-79.098s35.414-79.096,79.096-79.096c43.684,0,79.097,35.413,79.097,79.096
	S244.425,416.388,200.742,416.388z M200.742,297.742c-21.841,0-39.548,17.706-39.548,39.548s17.707,39.549,39.548,39.549
	c21.842,0,39.549-17.707,39.549-39.549S222.584,297.742,200.742,297.742z"/>
<path d="M398.484,416.388c-43.685,0-79.098-35.414-79.098-79.098s35.413-79.096,79.098-79.096c43.683,0,79.096,35.413,79.096,79.096
	S442.167,416.388,398.484,416.388z M398.484,297.742c-21.843,0-39.549,17.706-39.549,39.548s17.706,39.549,39.549,39.549
	c21.842,0,39.549-17.707,39.549-39.549S420.326,297.742,398.484,297.742z"/>
<path d="M398.484,416.388H200.742c-10.921,0-19.773-8.853-19.773-19.774s8.852-19.774,19.773-19.774h197.743
	c10.92,0,19.774,8.853,19.774,19.774S409.404,416.388,398.484,416.388z"/>
</svg>
