<?xml version="1.0" encoding="utf-8"?>
<svg xml:space="preserve" viewBox="0 0 100 100" y="0" x="0" xmlns="http://www.w3.org/2000/svg" id="圖層_1" version="1.1" style="height: 100%; width: 100%; background: none; shape-rendering: auto;" width="47px" height="47px"><g class="ldl-scale" style="transform-origin: 50% 50%; transform: rotate(0deg) scale(0.8, 0.8);"><g class="ldl-ani"><g class="ldl-layer"><g class="ldl-ani" style="transform-origin: 50px 50px; transform: translate(0px, 0px); animation: 1.11111s linear -0.666667s infinite normal forwards running bounceAlt-a4529e28-4ad7-402d-a1dc-06a196925665;"><path fill="#d1d1d1" d="M86.883 21.922H29.795a5.624 5.624 0 0 0-5.617 5.617v2.637c0 .095.006.19.014.283h-2.854a5.624 5.624 0 0 0-5.617 5.617v2.377h-2.605a5.624 5.624 0 0 0-5.617 5.617v28.39a5.624 5.624 0 0 0 5.617 5.617h57.089a5.623 5.623 0 0 0 5.617-5.617v-2.38c.023.001.046.003.07.003h2.534a5.623 5.623 0 0 0 5.617-5.617V61.53c.101.009.203.016.305.016h2.534a5.624 5.624 0 0 0 5.617-5.617v-28.39a5.622 5.622 0 0 0-5.616-5.617z" style="fill: rgb(209, 209, 209);"></path></g></g><g class="ldl-layer"><g class="ldl-ani"><g><g class="ldl-layer"><g class="ldl-ani" style="transform-origin: 50px 50px; transform: translate(0px, 0px); animation: 1.11111s linear -0.777778s infinite normal forwards running bounceAlt-a4529e28-4ad7-402d-a1dc-06a196925665;"><path fill="#464646" d="M78.427 33.762H21.339a2.314 2.314 0 0 0-2.314 2.315v2.637h50.851a6.024 6.024 0 0 1 6.018 6.017v22.05h2.534a2.315 2.315 0 0 0 2.315-2.314v-28.39a2.317 2.317 0 0 0-2.316-2.315z" style="fill: rgb(70, 70, 70);"></path></g></g></g></g></g><g class="ldl-layer"><g class="ldl-ani" style="transform-origin: 50px 50px; transform: translate(0px, 0px); animation: 1.11111s linear -0.888889s infinite normal forwards running bounceAlt-a4529e28-4ad7-402d-a1dc-06a196925665;"><circle fill="#464646" r="8.552" cy="58.266" cx="41.661" style="fill: rgb(70, 70, 70);"></circle></g></g><g class="ldl-layer"><g class="ldl-ani" style="transform-origin: 50px 50px; transform: translate(0px, 0px); animation: 1.11111s linear -1s infinite normal forwards running bounceAlt-a4529e28-4ad7-402d-a1dc-06a196925665;"><path fill="#464646" d="M70.205 41.756H13.117a2.314 2.314 0 0 0-2.314 2.314v28.391a2.314 2.314 0 0 0 2.314 2.314h57.089a2.315 2.315 0 0 0 2.315-2.314v-28.39a2.317 2.317 0 0 0-2.316-2.315zm-11.292 28.39H23.59c-.143-4.754-3.611-8.671-8.159-9.506v-4.749c4.548-.835 8.016-4.752 8.159-9.506h35.324a10.388 10.388 0 0 0 8.977 9.488v4.784a10.393 10.393 0 0 0-8.978 9.489z" style="fill: rgb(70, 70, 70);"></path></g></g><g class="ldl-layer"><g class="ldl-ani"><g><g class="ldl-layer"><g class="ldl-ani" style="transform-origin: 50px 50px; transform: translate(0px, 0px); animation: 1.11111s linear -1.11111s infinite normal forwards running bounceAlt-a4529e28-4ad7-402d-a1dc-06a196925665;"><path fill="#464646" d="M86.883 25.225H29.795a2.314 2.314 0 0 0-2.314 2.314v2.637h50.851a6.024 6.024 0 0 1 6.017 6.018v22.05h2.534a2.315 2.315 0 0 0 2.315-2.315v-28.39a2.315 2.315 0 0 0-2.315-2.314z" style="fill: rgb(70, 70, 70);"></path></g></g></g></g></g><metadata xmlns:d="https://loading.io/stock/"><d:name>cash</d:name><d:tags>money,buck,usd,coin,paper money,value,price,currency,cash,map</d:tags><d:license>free</d:license><d:slug>38tmt</d:slug></metadata></g></g><style id="bounceAlt-a4529e28-4ad7-402d-a1dc-06a196925665" data-anikit="">@keyframes bounceAlt-a4529e28-4ad7-402d-a1dc-06a196925665
{
  0% {
    animation-timing-function: cubic-bezier(0.1348,0.3256,0.2495,0.8687);
    transform: translate(0, 0px);
  }
  51% {
    animation-timing-function: cubic-bezier(0.7426,0.1782,0.8523,0.6514);
    transform: translate(0, -14px);
  }
  100% {
    transform: translate(0, 0px);
  }
}</style><!-- [ldio] generated by https://loading.io/ --></svg>