<?xml version="1.0" encoding="utf-8"?>
<svg xml:space="preserve" viewBox="0 0 100 100" y="0" x="0" xmlns="http://www.w3.org/2000/svg" id="圖層_1" version="1.1" style="height: 100%; width: 100%; background: none; shape-rendering: auto;" width="47px" height="47px"><g class="ldl-scale" style="transform-origin: 50% 50%; transform: rotate(0deg) scale(0.8, 0.8);"><g class="ldl-ani"><g class="ldl-layer"><g class="ldl-ani" style="transform-origin: 50px 50px; transform: rotate(0deg); animation: 1.11111s linear -1.11111s infinite normal forwards running spin-99ea694a-c60a-4377-b2d6-4b828e3099e6;"><path fill="#333" d="M84.701 48.608l-.656-.173c-2.43-.642-4.235-2.618-4.788-5.07l-.018-.081c-.56-2.451.205-5.013 2.116-6.646l.512-.438c2.534-2.166 3.106-5.91 1.229-8.665a40.146 40.146 0 0 0-3.851-4.813c-2.27-2.43-6.037-2.697-8.706-.714l-.534.397c-2.019 1.501-4.691 1.676-6.956.581l-.076-.037c-2.264-1.087-3.785-3.284-3.871-5.794l-.023-.673c-.113-3.321-2.668-6.101-5.981-6.361a39.69 39.69 0 0 0-6.196 0c-3.313.26-5.868 3.039-5.981 6.361l-.023.673c-.086 2.51-1.607 4.707-3.871 5.794l-.076.037c-2.265 1.096-4.936.92-6.956-.581l-.534-.397c-2.669-1.984-6.435-1.716-8.706.714a40.067 40.067 0 0 0-3.851 4.813c-1.877 2.755-1.305 6.499 1.229 8.665l.512.438c1.911 1.633 2.675 4.195 2.116 6.646l-.018.081c-.553 2.452-2.358 4.428-4.788 5.07l-.656.173c-3.222.852-5.355 3.975-4.869 7.273a39.875 39.875 0 0 0 1.298 5.785c.995 3.268 4.252 5.292 7.606 4.646l.676-.13c2.464-.475 4.943.519 6.507 2.481l.051.063c1.574 1.964 1.997 4.608.983 6.912l-.273.62c-1.339 3.041-.244 6.653 2.628 8.325a39.771 39.771 0 0 0 5.56 2.683c3.104 1.211 6.624-.177 8.171-3.129l.316-.603c1.166-2.225 3.493-3.538 6.005-3.534h.082c2.512-.004 4.839 1.309 6.005 3.534l.316.603c1.547 2.951 5.067 4.34 8.171 3.129a39.771 39.771 0 0 0 5.56-2.683c2.871-1.672 3.966-5.284 2.628-8.325l-.273-.62c-1.014-2.303-.591-4.948.983-6.912l.051-.063c1.564-1.963 4.043-2.956 6.507-2.481l.676.13c3.354.646 6.612-1.378 7.606-4.646a39.743 39.743 0 0 0 1.298-5.785c.488-3.297-1.644-6.421-4.867-7.273zM50 65c-8.284 0-15-6.716-15-15 0-8.284 6.716-15 15-15s15 6.716 15 15c0 8.284-6.716 15-15 15z" style="fill: rgb(51, 51, 51);"></path></g></g><metadata xmlns:d="https://loading.io/stock/"><d:name>gear</d:name><d:tags>config,setting,machinery,industry,option,gear,gear</d:tags><d:license>by</d:license><d:slug>8otsy5</d:slug></metadata></g></g><style id="spin-99ea694a-c60a-4377-b2d6-4b828e3099e6" data-anikit="">@keyframes spin-99ea694a-c60a-4377-b2d6-4b828e3099e6
{
  0% {
    animation-timing-function: cubic-bezier(0.5856,0.0703,0.4143,0.9297);
    transform: rotate(0deg);
  }
  100% {
    transform: rotate(360deg);
  }
}</style><!-- [ldio] generated by https://loading.io/ --></svg>