<?xml version="1.0" encoding="utf-8"?>
<svg xml:space="preserve" viewBox="0 0 100 100" y="0" x="0" xmlns="http://www.w3.org/2000/svg" id="圖層_1" version="1.1" style="height: 100%; width: 100%; background: none; shape-rendering: auto;" width="47px" height="47px"><g class="ldl-scale" style="transform-origin: 50% 50%; transform: rotate(0deg) scale(0.8, 0.8);"><g class="ldl-ani"><g class="ldl-layer"><g class="ldl-ani" style="transform-origin: 50px 50px; transform: matrix(0.01, 0, 0, 0.01, 0, 0); animation: 1.11111s linear 0s 1 normal forwards running bounce-in-dd402941-d51a-4b8a-a7bc-9eab5dc1218f;"><path fill="#333" d="M84.515 42.008l-1.827-.055a5.56 5.56 0 0 1-4.971-3.432 5.571 5.571 0 0 1 1.091-5.95l1.246-1.324c1.974-2.096 2.004-5.338.112-7.51a40.432 40.432 0 0 0-3.905-3.905c-2.171-1.892-5.413-1.862-7.509.112l-1.324 1.246a5.57 5.57 0 0 1-5.95 1.091 5.56 5.56 0 0 1-3.432-4.971l-.055-1.827c-.087-2.876-2.353-5.191-5.224-5.389a40.842 40.842 0 0 0-5.535.002c-2.871.199-5.137 2.513-5.224 5.389l-.055 1.827a5.56 5.56 0 0 1-3.432 4.971 5.571 5.571 0 0 1-5.95-1.091l-1.324-1.246c-2.096-1.974-5.338-2.004-7.509-.112a40.206 40.206 0 0 0-3.905 3.905c-1.892 2.171-1.862 5.413.112 7.51l1.246 1.324a5.57 5.57 0 0 1 1.091 5.95 5.56 5.56 0 0 1-4.971 3.432l-1.827.055c-2.876.087-5.191 2.353-5.389 5.224a40.147 40.147 0 0 0 .001 5.534c.199 2.871 2.513 5.137 5.389 5.224l1.827.055a5.56 5.56 0 0 1 4.971 3.432 5.571 5.571 0 0 1-1.091 5.95l-1.246 1.324c-1.974 2.096-2.004 5.338-.112 7.509a40.206 40.206 0 0 0 3.905 3.905c2.171 1.892 5.413 1.862 7.51-.112l1.324-1.246a5.57 5.57 0 0 1 5.95-1.091 5.56 5.56 0 0 1 3.432 4.971l.055 1.827c.087 2.876 2.353 5.191 5.224 5.389a40.147 40.147 0 0 0 5.534-.001c2.871-.199 5.137-2.513 5.224-5.389l.055-1.827a5.56 5.56 0 0 1 3.432-4.971 5.571 5.571 0 0 1 5.95 1.091l1.324 1.246c2.096 1.974 5.338 2.004 7.51.112a40.432 40.432 0 0 0 3.905-3.905c1.892-2.171 1.862-5.413-.112-7.509l-1.246-1.324a5.57 5.57 0 0 1-1.091-5.95 5.56 5.56 0 0 1 4.971-3.432l1.827-.055c2.876-.087 5.191-2.353 5.389-5.224a40.842 40.842 0 0 0-.002-5.535c-.198-2.871-2.513-5.137-5.389-5.224zM50 65c-8.284 0-15-6.716-15-15 0-8.284 6.716-15 15-15s15 6.716 15 15c0 8.284-6.716 15-15 15z" style="fill: rgb(51, 51, 51);"></path></g></g><metadata xmlns:d="https://loading.io/stock/"><d:name>gear</d:name><d:tags>config,engineer,setup,tool,kit,edit,gear,gear</d:tags><d:license>by</d:license><d:slug>w7r6nt</d:slug></metadata></g></g><style id="bounce-in-dd402941-d51a-4b8a-a7bc-9eab5dc1218f" data-anikit="">@keyframes bounce-in-dd402941-d51a-4b8a-a7bc-9eab5dc1218f
{
  0% {
    animation-timing-function: cubic-bezier(0.0383,0.3388,0.0421,0.6652);
    transform: matrix(0.01,0,0,0.01,0,0);
    opacity: 1;
  }
  4.7% {
    animation-timing-function: cubic-bezier(0.3296,0.3336,0.5772,0.6672);
    transform: matrix(0.556,0,0,0.556,0,0);
    opacity: 1;
  }
  8.4% {
    animation-timing-function: cubic-bezier(0.0781,0.1617,0.0874,0.9301);
    transform: matrix(0.979,0,0,0.979,0,0);
    opacity: 1;
  }
  12.4% {
    animation-timing-function: cubic-bezier(0.8341,0.1496,0.8634,0.7673);
    transform: matrix(1.153,0,0,1.153,0,0);
    opacity: 1;
  }
  16.3% {
    animation-timing-function: cubic-bezier(0.3264,0.3332,0.5758,0.6695);
    transform: matrix(1.008,0,0,1.008,0,0);
    opacity: 1;
  }
  21.2% {
    animation-timing-function: cubic-bezier(0.0921,0.1883,0.3277,1);
    transform: matrix(0.704,0,0,0.704,0,0);
    opacity: 1;
  }
  24.5% {
    animation-timing-function: cubic-bezier(0.6905,0.0944,0.8759,0.7624);
    transform: matrix(0.626,0,0,0.626,0,0);
    opacity: 1;
  }
  27.7% {
    animation-timing-function: cubic-bezier(0.3688,0.332,0.624,0.6684);
    transform: matrix(0.704,0,0,0.704,0,0);
    opacity: 1;
  }
  32.6% {
    animation-timing-function: cubic-bezier(0.1368,0.2364,0.2451,0.9049);
    transform: matrix(0.958,0,0,0.958,0,0);
    opacity: 1;
  }
  37.4% {
    animation-timing-function: cubic-bezier(0.5936,0.0846,0.3495,1);
    transform: matrix(1.085,0,0,1.085,0,0);
    opacity: 1;
  }
  49.5% {
    animation-timing-function: cubic-bezier(0.5522,0.0981,0.3807,1);
    transform: matrix(0.802,0,0,0.802,0,0);
    opacity: 1;
  }
  62.4% {
    animation-timing-function: cubic-bezier(0.4497,0.1349,0.4911,1);
    transform: matrix(1.044,0,0,1.044,0,0);
    opacity: 1;
  }
  74.1% {
    animation-timing-function: cubic-bezier(0.429,0,0.5239,1);
    transform: matrix(0.914,0,0,0.914,0,0);
    opacity: 1;
  }
  87% {
    animation-timing-function: cubic-bezier(0.3501,0,0.6422,1);
    transform: matrix(1.013,0,0,1.013,0,0);
    opacity: 1;
  }
  95.8% {
    animation-timing-function: cubic-bezier(0.3653,0,0.6776,1);
    transform: matrix(0.992,0,0,0.992,0,0);
    opacity: 1;
  }
  100% {
    transform: matrix(1,0,0,1,0,0);
    opacity: 1;
  }
}</style><!-- [ldio] generated by https://loading.io/ --></svg>