<?xml version="1.0" encoding="utf-8"?>
<svg xml:space="preserve" viewBox="0 0 100 100" y="0" x="0" xmlns="http://www.w3.org/2000/svg" id="圖層_1" version="1.1" style="height: 100%; width: 100%; background: none; shape-rendering: auto;" width="47px" height="47px"><g class="ldl-scale" style="transform-origin: 50% 50%; transform: rotate(0deg) scale(0.8, 0.8);"><g class="ldl-ani" style="transform-origin: 50px 50px; transform: matrix(0.01, 0, 0, 0.01, 0, 0); animation: 1.11111s linear 0s 1 normal forwards running bounce-in-a497c5e0-2421-4168-a6ab-e8b4b305560c;"><g class="ldl-layer"><g class="ldl-ani"><g><g class="ldl-layer"><g class="ldl-ani" style="transform-origin: 50px 74.4165px;"><path fill="#333" d="M52 92.5h-4V58.333a2 2 0 1 1 4 0V92.5z" style="fill: rgb(51, 51, 51);"></path></g></g></g></g></g><g class="ldl-layer"><g class="ldl-ani" style="transform-origin: 56.9582px 74.3232px;"><path fill="#333" d="M48 56.334a2 2 0 0 0-.967 2.658L62.658 92.5h4.413L50.658 57.301A2 2 0 0 0 48 56.334z" style="fill: rgb(51, 51, 51);"></path></g></g><g class="ldl-layer"><g class="ldl-ani" style="transform-origin: 43.0417px 74.3232px;"><path fill="#333" d="M52 56.334a2 2 0 0 0-2.658.967L32.929 92.5h4.413l15.625-33.509A1.999 1.999 0 0 0 52 56.334z" style="fill: rgb(51, 51, 51);"></path></g></g><g class="ldl-layer"><g class="ldl-ani" style="transform-origin: 49.9995px 51.4395px;"><path d="M18.294 29.997h63.411v42.885H18.294z" fill="#f5e6c8" style="fill: rgb(245, 230, 200);"></path></g></g><g class="ldl-layer"><g class="ldl-ani" style="transform-origin: 49.9995px 51.4395px;"><path d="M18.294 29.997h63.411v42.885H18.294z" fill="none"></path></g></g><g class="ldl-layer"><g class="ldl-ani" style="transform-origin: 50px 51.4395px;"><path d="M85.836 25.867H14.164v51.145H85.836V25.867zm-4.13 47.015H18.294V29.997h63.411v42.885z" style="fill: rgb(0, 0, 0);"></path></g></g><g class="ldl-layer"><g class="ldl-ani" style="transform-origin: 50px 38.8235px;"><path d="M80.018 7.5L69.344 20.257l4.875-.51-8.754 28.545-5.141-11.428L49.94 54.726l-4.664-5.344-3.7 8.248-2.96-6.158-3.066 7.204-2.78-2.394-2.448 5.822-2.232-3.193-2.729 2.62-4.066-7.085-3 2.839v5.377l2.081-1.968 4.085 7.116 3.042-2.92 3.676 5.257 3.111-7.401 2.761 2.378 1.781-4.185 2.867 5.962 4.645-10.354 4.234 4.854L59.88 45.4l6.278 13.956 11.796-38.464 3.751 3.155z" fill="#849b87" style="fill: rgb(132, 155, 135);"></path></g></g><metadata xmlns:d="https://loading.io/stock/"><d:name>growth</d:name><d:tags>canvas,increase,profit,revenue,growth,business</d:tags><d:license>pro</d:license><d:slug>cw20e7</d:slug></metadata></g></g><style id="bounce-in-a497c5e0-2421-4168-a6ab-e8b4b305560c" data-anikit="">@keyframes bounce-in-a497c5e0-2421-4168-a6ab-e8b4b305560c
{
  0% {
    animation-timing-function: cubic-bezier(0.0383,0.3388,0.0421,0.6652);
    transform: matrix(0.01,0,0,0.01,0,0);
    opacity: 1;
  }
  4.7% {
    animation-timing-function: cubic-bezier(0.3296,0.3336,0.5772,0.6672);
    transform: matrix(0.556,0,0,0.556,0,0);
    opacity: 1;
  }
  8.4% {
    animation-timing-function: cubic-bezier(0.0781,0.1617,0.0874,0.9301);
    transform: matrix(0.979,0,0,0.979,0,0);
    opacity: 1;
  }
  12.4% {
    animation-timing-function: cubic-bezier(0.8341,0.1496,0.8634,0.7673);
    transform: matrix(1.153,0,0,1.153,0,0);
    opacity: 1;
  }
  16.3% {
    animation-timing-function: cubic-bezier(0.3264,0.3332,0.5758,0.6695);
    transform: matrix(1.008,0,0,1.008,0,0);
    opacity: 1;
  }
  21.2% {
    animation-timing-function: cubic-bezier(0.0921,0.1883,0.3277,1);
    transform: matrix(0.704,0,0,0.704,0,0);
    opacity: 1;
  }
  24.5% {
    animation-timing-function: cubic-bezier(0.6905,0.0944,0.8759,0.7624);
    transform: matrix(0.626,0,0,0.626,0,0);
    opacity: 1;
  }
  27.7% {
    animation-timing-function: cubic-bezier(0.3688,0.332,0.624,0.6684);
    transform: matrix(0.704,0,0,0.704,0,0);
    opacity: 1;
  }
  32.6% {
    animation-timing-function: cubic-bezier(0.1368,0.2364,0.2451,0.9049);
    transform: matrix(0.958,0,0,0.958,0,0);
    opacity: 1;
  }
  37.4% {
    animation-timing-function: cubic-bezier(0.5936,0.0846,0.3495,1);
    transform: matrix(1.085,0,0,1.085,0,0);
    opacity: 1;
  }
  49.5% {
    animation-timing-function: cubic-bezier(0.5522,0.0981,0.3807,1);
    transform: matrix(0.802,0,0,0.802,0,0);
    opacity: 1;
  }
  62.4% {
    animation-timing-function: cubic-bezier(0.4497,0.1349,0.4911,1);
    transform: matrix(1.044,0,0,1.044,0,0);
    opacity: 1;
  }
  74.1% {
    animation-timing-function: cubic-bezier(0.429,0,0.5239,1);
    transform: matrix(0.914,0,0,0.914,0,0);
    opacity: 1;
  }
  87% {
    animation-timing-function: cubic-bezier(0.3501,0,0.6422,1);
    transform: matrix(1.013,0,0,1.013,0,0);
    opacity: 1;
  }
  95.8% {
    animation-timing-function: cubic-bezier(0.3653,0,0.6776,1);
    transform: matrix(0.992,0,0,0.992,0,0);
    opacity: 1;
  }
  100% {
    transform: matrix(1,0,0,1,0,0);
    opacity: 1;
  }
}</style><!-- [ldio] generated by https://loading.io/ --></svg>