<?xml version="1.0" encoding="utf-8"?>
<svg xml:space="preserve" viewBox="0 0 100 100" y="0" x="0" xmlns="http://www.w3.org/2000/svg" id="Layer_1" version="1.1" style="height: 100%; width: 100%; background: none; shape-rendering: auto;" width="47px" height="47px"><g class="ldl-scale" style="transform-origin: 50% 50%; transform: rotate(0deg) scale(0.8, 0.8);"><g class="ldl-ani"><g class="ldl-layer"><g class="ldl-ani" style="transform-origin: 50px 0px; transform: rotate(0deg); animation: 1.11111s linear -0.740741s infinite normal forwards running jingle-ce9b5070-4f15-42a7-940c-4e78a01cc9ca;"><path fill="#e0e0e0" d="M77.48 28.757L61.231 12.508c-1.191-1.166-2.28-1.727-3.276-1.732H22.589c-.943 0-1.711.762-1.711 1.698v75.051c0 .936.768 1.698 1.711 1.698h54.822c.943 0 1.711-.762 1.711-1.698V32.033c.009-.998-.508-2.085-1.642-3.276z" style="fill: rgb(236, 166, 17);"></path></g></g><g class="ldl-layer"><g class="ldl-ani" style="transform-origin: 50px 0px; transform: rotate(0deg); animation: 1.11111s linear -0.925926s infinite normal forwards running jingle-ce9b5070-4f15-42a7-940c-4e78a01cc9ca;"><path fill="#666" d="M62.414 28.757H77.48L61.231 12.508v15.066c0 .652.531 1.183 1.183 1.183z" style="fill: rgb(253, 200, 35);"></path></g></g><g class="ldl-layer"><g class="ldl-ani" style="transform-origin: 50px 0px; transform: rotate(0deg); animation: 1.11111s linear -1.11111s infinite normal forwards running jingle-ce9b5070-4f15-42a7-940c-4e78a01cc9ca;"><path fill="#323232" d="M80.461 26.424L62.256 8.286a2.676 2.676 0 0 0-1.902-.786H22.589c-2.75 0-4.987 2.232-4.987 4.975v75.051c0 2.743 2.237 4.975 4.987 4.975h54.822c2.75 0 4.987-2.232 4.987-4.975V31.085a6.536 6.536 0 0 0-1.937-4.661zm-2.981 2.333H62.414a1.185 1.185 0 0 1-1.183-1.183V12.508L77.48 28.757zm-.069 60.467H22.589a1.707 1.707 0 0 1-1.711-1.698V12.475c0-.936.768-1.698 1.711-1.698h35.366v16.798c0 2.459 2 4.459 4.459 4.459h16.708v55.493c0 .935-.767 1.697-1.711 1.697zm-16.267-31.82v-3.018h-.007c-.08-6.608-5.455-11.942-12.081-11.942s-12.002 5.334-12.081 11.942h-.007v3.018H34.55v20.098a2.72 2.72 0 0 0 2.72 2.72h23.573a2.72 2.72 0 0 0 2.72-2.72V57.404h-2.419zM50.17 70.213l1.115 3.524h-4.447l1.115-3.524a2.588 2.588 0 0 1 1.102-4.934 2.594 2.594 0 0 1 2.594 2.594c0 1.04-.616 1.931-1.5 2.344l.021-.004zm7.348-12.809H40.593v-3.018h.007c.079-4.605 3.831-8.315 8.455-8.315s8.376 3.71 8.455 8.315h.007v3.018z" style="fill: rgb(255, 243, 106);"></path></g></g><metadata xmlns:d="https://loading.io/stock/"><d:name>lock</d:name><d:tags>lock,secret,protect,private,password,file,encrypted</d:tags><d:license>by</d:license><d:slug>mwjvas</d:slug></metadata></g></g><style id="jingle-ce9b5070-4f15-42a7-940c-4e78a01cc9ca" data-anikit="">@keyframes jingle-ce9b5070-4f15-42a7-940c-4e78a01cc9ca
{
  0% {
    animation-timing-function: cubic-bezier(0.146,0.2111,0.5902,1.3204);
    transform: rotate(0deg);
  }
  11% {
    animation-timing-function: cubic-bezier(0.1079,0.1992,-0.6462,0.828);
    transform: rotate(7.61deg);
  }
  23% {
    animation-timing-function: cubic-bezier(0.0504,0.0951,0.0163,0.9677);
    transform: rotate(-5.789999999999999deg);
  }
  36% {
    animation-timing-function: cubic-bezier(0.0475,0.0921,0.3134,1.0455);
    transform: rotate(3.35deg);
  }
  49% {
    animation-timing-function: cubic-bezier(0.0789,0.1565,0.3413,1.0972);
    transform: rotate(-1.9300000000000002deg);
  }
  62% {
    animation-timing-function: cubic-bezier(0.141,0.2885,0.406,1.1519);
    transform: rotate(1.12deg);
  }
  75% {
    animation-timing-function: cubic-bezier(0.226,0.4698,0.5031,1.1722);
    transform: rotate(-0.64deg);
  }
  88% {
    animation-timing-function: cubic-bezier(0.3121,0.5521,0.5655,0.8997);
    transform: rotate(0.37deg);
  }
  100% {
    transform: rotate(-0.28deg);
  }
}</style><!-- [ldio] generated by https://loading.io/ --></svg>