<?xml version="1.0" encoding="utf-8"?>
<svg xml:space="preserve" viewBox="0 0 100 100" y="0" x="0" xmlns="http://www.w3.org/2000/svg" id="圖層_1" version="1.1" style="height: 100%; width: 100%; background: none; shape-rendering: auto;" width="47px" height="47px"><g class="ldl-scale" style="transform-origin: 50% 50%; transform: rotate(0deg) scale(0.8, 0.8);"><g class="ldl-ani"><g class="ldl-layer"><g class="ldl-ani"><g><g class="ldl-layer"><g class="ldl-ani" style="transform-origin: 50px 50px; transform: scale(1.3); animation: 1.11111s linear -0.625s infinite normal forwards running heartbeat-a53d420c-96ab-4d10-a617-6141064ee784;"><path fill="#333" d="M86.1 18.4H14.3c-3.7 0-6.8 3-6.8 6.8v56.4c0 3.7 3 6.8 6.8 6.8h71.5c3.7 0 6.8-3 6.8-6.8V25.2c-.1-3.6-2.9-6.6-6.5-6.8z" style="fill: rgb(51, 51, 51);"></path></g></g><g class="ldl-layer"><g class="ldl-ani" style="transform-origin: 50px 50px; transform: scale(1.3); animation: 1.11111s linear -0.694444s infinite normal forwards running heartbeat-a53d420c-96ab-4d10-a617-6141064ee784;"><path d="M86.2 18.4z" fill="#333" style="fill: rgb(51, 51, 51);"></path></g></g></g></g></g><g class="ldl-layer"><g class="ldl-ani" style="transform-origin: 50px 50px; transform: scale(1.3); animation: 1.11111s linear -0.763889s infinite normal forwards running heartbeat-a53d420c-96ab-4d10-a617-6141064ee784;"><path fill="#fff" d="M14.3 82.5h71.5c.5 0 1-.4 1-1V42.7H13.3v38.8c0 .6.4 1 1 1z" style="fill: rgb(255, 255, 255);"></path></g></g><g class="ldl-layer"><g class="ldl-ani"><g><g class="ldl-layer"><g class="ldl-ani" style="transform-origin: 50px 50px; transform: scale(1.3); animation: 1.11111s linear -0.833333s infinite normal forwards running heartbeat-a53d420c-96ab-4d10-a617-6141064ee784;"><path fill="#e0e0e0" d="M29.7 37.2c-4.4 0-8-3.6-8-8V17.7c0-4.4 3.6-8 8-8s8 3.6 8 8v11.5c0 4.4-3.6 8-8 8z" style="fill: rgb(224, 224, 224);"></path></g></g><g class="ldl-layer"><g class="ldl-ani" style="transform-origin: 50px 50px; transform: scale(1.3); animation: 1.11111s linear -0.902778s infinite normal forwards running heartbeat-a53d420c-96ab-4d10-a617-6141064ee784;"><path fill="#333" d="M29.7 11.7c3.3 0 6 2.7 6 6v11.5c0 3.3-2.7 6-6 6s-6-2.7-6-6V17.7c0-3.3 2.7-6 6-6m0-4c-5.5 0-10 4.5-10 10v11.5c0 5.5 4.5 10 10 10s10-4.5 10-10V17.7c0-5.5-4.5-10-10-10z" style="fill: rgb(51, 51, 51);"></path></g></g></g></g></g><g class="ldl-layer"><g class="ldl-ani"><g><g class="ldl-layer"><g class="ldl-ani" style="transform-origin: 50px 50px; transform: scale(1.3); animation: 1.11111s linear -0.972222s infinite normal forwards running heartbeat-a53d420c-96ab-4d10-a617-6141064ee784;"><path fill="#e0e0e0" d="M69.6 37.2c-4.4 0-8-3.6-8-8V17.7c0-4.4 3.6-8 8-8s8 3.6 8 8v11.5c0 4.4-3.5 8-8 8z" style="fill: rgb(224, 224, 224);"></path></g></g><g class="ldl-layer"><g class="ldl-ani" style="transform-origin: 50px 50px; transform: scale(1.3); animation: 1.11111s linear -1.04167s infinite normal forwards running heartbeat-a53d420c-96ab-4d10-a617-6141064ee784;"><path fill="#333" d="M69.6 11.7c3.3 0 6 2.7 6 6v11.5c0 3.3-2.7 6-6 6s-6-2.7-6-6V17.7c0-3.3 2.7-6 6-6m0-4c-5.5 0-10 4.5-10 10v11.5c0 5.5 4.5 10 10 10s10-4.5 10-10V17.7c0-5.5-4.4-10-10-10z" style="fill: rgb(51, 51, 51);"></path></g></g></g></g></g><g class="ldl-layer"><g class="ldl-ani"><g><g class="ldl-layer"><g class="ldl-ani" style="transform-origin: 50px 50px; transform: scale(1.3); animation: 1.11111s linear -1.11111s infinite normal forwards running heartbeat-a53d420c-96ab-4d10-a617-6141064ee784;"><path d="M46.8 75.8L32.5 61.4l5.7-5.7 8.6 8.7 15-15 5.7 5.7z" fill="#e15b64" style="fill: rgb(225, 91, 100);"></path></g></g></g></g></g><metadata xmlns:d="https://loading.io/stock/">
<d:name>calendar</d:name>
<d:tags>rsvp,accept,schedule,date,time,plan,agenda,journal,calendar,web application</d:tags>
<d:license>by</d:license>
<d:slug>jnf53l</d:slug>
</metadata></g></g><style id="heartbeat-a53d420c-96ab-4d10-a617-6141064ee784" data-anikit="">@keyframes heartbeat-a53d420c-96ab-4d10-a617-6141064ee784
{
  0% {
    animation-timing-function: cubic-bezier(0.1678,0.6042,0.5465,3.0859);
    transform: scale(1.3);
  }
  30% {
    animation-timing-function: cubic-bezier(0.3206,0.3435,0.6825,0.6598);
    transform: scale(1.15);
  }
  31% {
    animation-timing-function: cubic-bezier(0.2811,0.5061,0.5347,0.909);
    transform: scale(1.1458);
  }
  100% {
    transform: scale(1);
  }
}</style><!-- [ldio] generated by https://loading.io/ --></svg>