<?xml version="1.0" encoding="utf-8"?>
<svg xml:space="preserve" viewBox="0 0 100 100" y="0" x="0" xmlns="http://www.w3.org/2000/svg" id="Layer_1" version="1.1" style="height: 100%; width: 100%; background: none; shape-rendering: auto;" width="47px" height="47px"><g class="ldl-scale" style="transform-origin: 50% 50%; transform: rotate(0deg) scale(0.8, 0.8);"><g class="ldl-ani"><g class="ldl-layer"><g class="ldl-ani" style="transform-origin: 50px 50px; opacity: 1; animation: 1.11111s linear -0.601852s infinite normal forwards running blink-821d66de-6cda-4141-ad55-eda3948d9468;"><path fill="#d65a62" d="M50 27.5c-2.2 0-4-1.8-4-4v-12c0-2.2 1.8-4 4-4s4 1.8 4 4v12c0 2.2-1.8 4-4 4z" style="fill: rgb(94, 111, 163);"></path></g></g><g class="ldl-layer"><g class="ldl-ani" style="transform-origin: 50px 50px; opacity: 1; animation: 1.11111s linear -0.648148s infinite normal forwards running blink-821d66de-6cda-4141-ad55-eda3948d9468;"><path fill="#ea7c60" d="M38.8 30.5c-1.9 1.1-4.4.4-5.5-1.5l-6-10.4c-1.1-1.9-.4-4.4 1.5-5.5 1.9-1.1 4.4-.4 5.5 1.5l6 10.4c1 2 .4 4.4-1.5 5.5z" style="fill: rgb(104, 156, 197);"></path></g></g><g class="ldl-layer"><g class="ldl-ani" style="transform-origin: 50px 50px; opacity: 1; animation: 1.11111s linear -0.694444s infinite normal forwards running blink-821d66de-6cda-4141-ad55-eda3948d9468;"><path fill="#f0af6b" d="M30.5 38.7c-1.1 1.9-3.6 2.6-5.5 1.5l-10.4-6c-1.9-1.1-2.6-3.6-1.5-5.5s3.6-2.6 5.5-1.5l10.4 6c2 1.2 2.6 3.6 1.5 5.5z" style="fill: rgb(147, 219, 233);"></path></g></g><g class="ldl-layer"><g class="ldl-ani" style="transform-origin: 50px 50px; opacity: 1; animation: 1.11111s linear -0.740741s infinite normal forwards running blink-821d66de-6cda-4141-ad55-eda3948d9468;"><path fill="#d65a62" d="M27.5 50c0 2.2-1.8 4-4 4h-12c-2.2 0-4-1.8-4-4s1.8-4 4-4h12c2.2 0 4 1.8 4 4z" style="fill: rgb(94, 111, 163);"></path></g></g><g class="ldl-layer"><g class="ldl-ani" style="transform-origin: 50px 50px; opacity: 1; animation: 1.11111s linear -0.787037s infinite normal forwards running blink-821d66de-6cda-4141-ad55-eda3948d9468;"><path fill="#ea7c60" d="M30.5 61.2c1.1 1.9.4 4.4-1.5 5.5l-10.4 6c-1.9 1.1-4.4.4-5.5-1.5-1.1-1.9-.4-4.4 1.5-5.5l10.4-6c2-1 4.4-.4 5.5 1.5z" style="fill: rgb(104, 156, 197);"></path></g></g><g class="ldl-layer"><g class="ldl-ani" style="transform-origin: 50px 50px; opacity: 1; animation: 1.11111s linear -0.833333s infinite normal forwards running blink-821d66de-6cda-4141-ad55-eda3948d9468;"><path fill="#f0af6b" d="M38.7 69.5c1.9 1.1 2.6 3.6 1.5 5.5l-6 10.4c-1.1 1.9-3.6 2.6-5.5 1.5s-2.6-3.6-1.5-5.5l6-10.4c1.2-2 3.6-2.6 5.5-1.5z" style="fill: rgb(147, 219, 233);"></path></g></g><g class="ldl-layer"><g class="ldl-ani" style="transform-origin: 50px 50px; opacity: 1; animation: 1.11111s linear -0.87963s infinite normal forwards running blink-821d66de-6cda-4141-ad55-eda3948d9468;"><path fill="#d65a62" d="M50 72.5c2.2 0 4 1.8 4 4v12c0 2.2-1.8 4-4 4s-4-1.8-4-4v-12c0-2.2 1.8-4 4-4z" style="fill: rgb(94, 111, 163);"></path></g></g><g class="ldl-layer"><g class="ldl-ani" style="transform-origin: 50px 50px; opacity: 1; animation: 1.11111s linear -0.925926s infinite normal forwards running blink-821d66de-6cda-4141-ad55-eda3948d9468;"><path fill="#ea7c60" d="M61.2 69.5c1.9-1.1 4.4-.4 5.5 1.5l6 10.4c1.1 1.9.4 4.4-1.5 5.5-1.9 1.1-4.4.4-5.5-1.5l-6-10.4c-1-2-.4-4.4 1.5-5.5z" style="fill: rgb(104, 156, 197);"></path></g></g><g class="ldl-layer"><g class="ldl-ani" style="transform-origin: 50px 50px; opacity: 1; animation: 1.11111s linear -0.972222s infinite normal forwards running blink-821d66de-6cda-4141-ad55-eda3948d9468;"><path fill="#f0af6b" d="M69.5 61.3c1.1-1.9 3.6-2.6 5.5-1.5l10.4 6c1.9 1.1 2.6 3.6 1.5 5.5s-3.6 2.6-5.5 1.5l-10.4-6c-2-1.2-2.6-3.6-1.5-5.5z" style="fill: rgb(147, 219, 233);"></path></g></g><g class="ldl-layer"><g class="ldl-ani" style="transform-origin: 50px 50px; opacity: 1; animation: 1.11111s linear -1.01852s infinite normal forwards running blink-821d66de-6cda-4141-ad55-eda3948d9468;"><path fill="#d65a62" d="M72.5 50c0-2.2 1.8-4 4-4h12c2.2 0 4 1.8 4 4s-1.8 4-4 4h-12c-2.2 0-4-1.8-4-4z" style="fill: rgb(94, 111, 163);"></path></g></g><g class="ldl-layer"><g class="ldl-ani" style="transform-origin: 50px 50px; opacity: 1; animation: 1.11111s linear -1.06481s infinite normal forwards running blink-821d66de-6cda-4141-ad55-eda3948d9468;"><path fill="#ea7c60" d="M69.5 38.8c-1.1-1.9-.4-4.4 1.5-5.5l10.4-6c1.9-1.1 4.4-.4 5.5 1.5 1.1 1.9.4 4.4-1.5 5.5l-10.4 6c-2 1-4.4.4-5.5-1.5z" style="fill: rgb(104, 156, 197);"></path></g></g><g class="ldl-layer"><g class="ldl-ani" style="transform-origin: 50px 50px; opacity: 1; animation: 1.11111s linear -1.11111s infinite normal forwards running blink-821d66de-6cda-4141-ad55-eda3948d9468;"><path fill="#f0af6b" d="M61.3 30.5c-1.9-1.1-2.6-3.6-1.5-5.5l6-10.4c1.1-1.9 3.6-2.6 5.5-1.5s2.6 3.6 1.5 5.5l-6 10.4c-1.2 2-3.6 2.6-5.5 1.5z" style="fill: rgb(147, 219, 233);"></path></g></g><metadata xmlns:d="https://loading.io/stock/"><d:name>spinner</d:name><d:tags>loader,preloader,ajax spin,loading icon,spinner,spinner</d:tags><d:license>free</d:license><d:slug>h25hi5</d:slug></metadata></g></g><style id="blink-821d66de-6cda-4141-ad55-eda3948d9468" data-anikit="">@keyframes blink-821d66de-6cda-4141-ad55-eda3948d9468 {
  0% { opacity: 1; }
  49.75% { opacity: 1; }
  50.25% { opacity: 0; }
  99.5% { opacity: 0; }
  100% { opacity: 1; }
}</style><!-- [ldio] generated by https://loading.io/ --></svg>