<?xml version="1.0" encoding="windows-1252"?>
<!-- Generator: Adobe Illustrator 19.1.1, SVG Export Plug-In . SVG Version: 6.00 Build 0)  -->
<svg version="1.1" id="Layer_1" xmlns="http://www.w3.org/2000/svg" xmlns:xlink="http://www.w3.org/1999/xlink" x="0px" y="0px" viewBox="0 0 48 48" enable-background="new 0 0 48 48" xml:space="preserve">
<path fill="#455A64" d="M32,5h-8c0,1.103-1,3-3,3s-3-1.897-3-3h-8C7.791,5,6,6.79,6,9v30c0,2.209,1.791,4,4,4h22  c2.209,0,4-1.791,4-4V9C36,6.79,34.209,5,32,5"/>
<path fill="#FFFFFF" d="M32,40H10c-0.552,0-1-0.449-1-1V9c0-0.551,0.448-1,1-1h22c0.552,0,1,0.449,1,1v30C33,39.551,32.552,40,32,40  z"/>
<path fill="#90A4AE" d="M25,5c0-2.207-1.794-4-4-4s-4,1.793-4,4h-5v4c0,1.105,0.894,2,2,2h14c1.104,0,2-0.895,2-2V5H25z M21,3  c1.102,0,2,0.896,2,2c0,1.103-0.898,2-2,2c-1.104,0-2-0.897-2-2C19,3.896,19.896,3,21,3z"/>
<path fill="#616161" d="M25.188,46h14.625C41.021,46,42,45.021,42,43.813V22.188C42,20.979,41.021,20,39.813,20H25.188  C23.979,20,23,20.979,23,22.188v21.625C23,45.021,23.979,46,25.188,46z"/>
<path fill="#1565C0" d="M18,20h-2v-5h2V20z M14,14h-2v6h2V14z"/>
<path fill="#64B5F6" d="M16,20h-2v-3h2V20z M20,16h-2v4h2V16z"/>
<path fill="#FF5252" d="M38.188,33h-1.375C36.364,33,36,32.636,36,32.188v-1.375C36,30.364,36.364,30,36.813,30h1.375  C38.636,30,39,30.364,39,30.813v1.375C39,32.636,38.636,33,38.188,33z"/>
<path fill="#E0E0E0" d="M28.188,33h-1.375C26.364,33,26,32.636,26,32.188v-1.375C26,30.364,26.364,30,26.813,30h1.375  C28.636,30,29,30.364,29,30.813v1.375C29,32.636,28.636,33,28.188,33z M34,32.188v-1.375C34,30.364,33.636,30,33.188,30h-1.375  C31.364,30,31,30.364,31,30.813v1.375C31,32.636,31.364,33,31.813,33h1.375C33.636,33,34,32.636,34,32.188z M29,37.188v-1.375  C29,35.364,28.636,35,28.188,35h-1.375C26.364,35,26,35.364,26,35.813v1.375C26,37.636,26.364,38,26.813,38h1.375  C28.636,38,29,37.636,29,37.188z M34,37.188v-1.375C34,35.364,33.636,35,33.188,35h-1.375C31.364,35,31,35.364,31,35.813v1.375  C31,37.636,31.364,38,31.813,38h1.375C33.636,38,34,37.636,34,37.188z M39,37.188v-1.375C39,35.364,38.636,35,38.188,35h-1.375  C36.364,35,36,35.364,36,35.813v1.375C36,37.636,36.364,38,36.813,38h1.375C38.636,38,39,37.636,39,37.188z M29,42.188v-1.375  C29,40.364,28.636,40,28.188,40h-1.375C26.364,40,26,40.364,26,40.813v1.375C26,42.636,26.364,43,26.813,43h1.375  C28.636,43,29,42.636,29,42.188z M34,42.188v-1.375C34,40.364,33.636,40,33.188,40h-1.375C31.364,40,31,40.364,31,40.813v1.375  C31,42.636,31.364,43,31.813,43h1.375C33.636,43,34,42.636,34,42.188z M39,42.188v-1.375C39,40.364,38.636,40,38.188,40h-1.375  C36.364,40,36,40.364,36,40.813v1.375C36,42.636,36.364,43,36.813,43h1.375C38.636,43,39,42.636,39,42.188z"/>
<path fill="#424242" d="M42,28v-5.813C42,20.979,41.021,20,39.813,20H25.188C23.979,20,23,20.979,23,22.188V28H42z"/>
<rect x="25" y="22" fill="#9CCC65" width="15" height="4"/>
<circle fill="#CDDC39" cx="16" cy="30" r="5"/>
<path fill="#4CAF50" d="M21,30c0-2.761-2.239-5-5-5v5H21z"/>
<rect x="37" y="23" fill="#33691E" width="2" height="2"/>
</svg>