<?xml version="1.0" encoding="utf-8"?>
<svg xml:space="preserve" viewBox="0 0 100 100" y="0" x="0" xmlns="http://www.w3.org/2000/svg" id="圖層_1" version="1.1" style="height: 100%; width: 100%; background: none; shape-rendering: auto;" width="47px" height="47px"><g class="ldl-scale" style="transform-origin: 50% 50%; transform: rotate(0deg) scale(0.8, 0.8);"><g class="ldl-ani"><g class="ldl-layer"><g class="ldl-ani"><g><g class="ldl-layer"><g class="ldl-ani" style="transform-origin: 50px 50px; transform: matrix(0.01, 0, 0, 0.01, 0, 0); animation: 1.11111s linear 0.486111s 1 normal forwards running bounce-in-ca09cecc-cea8-4c9b-99ac-66798baae6a7;"><path fill="#333" d="M86.1 18.4H14.3c-3.7 0-6.8 3-6.8 6.8v56.4c0 3.7 3 6.8 6.8 6.8h71.5c3.7 0 6.8-3 6.8-6.8V25.2c-.1-3.6-2.9-6.6-6.5-6.8z" style="fill: rgb(51, 51, 51);"></path></g></g><g class="ldl-layer"><g class="ldl-ani" style="transform-origin: 50px 50px; transform: matrix(0.01, 0, 0, 0.01, 0, 0); animation: 1.11111s linear 0.416667s 1 normal forwards running bounce-in-ca09cecc-cea8-4c9b-99ac-66798baae6a7;"><path d="M86.2 18.4z" fill="#333" style="fill: rgb(51, 51, 51);"></path></g></g></g></g></g><g class="ldl-layer"><g class="ldl-ani" style="transform-origin: 50px 50px; transform: matrix(0.01, 0, 0, 0.01, 0, 0); animation: 1.11111s linear 0.347222s 1 normal forwards running bounce-in-ca09cecc-cea8-4c9b-99ac-66798baae6a7;"><path fill="#fff" d="M14.3 82.5h71.5c.5 0 1-.4 1-1V42.7H13.3v38.8c0 .6.4 1 1 1z" style="fill: rgb(255, 255, 255);"></path></g></g><g class="ldl-layer"><g class="ldl-ani"><g><g class="ldl-layer"><g class="ldl-ani" style="transform-origin: 50px 50px; transform: matrix(0.01, 0, 0, 0.01, 0, 0); animation: 1.11111s linear 0.277778s 1 normal forwards running bounce-in-ca09cecc-cea8-4c9b-99ac-66798baae6a7;"><path fill="#e0e0e0" d="M29.7 37.2c-4.4 0-8-3.6-8-8V17.7c0-4.4 3.6-8 8-8s8 3.6 8 8v11.5c0 4.4-3.6 8-8 8z" style="fill: rgb(224, 224, 224);"></path></g></g><g class="ldl-layer"><g class="ldl-ani" style="transform-origin: 50px 50px; transform: matrix(0.01, 0, 0, 0.01, 0, 0); animation: 1.11111s linear 0.208333s 1 normal forwards running bounce-in-ca09cecc-cea8-4c9b-99ac-66798baae6a7;"><path fill="#333" d="M29.7 11.7c3.3 0 6 2.7 6 6v11.5c0 3.3-2.7 6-6 6s-6-2.7-6-6V17.7c0-3.3 2.7-6 6-6m0-4c-5.5 0-10 4.5-10 10v11.5c0 5.5 4.5 10 10 10s10-4.5 10-10V17.7c0-5.5-4.5-10-10-10z" style="fill: rgb(51, 51, 51);"></path></g></g></g></g></g><g class="ldl-layer"><g class="ldl-ani"><g><g class="ldl-layer"><g class="ldl-ani" style="transform-origin: 50px 50px; transform: matrix(0.01, 0, 0, 0.01, 0, 0); animation: 1.11111s linear 0.138889s 1 normal forwards running bounce-in-ca09cecc-cea8-4c9b-99ac-66798baae6a7;"><path fill="#e0e0e0" d="M69.6 37.2c-4.4 0-8-3.6-8-8V17.7c0-4.4 3.6-8 8-8s8 3.6 8 8v11.5c0 4.4-3.5 8-8 8z" style="fill: rgb(224, 224, 224);"></path></g></g><g class="ldl-layer"><g class="ldl-ani" style="transform-origin: 50px 50px; transform: matrix(0.01, 0, 0, 0.01, 0, 0); animation: 1.11111s linear 0.0694444s 1 normal forwards running bounce-in-ca09cecc-cea8-4c9b-99ac-66798baae6a7;"><path fill="#333" d="M69.6 11.7c3.3 0 6 2.7 6 6v11.5c0 3.3-2.7 6-6 6s-6-2.7-6-6V17.7c0-3.3 2.7-6 6-6m0-4c-5.5 0-10 4.5-10 10v11.5c0 5.5 4.5 10 10 10s10-4.5 10-10V17.7c0-5.5-4.4-10-10-10z" style="fill: rgb(51, 51, 51);"></path></g></g></g></g></g><g class="ldl-layer"><g class="ldl-ani" style="transform-origin: 50px 50px; transform: matrix(0.01, 0, 0, 0.01, 0, 0); animation: 1.11111s linear 0s 1 normal forwards running bounce-in-ca09cecc-cea8-4c9b-99ac-66798baae6a7;"><path d="M56.2 51.2L50 57.4l-6.2-6.2-5.2 5.2 6.2 6.2-6.2 6.3 5.2 5.2 6.2-6.3 6.2 6.3 5.2-5.2-6.2-6.3 6.2-6.2z" fill="#e15b64" style="fill: rgb(225, 91, 100);"></path></g></g><metadata xmlns:d="https://loading.io/stock/">
<d:name>calendar</d:name>
<d:tags>rsvp,reject,schedule,date,time,plan,agenda,journal,calendar,web application</d:tags>
<d:license>by</d:license>
<d:slug>ig2ewi</d:slug>
</metadata></g></g><style id="bounce-in-ca09cecc-cea8-4c9b-99ac-66798baae6a7" data-anikit="">@keyframes bounce-in-ca09cecc-cea8-4c9b-99ac-66798baae6a7
{
  0% {
    animation-timing-function: cubic-bezier(0.0383,0.3388,0.0421,0.6652);
    transform: matrix(0.01,0,0,0.01,0,0);
    opacity: 1;
  }
  4.7% {
    animation-timing-function: cubic-bezier(0.3296,0.3336,0.5772,0.6672);
    transform: matrix(0.556,0,0,0.556,0,0);
    opacity: 1;
  }
  8.4% {
    animation-timing-function: cubic-bezier(0.0781,0.1617,0.0874,0.9301);
    transform: matrix(0.979,0,0,0.979,0,0);
    opacity: 1;
  }
  12.4% {
    animation-timing-function: cubic-bezier(0.8341,0.1496,0.8634,0.7673);
    transform: matrix(1.153,0,0,1.153,0,0);
    opacity: 1;
  }
  16.3% {
    animation-timing-function: cubic-bezier(0.3264,0.3332,0.5758,0.6695);
    transform: matrix(1.008,0,0,1.008,0,0);
    opacity: 1;
  }
  21.2% {
    animation-timing-function: cubic-bezier(0.0921,0.1883,0.3277,1);
    transform: matrix(0.704,0,0,0.704,0,0);
    opacity: 1;
  }
  24.5% {
    animation-timing-function: cubic-bezier(0.6905,0.0944,0.8759,0.7624);
    transform: matrix(0.626,0,0,0.626,0,0);
    opacity: 1;
  }
  27.7% {
    animation-timing-function: cubic-bezier(0.3688,0.332,0.624,0.6684);
    transform: matrix(0.704,0,0,0.704,0,0);
    opacity: 1;
  }
  32.6% {
    animation-timing-function: cubic-bezier(0.1368,0.2364,0.2451,0.9049);
    transform: matrix(0.958,0,0,0.958,0,0);
    opacity: 1;
  }
  37.4% {
    animation-timing-function: cubic-bezier(0.5936,0.0846,0.3495,1);
    transform: matrix(1.085,0,0,1.085,0,0);
    opacity: 1;
  }
  49.5% {
    animation-timing-function: cubic-bezier(0.5522,0.0981,0.3807,1);
    transform: matrix(0.802,0,0,0.802,0,0);
    opacity: 1;
  }
  62.4% {
    animation-timing-function: cubic-bezier(0.4497,0.1349,0.4911,1);
    transform: matrix(1.044,0,0,1.044,0,0);
    opacity: 1;
  }
  74.1% {
    animation-timing-function: cubic-bezier(0.429,0,0.5239,1);
    transform: matrix(0.914,0,0,0.914,0,0);
    opacity: 1;
  }
  87% {
    animation-timing-function: cubic-bezier(0.3501,0,0.6422,1);
    transform: matrix(1.013,0,0,1.013,0,0);
    opacity: 1;
  }
  95.8% {
    animation-timing-function: cubic-bezier(0.3653,0,0.6776,1);
    transform: matrix(0.992,0,0,0.992,0,0);
    opacity: 1;
  }
  100% {
    transform: matrix(1,0,0,1,0,0);
    opacity: 1;
  }
}</style><!-- [ldio] generated by https://loading.io/ --></svg>