<?xml version="1.0" encoding="utf-8"?>
<svg xml:space="preserve" viewBox="0 0 100 100" y="0" x="0" xmlns="http://www.w3.org/2000/svg" id="圖層_1" version="1.1" style="height: 100%; width: 100%; background: none; shape-rendering: auto;" width="47px" height="47px"><g class="ldl-scale" style="transform-origin: 50% 50%; transform: rotate(0deg) scale(0.8, 0.8);"><g class="ldl-ani"><g class="ldl-layer"><g class="ldl-ani"><g><g class="ldl-layer"><g class="ldl-ani" style="transform-origin: 50px 50px; transform: matrix(0.01, 0, 0, 0.01, 0, 0); animation: 1.11111s linear 0.444444s 1 normal forwards running bounce-in-31b1f60e-a289-4233-8c20-ecd65a7a275c;"><path fill="#666" d="M77.8 77.5h-15v-6h15c2.2 0 4-1.8 4-4v-6.4c0-2.2-1.8-4-4-4h-15v-6h15c5.5 0 10 4.5 10 10v6.4c0 5.5-4.5 10-10 10z" style="fill: rgb(102, 102, 102);"></path></g></g></g></g></g><g class="ldl-layer"><g class="ldl-ani" style="transform-origin: 50px 50px; transform: matrix(0.01, 0, 0, 0.01, 0, 0); animation: 1.11111s linear 0.333333s 1 normal forwards running bounce-in-31b1f60e-a289-4233-8c20-ecd65a7a275c;"><path d="M61.5 88.4H28c-6.5 0-11.8-5.3-11.8-11.8V46.9c0-1.3 1-2.3 2.3-2.3h52.4c1.3 0 2.3 1 2.3 2.3v29.7c0 6.5-5.2 11.8-11.7 11.8z" style="fill: rgb(0, 0, 0);"></path></g></g><g class="ldl-layer"><g class="ldl-ani"><g><g class="ldl-layer"><g class="ldl-ani" style="transform-origin: 50px 50px; transform: matrix(0.01, 0, 0, 0.01, 0, 0); animation: 1.11111s linear 0.222222s 1 normal forwards running bounce-in-31b1f60e-a289-4233-8c20-ecd65a7a275c;"><path fill="#e15b64" d="M61 11.6c1.2.6 2.2 1.4 3.1 2.5.9 1 1.6 2.4 1.9 3.9.3 1.5.1 3.1-.4 4.5s-1.2 2.7-2 3.8c-1.3 1.8-2.2 3.5-2.5 5.4-.3 1.9.4 4.1 1.6 6.5a8.2 8.2 0 0 1-3.2-2.4c-.9-1.1-1.6-2.4-1.9-3.9-.3-1.5-.1-3.1.4-4.5s1.2-2.7 2-3.8c1.3-1.8 2.3-3.5 2.5-5.4.3-1.9-.5-4.2-1.5-6.6z" style="fill: rgb(225, 91, 100);"></path></g></g></g></g></g><g class="ldl-layer"><g class="ldl-ani"><g><g class="ldl-layer"><g class="ldl-ani" style="transform-origin: 50px 50px; transform: matrix(0.01, 0, 0, 0.01, 0, 0); animation: 1.11111s linear 0.111111s 1 normal forwards running bounce-in-31b1f60e-a289-4233-8c20-ecd65a7a275c;"><path fill="#e15b64" d="M43.9 11.6c1.2.6 2.2 1.4 3.1 2.5.9 1 1.6 2.4 1.9 3.9.3 1.5.1 3.1-.4 4.5s-1.2 2.7-2 3.8c-1.3 1.8-2.2 3.5-2.5 5.4-.3 1.9.4 4.1 1.6 6.5a8.2 8.2 0 0 1-3.2-2.4c-.9-1.1-1.6-2.4-1.9-3.9-.3-1.5-.1-3.1.4-4.5s1.2-2.7 2-3.8c1.3-1.8 2.3-3.5 2.5-5.4.2-1.8-.6-4.1-1.5-6.6z" style="fill: rgb(225, 91, 100);"></path></g></g></g></g></g><g class="ldl-layer"><g class="ldl-ani"><g><g class="ldl-layer"><g class="ldl-ani" style="transform-origin: 50px 50px; transform: matrix(0.01, 0, 0, 0.01, 0, 0); animation: 1.11111s linear 0s 1 normal forwards running bounce-in-31b1f60e-a289-4233-8c20-ecd65a7a275c;"><path fill="#e15b64" d="M26.7 11.7c1.2.6 2.2 1.4 3.1 2.5.9 1 1.6 2.4 1.9 3.9.3 1.5.1 3.1-.4 4.5s-1.2 2.7-2 3.8c-1.3 1.8-2.2 3.5-2.5 5.4-.3 1.9.4 4.1 1.6 6.5a8.2 8.2 0 0 1-3.2-2.4c-.9-1.1-1.6-2.4-1.9-3.9-.3-1.5-.1-3.1.4-4.5s1.2-2.7 2-3.8c1.3-1.8 2.3-3.5 2.5-5.4.2-1.9-.5-4.2-1.5-6.6z" style="fill: rgb(225, 91, 100);"></path></g></g></g></g></g><metadata xmlns:d="https://loading.io/stock/">
<d:name>coffee</d:name>
<d:tags>cafe,cappuccino,latte,macchiato,tea,hot,drink,coffee,web application</d:tags>
<d:license>by</d:license>
<d:slug>m77ylz</d:slug>
</metadata></g></g><style id="bounce-in-31b1f60e-a289-4233-8c20-ecd65a7a275c" data-anikit="">@keyframes bounce-in-31b1f60e-a289-4233-8c20-ecd65a7a275c
{
  0% {
    animation-timing-function: cubic-bezier(0.0383,0.3388,0.0421,0.6652);
    transform: matrix(0.01,0,0,0.01,0,0);
    opacity: 1;
  }
  4.7% {
    animation-timing-function: cubic-bezier(0.3296,0.3336,0.5772,0.6672);
    transform: matrix(0.556,0,0,0.556,0,0);
    opacity: 1;
  }
  8.4% {
    animation-timing-function: cubic-bezier(0.0781,0.1617,0.0874,0.9301);
    transform: matrix(0.979,0,0,0.979,0,0);
    opacity: 1;
  }
  12.4% {
    animation-timing-function: cubic-bezier(0.8341,0.1496,0.8634,0.7673);
    transform: matrix(1.153,0,0,1.153,0,0);
    opacity: 1;
  }
  16.3% {
    animation-timing-function: cubic-bezier(0.3264,0.3332,0.5758,0.6695);
    transform: matrix(1.008,0,0,1.008,0,0);
    opacity: 1;
  }
  21.2% {
    animation-timing-function: cubic-bezier(0.0921,0.1883,0.3277,1);
    transform: matrix(0.704,0,0,0.704,0,0);
    opacity: 1;
  }
  24.5% {
    animation-timing-function: cubic-bezier(0.6905,0.0944,0.8759,0.7624);
    transform: matrix(0.626,0,0,0.626,0,0);
    opacity: 1;
  }
  27.7% {
    animation-timing-function: cubic-bezier(0.3688,0.332,0.624,0.6684);
    transform: matrix(0.704,0,0,0.704,0,0);
    opacity: 1;
  }
  32.6% {
    animation-timing-function: cubic-bezier(0.1368,0.2364,0.2451,0.9049);
    transform: matrix(0.958,0,0,0.958,0,0);
    opacity: 1;
  }
  37.4% {
    animation-timing-function: cubic-bezier(0.5936,0.0846,0.3495,1);
    transform: matrix(1.085,0,0,1.085,0,0);
    opacity: 1;
  }
  49.5% {
    animation-timing-function: cubic-bezier(0.5522,0.0981,0.3807,1);
    transform: matrix(0.802,0,0,0.802,0,0);
    opacity: 1;
  }
  62.4% {
    animation-timing-function: cubic-bezier(0.4497,0.1349,0.4911,1);
    transform: matrix(1.044,0,0,1.044,0,0);
    opacity: 1;
  }
  74.1% {
    animation-timing-function: cubic-bezier(0.429,0,0.5239,1);
    transform: matrix(0.914,0,0,0.914,0,0);
    opacity: 1;
  }
  87% {
    animation-timing-function: cubic-bezier(0.3501,0,0.6422,1);
    transform: matrix(1.013,0,0,1.013,0,0);
    opacity: 1;
  }
  95.8% {
    animation-timing-function: cubic-bezier(0.3653,0,0.6776,1);
    transform: matrix(0.992,0,0,0.992,0,0);
    opacity: 1;
  }
  100% {
    transform: matrix(1,0,0,1,0,0);
    opacity: 1;
  }
}</style><!-- [ldio] generated by https://loading.io/ --></svg>