<?xml version="1.0" encoding="utf-8"?>
<svg xml:space="preserve" viewBox="0 0 100 100" y="0" x="0" xmlns="http://www.w3.org/2000/svg" id="圖層_1" version="1.1" style="height: 100%; width: 100%; background: none; shape-rendering: auto;" width="47px" height="47px"><g class="ldl-scale" style="transform-origin: 50% 50%; transform: rotate(0deg) scale(0.8, 0.8);"><g class="ldl-ani"><g class="ldl-layer"><g class="ldl-ani"><g><g class="ldl-layer"><g class="ldl-ani" style="transform-origin: 50px 50px; transform: scale(1.3); animation: 1.11111s linear -0.666667s infinite normal forwards running heartbeat-263f5837-a050-4396-bff8-0b6e11829dd0;"><path fill="#666" d="M77.8 77.5h-15v-6h15c2.2 0 4-1.8 4-4v-6.4c0-2.2-1.8-4-4-4h-15v-6h15c5.5 0 10 4.5 10 10v6.4c0 5.5-4.5 10-10 10z" style="fill: rgb(102, 102, 102);"></path></g></g></g></g></g><g class="ldl-layer"><g class="ldl-ani" style="transform-origin: 50px 50px; transform: scale(1.3); animation: 1.11111s linear -0.777778s infinite normal forwards running heartbeat-263f5837-a050-4396-bff8-0b6e11829dd0;"><path d="M61.5 88.4H28c-6.5 0-11.8-5.3-11.8-11.8V46.9c0-1.3 1-2.3 2.3-2.3h52.4c1.3 0 2.3 1 2.3 2.3v29.7c0 6.5-5.2 11.8-11.7 11.8z" style="fill: rgb(0, 0, 0);"></path></g></g><g class="ldl-layer"><g class="ldl-ani"><g><g class="ldl-layer"><g class="ldl-ani" style="transform-origin: 50px 50px; transform: scale(1.3); animation: 1.11111s linear -0.888889s infinite normal forwards running heartbeat-263f5837-a050-4396-bff8-0b6e11829dd0;"><path fill="#e15b64" d="M61 11.6c1.2.6 2.2 1.4 3.1 2.5.9 1 1.6 2.4 1.9 3.9.3 1.5.1 3.1-.4 4.5s-1.2 2.7-2 3.8c-1.3 1.8-2.2 3.5-2.5 5.4-.3 1.9.4 4.1 1.6 6.5a8.2 8.2 0 0 1-3.2-2.4c-.9-1.1-1.6-2.4-1.9-3.9-.3-1.5-.1-3.1.4-4.5s1.2-2.7 2-3.8c1.3-1.8 2.3-3.5 2.5-5.4.3-1.9-.5-4.2-1.5-6.6z" style="fill: rgb(225, 91, 100);"></path></g></g></g></g></g><g class="ldl-layer"><g class="ldl-ani"><g><g class="ldl-layer"><g class="ldl-ani" style="transform-origin: 50px 50px; transform: scale(1.3); animation: 1.11111s linear -1s infinite normal forwards running heartbeat-263f5837-a050-4396-bff8-0b6e11829dd0;"><path fill="#e15b64" d="M43.9 11.6c1.2.6 2.2 1.4 3.1 2.5.9 1 1.6 2.4 1.9 3.9.3 1.5.1 3.1-.4 4.5s-1.2 2.7-2 3.8c-1.3 1.8-2.2 3.5-2.5 5.4-.3 1.9.4 4.1 1.6 6.5a8.2 8.2 0 0 1-3.2-2.4c-.9-1.1-1.6-2.4-1.9-3.9-.3-1.5-.1-3.1.4-4.5s1.2-2.7 2-3.8c1.3-1.8 2.3-3.5 2.5-5.4.2-1.8-.6-4.1-1.5-6.6z" style="fill: rgb(225, 91, 100);"></path></g></g></g></g></g><g class="ldl-layer"><g class="ldl-ani"><g><g class="ldl-layer"><g class="ldl-ani" style="transform-origin: 50px 50px; transform: scale(1.3); animation: 1.11111s linear -1.11111s infinite normal forwards running heartbeat-263f5837-a050-4396-bff8-0b6e11829dd0;"><path fill="#e15b64" d="M26.7 11.7c1.2.6 2.2 1.4 3.1 2.5.9 1 1.6 2.4 1.9 3.9.3 1.5.1 3.1-.4 4.5s-1.2 2.7-2 3.8c-1.3 1.8-2.2 3.5-2.5 5.4-.3 1.9.4 4.1 1.6 6.5a8.2 8.2 0 0 1-3.2-2.4c-.9-1.1-1.6-2.4-1.9-3.9-.3-1.5-.1-3.1.4-4.5s1.2-2.7 2-3.8c1.3-1.8 2.3-3.5 2.5-5.4.2-1.9-.5-4.2-1.5-6.6z" style="fill: rgb(225, 91, 100);"></path></g></g></g></g></g><metadata xmlns:d="https://loading.io/stock/">
<d:name>coffee</d:name>
<d:tags>cafe,cappuccino,latte,macchiato,tea,hot,drink,coffee,web application</d:tags>
<d:license>by</d:license>
<d:slug>m77ylz</d:slug>
</metadata></g></g><style id="heartbeat-263f5837-a050-4396-bff8-0b6e11829dd0" data-anikit="">@keyframes heartbeat-263f5837-a050-4396-bff8-0b6e11829dd0
{
  0% {
    animation-timing-function: cubic-bezier(0.1678,0.6042,0.5465,3.0859);
    transform: scale(1.3);
  }
  30% {
    animation-timing-function: cubic-bezier(0.3206,0.3435,0.6825,0.6598);
    transform: scale(1.15);
  }
  31% {
    animation-timing-function: cubic-bezier(0.2811,0.5061,0.5347,0.909);
    transform: scale(1.1458);
  }
  100% {
    transform: scale(1);
  }
}</style><!-- [ldio] generated by https://loading.io/ --></svg>