<?xml version="1.0" encoding="utf-8"?>
<svg xml:space="preserve" viewBox="0 0 100 100" y="0" x="0" xmlns="http://www.w3.org/2000/svg" id="Layer_1" version="1.1" style="height: 100%; width: 100%; background: none; shape-rendering: auto;" width="47px" height="47px"><g class="ldl-scale" style="transform-origin: 50% 50%; transform: rotate(0deg) scale(0.8, 0.8);"><g class="ldl-ani"><g class="ldl-layer"><g class="ldl-ani"><g><g class="ldl-layer"><g class="ldl-ani" style="transform-origin: 50px 50px; transform: rotate(0deg); animation: 1.11111s linear -0.833333s infinite normal forwards running spin-c47381a3-aaa3-47cf-8ee7-ff4dd8a01ef9;"><path fill="#d65a62" d="M50 92.5C26.6 92.5 7.5 73.4 7.5 50S26.6 7.5 50 7.5 92.5 26.6 92.5 50 73.4 92.5 50 92.5zm0-71.8c-16.1 0-29.3 13.1-29.3 29.3S33.9 79.3 50 79.3 79.3 66.1 79.3 50 66.1 20.7 50 20.7z" style="fill: rgb(20, 166, 81);"></path></g></g></g></g></g><g class="ldl-layer"><g class="ldl-ani"><g><g class="ldl-layer"><g class="ldl-ani" style="transform-origin: 50px 50px; transform: rotate(0deg); animation: 1.11111s linear -1.11111s infinite normal forwards running spin-c47381a3-aaa3-47cf-8ee7-ff4dd8a01ef9;"><path fill="#f0af6b" d="M21.3 78.7C13.6 71 9.4 60.8 9.4 50 9.4 27.6 27.6 9.4 50 9.4v9.4c-17.2 0-31.2 14-31.2 31.2 0 8.3 3.2 16.2 9.1 22l-6.6 6.7z" style="fill: rgb(33, 93, 56);"></path></g></g></g></g></g><metadata xmlns:d="https://loading.io/stock/">
<d:name>ring</d:name>
<d:tags>loader,circle,curve,rotate,wheel,spin,ring,spinner</d:tags>
<d:license>by</d:license>
<d:slug>5he8n6</d:slug>
</metadata></g></g><style id="spin-c47381a3-aaa3-47cf-8ee7-ff4dd8a01ef9" data-anikit="">@keyframes spin-c47381a3-aaa3-47cf-8ee7-ff4dd8a01ef9
{
  0% {
    animation-timing-function: cubic-bezier(0.5856,0.0703,0.4143,0.9297);
    transform: rotate(0deg);
  }
  100% {
    transform: rotate(360deg);
  }
}</style><!-- [ldio] generated by https://loading.io/ --></svg>